%TF.GenerationSoftware,KiCad,Pcbnew,10.0.5*%
%TF.CreationDate,2026-08-07T13:29:25+02:00*%
%TF.ProjectId,Honeywell_HSC_SMT,486f6e65-7977-4656-9c6c-5f4853435f53,Mario Wilhelm*%
%TF.SameCoordinates,Original*%
%TF.FileFunction,Legend,Bot*%
%TF.FilePolarity,Positive*%
%FSLAX46Y46*%
G04 Gerber Fmt 4.6, Leading zero omitted, Abs format (unit mm)*
G04 Created by KiCad (PCBNEW 10.0.5) date 2026-08-07 13:29:25*
%MOMM*%
%LPD*%
G01*
G04 APERTURE LIST*
%ADD10C,0.100000*%
%ADD11C,0.250000*%
%ADD12C,0.000000*%
G04 APERTURE END LIST*
D10*
X19020038Y-30627693D02*
X18972419Y-30532455D01*
X18972419Y-30532455D02*
X18972419Y-30389598D01*
X18972419Y-30389598D02*
X19020038Y-30246741D01*
X19020038Y-30246741D02*
X19115276Y-30151503D01*
X19115276Y-30151503D02*
X19210514Y-30103884D01*
X19210514Y-30103884D02*
X19400990Y-30056265D01*
X19400990Y-30056265D02*
X19543847Y-30056265D01*
X19543847Y-30056265D02*
X19734323Y-30103884D01*
X19734323Y-30103884D02*
X19829561Y-30151503D01*
X19829561Y-30151503D02*
X19924800Y-30246741D01*
X19924800Y-30246741D02*
X19972419Y-30389598D01*
X19972419Y-30389598D02*
X19972419Y-30484836D01*
X19972419Y-30484836D02*
X19924800Y-30627693D01*
X19924800Y-30627693D02*
X19877180Y-30675312D01*
X19877180Y-30675312D02*
X19543847Y-30675312D01*
X19543847Y-30675312D02*
X19543847Y-30484836D01*
X19972419Y-31103884D02*
X18972419Y-31103884D01*
X18972419Y-31103884D02*
X19972419Y-31675312D01*
X19972419Y-31675312D02*
X18972419Y-31675312D01*
X19972419Y-32151503D02*
X18972419Y-32151503D01*
X18972419Y-32151503D02*
X18972419Y-32389598D01*
X18972419Y-32389598D02*
X19020038Y-32532455D01*
X19020038Y-32532455D02*
X19115276Y-32627693D01*
X19115276Y-32627693D02*
X19210514Y-32675312D01*
X19210514Y-32675312D02*
X19400990Y-32722931D01*
X19400990Y-32722931D02*
X19543847Y-32722931D01*
X19543847Y-32722931D02*
X19734323Y-32675312D01*
X19734323Y-32675312D02*
X19829561Y-32627693D01*
X19829561Y-32627693D02*
X19924800Y-32532455D01*
X19924800Y-32532455D02*
X19972419Y-32389598D01*
X19972419Y-32389598D02*
X19972419Y-32151503D01*
X20722419Y-30061027D02*
X21722419Y-30394360D01*
X21722419Y-30394360D02*
X20722419Y-30727693D01*
X21722419Y-31061027D02*
X20722419Y-31061027D01*
X20722419Y-31061027D02*
X20722419Y-31299122D01*
X20722419Y-31299122D02*
X20770038Y-31441979D01*
X20770038Y-31441979D02*
X20865276Y-31537217D01*
X20865276Y-31537217D02*
X20960514Y-31584836D01*
X20960514Y-31584836D02*
X21150990Y-31632455D01*
X21150990Y-31632455D02*
X21293847Y-31632455D01*
X21293847Y-31632455D02*
X21484323Y-31584836D01*
X21484323Y-31584836D02*
X21579561Y-31537217D01*
X21579561Y-31537217D02*
X21674800Y-31441979D01*
X21674800Y-31441979D02*
X21722419Y-31299122D01*
X21722419Y-31299122D02*
X21722419Y-31061027D01*
X21722419Y-32061027D02*
X20722419Y-32061027D01*
X20722419Y-32061027D02*
X20722419Y-32299122D01*
X20722419Y-32299122D02*
X20770038Y-32441979D01*
X20770038Y-32441979D02*
X20865276Y-32537217D01*
X20865276Y-32537217D02*
X20960514Y-32584836D01*
X20960514Y-32584836D02*
X21150990Y-32632455D01*
X21150990Y-32632455D02*
X21293847Y-32632455D01*
X21293847Y-32632455D02*
X21484323Y-32584836D01*
X21484323Y-32584836D02*
X21579561Y-32537217D01*
X21579561Y-32537217D02*
X21674800Y-32441979D01*
X21674800Y-32441979D02*
X21722419Y-32299122D01*
X21722419Y-32299122D02*
X21722419Y-32061027D01*
X23374800Y-30056265D02*
X23422419Y-30199122D01*
X23422419Y-30199122D02*
X23422419Y-30437217D01*
X23422419Y-30437217D02*
X23374800Y-30532455D01*
X23374800Y-30532455D02*
X23327180Y-30580074D01*
X23327180Y-30580074D02*
X23231942Y-30627693D01*
X23231942Y-30627693D02*
X23136704Y-30627693D01*
X23136704Y-30627693D02*
X23041466Y-30580074D01*
X23041466Y-30580074D02*
X22993847Y-30532455D01*
X22993847Y-30532455D02*
X22946228Y-30437217D01*
X22946228Y-30437217D02*
X22898609Y-30246741D01*
X22898609Y-30246741D02*
X22850990Y-30151503D01*
X22850990Y-30151503D02*
X22803371Y-30103884D01*
X22803371Y-30103884D02*
X22708133Y-30056265D01*
X22708133Y-30056265D02*
X22612895Y-30056265D01*
X22612895Y-30056265D02*
X22517657Y-30103884D01*
X22517657Y-30103884D02*
X22470038Y-30151503D01*
X22470038Y-30151503D02*
X22422419Y-30246741D01*
X22422419Y-30246741D02*
X22422419Y-30484836D01*
X22422419Y-30484836D02*
X22470038Y-30627693D01*
X23422419Y-31056265D02*
X22422419Y-31056265D01*
X22422419Y-31056265D02*
X22422419Y-31294360D01*
X22422419Y-31294360D02*
X22470038Y-31437217D01*
X22470038Y-31437217D02*
X22565276Y-31532455D01*
X22565276Y-31532455D02*
X22660514Y-31580074D01*
X22660514Y-31580074D02*
X22850990Y-31627693D01*
X22850990Y-31627693D02*
X22993847Y-31627693D01*
X22993847Y-31627693D02*
X23184323Y-31580074D01*
X23184323Y-31580074D02*
X23279561Y-31532455D01*
X23279561Y-31532455D02*
X23374800Y-31437217D01*
X23374800Y-31437217D02*
X23422419Y-31294360D01*
X23422419Y-31294360D02*
X23422419Y-31056265D01*
X23136704Y-32008646D02*
X23136704Y-32484836D01*
X23422419Y-31913408D02*
X22422419Y-32246741D01*
X22422419Y-32246741D02*
X23422419Y-32580074D01*
X24974800Y-30056265D02*
X25022419Y-30199122D01*
X25022419Y-30199122D02*
X25022419Y-30437217D01*
X25022419Y-30437217D02*
X24974800Y-30532455D01*
X24974800Y-30532455D02*
X24927180Y-30580074D01*
X24927180Y-30580074D02*
X24831942Y-30627693D01*
X24831942Y-30627693D02*
X24736704Y-30627693D01*
X24736704Y-30627693D02*
X24641466Y-30580074D01*
X24641466Y-30580074D02*
X24593847Y-30532455D01*
X24593847Y-30532455D02*
X24546228Y-30437217D01*
X24546228Y-30437217D02*
X24498609Y-30246741D01*
X24498609Y-30246741D02*
X24450990Y-30151503D01*
X24450990Y-30151503D02*
X24403371Y-30103884D01*
X24403371Y-30103884D02*
X24308133Y-30056265D01*
X24308133Y-30056265D02*
X24212895Y-30056265D01*
X24212895Y-30056265D02*
X24117657Y-30103884D01*
X24117657Y-30103884D02*
X24070038Y-30151503D01*
X24070038Y-30151503D02*
X24022419Y-30246741D01*
X24022419Y-30246741D02*
X24022419Y-30484836D01*
X24022419Y-30484836D02*
X24070038Y-30627693D01*
X24927180Y-31627693D02*
X24974800Y-31580074D01*
X24974800Y-31580074D02*
X25022419Y-31437217D01*
X25022419Y-31437217D02*
X25022419Y-31341979D01*
X25022419Y-31341979D02*
X24974800Y-31199122D01*
X24974800Y-31199122D02*
X24879561Y-31103884D01*
X24879561Y-31103884D02*
X24784323Y-31056265D01*
X24784323Y-31056265D02*
X24593847Y-31008646D01*
X24593847Y-31008646D02*
X24450990Y-31008646D01*
X24450990Y-31008646D02*
X24260514Y-31056265D01*
X24260514Y-31056265D02*
X24165276Y-31103884D01*
X24165276Y-31103884D02*
X24070038Y-31199122D01*
X24070038Y-31199122D02*
X24022419Y-31341979D01*
X24022419Y-31341979D02*
X24022419Y-31437217D01*
X24022419Y-31437217D02*
X24070038Y-31580074D01*
X24070038Y-31580074D02*
X24117657Y-31627693D01*
X25022419Y-32532455D02*
X25022419Y-32056265D01*
X25022419Y-32056265D02*
X24022419Y-32056265D01*
D11*
G36*
X23840714Y-20585142D02*
G01*
X23700286Y-20585142D01*
X23576093Y-20543745D01*
X23497017Y-20464669D01*
X23455083Y-20380800D01*
X23405000Y-20180467D01*
X23405000Y-20039817D01*
X23455083Y-19839484D01*
X23497017Y-19755615D01*
X23576095Y-19676537D01*
X23700283Y-19635142D01*
X23840714Y-19635142D01*
X23840714Y-20585142D01*
G37*
G36*
X25040714Y-20585142D02*
G01*
X24900286Y-20585142D01*
X24776093Y-20543745D01*
X24697017Y-20464669D01*
X24655083Y-20380800D01*
X24605000Y-20180467D01*
X24605000Y-20039817D01*
X24655083Y-19839484D01*
X24697017Y-19755615D01*
X24776095Y-19676537D01*
X24900283Y-19635142D01*
X25040714Y-19635142D01*
X25040714Y-20585142D01*
G37*
G36*
X21954999Y-18112606D02*
G01*
X21954999Y-18643813D01*
X21936205Y-18653210D01*
X21766651Y-18653210D01*
X21696899Y-18618335D01*
X21668446Y-18589880D01*
X21633571Y-18520130D01*
X21633571Y-18236290D01*
X21668446Y-18166540D01*
X21696901Y-18138084D01*
X21766650Y-18103210D01*
X21936206Y-18103210D01*
X21954999Y-18112606D01*
G37*
G36*
X16120240Y-16206152D02*
G01*
X16148696Y-16234609D01*
X16183571Y-16304358D01*
X16183571Y-16588199D01*
X16148696Y-16657947D01*
X16120240Y-16686403D01*
X16050491Y-16721278D01*
X15938080Y-16721278D01*
X15868328Y-16686403D01*
X15839875Y-16657948D01*
X15805000Y-16588198D01*
X15805000Y-16304358D01*
X15839875Y-16234608D01*
X15868330Y-16206152D01*
X15938079Y-16171278D01*
X16050492Y-16171278D01*
X16120240Y-16206152D01*
G37*
G36*
X19243972Y-16196590D02*
G01*
X19269285Y-16247215D01*
X19269285Y-16293802D01*
X18955901Y-16231126D01*
X18973169Y-16196589D01*
X19023793Y-16171278D01*
X19193349Y-16171278D01*
X19243972Y-16196590D01*
G37*
G36*
X22329686Y-16196590D02*
G01*
X22354999Y-16247215D01*
X22354999Y-16293802D01*
X22041615Y-16231126D01*
X22058883Y-16196589D01*
X22109507Y-16171278D01*
X22279063Y-16171278D01*
X22329686Y-16196590D01*
G37*
G36*
X27129686Y-16196590D02*
G01*
X27154999Y-16247215D01*
X27154999Y-16293802D01*
X26841615Y-16231126D01*
X26858883Y-16196589D01*
X26909507Y-16171278D01*
X27079063Y-16171278D01*
X27129686Y-16196590D01*
G37*
G36*
X29040713Y-16149850D02*
G01*
X28738078Y-16149850D01*
X28668330Y-16114975D01*
X28639874Y-16086520D01*
X28604999Y-16016769D01*
X28604999Y-15904358D01*
X28639874Y-15834607D01*
X28668330Y-15806152D01*
X28738078Y-15771278D01*
X29040713Y-15771278D01*
X29040713Y-16149850D01*
G37*
G36*
X21786829Y-14264658D02*
G01*
X21812142Y-14315283D01*
X21812142Y-14361870D01*
X21498758Y-14299194D01*
X21516026Y-14264657D01*
X21566650Y-14239346D01*
X21736206Y-14239346D01*
X21786829Y-14264658D01*
G37*
G36*
X24986829Y-14264658D02*
G01*
X25012142Y-14315283D01*
X25012142Y-14361870D01*
X24698758Y-14299194D01*
X24716026Y-14264657D01*
X24766650Y-14239346D01*
X24936206Y-14239346D01*
X24986829Y-14264658D01*
G37*
G36*
X27120239Y-14274220D02*
G01*
X27148695Y-14302677D01*
X27183570Y-14372426D01*
X27183570Y-14656267D01*
X27148695Y-14726015D01*
X27120239Y-14754471D01*
X27050490Y-14789346D01*
X26938079Y-14789346D01*
X26868327Y-14754471D01*
X26839874Y-14726016D01*
X26804999Y-14656266D01*
X26804999Y-14372426D01*
X26839874Y-14302676D01*
X26868329Y-14274220D01*
X26938078Y-14239346D01*
X27050491Y-14239346D01*
X27120239Y-14274220D01*
G37*
G36*
X29424046Y-20968475D02*
G01*
X14566926Y-20968475D01*
X14566926Y-19525776D01*
X17670267Y-19525776D01*
X17675700Y-19549670D01*
X18075700Y-20749670D01*
X18085690Y-20772045D01*
X18091540Y-20778791D01*
X18095536Y-20786782D01*
X18107376Y-20797050D01*
X18117645Y-20808891D01*
X18125635Y-20812886D01*
X18132382Y-20818737D01*
X18147249Y-20823692D01*
X18161270Y-20830703D01*
X18170179Y-20831336D01*
X18178651Y-20834160D01*
X18194285Y-20833049D01*
X18209919Y-20834160D01*
X18218390Y-20831336D01*
X18227300Y-20830703D01*
X18241320Y-20823692D01*
X18256188Y-20818737D01*
X18262934Y-20812886D01*
X18270925Y-20808891D01*
X18281193Y-20797050D01*
X18293034Y-20786782D01*
X18297029Y-20778791D01*
X18302880Y-20772045D01*
X18312870Y-20749670D01*
X18497474Y-20195857D01*
X18812142Y-20195857D01*
X18812142Y-20481571D01*
X18814544Y-20505957D01*
X18816262Y-20510105D01*
X18816581Y-20514587D01*
X18825339Y-20537473D01*
X18882482Y-20651759D01*
X18889089Y-20662255D01*
X18890352Y-20665303D01*
X18893168Y-20668734D01*
X18895536Y-20672496D01*
X18898030Y-20674659D01*
X18905897Y-20684245D01*
X18963039Y-20741388D01*
X18972624Y-20749254D01*
X18974789Y-20751750D01*
X18978550Y-20754117D01*
X18981981Y-20756933D01*
X18985027Y-20758195D01*
X18995527Y-20764804D01*
X19109811Y-20821945D01*
X19132697Y-20830703D01*
X19137177Y-20831021D01*
X19141327Y-20832740D01*
X19165713Y-20835142D01*
X19508570Y-20835142D01*
X19532956Y-20832740D01*
X19537105Y-20831021D01*
X19541585Y-20830703D01*
X19564471Y-20821946D01*
X19678757Y-20764804D01*
X19689256Y-20758194D01*
X19692302Y-20756933D01*
X19695731Y-20754118D01*
X19699494Y-20751750D01*
X19701658Y-20749254D01*
X19711244Y-20741388D01*
X19768387Y-20684246D01*
X19783932Y-20665304D01*
X19799130Y-20628614D01*
X19957401Y-20628614D01*
X19957401Y-20677388D01*
X19976066Y-20722447D01*
X19991611Y-20741389D01*
X20048755Y-20798531D01*
X20067691Y-20814071D01*
X20067696Y-20814076D01*
X20078949Y-20818737D01*
X20112754Y-20832740D01*
X20112755Y-20832740D01*
X20112757Y-20832741D01*
X20161530Y-20832740D01*
X20195335Y-20818737D01*
X20206588Y-20814076D01*
X20206592Y-20814071D01*
X20225530Y-20798531D01*
X20282673Y-20741389D01*
X20298218Y-20722447D01*
X20316883Y-20677388D01*
X20316884Y-20628614D01*
X20298219Y-20583554D01*
X20298218Y-20583553D01*
X20282673Y-20564611D01*
X20225530Y-20507469D01*
X20206593Y-20491928D01*
X20206588Y-20491923D01*
X20172542Y-20477821D01*
X20161529Y-20473259D01*
X20161528Y-20473259D01*
X20112755Y-20473259D01*
X20101742Y-20477821D01*
X20067696Y-20491923D01*
X20067695Y-20491924D01*
X20048753Y-20507469D01*
X19991611Y-20564612D01*
X19976066Y-20583553D01*
X19976065Y-20583555D01*
X19966682Y-20606208D01*
X19960976Y-20619984D01*
X19957401Y-20628614D01*
X19799130Y-20628614D01*
X19802597Y-20620244D01*
X19802597Y-20571471D01*
X19783932Y-20526411D01*
X19749445Y-20491924D01*
X19704385Y-20473259D01*
X19655612Y-20473259D01*
X19610552Y-20491924D01*
X19591610Y-20507469D01*
X19548812Y-20550266D01*
X19479061Y-20585142D01*
X19195222Y-20585142D01*
X19125472Y-20550267D01*
X19097017Y-20521813D01*
X19062142Y-20452062D01*
X19062142Y-20225365D01*
X19076896Y-20195857D01*
X20526428Y-20195857D01*
X20526428Y-20481571D01*
X20528830Y-20505957D01*
X20530548Y-20510105D01*
X20530867Y-20514587D01*
X20539625Y-20537473D01*
X20596768Y-20651759D01*
X20603375Y-20662255D01*
X20604638Y-20665303D01*
X20607454Y-20668734D01*
X20609822Y-20672496D01*
X20612316Y-20674659D01*
X20620183Y-20684245D01*
X20677325Y-20741388D01*
X20686910Y-20749254D01*
X20689075Y-20751750D01*
X20692836Y-20754117D01*
X20696267Y-20756933D01*
X20699313Y-20758195D01*
X20709813Y-20764804D01*
X20824097Y-20821945D01*
X20846983Y-20830703D01*
X20851463Y-20831021D01*
X20855613Y-20832740D01*
X20879999Y-20835142D01*
X21222856Y-20835142D01*
X21247242Y-20832740D01*
X21251391Y-20831021D01*
X21255871Y-20830703D01*
X21278757Y-20821946D01*
X21393043Y-20764804D01*
X21403542Y-20758194D01*
X21406588Y-20756933D01*
X21410017Y-20754118D01*
X21413780Y-20751750D01*
X21415944Y-20749254D01*
X21425530Y-20741388D01*
X21482673Y-20684246D01*
X21498218Y-20665304D01*
X21513416Y-20628614D01*
X22585973Y-20628614D01*
X22585973Y-20677388D01*
X22604638Y-20722447D01*
X22620183Y-20741389D01*
X22677327Y-20798531D01*
X22696263Y-20814071D01*
X22696268Y-20814076D01*
X22707521Y-20818737D01*
X22741326Y-20832740D01*
X22741327Y-20832740D01*
X22741329Y-20832741D01*
X22790102Y-20832740D01*
X22823907Y-20818737D01*
X22835160Y-20814076D01*
X22835164Y-20814071D01*
X22854102Y-20798531D01*
X22911245Y-20741389D01*
X22926790Y-20722447D01*
X22945455Y-20677388D01*
X22945456Y-20628614D01*
X22926791Y-20583554D01*
X22926790Y-20583553D01*
X22911245Y-20564611D01*
X22854102Y-20507469D01*
X22835165Y-20491928D01*
X22835160Y-20491923D01*
X22801114Y-20477821D01*
X22790101Y-20473259D01*
X22790100Y-20473259D01*
X22741327Y-20473259D01*
X22730314Y-20477821D01*
X22696268Y-20491923D01*
X22696267Y-20491924D01*
X22677325Y-20507469D01*
X22620183Y-20564612D01*
X22604638Y-20583553D01*
X22604637Y-20583555D01*
X22595254Y-20606208D01*
X22589548Y-20619984D01*
X22585973Y-20628614D01*
X21513416Y-20628614D01*
X21516883Y-20620244D01*
X21516883Y-20571471D01*
X21498218Y-20526411D01*
X21463731Y-20491924D01*
X21418671Y-20473259D01*
X21369898Y-20473259D01*
X21324838Y-20491924D01*
X21305896Y-20507469D01*
X21263098Y-20550266D01*
X21193347Y-20585142D01*
X20909508Y-20585142D01*
X20839758Y-20550267D01*
X20811303Y-20521813D01*
X20776428Y-20452062D01*
X20776428Y-20225365D01*
X20811303Y-20155614D01*
X20839759Y-20127159D01*
X20909507Y-20092285D01*
X21051428Y-20092285D01*
X21064321Y-20091014D01*
X21067606Y-20091234D01*
X21069869Y-20090468D01*
X21075814Y-20089883D01*
X21094568Y-20082114D01*
X21113807Y-20075608D01*
X21116979Y-20072832D01*
X21120874Y-20071219D01*
X21135231Y-20056861D01*
X21150512Y-20043491D01*
X21152380Y-20039712D01*
X21155362Y-20036731D01*
X21163132Y-20017971D01*
X21171999Y-20000041D01*
X22585973Y-20000041D01*
X22585973Y-20048815D01*
X22604638Y-20093874D01*
X22620183Y-20112816D01*
X22677325Y-20169959D01*
X22696267Y-20185504D01*
X22696268Y-20185505D01*
X22721261Y-20195857D01*
X22741327Y-20204169D01*
X22741328Y-20204169D01*
X22790100Y-20204169D01*
X22790101Y-20204169D01*
X22810167Y-20195857D01*
X22835160Y-20185505D01*
X22835165Y-20185499D01*
X22854102Y-20169959D01*
X22911245Y-20112817D01*
X22926790Y-20093875D01*
X22945455Y-20048815D01*
X22945455Y-20024428D01*
X23155000Y-20024428D01*
X23155000Y-20195857D01*
X23155419Y-20200111D01*
X23155148Y-20201934D01*
X23156497Y-20211063D01*
X23157402Y-20220243D01*
X23158106Y-20221944D01*
X23158732Y-20226174D01*
X23215875Y-20454745D01*
X23216518Y-20456544D01*
X23216582Y-20457444D01*
X23220461Y-20467583D01*
X23224120Y-20477821D01*
X23224657Y-20478546D01*
X23225340Y-20480330D01*
X23282483Y-20594616D01*
X23289088Y-20605108D01*
X23290352Y-20608160D01*
X23293172Y-20611596D01*
X23295537Y-20615353D01*
X23298028Y-20617513D01*
X23305897Y-20627102D01*
X23420182Y-20741388D01*
X23439124Y-20756933D01*
X23443275Y-20758652D01*
X23446668Y-20761595D01*
X23469043Y-20771586D01*
X23640472Y-20828728D01*
X23652564Y-20831477D01*
X23655614Y-20832740D01*
X23660036Y-20833175D01*
X23664367Y-20834160D01*
X23667656Y-20833926D01*
X23680000Y-20835142D01*
X23965714Y-20835142D01*
X23990100Y-20832740D01*
X24035160Y-20814076D01*
X24069648Y-20779588D01*
X24088312Y-20734528D01*
X24090714Y-20710142D01*
X24090714Y-20024428D01*
X24355000Y-20024428D01*
X24355000Y-20195857D01*
X24355419Y-20200111D01*
X24355148Y-20201934D01*
X24356497Y-20211063D01*
X24357402Y-20220243D01*
X24358106Y-20221944D01*
X24358732Y-20226174D01*
X24415875Y-20454745D01*
X24416518Y-20456544D01*
X24416582Y-20457444D01*
X24420461Y-20467583D01*
X24424120Y-20477821D01*
X24424657Y-20478546D01*
X24425340Y-20480330D01*
X24482483Y-20594616D01*
X24489088Y-20605108D01*
X24490352Y-20608160D01*
X24493172Y-20611596D01*
X24495537Y-20615353D01*
X24498028Y-20617513D01*
X24505897Y-20627102D01*
X24620182Y-20741388D01*
X24639124Y-20756933D01*
X24643275Y-20758652D01*
X24646668Y-20761595D01*
X24669043Y-20771586D01*
X24840472Y-20828728D01*
X24852564Y-20831477D01*
X24855614Y-20832740D01*
X24860036Y-20833175D01*
X24864367Y-20834160D01*
X24867656Y-20833926D01*
X24880000Y-20835142D01*
X25165714Y-20835142D01*
X25190100Y-20832740D01*
X25235160Y-20814076D01*
X25269648Y-20779588D01*
X25288312Y-20734528D01*
X25290714Y-20710142D01*
X25290714Y-19525776D01*
X25441696Y-19525776D01*
X25447129Y-19549670D01*
X25847129Y-20749670D01*
X25857119Y-20772045D01*
X25862969Y-20778791D01*
X25866965Y-20786782D01*
X25878805Y-20797050D01*
X25889074Y-20808891D01*
X25897064Y-20812886D01*
X25903811Y-20818737D01*
X25918678Y-20823692D01*
X25932699Y-20830703D01*
X25941608Y-20831336D01*
X25950080Y-20834160D01*
X25965714Y-20833049D01*
X25981348Y-20834160D01*
X25989819Y-20831336D01*
X25998729Y-20830703D01*
X26012749Y-20823692D01*
X26027617Y-20818737D01*
X26034363Y-20812886D01*
X26042354Y-20808891D01*
X26052622Y-20797050D01*
X26064463Y-20786782D01*
X26068458Y-20778791D01*
X26074309Y-20772045D01*
X26084299Y-20749670D01*
X26484299Y-19549671D01*
X26489732Y-19525776D01*
X26486275Y-19477127D01*
X26464463Y-19433502D01*
X26427617Y-19401547D01*
X26381348Y-19386124D01*
X26332699Y-19389581D01*
X26289074Y-19411393D01*
X26257119Y-19448239D01*
X26247129Y-19470614D01*
X25965714Y-20314858D01*
X25684299Y-19470614D01*
X25674309Y-19448239D01*
X25642354Y-19411393D01*
X25598729Y-19389581D01*
X25550080Y-19386124D01*
X25503811Y-19401547D01*
X25466965Y-19433502D01*
X25445153Y-19477127D01*
X25441696Y-19525776D01*
X25290714Y-19525776D01*
X25290714Y-19510142D01*
X25288312Y-19485756D01*
X25269648Y-19440696D01*
X25235160Y-19406208D01*
X25190100Y-19387544D01*
X25165714Y-19385142D01*
X24880000Y-19385142D01*
X24867656Y-19386357D01*
X24864366Y-19386124D01*
X24860036Y-19387108D01*
X24855614Y-19387544D01*
X24852563Y-19388807D01*
X24840471Y-19391557D01*
X24669043Y-19448700D01*
X24646668Y-19458690D01*
X24643275Y-19461632D01*
X24639124Y-19463352D01*
X24620182Y-19478897D01*
X24505897Y-19593183D01*
X24498028Y-19602771D01*
X24495537Y-19604932D01*
X24493172Y-19608688D01*
X24490352Y-19612125D01*
X24489088Y-19615176D01*
X24482483Y-19625669D01*
X24425340Y-19739955D01*
X24424657Y-19741738D01*
X24424120Y-19742464D01*
X24420461Y-19752701D01*
X24416582Y-19762841D01*
X24416518Y-19763740D01*
X24415875Y-19765540D01*
X24358732Y-19994111D01*
X24358106Y-19998340D01*
X24357402Y-20000042D01*
X24356497Y-20009221D01*
X24355148Y-20018351D01*
X24355419Y-20020173D01*
X24355000Y-20024428D01*
X24090714Y-20024428D01*
X24090714Y-19510142D01*
X24088312Y-19485756D01*
X24069648Y-19440696D01*
X24035160Y-19406208D01*
X23990100Y-19387544D01*
X23965714Y-19385142D01*
X23680000Y-19385142D01*
X23667656Y-19386357D01*
X23664366Y-19386124D01*
X23660036Y-19387108D01*
X23655614Y-19387544D01*
X23652563Y-19388807D01*
X23640471Y-19391557D01*
X23469043Y-19448700D01*
X23446668Y-19458690D01*
X23443275Y-19461632D01*
X23439124Y-19463352D01*
X23420182Y-19478897D01*
X23305897Y-19593183D01*
X23298028Y-19602771D01*
X23295537Y-19604932D01*
X23293172Y-19608688D01*
X23290352Y-19612125D01*
X23289088Y-19615176D01*
X23282483Y-19625669D01*
X23225340Y-19739955D01*
X23224657Y-19741738D01*
X23224120Y-19742464D01*
X23220461Y-19752701D01*
X23216582Y-19762841D01*
X23216518Y-19763740D01*
X23215875Y-19765540D01*
X23158732Y-19994111D01*
X23158106Y-19998340D01*
X23157402Y-20000042D01*
X23156497Y-20009221D01*
X23155148Y-20018351D01*
X23155419Y-20020173D01*
X23155000Y-20024428D01*
X22945455Y-20024428D01*
X22945455Y-20000042D01*
X22942999Y-19994111D01*
X22926790Y-19954981D01*
X22911245Y-19936039D01*
X22854102Y-19878897D01*
X22835165Y-19863356D01*
X22835160Y-19863351D01*
X22803298Y-19850153D01*
X22790101Y-19844687D01*
X22790100Y-19844687D01*
X22741327Y-19844687D01*
X22724254Y-19851759D01*
X22696268Y-19863351D01*
X22696267Y-19863352D01*
X22677325Y-19878897D01*
X22620183Y-19936040D01*
X22604639Y-19954981D01*
X22604638Y-19954982D01*
X22585973Y-20000041D01*
X21171999Y-20000041D01*
X21172132Y-19999773D01*
X21172412Y-19995566D01*
X21174026Y-19991671D01*
X21174026Y-19971368D01*
X21175377Y-19951107D01*
X21174026Y-19947112D01*
X21174026Y-19942899D01*
X21166257Y-19924144D01*
X21159751Y-19904906D01*
X21156275Y-19900044D01*
X21155362Y-19897839D01*
X21153035Y-19895512D01*
X21145500Y-19884972D01*
X20926899Y-19635142D01*
X21394285Y-19635142D01*
X21418671Y-19632740D01*
X21463731Y-19614076D01*
X21498219Y-19579588D01*
X21516883Y-19534528D01*
X21516883Y-19485756D01*
X21498219Y-19440696D01*
X21463731Y-19406208D01*
X21418671Y-19387544D01*
X21394285Y-19385142D01*
X20651428Y-19385142D01*
X20638534Y-19386412D01*
X20635250Y-19386193D01*
X20632986Y-19386958D01*
X20627042Y-19387544D01*
X20608287Y-19395312D01*
X20589049Y-19401819D01*
X20585876Y-19404594D01*
X20581982Y-19406208D01*
X20567624Y-19420565D01*
X20552344Y-19433936D01*
X20550475Y-19437714D01*
X20547494Y-19440696D01*
X20539723Y-19459455D01*
X20530724Y-19477654D01*
X20530443Y-19481860D01*
X20528830Y-19485756D01*
X20528830Y-19506058D01*
X20527479Y-19526320D01*
X20528830Y-19530314D01*
X20528830Y-19534528D01*
X20536598Y-19553282D01*
X20543105Y-19572521D01*
X20546580Y-19577382D01*
X20547494Y-19579588D01*
X20549820Y-19581914D01*
X20557356Y-19592455D01*
X20798641Y-19868209D01*
X20709812Y-19912625D01*
X20699317Y-19919231D01*
X20696267Y-19920495D01*
X20692832Y-19923313D01*
X20689075Y-19925679D01*
X20686913Y-19928170D01*
X20677325Y-19936040D01*
X20620183Y-19993183D01*
X20612316Y-20002768D01*
X20609822Y-20004932D01*
X20607454Y-20008693D01*
X20604638Y-20012125D01*
X20603375Y-20015172D01*
X20596768Y-20025669D01*
X20539625Y-20139955D01*
X20530867Y-20162841D01*
X20530548Y-20167322D01*
X20528830Y-20171471D01*
X20526428Y-20195857D01*
X19076896Y-20195857D01*
X19097017Y-20155614D01*
X19125473Y-20127159D01*
X19195221Y-20092285D01*
X19337142Y-20092285D01*
X19350035Y-20091014D01*
X19353320Y-20091234D01*
X19355583Y-20090468D01*
X19361528Y-20089883D01*
X19380282Y-20082114D01*
X19399521Y-20075608D01*
X19402693Y-20072832D01*
X19406588Y-20071219D01*
X19420945Y-20056861D01*
X19436226Y-20043491D01*
X19438094Y-20039712D01*
X19441076Y-20036731D01*
X19448846Y-20017971D01*
X19457846Y-19999773D01*
X19458126Y-19995566D01*
X19459740Y-19991671D01*
X19459740Y-19971368D01*
X19461091Y-19951107D01*
X19459740Y-19947112D01*
X19459740Y-19942899D01*
X19451971Y-19924144D01*
X19445465Y-19904906D01*
X19441989Y-19900044D01*
X19441076Y-19897839D01*
X19438749Y-19895512D01*
X19431214Y-19884972D01*
X19212613Y-19635142D01*
X19679999Y-19635142D01*
X19704385Y-19632740D01*
X19749445Y-19614076D01*
X19783933Y-19579588D01*
X19802597Y-19534528D01*
X19802597Y-19485756D01*
X19783933Y-19440696D01*
X19749445Y-19406208D01*
X19704385Y-19387544D01*
X19679999Y-19385142D01*
X18937142Y-19385142D01*
X18924248Y-19386412D01*
X18920964Y-19386193D01*
X18918700Y-19386958D01*
X18912756Y-19387544D01*
X18894001Y-19395312D01*
X18874763Y-19401819D01*
X18871590Y-19404594D01*
X18867696Y-19406208D01*
X18853338Y-19420565D01*
X18838058Y-19433936D01*
X18836189Y-19437714D01*
X18833208Y-19440696D01*
X18825437Y-19459455D01*
X18816438Y-19477654D01*
X18816157Y-19481860D01*
X18814544Y-19485756D01*
X18814544Y-19506058D01*
X18813193Y-19526320D01*
X18814544Y-19530314D01*
X18814544Y-19534528D01*
X18822312Y-19553282D01*
X18828819Y-19572521D01*
X18832294Y-19577382D01*
X18833208Y-19579588D01*
X18835534Y-19581914D01*
X18843070Y-19592455D01*
X19084355Y-19868209D01*
X18995526Y-19912625D01*
X18985031Y-19919231D01*
X18981981Y-19920495D01*
X18978546Y-19923313D01*
X18974789Y-19925679D01*
X18972627Y-19928170D01*
X18963039Y-19936040D01*
X18905897Y-19993183D01*
X18898030Y-20002768D01*
X18895536Y-20004932D01*
X18893168Y-20008693D01*
X18890352Y-20012125D01*
X18889089Y-20015172D01*
X18882482Y-20025669D01*
X18825339Y-20139955D01*
X18816581Y-20162841D01*
X18816262Y-20167322D01*
X18814544Y-20171471D01*
X18812142Y-20195857D01*
X18497474Y-20195857D01*
X18712870Y-19549671D01*
X18718303Y-19525776D01*
X18714846Y-19477127D01*
X18693034Y-19433502D01*
X18656188Y-19401547D01*
X18609919Y-19386124D01*
X18561270Y-19389581D01*
X18517645Y-19411393D01*
X18485690Y-19448239D01*
X18475700Y-19470614D01*
X18194285Y-20314858D01*
X17912870Y-19470614D01*
X17902880Y-19448239D01*
X17870925Y-19411393D01*
X17827300Y-19389581D01*
X17778651Y-19386124D01*
X17732382Y-19401547D01*
X17695536Y-19433502D01*
X17673724Y-19477127D01*
X17670267Y-19525776D01*
X14566926Y-19525776D01*
X14566926Y-17978210D01*
X19897856Y-17978210D01*
X19897856Y-18778210D01*
X19900258Y-18802596D01*
X19918922Y-18847656D01*
X19953410Y-18882144D01*
X19998470Y-18900808D01*
X20047242Y-18900808D01*
X20092302Y-18882144D01*
X20126790Y-18847656D01*
X20145454Y-18802596D01*
X20147856Y-18778210D01*
X20147856Y-18549639D01*
X20412142Y-18549639D01*
X20412142Y-18606782D01*
X20414544Y-18631168D01*
X20416262Y-18635316D01*
X20416581Y-18639798D01*
X20425339Y-18662684D01*
X20482482Y-18776970D01*
X20485047Y-18781045D01*
X20485690Y-18782973D01*
X20487771Y-18785373D01*
X20495536Y-18797707D01*
X20507375Y-18807975D01*
X20517647Y-18819818D01*
X20529984Y-18827584D01*
X20532381Y-18829663D01*
X20534305Y-18830304D01*
X20538384Y-18832872D01*
X20652670Y-18890014D01*
X20675556Y-18898771D01*
X20680035Y-18899089D01*
X20684185Y-18900808D01*
X20708571Y-18903210D01*
X20937142Y-18903210D01*
X20961528Y-18900808D01*
X20965677Y-18899089D01*
X20970157Y-18898771D01*
X20993043Y-18890014D01*
X21107329Y-18832872D01*
X21128066Y-18819818D01*
X21160022Y-18782973D01*
X21175446Y-18736703D01*
X21171989Y-18688053D01*
X21150178Y-18644430D01*
X21113333Y-18612473D01*
X21067062Y-18597050D01*
X21018413Y-18600507D01*
X20995527Y-18609264D01*
X20907633Y-18653210D01*
X20738080Y-18653210D01*
X20687454Y-18627897D01*
X20662610Y-18578210D01*
X20687454Y-18528522D01*
X20738079Y-18503210D01*
X20880000Y-18503210D01*
X20904386Y-18500808D01*
X20908534Y-18499089D01*
X20913016Y-18498771D01*
X20935901Y-18490014D01*
X21050186Y-18432872D01*
X21054264Y-18430304D01*
X21056189Y-18429663D01*
X21058585Y-18427584D01*
X21070923Y-18419818D01*
X21081194Y-18407975D01*
X21093034Y-18397707D01*
X21100798Y-18385373D01*
X21102880Y-18382973D01*
X21103522Y-18381045D01*
X21106088Y-18376970D01*
X21163232Y-18262683D01*
X21171989Y-18239798D01*
X21172307Y-18235316D01*
X21174026Y-18231168D01*
X21176428Y-18206782D01*
X21383571Y-18206782D01*
X21383571Y-18549639D01*
X21385973Y-18574025D01*
X21387691Y-18578173D01*
X21388010Y-18582655D01*
X21396768Y-18605541D01*
X21453911Y-18719827D01*
X21460517Y-18730321D01*
X21461780Y-18733370D01*
X21464598Y-18736804D01*
X21466965Y-18740564D01*
X21469457Y-18742725D01*
X21477325Y-18752313D01*
X21534467Y-18809456D01*
X21544056Y-18817325D01*
X21546218Y-18819818D01*
X21549976Y-18822183D01*
X21553409Y-18825001D01*
X21556457Y-18826263D01*
X21566955Y-18832872D01*
X21681241Y-18890014D01*
X21704127Y-18898771D01*
X21708606Y-18899089D01*
X21712756Y-18900808D01*
X21737142Y-18903210D01*
X21954999Y-18903210D01*
X21954999Y-19178210D01*
X21957401Y-19202596D01*
X21976065Y-19247656D01*
X22010553Y-19282144D01*
X22055613Y-19300808D01*
X22104385Y-19300808D01*
X22149445Y-19282144D01*
X22183933Y-19247656D01*
X22202597Y-19202596D01*
X22204999Y-19178210D01*
X22204999Y-18753824D01*
X23385973Y-18753824D01*
X23385973Y-18802596D01*
X23404637Y-18847656D01*
X23439125Y-18882144D01*
X23484185Y-18900808D01*
X23508571Y-18903210D01*
X24194285Y-18903210D01*
X24218671Y-18900808D01*
X24263731Y-18882144D01*
X24298219Y-18847656D01*
X24316883Y-18802596D01*
X24316883Y-18753824D01*
X24298219Y-18708764D01*
X24263731Y-18674276D01*
X24218671Y-18655612D01*
X24194285Y-18653210D01*
X23976428Y-18653210D01*
X23976428Y-17937130D01*
X23991610Y-17952313D01*
X24001198Y-17960182D01*
X24003360Y-17962674D01*
X24007117Y-17965039D01*
X24010552Y-17967858D01*
X24013602Y-17969121D01*
X24024097Y-17975728D01*
X24138384Y-18032872D01*
X24161269Y-18041629D01*
X24209919Y-18045087D01*
X24256190Y-18029663D01*
X24293035Y-17997707D01*
X24314846Y-17954084D01*
X24318304Y-17905434D01*
X24302880Y-17859164D01*
X24270924Y-17822319D01*
X24250187Y-17809265D01*
X24154045Y-17761194D01*
X24062854Y-17670002D01*
X23955434Y-17508872D01*
X23955378Y-17508804D01*
X23955362Y-17508764D01*
X23955271Y-17508673D01*
X23939909Y-17489914D01*
X23929624Y-17483026D01*
X23920874Y-17474276D01*
X23909561Y-17469590D01*
X23899385Y-17462775D01*
X23887246Y-17460347D01*
X23875814Y-17455612D01*
X23863569Y-17455612D01*
X23851558Y-17453210D01*
X23839416Y-17455612D01*
X23827042Y-17455612D01*
X23815728Y-17460297D01*
X23803713Y-17462675D01*
X23793414Y-17469540D01*
X23781982Y-17474276D01*
X23773323Y-17482935D01*
X23763132Y-17489729D01*
X23756244Y-17500013D01*
X23747494Y-17508764D01*
X23742808Y-17520076D01*
X23735993Y-17530253D01*
X23733565Y-17542391D01*
X23728830Y-17553824D01*
X23726453Y-17577953D01*
X23726428Y-17578080D01*
X23726436Y-17578123D01*
X23726428Y-17578210D01*
X23726428Y-18653210D01*
X23508571Y-18653210D01*
X23484185Y-18655612D01*
X23439125Y-18674276D01*
X23404637Y-18708764D01*
X23385973Y-18753824D01*
X22204999Y-18753824D01*
X22204999Y-17978210D01*
X22202597Y-17953824D01*
X22183933Y-17908764D01*
X22149445Y-17874276D01*
X22104385Y-17855612D01*
X22055613Y-17855612D01*
X22025211Y-17868204D01*
X22021616Y-17866407D01*
X21998730Y-17857649D01*
X21994248Y-17857330D01*
X21990100Y-17855612D01*
X21965714Y-17853210D01*
X21737142Y-17853210D01*
X21712756Y-17855612D01*
X21708607Y-17857330D01*
X21704126Y-17857649D01*
X21681241Y-17866406D01*
X21566954Y-17923550D01*
X21556459Y-17930156D01*
X21553409Y-17931420D01*
X21549974Y-17934238D01*
X21546217Y-17936604D01*
X21544055Y-17939095D01*
X21534467Y-17946965D01*
X21477325Y-18004108D01*
X21469457Y-18013695D01*
X21466965Y-18015857D01*
X21464598Y-18019616D01*
X21461780Y-18023051D01*
X21460517Y-18026099D01*
X21453911Y-18036594D01*
X21396768Y-18150880D01*
X21388010Y-18173766D01*
X21387691Y-18178247D01*
X21385973Y-18182396D01*
X21383571Y-18206782D01*
X21176428Y-18206782D01*
X21176428Y-18149639D01*
X21174026Y-18125253D01*
X21172307Y-18121104D01*
X21171989Y-18116623D01*
X21163232Y-18093738D01*
X21106088Y-17979451D01*
X21103523Y-17975377D01*
X21102881Y-17973449D01*
X21100797Y-17971046D01*
X21093034Y-17958714D01*
X21081197Y-17948448D01*
X21070925Y-17936604D01*
X21058585Y-17928836D01*
X21056189Y-17926758D01*
X21054263Y-17926116D01*
X21050187Y-17923550D01*
X20935902Y-17866407D01*
X20913016Y-17857649D01*
X20908534Y-17857330D01*
X20904386Y-17855612D01*
X20880000Y-17853210D01*
X20708571Y-17853210D01*
X20684185Y-17855612D01*
X20680036Y-17857330D01*
X20675555Y-17857649D01*
X20652670Y-17866406D01*
X20538383Y-17923550D01*
X20517646Y-17936604D01*
X20485690Y-17973449D01*
X20470266Y-18019719D01*
X20473724Y-18068369D01*
X20495536Y-18111992D01*
X20532381Y-18143948D01*
X20578651Y-18159372D01*
X20627301Y-18155914D01*
X20650187Y-18147156D01*
X20738079Y-18103210D01*
X20850492Y-18103210D01*
X20901115Y-18128522D01*
X20925959Y-18178210D01*
X20901115Y-18227898D01*
X20850491Y-18253210D01*
X20708571Y-18253210D01*
X20684185Y-18255612D01*
X20680036Y-18257330D01*
X20675555Y-18257649D01*
X20652670Y-18266406D01*
X20538383Y-18323550D01*
X20534306Y-18326116D01*
X20532381Y-18326758D01*
X20529982Y-18328837D01*
X20517646Y-18336604D01*
X20507376Y-18348444D01*
X20495536Y-18358714D01*
X20487769Y-18371050D01*
X20485690Y-18373449D01*
X20485048Y-18375374D01*
X20482482Y-18379451D01*
X20425339Y-18493737D01*
X20416581Y-18516623D01*
X20416262Y-18521104D01*
X20414544Y-18525253D01*
X20412142Y-18549639D01*
X20147856Y-18549639D01*
X20147856Y-17978210D01*
X20145454Y-17953824D01*
X20126790Y-17908764D01*
X20092302Y-17874276D01*
X20047242Y-17855612D01*
X19998470Y-17855612D01*
X19953410Y-17874276D01*
X19918922Y-17908764D01*
X19900258Y-17953824D01*
X19897856Y-17978210D01*
X14566926Y-17978210D01*
X14566926Y-17610966D01*
X19843115Y-17610966D01*
X19843115Y-17659740D01*
X19861780Y-17704799D01*
X19877325Y-17723741D01*
X19934467Y-17780884D01*
X19953409Y-17796429D01*
X19953410Y-17796430D01*
X19979805Y-17807362D01*
X19998469Y-17815094D01*
X19998470Y-17815094D01*
X20047242Y-17815094D01*
X20047243Y-17815094D01*
X20061315Y-17809265D01*
X20092302Y-17796430D01*
X20092307Y-17796424D01*
X20111244Y-17780884D01*
X20168387Y-17723742D01*
X20183932Y-17704800D01*
X20202597Y-17659740D01*
X20202597Y-17610967D01*
X20199756Y-17604107D01*
X20183932Y-17565906D01*
X20168387Y-17546964D01*
X20111244Y-17489822D01*
X20092307Y-17474281D01*
X20092302Y-17474276D01*
X20060440Y-17461078D01*
X20047243Y-17455612D01*
X20047242Y-17455612D01*
X19998469Y-17455612D01*
X19979805Y-17463343D01*
X19953410Y-17474276D01*
X19953409Y-17474277D01*
X19934467Y-17489822D01*
X19877325Y-17546965D01*
X19861781Y-17565906D01*
X19861780Y-17565907D01*
X19843115Y-17610966D01*
X14566926Y-17610966D01*
X14566926Y-16021892D01*
X14700259Y-16021892D01*
X14700259Y-16070664D01*
X14718923Y-16115724D01*
X14753411Y-16150212D01*
X14798471Y-16168876D01*
X14822857Y-16171278D01*
X14907635Y-16171278D01*
X14977383Y-16206152D01*
X15005839Y-16234609D01*
X15040714Y-16304358D01*
X15040714Y-16846278D01*
X15043116Y-16870664D01*
X15061780Y-16915724D01*
X15096268Y-16950212D01*
X15141328Y-16968876D01*
X15190100Y-16968876D01*
X15235160Y-16950212D01*
X15269648Y-16915724D01*
X15288312Y-16870664D01*
X15290714Y-16846278D01*
X15290714Y-16274850D01*
X15555000Y-16274850D01*
X15555000Y-16617707D01*
X15557402Y-16642093D01*
X15559120Y-16646241D01*
X15559439Y-16650723D01*
X15568197Y-16673609D01*
X15625340Y-16787895D01*
X15631946Y-16798389D01*
X15633209Y-16801438D01*
X15636027Y-16804872D01*
X15638394Y-16808632D01*
X15640886Y-16810793D01*
X15648754Y-16820381D01*
X15705896Y-16877524D01*
X15715485Y-16885393D01*
X15717647Y-16887886D01*
X15721405Y-16890251D01*
X15724838Y-16893069D01*
X15727886Y-16894331D01*
X15738384Y-16900940D01*
X15852670Y-16958082D01*
X15875556Y-16966839D01*
X15880035Y-16967157D01*
X15884185Y-16968876D01*
X15908571Y-16971278D01*
X16080000Y-16971278D01*
X16104386Y-16968876D01*
X16108534Y-16967157D01*
X16113016Y-16966839D01*
X16135901Y-16958082D01*
X16250186Y-16900940D01*
X16260685Y-16894330D01*
X16263731Y-16893069D01*
X16267160Y-16890254D01*
X16270923Y-16887886D01*
X16273087Y-16885390D01*
X16282673Y-16877524D01*
X16339816Y-16820382D01*
X16347685Y-16810793D01*
X16350177Y-16808632D01*
X16352542Y-16804874D01*
X16355361Y-16801440D01*
X16356624Y-16798389D01*
X16363231Y-16787895D01*
X16420375Y-16673608D01*
X16429132Y-16650723D01*
X16429450Y-16646241D01*
X16431169Y-16642093D01*
X16433571Y-16617707D01*
X16640714Y-16617707D01*
X16640714Y-16674850D01*
X16643116Y-16699236D01*
X16644834Y-16703384D01*
X16645153Y-16707866D01*
X16653911Y-16730752D01*
X16711054Y-16845038D01*
X16713619Y-16849113D01*
X16714262Y-16851041D01*
X16716343Y-16853441D01*
X16724108Y-16865775D01*
X16735947Y-16876043D01*
X16746219Y-16887886D01*
X16758556Y-16895652D01*
X16760953Y-16897731D01*
X16762877Y-16898372D01*
X16766956Y-16900940D01*
X16881242Y-16958082D01*
X16904128Y-16966839D01*
X16908607Y-16967157D01*
X16912757Y-16968876D01*
X16937143Y-16971278D01*
X17165714Y-16971278D01*
X17190100Y-16968876D01*
X17194249Y-16967157D01*
X17198729Y-16966839D01*
X17221615Y-16958082D01*
X17335901Y-16900940D01*
X17356638Y-16887886D01*
X17388594Y-16851041D01*
X17404018Y-16804771D01*
X17400561Y-16756121D01*
X17378750Y-16712498D01*
X17341905Y-16680541D01*
X17295634Y-16665118D01*
X17246985Y-16668575D01*
X17224099Y-16677332D01*
X17136205Y-16721278D01*
X16966652Y-16721278D01*
X16916026Y-16695965D01*
X16891182Y-16646278D01*
X16916026Y-16596590D01*
X16966651Y-16571278D01*
X17108572Y-16571278D01*
X17132958Y-16568876D01*
X17137106Y-16567157D01*
X17141588Y-16566839D01*
X17164473Y-16558082D01*
X17278758Y-16500940D01*
X17282836Y-16498372D01*
X17284761Y-16497731D01*
X17287157Y-16495652D01*
X17299495Y-16487886D01*
X17309766Y-16476043D01*
X17321606Y-16465775D01*
X17329370Y-16453441D01*
X17331452Y-16451041D01*
X17332094Y-16449113D01*
X17334660Y-16445038D01*
X17391804Y-16330751D01*
X17400561Y-16307866D01*
X17400879Y-16303384D01*
X17402598Y-16299236D01*
X17405000Y-16274850D01*
X17405000Y-16217707D01*
X17669286Y-16217707D01*
X17669286Y-16846278D01*
X17671688Y-16870664D01*
X17690352Y-16915724D01*
X17724840Y-16950212D01*
X17769900Y-16968876D01*
X17818672Y-16968876D01*
X17863732Y-16950212D01*
X17898220Y-16915724D01*
X17916884Y-16870664D01*
X17919286Y-16846278D01*
X17919286Y-16247215D01*
X17944598Y-16196589D01*
X17995222Y-16171278D01*
X18107635Y-16171278D01*
X18177383Y-16206152D01*
X18183571Y-16212340D01*
X18183571Y-16846278D01*
X18185973Y-16870664D01*
X18204637Y-16915724D01*
X18239125Y-16950212D01*
X18284185Y-16968876D01*
X18332957Y-16968876D01*
X18378017Y-16950212D01*
X18412505Y-16915724D01*
X18431169Y-16870664D01*
X18433571Y-16846278D01*
X18433571Y-16217707D01*
X18697857Y-16217707D01*
X18697857Y-16331993D01*
X18700259Y-16356379D01*
X18704945Y-16367693D01*
X18707322Y-16379707D01*
X18714186Y-16390003D01*
X18718923Y-16401439D01*
X18727584Y-16410100D01*
X18734377Y-16420289D01*
X18744658Y-16427174D01*
X18753411Y-16435927D01*
X18764725Y-16440613D01*
X18774901Y-16447428D01*
X18798343Y-16454566D01*
X19269285Y-16548754D01*
X19269285Y-16645342D01*
X19243972Y-16695966D01*
X19193348Y-16721278D01*
X19023794Y-16721278D01*
X18935900Y-16677332D01*
X18913014Y-16668575D01*
X18864364Y-16665118D01*
X18818094Y-16680541D01*
X18781249Y-16712498D01*
X18759438Y-16756121D01*
X18755981Y-16804771D01*
X18771404Y-16851041D01*
X18803361Y-16887886D01*
X18824098Y-16900940D01*
X18938384Y-16958082D01*
X18961270Y-16966839D01*
X18965749Y-16967157D01*
X18969899Y-16968876D01*
X18994285Y-16971278D01*
X19222857Y-16971278D01*
X19247243Y-16968876D01*
X19251391Y-16967157D01*
X19255873Y-16966839D01*
X19278758Y-16958082D01*
X19393043Y-16900940D01*
X19397121Y-16898372D01*
X19399046Y-16897731D01*
X19401442Y-16895652D01*
X19413780Y-16887886D01*
X19424051Y-16876043D01*
X19435891Y-16865775D01*
X19443655Y-16853441D01*
X19445737Y-16851041D01*
X19446379Y-16849113D01*
X19448945Y-16845038D01*
X19506089Y-16730751D01*
X19514846Y-16707866D01*
X19515164Y-16703384D01*
X19516883Y-16699236D01*
X19519285Y-16674850D01*
X19519285Y-16503421D01*
X19726428Y-16503421D01*
X19726428Y-16617707D01*
X19728830Y-16642093D01*
X19730548Y-16646241D01*
X19730867Y-16650723D01*
X19739625Y-16673609D01*
X19796768Y-16787895D01*
X19803375Y-16798391D01*
X19804638Y-16801439D01*
X19807454Y-16804870D01*
X19809822Y-16808632D01*
X19812316Y-16810795D01*
X19820183Y-16820381D01*
X19877325Y-16877524D01*
X19886910Y-16885390D01*
X19889075Y-16887886D01*
X19892836Y-16890253D01*
X19896267Y-16893069D01*
X19899313Y-16894331D01*
X19909813Y-16900940D01*
X20024097Y-16958081D01*
X20046983Y-16966839D01*
X20051463Y-16967157D01*
X20055613Y-16968876D01*
X20079999Y-16971278D01*
X20365714Y-16971278D01*
X20378057Y-16970062D01*
X20381348Y-16970296D01*
X20385678Y-16969311D01*
X20390100Y-16968876D01*
X20393148Y-16967613D01*
X20405242Y-16964864D01*
X20576670Y-16907721D01*
X20599045Y-16897731D01*
X20635891Y-16865776D01*
X20657703Y-16822152D01*
X20661160Y-16773502D01*
X20645738Y-16727233D01*
X20613782Y-16690387D01*
X20570158Y-16668575D01*
X20521508Y-16665118D01*
X20497614Y-16670550D01*
X20345428Y-16721278D01*
X20109508Y-16721278D01*
X20039758Y-16686403D01*
X20011303Y-16657949D01*
X19976428Y-16588198D01*
X19976428Y-16532929D01*
X20011302Y-16463180D01*
X20039759Y-16434724D01*
X20123626Y-16392790D01*
X20338888Y-16338975D01*
X20340687Y-16338331D01*
X20341587Y-16338268D01*
X20351726Y-16334388D01*
X20361964Y-16330730D01*
X20362689Y-16330192D01*
X20364473Y-16329510D01*
X20478758Y-16272367D01*
X20489256Y-16265758D01*
X20492302Y-16264497D01*
X20495730Y-16261683D01*
X20499496Y-16259313D01*
X20501662Y-16256815D01*
X20511244Y-16248952D01*
X20542490Y-16217707D01*
X21783571Y-16217707D01*
X21783571Y-16331993D01*
X21785973Y-16356379D01*
X21790659Y-16367693D01*
X21793036Y-16379707D01*
X21799900Y-16390003D01*
X21804637Y-16401439D01*
X21813298Y-16410100D01*
X21820091Y-16420289D01*
X21830372Y-16427174D01*
X21839125Y-16435927D01*
X21850439Y-16440613D01*
X21860615Y-16447428D01*
X21884057Y-16454566D01*
X22354999Y-16548754D01*
X22354999Y-16645342D01*
X22329686Y-16695966D01*
X22279062Y-16721278D01*
X22109508Y-16721278D01*
X22021614Y-16677332D01*
X21998728Y-16668575D01*
X21950078Y-16665118D01*
X21903808Y-16680541D01*
X21866963Y-16712498D01*
X21845152Y-16756121D01*
X21841695Y-16804771D01*
X21857118Y-16851041D01*
X21889075Y-16887886D01*
X21909812Y-16900940D01*
X22024098Y-16958082D01*
X22046984Y-16966839D01*
X22051463Y-16967157D01*
X22055613Y-16968876D01*
X22079999Y-16971278D01*
X22308571Y-16971278D01*
X22332957Y-16968876D01*
X22337105Y-16967157D01*
X22341587Y-16966839D01*
X22364472Y-16958082D01*
X22478757Y-16900940D01*
X22482835Y-16898372D01*
X22484760Y-16897731D01*
X22487156Y-16895652D01*
X22499494Y-16887886D01*
X22509765Y-16876043D01*
X22521605Y-16865775D01*
X22529369Y-16853441D01*
X22531451Y-16851041D01*
X22532093Y-16849113D01*
X22534659Y-16845038D01*
X22591803Y-16730751D01*
X22600560Y-16707866D01*
X22600878Y-16703384D01*
X22602597Y-16699236D01*
X22604999Y-16674850D01*
X22604999Y-16217707D01*
X22602597Y-16193321D01*
X22600878Y-16189172D01*
X22600560Y-16184691D01*
X22591803Y-16161806D01*
X22534659Y-16047519D01*
X22532094Y-16043445D01*
X22531452Y-16041517D01*
X22529368Y-16039114D01*
X22521605Y-16026782D01*
X22515967Y-16021892D01*
X22700258Y-16021892D01*
X22700258Y-16070664D01*
X22718922Y-16115724D01*
X22753410Y-16150212D01*
X22798470Y-16168876D01*
X22822856Y-16171278D01*
X22907634Y-16171278D01*
X22977382Y-16206152D01*
X23005838Y-16234609D01*
X23040713Y-16304358D01*
X23040713Y-16846278D01*
X23043115Y-16870664D01*
X23061779Y-16915724D01*
X23096267Y-16950212D01*
X23141327Y-16968876D01*
X23190099Y-16968876D01*
X23235159Y-16950212D01*
X23269647Y-16915724D01*
X23288311Y-16870664D01*
X23290713Y-16846278D01*
X23290713Y-16046278D01*
X23612142Y-16046278D01*
X23612142Y-16846278D01*
X23614544Y-16870664D01*
X23633208Y-16915724D01*
X23667696Y-16950212D01*
X23712756Y-16968876D01*
X23761528Y-16968876D01*
X23806588Y-16950212D01*
X23816701Y-16940098D01*
X23852669Y-16958082D01*
X23875555Y-16966839D01*
X23880034Y-16967157D01*
X23884184Y-16968876D01*
X23908570Y-16971278D01*
X24079999Y-16971278D01*
X24104385Y-16968876D01*
X24108533Y-16967157D01*
X24113015Y-16966839D01*
X24135900Y-16958082D01*
X24250185Y-16900940D01*
X24254263Y-16898372D01*
X24256188Y-16897731D01*
X24258584Y-16895652D01*
X24270922Y-16887886D01*
X24281193Y-16876043D01*
X24293033Y-16865775D01*
X24300797Y-16853441D01*
X24302879Y-16851041D01*
X24303521Y-16849113D01*
X24306087Y-16845038D01*
X24363231Y-16730751D01*
X24371988Y-16707866D01*
X24372306Y-16703384D01*
X24374025Y-16699236D01*
X24376427Y-16674850D01*
X24376427Y-16617707D01*
X24640713Y-16617707D01*
X24640713Y-16674850D01*
X24643115Y-16699236D01*
X24644833Y-16703384D01*
X24645152Y-16707866D01*
X24653910Y-16730752D01*
X24711053Y-16845038D01*
X24713618Y-16849113D01*
X24714261Y-16851041D01*
X24716342Y-16853441D01*
X24724107Y-16865775D01*
X24735946Y-16876043D01*
X24746218Y-16887886D01*
X24758555Y-16895652D01*
X24760952Y-16897731D01*
X24762876Y-16898372D01*
X24766955Y-16900940D01*
X24881241Y-16958082D01*
X24904127Y-16966839D01*
X24908606Y-16967157D01*
X24912756Y-16968876D01*
X24937142Y-16971278D01*
X25165713Y-16971278D01*
X25190099Y-16968876D01*
X25194248Y-16967157D01*
X25198728Y-16966839D01*
X25221614Y-16958082D01*
X25335900Y-16900940D01*
X25356637Y-16887886D01*
X25388593Y-16851041D01*
X25404017Y-16804771D01*
X25400560Y-16756121D01*
X25378749Y-16712498D01*
X25341904Y-16680541D01*
X25295633Y-16665118D01*
X25246984Y-16668575D01*
X25224098Y-16677332D01*
X25136204Y-16721278D01*
X24966651Y-16721278D01*
X24916025Y-16695965D01*
X24891181Y-16646278D01*
X24905467Y-16617707D01*
X25612142Y-16617707D01*
X25612142Y-16674850D01*
X25614544Y-16699236D01*
X25616262Y-16703384D01*
X25616581Y-16707866D01*
X25625339Y-16730752D01*
X25682482Y-16845038D01*
X25685047Y-16849113D01*
X25685690Y-16851041D01*
X25687771Y-16853441D01*
X25695536Y-16865775D01*
X25707375Y-16876043D01*
X25717647Y-16887886D01*
X25729984Y-16895652D01*
X25732381Y-16897731D01*
X25734305Y-16898372D01*
X25738384Y-16900940D01*
X25852670Y-16958082D01*
X25875556Y-16966839D01*
X25880035Y-16967157D01*
X25884185Y-16968876D01*
X25908571Y-16971278D01*
X26137142Y-16971278D01*
X26161528Y-16968876D01*
X26165677Y-16967157D01*
X26170157Y-16966839D01*
X26193043Y-16958082D01*
X26307329Y-16900940D01*
X26328066Y-16887886D01*
X26360022Y-16851041D01*
X26375446Y-16804771D01*
X26371989Y-16756121D01*
X26350178Y-16712498D01*
X26313333Y-16680541D01*
X26267062Y-16665118D01*
X26218413Y-16668575D01*
X26195527Y-16677332D01*
X26107633Y-16721278D01*
X25938080Y-16721278D01*
X25887454Y-16695965D01*
X25862610Y-16646278D01*
X25887454Y-16596590D01*
X25938079Y-16571278D01*
X26080000Y-16571278D01*
X26104386Y-16568876D01*
X26108534Y-16567157D01*
X26113016Y-16566839D01*
X26135901Y-16558082D01*
X26250186Y-16500940D01*
X26254264Y-16498372D01*
X26256189Y-16497731D01*
X26258585Y-16495652D01*
X26270923Y-16487886D01*
X26281194Y-16476043D01*
X26293034Y-16465775D01*
X26300798Y-16453441D01*
X26302880Y-16451041D01*
X26303522Y-16449113D01*
X26306088Y-16445038D01*
X26363232Y-16330751D01*
X26371989Y-16307866D01*
X26372307Y-16303384D01*
X26374026Y-16299236D01*
X26376428Y-16274850D01*
X26376428Y-16217707D01*
X26583571Y-16217707D01*
X26583571Y-16331993D01*
X26585973Y-16356379D01*
X26590659Y-16367693D01*
X26593036Y-16379707D01*
X26599900Y-16390003D01*
X26604637Y-16401439D01*
X26613298Y-16410100D01*
X26620091Y-16420289D01*
X26630372Y-16427174D01*
X26639125Y-16435927D01*
X26650439Y-16440613D01*
X26660615Y-16447428D01*
X26684057Y-16454566D01*
X27154999Y-16548754D01*
X27154999Y-16645342D01*
X27129686Y-16695966D01*
X27079062Y-16721278D01*
X26909508Y-16721278D01*
X26821614Y-16677332D01*
X26798728Y-16668575D01*
X26750078Y-16665118D01*
X26703808Y-16680541D01*
X26666963Y-16712498D01*
X26645152Y-16756121D01*
X26641695Y-16804771D01*
X26657118Y-16851041D01*
X26689075Y-16887886D01*
X26709812Y-16900940D01*
X26824098Y-16958082D01*
X26846984Y-16966839D01*
X26851463Y-16967157D01*
X26855613Y-16968876D01*
X26879999Y-16971278D01*
X27108571Y-16971278D01*
X27132957Y-16968876D01*
X27137105Y-16967157D01*
X27141587Y-16966839D01*
X27164472Y-16958082D01*
X27278757Y-16900940D01*
X27282835Y-16898372D01*
X27284760Y-16897731D01*
X27287156Y-16895652D01*
X27299494Y-16887886D01*
X27309765Y-16876043D01*
X27321605Y-16865775D01*
X27329369Y-16853441D01*
X27331451Y-16851041D01*
X27332093Y-16849113D01*
X27334659Y-16845038D01*
X27391803Y-16730751D01*
X27400560Y-16707866D01*
X27400878Y-16703384D01*
X27402597Y-16699236D01*
X27404999Y-16674850D01*
X27404999Y-16217707D01*
X27402597Y-16193321D01*
X27400878Y-16189172D01*
X27400560Y-16184691D01*
X27391803Y-16161806D01*
X27334659Y-16047519D01*
X27332094Y-16043445D01*
X27331452Y-16041517D01*
X27329368Y-16039114D01*
X27321605Y-16026782D01*
X27315967Y-16021892D01*
X27500258Y-16021892D01*
X27500258Y-16070664D01*
X27518922Y-16115724D01*
X27553410Y-16150212D01*
X27598470Y-16168876D01*
X27622856Y-16171278D01*
X27707634Y-16171278D01*
X27777382Y-16206152D01*
X27805838Y-16234609D01*
X27840713Y-16304358D01*
X27840713Y-16846278D01*
X27843115Y-16870664D01*
X27861779Y-16915724D01*
X27896267Y-16950212D01*
X27941327Y-16968876D01*
X27990099Y-16968876D01*
X28035159Y-16950212D01*
X28069647Y-16915724D01*
X28088311Y-16870664D01*
X28090713Y-16846278D01*
X28090713Y-16046278D01*
X28088311Y-16021892D01*
X28069647Y-15976832D01*
X28035159Y-15942344D01*
X27990099Y-15923680D01*
X27941327Y-15923680D01*
X27896267Y-15942344D01*
X27867105Y-15971505D01*
X27793044Y-15934475D01*
X27770158Y-15925717D01*
X27765676Y-15925398D01*
X27761528Y-15923680D01*
X27737142Y-15921278D01*
X27622856Y-15921278D01*
X27598470Y-15923680D01*
X27553410Y-15942344D01*
X27518922Y-15976832D01*
X27500258Y-16021892D01*
X27315967Y-16021892D01*
X27309768Y-16016516D01*
X27299496Y-16004672D01*
X27287156Y-15996904D01*
X27284760Y-15994826D01*
X27282834Y-15994184D01*
X27278758Y-15991618D01*
X27164473Y-15934475D01*
X27141587Y-15925717D01*
X27137105Y-15925398D01*
X27132957Y-15923680D01*
X27108571Y-15921278D01*
X26879999Y-15921278D01*
X26855613Y-15923680D01*
X26851464Y-15925398D01*
X26846983Y-15925717D01*
X26824098Y-15934474D01*
X26709811Y-15991618D01*
X26705732Y-15994185D01*
X26703808Y-15994827D01*
X26701411Y-15996905D01*
X26689074Y-16004672D01*
X26678804Y-16016513D01*
X26666963Y-16026783D01*
X26659196Y-16039120D01*
X26657118Y-16041517D01*
X26656476Y-16043441D01*
X26653909Y-16047520D01*
X26596767Y-16161806D01*
X26588010Y-16184692D01*
X26587691Y-16189171D01*
X26585973Y-16193321D01*
X26583571Y-16217707D01*
X26376428Y-16217707D01*
X26374026Y-16193321D01*
X26372307Y-16189172D01*
X26371989Y-16184691D01*
X26363232Y-16161806D01*
X26306088Y-16047519D01*
X26303523Y-16043445D01*
X26302881Y-16041517D01*
X26300797Y-16039114D01*
X26293034Y-16026782D01*
X26281197Y-16016516D01*
X26270925Y-16004672D01*
X26258585Y-15996904D01*
X26256189Y-15994826D01*
X26254263Y-15994184D01*
X26250187Y-15991618D01*
X26135902Y-15934475D01*
X26113016Y-15925717D01*
X26108534Y-15925398D01*
X26104386Y-15923680D01*
X26080000Y-15921278D01*
X25908571Y-15921278D01*
X25884185Y-15923680D01*
X25880036Y-15925398D01*
X25875555Y-15925717D01*
X25852670Y-15934474D01*
X25738383Y-15991618D01*
X25717646Y-16004672D01*
X25685690Y-16041517D01*
X25670266Y-16087787D01*
X25673724Y-16136437D01*
X25695536Y-16180060D01*
X25732381Y-16212016D01*
X25778651Y-16227440D01*
X25827301Y-16223982D01*
X25850187Y-16215224D01*
X25938079Y-16171278D01*
X26050492Y-16171278D01*
X26101115Y-16196590D01*
X26125959Y-16246278D01*
X26101115Y-16295966D01*
X26050491Y-16321278D01*
X25908571Y-16321278D01*
X25884185Y-16323680D01*
X25880036Y-16325398D01*
X25875555Y-16325717D01*
X25852670Y-16334474D01*
X25738383Y-16391618D01*
X25734306Y-16394184D01*
X25732381Y-16394826D01*
X25729982Y-16396905D01*
X25717646Y-16404672D01*
X25707376Y-16416512D01*
X25695536Y-16426782D01*
X25687769Y-16439118D01*
X25685690Y-16441517D01*
X25685048Y-16443442D01*
X25682482Y-16447519D01*
X25625339Y-16561805D01*
X25616581Y-16584691D01*
X25616262Y-16589172D01*
X25614544Y-16593321D01*
X25612142Y-16617707D01*
X24905467Y-16617707D01*
X24916025Y-16596590D01*
X24966650Y-16571278D01*
X25108571Y-16571278D01*
X25132957Y-16568876D01*
X25137105Y-16567157D01*
X25141587Y-16566839D01*
X25164472Y-16558082D01*
X25278757Y-16500940D01*
X25282835Y-16498372D01*
X25284760Y-16497731D01*
X25287156Y-16495652D01*
X25299494Y-16487886D01*
X25309765Y-16476043D01*
X25321605Y-16465775D01*
X25329369Y-16453441D01*
X25331451Y-16451041D01*
X25332093Y-16449113D01*
X25334659Y-16445038D01*
X25391803Y-16330751D01*
X25400560Y-16307866D01*
X25400878Y-16303384D01*
X25402597Y-16299236D01*
X25404999Y-16274850D01*
X25404999Y-16217707D01*
X25402597Y-16193321D01*
X25400878Y-16189172D01*
X25400560Y-16184691D01*
X25391803Y-16161806D01*
X25334659Y-16047519D01*
X25332094Y-16043445D01*
X25331452Y-16041517D01*
X25329368Y-16039114D01*
X25321605Y-16026782D01*
X25309768Y-16016516D01*
X25299496Y-16004672D01*
X25287156Y-15996904D01*
X25284760Y-15994826D01*
X25282834Y-15994184D01*
X25278758Y-15991618D01*
X25164473Y-15934475D01*
X25141587Y-15925717D01*
X25137105Y-15925398D01*
X25132957Y-15923680D01*
X25108571Y-15921278D01*
X24937142Y-15921278D01*
X24912756Y-15923680D01*
X24908607Y-15925398D01*
X24904126Y-15925717D01*
X24881241Y-15934474D01*
X24766954Y-15991618D01*
X24746217Y-16004672D01*
X24714261Y-16041517D01*
X24698837Y-16087787D01*
X24702295Y-16136437D01*
X24724107Y-16180060D01*
X24760952Y-16212016D01*
X24807222Y-16227440D01*
X24855872Y-16223982D01*
X24878758Y-16215224D01*
X24966650Y-16171278D01*
X25079063Y-16171278D01*
X25129686Y-16196590D01*
X25154530Y-16246278D01*
X25129686Y-16295966D01*
X25079062Y-16321278D01*
X24937142Y-16321278D01*
X24912756Y-16323680D01*
X24908607Y-16325398D01*
X24904126Y-16325717D01*
X24881241Y-16334474D01*
X24766954Y-16391618D01*
X24762877Y-16394184D01*
X24760952Y-16394826D01*
X24758553Y-16396905D01*
X24746217Y-16404672D01*
X24735947Y-16416512D01*
X24724107Y-16426782D01*
X24716340Y-16439118D01*
X24714261Y-16441517D01*
X24713619Y-16443442D01*
X24711053Y-16447519D01*
X24653910Y-16561805D01*
X24645152Y-16584691D01*
X24644833Y-16589172D01*
X24643115Y-16593321D01*
X24640713Y-16617707D01*
X24376427Y-16617707D01*
X24376427Y-16046278D01*
X24374025Y-16021892D01*
X24355361Y-15976832D01*
X24320873Y-15942344D01*
X24275813Y-15923680D01*
X24227041Y-15923680D01*
X24181981Y-15942344D01*
X24147493Y-15976832D01*
X24128829Y-16021892D01*
X24126427Y-16046278D01*
X24126427Y-16645342D01*
X24101114Y-16695966D01*
X24050490Y-16721278D01*
X23938079Y-16721278D01*
X23868327Y-16686403D01*
X23862142Y-16680217D01*
X23862142Y-16046278D01*
X23859740Y-16021892D01*
X23841076Y-15976832D01*
X23806588Y-15942344D01*
X23761528Y-15923680D01*
X23712756Y-15923680D01*
X23667696Y-15942344D01*
X23633208Y-15976832D01*
X23614544Y-16021892D01*
X23612142Y-16046278D01*
X23290713Y-16046278D01*
X23288311Y-16021892D01*
X23269647Y-15976832D01*
X23235159Y-15942344D01*
X23190099Y-15923680D01*
X23141327Y-15923680D01*
X23096267Y-15942344D01*
X23067105Y-15971505D01*
X22993044Y-15934475D01*
X22970158Y-15925717D01*
X22965676Y-15925398D01*
X22961528Y-15923680D01*
X22937142Y-15921278D01*
X22822856Y-15921278D01*
X22798470Y-15923680D01*
X22753410Y-15942344D01*
X22718922Y-15976832D01*
X22700258Y-16021892D01*
X22515967Y-16021892D01*
X22509768Y-16016516D01*
X22499496Y-16004672D01*
X22487156Y-15996904D01*
X22484760Y-15994826D01*
X22482834Y-15994184D01*
X22478758Y-15991618D01*
X22364473Y-15934475D01*
X22341587Y-15925717D01*
X22337105Y-15925398D01*
X22332957Y-15923680D01*
X22308571Y-15921278D01*
X22079999Y-15921278D01*
X22055613Y-15923680D01*
X22051464Y-15925398D01*
X22046983Y-15925717D01*
X22024098Y-15934474D01*
X21909811Y-15991618D01*
X21905732Y-15994185D01*
X21903808Y-15994827D01*
X21901411Y-15996905D01*
X21889074Y-16004672D01*
X21878804Y-16016513D01*
X21866963Y-16026783D01*
X21859196Y-16039120D01*
X21857118Y-16041517D01*
X21856476Y-16043441D01*
X21853909Y-16047520D01*
X21796767Y-16161806D01*
X21788010Y-16184692D01*
X21787691Y-16189171D01*
X21785973Y-16193321D01*
X21783571Y-16217707D01*
X20542490Y-16217707D01*
X20568387Y-16191810D01*
X20576256Y-16182221D01*
X20578748Y-16180060D01*
X20581113Y-16176302D01*
X20583932Y-16172868D01*
X20585195Y-16169817D01*
X20591802Y-16159323D01*
X20648945Y-16045038D01*
X20657703Y-16022152D01*
X20658021Y-16017670D01*
X20659740Y-16013522D01*
X20662142Y-15989136D01*
X20662142Y-15874850D01*
X28354999Y-15874850D01*
X28354999Y-16046278D01*
X28357401Y-16070664D01*
X28359119Y-16074812D01*
X28359438Y-16079294D01*
X28368196Y-16102180D01*
X28425339Y-16216466D01*
X28431946Y-16226962D01*
X28433209Y-16230010D01*
X28436025Y-16233441D01*
X28438393Y-16237203D01*
X28440887Y-16239366D01*
X28448754Y-16248952D01*
X28505896Y-16306095D01*
X28515484Y-16313964D01*
X28517646Y-16316456D01*
X28521403Y-16318821D01*
X28524838Y-16321640D01*
X28527888Y-16322903D01*
X28538383Y-16329510D01*
X28652668Y-16386653D01*
X28675554Y-16395411D01*
X28680035Y-16395729D01*
X28684184Y-16397448D01*
X28708570Y-16399850D01*
X29040713Y-16399850D01*
X29040713Y-16846278D01*
X29043115Y-16870664D01*
X29061779Y-16915724D01*
X29096267Y-16950212D01*
X29141327Y-16968876D01*
X29190099Y-16968876D01*
X29235159Y-16950212D01*
X29269647Y-16915724D01*
X29288311Y-16870664D01*
X29290713Y-16846278D01*
X29290713Y-15646278D01*
X29288311Y-15621892D01*
X29269647Y-15576832D01*
X29235159Y-15542344D01*
X29190099Y-15523680D01*
X29165713Y-15521278D01*
X28708570Y-15521278D01*
X28684184Y-15523680D01*
X28680035Y-15525398D01*
X28675554Y-15525717D01*
X28652668Y-15534475D01*
X28538383Y-15591618D01*
X28527888Y-15598224D01*
X28524838Y-15599488D01*
X28521403Y-15602306D01*
X28517646Y-15604672D01*
X28515484Y-15607163D01*
X28505896Y-15615033D01*
X28448754Y-15672176D01*
X28440887Y-15681761D01*
X28438393Y-15683925D01*
X28436025Y-15687686D01*
X28433209Y-15691118D01*
X28431946Y-15694165D01*
X28425339Y-15704662D01*
X28368196Y-15818948D01*
X28359438Y-15841834D01*
X28359119Y-15846315D01*
X28357401Y-15850464D01*
X28354999Y-15874850D01*
X20662142Y-15874850D01*
X20659740Y-15850464D01*
X20658021Y-15846315D01*
X20657703Y-15841834D01*
X20648946Y-15818949D01*
X20591802Y-15704662D01*
X20585195Y-15694167D01*
X20583932Y-15691117D01*
X20581113Y-15687682D01*
X20578748Y-15683925D01*
X20576256Y-15681763D01*
X20568387Y-15672175D01*
X20511244Y-15615033D01*
X20501662Y-15607169D01*
X20499496Y-15604672D01*
X20495730Y-15602301D01*
X20492302Y-15599488D01*
X20489256Y-15598226D01*
X20478758Y-15591618D01*
X20364473Y-15534475D01*
X20341587Y-15525717D01*
X20337105Y-15525398D01*
X20332957Y-15523680D01*
X20308571Y-15521278D01*
X20022856Y-15521278D01*
X20010512Y-15522493D01*
X20007221Y-15522260D01*
X20002891Y-15523244D01*
X19998470Y-15523680D01*
X19995420Y-15524943D01*
X19983327Y-15527693D01*
X19811899Y-15584836D01*
X19789524Y-15594826D01*
X19752679Y-15626781D01*
X19730867Y-15670406D01*
X19727410Y-15719056D01*
X19742833Y-15765325D01*
X19774788Y-15802170D01*
X19818413Y-15823982D01*
X19867063Y-15827439D01*
X19890957Y-15822006D01*
X20043140Y-15771278D01*
X20279063Y-15771278D01*
X20348811Y-15806152D01*
X20377267Y-15834609D01*
X20412142Y-15904358D01*
X20412142Y-15959627D01*
X20377267Y-16029375D01*
X20348811Y-16057832D01*
X20264943Y-16099766D01*
X20049682Y-16153582D01*
X20047882Y-16154225D01*
X20046983Y-16154289D01*
X20036836Y-16158171D01*
X20026607Y-16161827D01*
X20025882Y-16162363D01*
X20024097Y-16163047D01*
X19909812Y-16220190D01*
X19899317Y-16226796D01*
X19896267Y-16228060D01*
X19892832Y-16230878D01*
X19889075Y-16233244D01*
X19886913Y-16235735D01*
X19877325Y-16243605D01*
X19820183Y-16300748D01*
X19812319Y-16310329D01*
X19809822Y-16312496D01*
X19807451Y-16316261D01*
X19804638Y-16319690D01*
X19803376Y-16322735D01*
X19796768Y-16333234D01*
X19739625Y-16447519D01*
X19730867Y-16470405D01*
X19730548Y-16474886D01*
X19728830Y-16479035D01*
X19726428Y-16503421D01*
X19519285Y-16503421D01*
X19519285Y-16217707D01*
X19516883Y-16193321D01*
X19515164Y-16189172D01*
X19514846Y-16184691D01*
X19506089Y-16161806D01*
X19448945Y-16047519D01*
X19446380Y-16043445D01*
X19445738Y-16041517D01*
X19443654Y-16039114D01*
X19435891Y-16026782D01*
X19424054Y-16016516D01*
X19413782Y-16004672D01*
X19401442Y-15996904D01*
X19399046Y-15994826D01*
X19397120Y-15994184D01*
X19393044Y-15991618D01*
X19278759Y-15934475D01*
X19255873Y-15925717D01*
X19251391Y-15925398D01*
X19247243Y-15923680D01*
X19222857Y-15921278D01*
X18994285Y-15921278D01*
X18969899Y-15923680D01*
X18965750Y-15925398D01*
X18961269Y-15925717D01*
X18938384Y-15934474D01*
X18824097Y-15991618D01*
X18820018Y-15994185D01*
X18818094Y-15994827D01*
X18815697Y-15996905D01*
X18803360Y-16004672D01*
X18793090Y-16016513D01*
X18781249Y-16026783D01*
X18773482Y-16039120D01*
X18771404Y-16041517D01*
X18770762Y-16043441D01*
X18768195Y-16047520D01*
X18711053Y-16161806D01*
X18702296Y-16184692D01*
X18701977Y-16189171D01*
X18700259Y-16193321D01*
X18697857Y-16217707D01*
X18433571Y-16217707D01*
X18433571Y-16046278D01*
X18431169Y-16021892D01*
X18412505Y-15976832D01*
X18378017Y-15942344D01*
X18332957Y-15923680D01*
X18284185Y-15923680D01*
X18239125Y-15942344D01*
X18229010Y-15952458D01*
X18193045Y-15934475D01*
X18170159Y-15925717D01*
X18165677Y-15925398D01*
X18161529Y-15923680D01*
X18137143Y-15921278D01*
X17965714Y-15921278D01*
X17941328Y-15923680D01*
X17937179Y-15925398D01*
X17932698Y-15925717D01*
X17909813Y-15934474D01*
X17795526Y-15991618D01*
X17791447Y-15994185D01*
X17789523Y-15994827D01*
X17787126Y-15996905D01*
X17774789Y-16004672D01*
X17764519Y-16016513D01*
X17752678Y-16026783D01*
X17744911Y-16039120D01*
X17742833Y-16041517D01*
X17742191Y-16043441D01*
X17739624Y-16047520D01*
X17682482Y-16161806D01*
X17673725Y-16184692D01*
X17673406Y-16189171D01*
X17671688Y-16193321D01*
X17669286Y-16217707D01*
X17405000Y-16217707D01*
X17402598Y-16193321D01*
X17400879Y-16189172D01*
X17400561Y-16184691D01*
X17391804Y-16161806D01*
X17334660Y-16047519D01*
X17332095Y-16043445D01*
X17331453Y-16041517D01*
X17329369Y-16039114D01*
X17321606Y-16026782D01*
X17309769Y-16016516D01*
X17299497Y-16004672D01*
X17287157Y-15996904D01*
X17284761Y-15994826D01*
X17282835Y-15994184D01*
X17278759Y-15991618D01*
X17164474Y-15934475D01*
X17141588Y-15925717D01*
X17137106Y-15925398D01*
X17132958Y-15923680D01*
X17108572Y-15921278D01*
X16937143Y-15921278D01*
X16912757Y-15923680D01*
X16908608Y-15925398D01*
X16904127Y-15925717D01*
X16881242Y-15934474D01*
X16766955Y-15991618D01*
X16746218Y-16004672D01*
X16714262Y-16041517D01*
X16698838Y-16087787D01*
X16702296Y-16136437D01*
X16724108Y-16180060D01*
X16760953Y-16212016D01*
X16807223Y-16227440D01*
X16855873Y-16223982D01*
X16878759Y-16215224D01*
X16966651Y-16171278D01*
X17079064Y-16171278D01*
X17129687Y-16196590D01*
X17154531Y-16246278D01*
X17129687Y-16295966D01*
X17079063Y-16321278D01*
X16937143Y-16321278D01*
X16912757Y-16323680D01*
X16908608Y-16325398D01*
X16904127Y-16325717D01*
X16881242Y-16334474D01*
X16766955Y-16391618D01*
X16762878Y-16394184D01*
X16760953Y-16394826D01*
X16758554Y-16396905D01*
X16746218Y-16404672D01*
X16735948Y-16416512D01*
X16724108Y-16426782D01*
X16716341Y-16439118D01*
X16714262Y-16441517D01*
X16713620Y-16443442D01*
X16711054Y-16447519D01*
X16653911Y-16561805D01*
X16645153Y-16584691D01*
X16644834Y-16589172D01*
X16643116Y-16593321D01*
X16640714Y-16617707D01*
X16433571Y-16617707D01*
X16433571Y-16274850D01*
X16431169Y-16250464D01*
X16429450Y-16246315D01*
X16429132Y-16241834D01*
X16420375Y-16218949D01*
X16363231Y-16104662D01*
X16356624Y-16094167D01*
X16355361Y-16091117D01*
X16352542Y-16087682D01*
X16350177Y-16083925D01*
X16347685Y-16081763D01*
X16339816Y-16072175D01*
X16282673Y-16015033D01*
X16273091Y-16007169D01*
X16270925Y-16004672D01*
X16267159Y-16002301D01*
X16263731Y-15999488D01*
X16260685Y-15998226D01*
X16250187Y-15991618D01*
X16135902Y-15934475D01*
X16113016Y-15925717D01*
X16108534Y-15925398D01*
X16104386Y-15923680D01*
X16080000Y-15921278D01*
X15908571Y-15921278D01*
X15884185Y-15923680D01*
X15880036Y-15925398D01*
X15875555Y-15925717D01*
X15852670Y-15934474D01*
X15738383Y-15991618D01*
X15727888Y-15998224D01*
X15724838Y-15999488D01*
X15721403Y-16002306D01*
X15717646Y-16004672D01*
X15715484Y-16007163D01*
X15705896Y-16015033D01*
X15648754Y-16072176D01*
X15640886Y-16081763D01*
X15638394Y-16083925D01*
X15636027Y-16087684D01*
X15633209Y-16091119D01*
X15631946Y-16094167D01*
X15625340Y-16104662D01*
X15568197Y-16218948D01*
X15559439Y-16241834D01*
X15559120Y-16246315D01*
X15557402Y-16250464D01*
X15555000Y-16274850D01*
X15290714Y-16274850D01*
X15290714Y-16046278D01*
X15288312Y-16021892D01*
X15269648Y-15976832D01*
X15235160Y-15942344D01*
X15190100Y-15923680D01*
X15141328Y-15923680D01*
X15096268Y-15942344D01*
X15067106Y-15971505D01*
X14993045Y-15934475D01*
X14970159Y-15925717D01*
X14965677Y-15925398D01*
X14961529Y-15923680D01*
X14937143Y-15921278D01*
X14822857Y-15921278D01*
X14798471Y-15923680D01*
X14753411Y-15942344D01*
X14718923Y-15976832D01*
X14700259Y-16021892D01*
X14566926Y-16021892D01*
X14566926Y-13804245D01*
X15471688Y-13804245D01*
X15471688Y-13853019D01*
X15490353Y-13898078D01*
X15524840Y-13932565D01*
X15569899Y-13951230D01*
X15618673Y-13951230D01*
X15663732Y-13932565D01*
X15682674Y-13917020D01*
X15718952Y-13880742D01*
X15843141Y-13839346D01*
X15916860Y-13839346D01*
X16041048Y-13880742D01*
X16120125Y-13959820D01*
X16162059Y-14043688D01*
X16212143Y-14244021D01*
X16212143Y-14384671D01*
X16162059Y-14585004D01*
X16120125Y-14668872D01*
X16041049Y-14747949D01*
X15916857Y-14789346D01*
X15843140Y-14789346D01*
X15718951Y-14747949D01*
X15682674Y-14711673D01*
X15663732Y-14696128D01*
X15618673Y-14677463D01*
X15569899Y-14677463D01*
X15524840Y-14696128D01*
X15490353Y-14730615D01*
X15471688Y-14775674D01*
X15471688Y-14824448D01*
X15490353Y-14869507D01*
X15505898Y-14888449D01*
X15563040Y-14945592D01*
X15581982Y-14961137D01*
X15586133Y-14962856D01*
X15589526Y-14965799D01*
X15611901Y-14975790D01*
X15783329Y-15032932D01*
X15795422Y-15035681D01*
X15798471Y-15036944D01*
X15802892Y-15037379D01*
X15807223Y-15038364D01*
X15810513Y-15038130D01*
X15822857Y-15039346D01*
X15937143Y-15039346D01*
X15949486Y-15038130D01*
X15952777Y-15038364D01*
X15957107Y-15037379D01*
X15961529Y-15036944D01*
X15964577Y-15035681D01*
X15976671Y-15032932D01*
X16148100Y-14975790D01*
X16170475Y-14965799D01*
X16173867Y-14962856D01*
X16178019Y-14961137D01*
X16196961Y-14945592D01*
X16311246Y-14831306D01*
X16319114Y-14821717D01*
X16321606Y-14819557D01*
X16323970Y-14815800D01*
X16326791Y-14812364D01*
X16328054Y-14809312D01*
X16334660Y-14798820D01*
X16391804Y-14684533D01*
X16392487Y-14682746D01*
X16393023Y-14682024D01*
X16396674Y-14671805D01*
X16400561Y-14661648D01*
X16400624Y-14660748D01*
X16401268Y-14658949D01*
X16423133Y-14571489D01*
X16669286Y-14571489D01*
X16669286Y-14685775D01*
X16671688Y-14710161D01*
X16673406Y-14714309D01*
X16673725Y-14718791D01*
X16682483Y-14741677D01*
X16739626Y-14855963D01*
X16746233Y-14866459D01*
X16747496Y-14869507D01*
X16750312Y-14872938D01*
X16752680Y-14876700D01*
X16755174Y-14878863D01*
X16763041Y-14888449D01*
X16820183Y-14945592D01*
X16829768Y-14953458D01*
X16831933Y-14955954D01*
X16835694Y-14958321D01*
X16839125Y-14961137D01*
X16842171Y-14962399D01*
X16852671Y-14969008D01*
X16966955Y-15026149D01*
X16989841Y-15034907D01*
X16994321Y-15035225D01*
X16998471Y-15036944D01*
X17022857Y-15039346D01*
X17308572Y-15039346D01*
X17320915Y-15038130D01*
X17324206Y-15038364D01*
X17328536Y-15037379D01*
X17332958Y-15036944D01*
X17336006Y-15035681D01*
X17348100Y-15032932D01*
X17519528Y-14975789D01*
X17541903Y-14965799D01*
X17578749Y-14933844D01*
X17600561Y-14890220D01*
X17604018Y-14841570D01*
X17588596Y-14795301D01*
X17556640Y-14758455D01*
X17513016Y-14736643D01*
X17464366Y-14733186D01*
X17440472Y-14738618D01*
X17288286Y-14789346D01*
X17052366Y-14789346D01*
X16982616Y-14754471D01*
X16954161Y-14726017D01*
X16919286Y-14656266D01*
X16919286Y-14600997D01*
X16954160Y-14531248D01*
X16982617Y-14502792D01*
X17066484Y-14460858D01*
X17281746Y-14407043D01*
X17283545Y-14406399D01*
X17284445Y-14406336D01*
X17294584Y-14402456D01*
X17304822Y-14398798D01*
X17305547Y-14398260D01*
X17307331Y-14397578D01*
X17421616Y-14340435D01*
X17432114Y-14333826D01*
X17435160Y-14332565D01*
X17438588Y-14329751D01*
X17442354Y-14327381D01*
X17444520Y-14324883D01*
X17454102Y-14317020D01*
X17511245Y-14259878D01*
X17519114Y-14250289D01*
X17521606Y-14248128D01*
X17523971Y-14244370D01*
X17526790Y-14240936D01*
X17528053Y-14237885D01*
X17534660Y-14227391D01*
X17591803Y-14113106D01*
X17600561Y-14090220D01*
X17600879Y-14085738D01*
X17602598Y-14081590D01*
X17605000Y-14057204D01*
X17605000Y-13942918D01*
X17602598Y-13918532D01*
X17600879Y-13914383D01*
X17600561Y-13909902D01*
X17591804Y-13887017D01*
X17534660Y-13772730D01*
X17528053Y-13762235D01*
X17526790Y-13759185D01*
X17523971Y-13755750D01*
X17521606Y-13751993D01*
X17519114Y-13749831D01*
X17511245Y-13740243D01*
X17485348Y-13714346D01*
X17869286Y-13714346D01*
X17869286Y-14914346D01*
X17871688Y-14938732D01*
X17890352Y-14983792D01*
X17924840Y-15018280D01*
X17969900Y-15036944D01*
X18018672Y-15036944D01*
X18063732Y-15018280D01*
X18098220Y-14983792D01*
X18116884Y-14938732D01*
X18119286Y-14914346D01*
X18119286Y-14410775D01*
X18555000Y-14410775D01*
X18555000Y-14914346D01*
X18557402Y-14938732D01*
X18576066Y-14983792D01*
X18610554Y-15018280D01*
X18655614Y-15036944D01*
X18704386Y-15036944D01*
X18749446Y-15018280D01*
X18783934Y-14983792D01*
X18802598Y-14938732D01*
X18805000Y-14914346D01*
X18805000Y-14898712D01*
X19927410Y-14898712D01*
X19930868Y-14947362D01*
X19952679Y-14990985D01*
X19989524Y-15022941D01*
X20035795Y-15038365D01*
X20084445Y-15034907D01*
X20107330Y-15026150D01*
X20221615Y-14969008D01*
X20225693Y-14966440D01*
X20227618Y-14965799D01*
X20230014Y-14963720D01*
X20242352Y-14955954D01*
X20252623Y-14944111D01*
X20264463Y-14933843D01*
X20272227Y-14921509D01*
X20274309Y-14919109D01*
X20274951Y-14917181D01*
X20277517Y-14913106D01*
X20284714Y-14898712D01*
X20555981Y-14898712D01*
X20559439Y-14947362D01*
X20581250Y-14990985D01*
X20618095Y-15022941D01*
X20664366Y-15038365D01*
X20713016Y-15034907D01*
X20735901Y-15026150D01*
X20850186Y-14969008D01*
X20854264Y-14966440D01*
X20856189Y-14965799D01*
X20858585Y-14963720D01*
X20870923Y-14955954D01*
X20881194Y-14944111D01*
X20893034Y-14933843D01*
X20900798Y-14921509D01*
X20902880Y-14919109D01*
X20903522Y-14917181D01*
X20906088Y-14913106D01*
X20963232Y-14798819D01*
X20971989Y-14775934D01*
X20972307Y-14771452D01*
X20974026Y-14767304D01*
X20976428Y-14742918D01*
X20976428Y-14285775D01*
X21240714Y-14285775D01*
X21240714Y-14400061D01*
X21243116Y-14424447D01*
X21247802Y-14435761D01*
X21250179Y-14447775D01*
X21257043Y-14458071D01*
X21261780Y-14469507D01*
X21270441Y-14478168D01*
X21277234Y-14488357D01*
X21287515Y-14495242D01*
X21296268Y-14503995D01*
X21307582Y-14508681D01*
X21317758Y-14515496D01*
X21341200Y-14522634D01*
X21812142Y-14616822D01*
X21812142Y-14713410D01*
X21786829Y-14764034D01*
X21736205Y-14789346D01*
X21566651Y-14789346D01*
X21478757Y-14745400D01*
X21455871Y-14736643D01*
X21407221Y-14733186D01*
X21360951Y-14748609D01*
X21324106Y-14780566D01*
X21302295Y-14824189D01*
X21298838Y-14872839D01*
X21314261Y-14919109D01*
X21346218Y-14955954D01*
X21366955Y-14969008D01*
X21481241Y-15026150D01*
X21504127Y-15034907D01*
X21508606Y-15035225D01*
X21512756Y-15036944D01*
X21537142Y-15039346D01*
X21765714Y-15039346D01*
X21790100Y-15036944D01*
X21794248Y-15035225D01*
X21798730Y-15034907D01*
X21821615Y-15026150D01*
X21935900Y-14969008D01*
X21939978Y-14966440D01*
X21941903Y-14965799D01*
X21944299Y-14963720D01*
X21956637Y-14955954D01*
X21966908Y-14944111D01*
X21978748Y-14933843D01*
X21986512Y-14921509D01*
X21988594Y-14919109D01*
X21989236Y-14917181D01*
X21991802Y-14913106D01*
X22048946Y-14798819D01*
X22057703Y-14775934D01*
X22058021Y-14771452D01*
X22059740Y-14767304D01*
X22062142Y-14742918D01*
X22062142Y-14285775D01*
X22059740Y-14261389D01*
X22058021Y-14257240D01*
X22057703Y-14252759D01*
X22048946Y-14229874D01*
X21996298Y-14124579D01*
X22212562Y-14124579D01*
X22216952Y-14148686D01*
X22445524Y-14948686D01*
X22454533Y-14971474D01*
X22459491Y-14977720D01*
X22462635Y-14985055D01*
X22474527Y-14996660D01*
X22484857Y-15009673D01*
X22491830Y-15013547D01*
X22497540Y-15019119D01*
X22512965Y-15025288D01*
X22527493Y-15033360D01*
X22535420Y-15034270D01*
X22542824Y-15037232D01*
X22559433Y-15037029D01*
X22575947Y-15038927D01*
X22583618Y-15036735D01*
X22591593Y-15036638D01*
X22606863Y-15030093D01*
X22622842Y-15025528D01*
X22629090Y-15020567D01*
X22636423Y-15017425D01*
X22648027Y-15005534D01*
X22661041Y-14995203D01*
X22664915Y-14988229D01*
X22670487Y-14982520D01*
X22681774Y-14960770D01*
X22794285Y-14679491D01*
X22906797Y-14960770D01*
X22918084Y-14982520D01*
X22923655Y-14988229D01*
X22927530Y-14995203D01*
X22940543Y-15005534D01*
X22952148Y-15017425D01*
X22959480Y-15020567D01*
X22965729Y-15025528D01*
X22981704Y-15030092D01*
X22996978Y-15036638D01*
X23004956Y-15036735D01*
X23012625Y-15038926D01*
X23029130Y-15037029D01*
X23045747Y-15037232D01*
X23053152Y-15034269D01*
X23061078Y-15033359D01*
X23075605Y-15025288D01*
X23091031Y-15019118D01*
X23096738Y-15013548D01*
X23103714Y-15009673D01*
X23114048Y-14996654D01*
X23125936Y-14985054D01*
X23129077Y-14977723D01*
X23134039Y-14971474D01*
X23143048Y-14948686D01*
X23371618Y-14148687D01*
X23374545Y-14132615D01*
X23470627Y-14132615D01*
X23476567Y-14156388D01*
X23762282Y-14956388D01*
X23763285Y-14958513D01*
X23763940Y-14960769D01*
X23878225Y-15246484D01*
X23889512Y-15268234D01*
X23890055Y-15268790D01*
X23890352Y-15269507D01*
X23905897Y-15288449D01*
X23963039Y-15345592D01*
X23972628Y-15353461D01*
X23974790Y-15355954D01*
X23978548Y-15358319D01*
X23981981Y-15361137D01*
X23985029Y-15362399D01*
X23995527Y-15369008D01*
X24109813Y-15426150D01*
X24132699Y-15434907D01*
X24181348Y-15438364D01*
X24227619Y-15422941D01*
X24264464Y-15390984D01*
X24286275Y-15347361D01*
X24289732Y-15298711D01*
X24274308Y-15252441D01*
X24242352Y-15215596D01*
X24221615Y-15202542D01*
X24125472Y-15154471D01*
X24100816Y-15129816D01*
X24013627Y-14911841D01*
X24237222Y-14285775D01*
X24440714Y-14285775D01*
X24440714Y-14400061D01*
X24443116Y-14424447D01*
X24447802Y-14435761D01*
X24450179Y-14447775D01*
X24457043Y-14458071D01*
X24461780Y-14469507D01*
X24470441Y-14478168D01*
X24477234Y-14488357D01*
X24487515Y-14495242D01*
X24496268Y-14503995D01*
X24507582Y-14508681D01*
X24517758Y-14515496D01*
X24541200Y-14522634D01*
X25012142Y-14616822D01*
X25012142Y-14713410D01*
X24986829Y-14764034D01*
X24936205Y-14789346D01*
X24766651Y-14789346D01*
X24678757Y-14745400D01*
X24655871Y-14736643D01*
X24607221Y-14733186D01*
X24560951Y-14748609D01*
X24524106Y-14780566D01*
X24502295Y-14824189D01*
X24498838Y-14872839D01*
X24514261Y-14919109D01*
X24546218Y-14955954D01*
X24566955Y-14969008D01*
X24681241Y-15026150D01*
X24704127Y-15034907D01*
X24708606Y-15035225D01*
X24712756Y-15036944D01*
X24737142Y-15039346D01*
X24965714Y-15039346D01*
X24990100Y-15036944D01*
X24994248Y-15035225D01*
X24998730Y-15034907D01*
X25021615Y-15026150D01*
X25135900Y-14969008D01*
X25139978Y-14966440D01*
X25141903Y-14965799D01*
X25144299Y-14963720D01*
X25156637Y-14955954D01*
X25166908Y-14944111D01*
X25178748Y-14933843D01*
X25186512Y-14921509D01*
X25188594Y-14919109D01*
X25189236Y-14917181D01*
X25191802Y-14913106D01*
X25248946Y-14798819D01*
X25257703Y-14775934D01*
X25258021Y-14771452D01*
X25259740Y-14767304D01*
X25262142Y-14742918D01*
X25262142Y-14285775D01*
X25526428Y-14285775D01*
X25526428Y-14914346D01*
X25528830Y-14938732D01*
X25547494Y-14983792D01*
X25581982Y-15018280D01*
X25627042Y-15036944D01*
X25675814Y-15036944D01*
X25720874Y-15018280D01*
X25755362Y-14983792D01*
X25774026Y-14938732D01*
X25776428Y-14914346D01*
X25776428Y-14315283D01*
X25801740Y-14264657D01*
X25852364Y-14239346D01*
X25964777Y-14239346D01*
X26034525Y-14274220D01*
X26040713Y-14280408D01*
X26040713Y-14914346D01*
X26043115Y-14938732D01*
X26061779Y-14983792D01*
X26096267Y-15018280D01*
X26141327Y-15036944D01*
X26190099Y-15036944D01*
X26235159Y-15018280D01*
X26269647Y-14983792D01*
X26288311Y-14938732D01*
X26290713Y-14914346D01*
X26290713Y-14342918D01*
X26554999Y-14342918D01*
X26554999Y-14685775D01*
X26557401Y-14710161D01*
X26559119Y-14714309D01*
X26559438Y-14718791D01*
X26568196Y-14741677D01*
X26625339Y-14855963D01*
X26631945Y-14866457D01*
X26633208Y-14869506D01*
X26636026Y-14872940D01*
X26638393Y-14876700D01*
X26640885Y-14878861D01*
X26648753Y-14888449D01*
X26705895Y-14945592D01*
X26715484Y-14953461D01*
X26717646Y-14955954D01*
X26721404Y-14958319D01*
X26724837Y-14961137D01*
X26727885Y-14962399D01*
X26738383Y-14969008D01*
X26852669Y-15026150D01*
X26875555Y-15034907D01*
X26880034Y-15035225D01*
X26884184Y-15036944D01*
X26908570Y-15039346D01*
X27079999Y-15039346D01*
X27104385Y-15036944D01*
X27108533Y-15035225D01*
X27113015Y-15034907D01*
X27135900Y-15026150D01*
X27250185Y-14969008D01*
X27260684Y-14962398D01*
X27263730Y-14961137D01*
X27267159Y-14958322D01*
X27270922Y-14955954D01*
X27273086Y-14953458D01*
X27282672Y-14945592D01*
X27339815Y-14888450D01*
X27347684Y-14878861D01*
X27350176Y-14876700D01*
X27352541Y-14872942D01*
X27355360Y-14869508D01*
X27356623Y-14866457D01*
X27363230Y-14855963D01*
X27420374Y-14741676D01*
X27429131Y-14718791D01*
X27429449Y-14714309D01*
X27431168Y-14710161D01*
X27433570Y-14685775D01*
X27433570Y-14342918D01*
X27431168Y-14318532D01*
X27429449Y-14314383D01*
X27429131Y-14309902D01*
X27420374Y-14287017D01*
X27363230Y-14172730D01*
X27356623Y-14162235D01*
X27355360Y-14159185D01*
X27352541Y-14155750D01*
X27350176Y-14151993D01*
X27347684Y-14149831D01*
X27339815Y-14140243D01*
X27282672Y-14083101D01*
X27273090Y-14075237D01*
X27270924Y-14072740D01*
X27267158Y-14070369D01*
X27263730Y-14067556D01*
X27260684Y-14066294D01*
X27250186Y-14059686D01*
X27135901Y-14002543D01*
X27113015Y-13993785D01*
X27108533Y-13993466D01*
X27104385Y-13991748D01*
X27079999Y-13989346D01*
X26908570Y-13989346D01*
X26884184Y-13991748D01*
X26880035Y-13993466D01*
X26875554Y-13993785D01*
X26852669Y-14002542D01*
X26738382Y-14059686D01*
X26727887Y-14066292D01*
X26724837Y-14067556D01*
X26721402Y-14070374D01*
X26717645Y-14072740D01*
X26715483Y-14075231D01*
X26705895Y-14083101D01*
X26648753Y-14140244D01*
X26640885Y-14149831D01*
X26638393Y-14151993D01*
X26636026Y-14155752D01*
X26633208Y-14159187D01*
X26631945Y-14162235D01*
X26625339Y-14172730D01*
X26568196Y-14287016D01*
X26559438Y-14309902D01*
X26559119Y-14314383D01*
X26557401Y-14318532D01*
X26554999Y-14342918D01*
X26290713Y-14342918D01*
X26290713Y-14114346D01*
X26288311Y-14089960D01*
X26269647Y-14044900D01*
X26235159Y-14010412D01*
X26190099Y-13991748D01*
X26141327Y-13991748D01*
X26096267Y-14010412D01*
X26086152Y-14020526D01*
X26050187Y-14002543D01*
X26027301Y-13993785D01*
X26022819Y-13993466D01*
X26018671Y-13991748D01*
X25994285Y-13989346D01*
X25822856Y-13989346D01*
X25798470Y-13991748D01*
X25794321Y-13993466D01*
X25789840Y-13993785D01*
X25766955Y-14002542D01*
X25652668Y-14059686D01*
X25648589Y-14062253D01*
X25646665Y-14062895D01*
X25644268Y-14064973D01*
X25631931Y-14072740D01*
X25621661Y-14084581D01*
X25609820Y-14094851D01*
X25602053Y-14107188D01*
X25599975Y-14109585D01*
X25599333Y-14111509D01*
X25596766Y-14115588D01*
X25539624Y-14229874D01*
X25530867Y-14252760D01*
X25530548Y-14257239D01*
X25528830Y-14261389D01*
X25526428Y-14285775D01*
X25262142Y-14285775D01*
X25259740Y-14261389D01*
X25258021Y-14257240D01*
X25257703Y-14252759D01*
X25248946Y-14229874D01*
X25191802Y-14115587D01*
X25189237Y-14111513D01*
X25188595Y-14109585D01*
X25186511Y-14107182D01*
X25178748Y-14094850D01*
X25166911Y-14084584D01*
X25156639Y-14072740D01*
X25144299Y-14064972D01*
X25141903Y-14062894D01*
X25139977Y-14062252D01*
X25135901Y-14059686D01*
X25021616Y-14002543D01*
X24998730Y-13993785D01*
X24994248Y-13993466D01*
X24990100Y-13991748D01*
X24965714Y-13989346D01*
X24737142Y-13989346D01*
X24712756Y-13991748D01*
X24708607Y-13993466D01*
X24704126Y-13993785D01*
X24681241Y-14002542D01*
X24566954Y-14059686D01*
X24562875Y-14062253D01*
X24560951Y-14062895D01*
X24558554Y-14064973D01*
X24546217Y-14072740D01*
X24535947Y-14084581D01*
X24524106Y-14094851D01*
X24516339Y-14107188D01*
X24514261Y-14109585D01*
X24513619Y-14111509D01*
X24511052Y-14115588D01*
X24453910Y-14229874D01*
X24445153Y-14252760D01*
X24444834Y-14257239D01*
X24443116Y-14261389D01*
X24440714Y-14285775D01*
X24237222Y-14285775D01*
X24283432Y-14156388D01*
X24289372Y-14132614D01*
X24286950Y-14083902D01*
X24266071Y-14039824D01*
X24229914Y-14007092D01*
X24183983Y-13990688D01*
X24135271Y-13993109D01*
X24091192Y-14013989D01*
X24058460Y-14050146D01*
X24047996Y-14072304D01*
X23879999Y-14542693D01*
X23712003Y-14072304D01*
X23701539Y-14050146D01*
X23668807Y-14013989D01*
X23624728Y-13993110D01*
X23576016Y-13990688D01*
X23530085Y-14007092D01*
X23493928Y-14039824D01*
X23473049Y-14083903D01*
X23470627Y-14132615D01*
X23374545Y-14132615D01*
X23376008Y-14124579D01*
X23370441Y-14076125D01*
X23346755Y-14033490D01*
X23308556Y-14003165D01*
X23261660Y-13989766D01*
X23213207Y-13995333D01*
X23170571Y-14019020D01*
X23140246Y-14057218D01*
X23131237Y-14080006D01*
X23003117Y-14528425D01*
X22910345Y-14296494D01*
X22899058Y-14274744D01*
X22897974Y-14273633D01*
X22897364Y-14272209D01*
X22880981Y-14256221D01*
X22864994Y-14239839D01*
X22863569Y-14239228D01*
X22862459Y-14238145D01*
X22841206Y-14229644D01*
X22820164Y-14220626D01*
X22818612Y-14220607D01*
X22817175Y-14220032D01*
X22794285Y-14220310D01*
X22771395Y-14220032D01*
X22769957Y-14220607D01*
X22768406Y-14220626D01*
X22747363Y-14229644D01*
X22726111Y-14238145D01*
X22725000Y-14239228D01*
X22723576Y-14239839D01*
X22707588Y-14256221D01*
X22691206Y-14272209D01*
X22690595Y-14273633D01*
X22689512Y-14274744D01*
X22678226Y-14296494D01*
X22585452Y-14528425D01*
X22457332Y-14080006D01*
X22448324Y-14057218D01*
X22417999Y-14019019D01*
X22375363Y-13995333D01*
X22326909Y-13989766D01*
X22280014Y-14003164D01*
X22241815Y-14033489D01*
X22218129Y-14076125D01*
X22212562Y-14124579D01*
X21996298Y-14124579D01*
X21991802Y-14115587D01*
X21989237Y-14111513D01*
X21988595Y-14109585D01*
X21986511Y-14107182D01*
X21978748Y-14094850D01*
X21966911Y-14084584D01*
X21956639Y-14072740D01*
X21944299Y-14064972D01*
X21941903Y-14062894D01*
X21939977Y-14062252D01*
X21935901Y-14059686D01*
X21821616Y-14002543D01*
X21798730Y-13993785D01*
X21794248Y-13993466D01*
X21790100Y-13991748D01*
X21765714Y-13989346D01*
X21537142Y-13989346D01*
X21512756Y-13991748D01*
X21508607Y-13993466D01*
X21504126Y-13993785D01*
X21481241Y-14002542D01*
X21366954Y-14059686D01*
X21362875Y-14062253D01*
X21360951Y-14062895D01*
X21358554Y-14064973D01*
X21346217Y-14072740D01*
X21335947Y-14084581D01*
X21324106Y-14094851D01*
X21316339Y-14107188D01*
X21314261Y-14109585D01*
X21313619Y-14111509D01*
X21311052Y-14115588D01*
X21253910Y-14229874D01*
X21245153Y-14252760D01*
X21244834Y-14257239D01*
X21243116Y-14261389D01*
X21240714Y-14285775D01*
X20976428Y-14285775D01*
X20976428Y-13714346D01*
X27697856Y-13714346D01*
X27697856Y-14914346D01*
X27700258Y-14938732D01*
X27718922Y-14983792D01*
X27753410Y-15018280D01*
X27798470Y-15036944D01*
X27847242Y-15036944D01*
X27892302Y-15018280D01*
X27926790Y-14983792D01*
X27945454Y-14938732D01*
X27947856Y-14914346D01*
X27947856Y-14410775D01*
X28383570Y-14410775D01*
X28383570Y-14914346D01*
X28385972Y-14938732D01*
X28404636Y-14983792D01*
X28439124Y-15018280D01*
X28484184Y-15036944D01*
X28532956Y-15036944D01*
X28578016Y-15018280D01*
X28612504Y-14983792D01*
X28631168Y-14938732D01*
X28633570Y-14914346D01*
X28633570Y-13714346D01*
X28631168Y-13689960D01*
X28612504Y-13644900D01*
X28578016Y-13610412D01*
X28532956Y-13591748D01*
X28484184Y-13591748D01*
X28439124Y-13610412D01*
X28404636Y-13644900D01*
X28385972Y-13689960D01*
X28383570Y-13714346D01*
X28383570Y-14160775D01*
X27947856Y-14160775D01*
X27947856Y-13714346D01*
X27945454Y-13689960D01*
X27926790Y-13644900D01*
X27892302Y-13610412D01*
X27847242Y-13591748D01*
X27798470Y-13591748D01*
X27753410Y-13610412D01*
X27718922Y-13644900D01*
X27700258Y-13689960D01*
X27697856Y-13714346D01*
X20976428Y-13714346D01*
X20974026Y-13689960D01*
X20955362Y-13644900D01*
X20920874Y-13610412D01*
X20875814Y-13591748D01*
X20827042Y-13591748D01*
X20781982Y-13610412D01*
X20747494Y-13644900D01*
X20728830Y-13689960D01*
X20726428Y-13714346D01*
X20726428Y-14713410D01*
X20701115Y-14764034D01*
X20624099Y-14802542D01*
X20603361Y-14815596D01*
X20571405Y-14852441D01*
X20555981Y-14898712D01*
X20284714Y-14898712D01*
X20334661Y-14798819D01*
X20343418Y-14775934D01*
X20343736Y-14771452D01*
X20345455Y-14767304D01*
X20347857Y-14742918D01*
X20347857Y-13714346D01*
X20345455Y-13689960D01*
X20326791Y-13644900D01*
X20292303Y-13610412D01*
X20247243Y-13591748D01*
X20198471Y-13591748D01*
X20153411Y-13610412D01*
X20118923Y-13644900D01*
X20100259Y-13689960D01*
X20097857Y-13714346D01*
X20097857Y-14713410D01*
X20072544Y-14764034D01*
X19995528Y-14802542D01*
X19974790Y-14815596D01*
X19942834Y-14852441D01*
X19927410Y-14898712D01*
X18805000Y-14898712D01*
X18805000Y-13714346D01*
X18802598Y-13689960D01*
X18783934Y-13644900D01*
X18749446Y-13610412D01*
X18704386Y-13591748D01*
X18655614Y-13591748D01*
X18610554Y-13610412D01*
X18576066Y-13644900D01*
X18557402Y-13689960D01*
X18555000Y-13714346D01*
X18555000Y-14160775D01*
X18119286Y-14160775D01*
X18119286Y-13714346D01*
X18116884Y-13689960D01*
X18098220Y-13644900D01*
X18063732Y-13610412D01*
X18018672Y-13591748D01*
X17969900Y-13591748D01*
X17924840Y-13610412D01*
X17890352Y-13644900D01*
X17871688Y-13689960D01*
X17869286Y-13714346D01*
X17485348Y-13714346D01*
X17454102Y-13683101D01*
X17444520Y-13675237D01*
X17442354Y-13672740D01*
X17438588Y-13670369D01*
X17435160Y-13667556D01*
X17432114Y-13666294D01*
X17421616Y-13659686D01*
X17307331Y-13602543D01*
X17284445Y-13593785D01*
X17279963Y-13593466D01*
X17275815Y-13591748D01*
X17251429Y-13589346D01*
X16965714Y-13589346D01*
X16953370Y-13590561D01*
X16950079Y-13590328D01*
X16945749Y-13591312D01*
X16941328Y-13591748D01*
X16938278Y-13593011D01*
X16926185Y-13595761D01*
X16754757Y-13652904D01*
X16732382Y-13662894D01*
X16695537Y-13694849D01*
X16673725Y-13738474D01*
X16670268Y-13787124D01*
X16685691Y-13833393D01*
X16717646Y-13870238D01*
X16761271Y-13892050D01*
X16809921Y-13895507D01*
X16833815Y-13890074D01*
X16985998Y-13839346D01*
X17221921Y-13839346D01*
X17291669Y-13874220D01*
X17320125Y-13902677D01*
X17355000Y-13972426D01*
X17355000Y-14027695D01*
X17320125Y-14097443D01*
X17291669Y-14125900D01*
X17207801Y-14167834D01*
X16992540Y-14221650D01*
X16990740Y-14222293D01*
X16989841Y-14222357D01*
X16979694Y-14226239D01*
X16969465Y-14229895D01*
X16968740Y-14230431D01*
X16966955Y-14231115D01*
X16852670Y-14288258D01*
X16842175Y-14294864D01*
X16839125Y-14296128D01*
X16835690Y-14298946D01*
X16831933Y-14301312D01*
X16829771Y-14303803D01*
X16820183Y-14311673D01*
X16763041Y-14368816D01*
X16755177Y-14378397D01*
X16752680Y-14380564D01*
X16750309Y-14384329D01*
X16747496Y-14387758D01*
X16746234Y-14390803D01*
X16739626Y-14401302D01*
X16682483Y-14515587D01*
X16673725Y-14538473D01*
X16673406Y-14542954D01*
X16671688Y-14547103D01*
X16669286Y-14571489D01*
X16423133Y-14571489D01*
X16458411Y-14430378D01*
X16459036Y-14426148D01*
X16459741Y-14424447D01*
X16460645Y-14415265D01*
X16461995Y-14406137D01*
X16461723Y-14404315D01*
X16462143Y-14400061D01*
X16462143Y-14228632D01*
X16461723Y-14224377D01*
X16461995Y-14222556D01*
X16460645Y-14213427D01*
X16459741Y-14204246D01*
X16459036Y-14202544D01*
X16458411Y-14198315D01*
X16401268Y-13969744D01*
X16400624Y-13967944D01*
X16400561Y-13967045D01*
X16396674Y-13956887D01*
X16393023Y-13946669D01*
X16392487Y-13945946D01*
X16391804Y-13944160D01*
X16334660Y-13829873D01*
X16328054Y-13819380D01*
X16326791Y-13816329D01*
X16323970Y-13812892D01*
X16321606Y-13809136D01*
X16319114Y-13806975D01*
X16311246Y-13797387D01*
X16196961Y-13683101D01*
X16178019Y-13667556D01*
X16173867Y-13665836D01*
X16170475Y-13662894D01*
X16148100Y-13652904D01*
X15976671Y-13595761D01*
X15964580Y-13593011D01*
X15961529Y-13591748D01*
X15957106Y-13591312D01*
X15952777Y-13590328D01*
X15949486Y-13590561D01*
X15937143Y-13589346D01*
X15822857Y-13589346D01*
X15810513Y-13590561D01*
X15807222Y-13590328D01*
X15802892Y-13591312D01*
X15798471Y-13591748D01*
X15795421Y-13593011D01*
X15783328Y-13595761D01*
X15611900Y-13652904D01*
X15589525Y-13662894D01*
X15586131Y-13665837D01*
X15581982Y-13667556D01*
X15563040Y-13683101D01*
X15505898Y-13740244D01*
X15490353Y-13759186D01*
X15471688Y-13804245D01*
X14566926Y-13804245D01*
X14566926Y-13456013D01*
X29424046Y-13456013D01*
X29424046Y-20968475D01*
G37*
D12*
%TO.C,G\u002A\u002A\u002A*%
G36*
X25559417Y-24473380D02*
G01*
X25543680Y-24489117D01*
X25527943Y-24473380D01*
X25543680Y-24457642D01*
X25559417Y-24473380D01*
G37*
G36*
X25779740Y-24945499D02*
G01*
X25764002Y-24961236D01*
X25748265Y-24945499D01*
X25764002Y-24929761D01*
X25779740Y-24945499D01*
G37*
G36*
X25811214Y-25039922D02*
G01*
X25795477Y-25055660D01*
X25779740Y-25039922D01*
X25795477Y-25024185D01*
X25811214Y-25039922D01*
G37*
G36*
X27384944Y-23214396D02*
G01*
X27369207Y-23230133D01*
X27353469Y-23214396D01*
X27369207Y-23198658D01*
X27384944Y-23214396D01*
G37*
G36*
X30437980Y-26267432D02*
G01*
X30422243Y-26283169D01*
X30406505Y-26267432D01*
X30422243Y-26251694D01*
X30437980Y-26267432D01*
G37*
G36*
X25622367Y-24079947D02*
G01*
X25620095Y-24096610D01*
X25601384Y-24100930D01*
X25597617Y-24096317D01*
X25601384Y-24058964D01*
X25610851Y-24054040D01*
X25622367Y-24079947D01*
G37*
G36*
X25874163Y-25213033D02*
G01*
X25871892Y-25229695D01*
X25853180Y-25234016D01*
X25849413Y-25229403D01*
X25853180Y-25192050D01*
X25862647Y-25187125D01*
X25874163Y-25213033D01*
G37*
G36*
X28895725Y-26157271D02*
G01*
X28893453Y-26173933D01*
X28874742Y-26178254D01*
X28870975Y-26173640D01*
X28874742Y-26136287D01*
X28884209Y-26131363D01*
X28895725Y-26157271D01*
G37*
G36*
X29304895Y-26251694D02*
G01*
X29302623Y-26268357D01*
X29283911Y-26272677D01*
X29280145Y-26268064D01*
X29283911Y-26230711D01*
X29293378Y-26225787D01*
X29304895Y-26251694D01*
G37*
G36*
X29462268Y-24111422D02*
G01*
X29459996Y-24128084D01*
X29441284Y-24132405D01*
X29437518Y-24127792D01*
X29441284Y-24090439D01*
X29450751Y-24085515D01*
X29462268Y-24111422D01*
G37*
G36*
X30309597Y-26013012D02*
G01*
X30307371Y-26044935D01*
X30293066Y-26054322D01*
X30286829Y-26043187D01*
X30290581Y-25993996D01*
X30301910Y-25979428D01*
X30309597Y-26013012D01*
G37*
G36*
X30595353Y-25811050D02*
G01*
X30593082Y-25827713D01*
X30574370Y-25832033D01*
X30570603Y-25827420D01*
X30574370Y-25790067D01*
X30583837Y-25785143D01*
X30595353Y-25811050D01*
G37*
G36*
X25611146Y-24346925D02*
G01*
X25636080Y-24385467D01*
X25638321Y-24391438D01*
X25644925Y-24422976D01*
X25618461Y-24403086D01*
X25600501Y-24379944D01*
X25596971Y-24346648D01*
X25611146Y-24346925D01*
G37*
G36*
X13347274Y-25527779D02*
G01*
X13347274Y-25936948D01*
X13252850Y-25936948D01*
X13158426Y-25936948D01*
X13158426Y-25527779D01*
X13158426Y-25118609D01*
X13252850Y-25118609D01*
X13347274Y-25118609D01*
X13347274Y-25527779D01*
G37*
G36*
X20743804Y-25527779D02*
G01*
X20743804Y-25936948D01*
X20649380Y-25936948D01*
X20554956Y-25936948D01*
X20554956Y-25527779D01*
X20554956Y-25118609D01*
X20649380Y-25118609D01*
X20743804Y-25118609D01*
X20743804Y-25527779D01*
G37*
G36*
X24048637Y-25527779D02*
G01*
X24048637Y-25936948D01*
X23954213Y-25936948D01*
X23859789Y-25936948D01*
X23859789Y-25527779D01*
X23859789Y-25118609D01*
X23954213Y-25118609D01*
X24048637Y-25118609D01*
X24048637Y-25527779D01*
G37*
G36*
X25555359Y-24520600D02*
G01*
X25601143Y-24544472D01*
X25601163Y-24602174D01*
X25589831Y-24620859D01*
X25556119Y-24628714D01*
X25532111Y-24591317D01*
X25531110Y-24543910D01*
X25554172Y-24520591D01*
X25555359Y-24520600D01*
G37*
G36*
X25605934Y-24211851D02*
G01*
X25622367Y-24254915D01*
X25617837Y-24277397D01*
X25590892Y-24284532D01*
X25582296Y-24278090D01*
X25559417Y-24235463D01*
X25560318Y-24228436D01*
X25590892Y-24205846D01*
X25605934Y-24211851D01*
G37*
G36*
X25641295Y-24647938D02*
G01*
X25669579Y-24677964D01*
X25674497Y-24690157D01*
X25655699Y-24709439D01*
X25646563Y-24708230D01*
X25622367Y-24677964D01*
X25622728Y-24670841D01*
X25636246Y-24646490D01*
X25641295Y-24647938D01*
G37*
G36*
X29196552Y-26253111D02*
G01*
X29226208Y-26283169D01*
X29232071Y-26294313D01*
X29229923Y-26314644D01*
X29224389Y-26313227D01*
X29194733Y-26283169D01*
X29188871Y-26272025D01*
X29191018Y-26251694D01*
X29196552Y-26253111D01*
G37*
G36*
X19150042Y-22748408D02*
G01*
X19194032Y-22803079D01*
X19196900Y-22873521D01*
X19152978Y-22936010D01*
X19085136Y-22955308D01*
X19011069Y-22929557D01*
X18960190Y-22865715D01*
X18956508Y-22853163D01*
X18969836Y-22790521D01*
X19025032Y-22744980D01*
X19104431Y-22732817D01*
X19150042Y-22748408D01*
G37*
G36*
X19496263Y-22748408D02*
G01*
X19540253Y-22803079D01*
X19543120Y-22873521D01*
X19499199Y-22936010D01*
X19431357Y-22955308D01*
X19357289Y-22929557D01*
X19306411Y-22865715D01*
X19302729Y-22853163D01*
X19316056Y-22790521D01*
X19371253Y-22744980D01*
X19450651Y-22732817D01*
X19496263Y-22748408D01*
G37*
G36*
X13310933Y-24696983D02*
G01*
X13357149Y-24739694D01*
X13374515Y-24807230D01*
X13329288Y-24880301D01*
X13287709Y-24917783D01*
X13248582Y-24925081D01*
X13187832Y-24897179D01*
X13163347Y-24878733D01*
X13130657Y-24811519D01*
X13137765Y-24736062D01*
X13185035Y-24680569D01*
X13237197Y-24666885D01*
X13310933Y-24696983D01*
G37*
G36*
X24012296Y-24696983D02*
G01*
X24058512Y-24739694D01*
X24075878Y-24807230D01*
X24030651Y-24880301D01*
X23989072Y-24917783D01*
X23949945Y-24925081D01*
X23889195Y-24897179D01*
X23864710Y-24878733D01*
X23832020Y-24811519D01*
X23839128Y-24736062D01*
X23886398Y-24680569D01*
X23938561Y-24666885D01*
X24012296Y-24696983D01*
G37*
G36*
X20727716Y-24702065D02*
G01*
X20766886Y-24759869D01*
X20770429Y-24826887D01*
X20726692Y-24887447D01*
X20678068Y-24920515D01*
X20640851Y-24924410D01*
X20584362Y-24897179D01*
X20560808Y-24879399D01*
X20527769Y-24813138D01*
X20532143Y-24738347D01*
X20575164Y-24683644D01*
X20589101Y-24676785D01*
X20664570Y-24669147D01*
X20727716Y-24702065D01*
G37*
G36*
X21979182Y-24526466D02*
G01*
X22081474Y-24536329D01*
X22090003Y-25196482D01*
X22090696Y-25254871D01*
X22092078Y-25449375D01*
X22091915Y-25620779D01*
X22090302Y-25759122D01*
X22087339Y-25854447D01*
X22083122Y-25896792D01*
X22044485Y-25925053D01*
X21972301Y-25936948D01*
X21876890Y-25936948D01*
X21876890Y-25226776D01*
X21876890Y-24516603D01*
X21979182Y-24526466D01*
G37*
G36*
X25017128Y-23252504D02*
G01*
X25025645Y-23888630D01*
X24749594Y-23897733D01*
X24695794Y-23899309D01*
X24577407Y-23901248D01*
X24490163Y-23900504D01*
X24449938Y-23897111D01*
X24433457Y-23863870D01*
X24426332Y-23794818D01*
X24426363Y-23781510D01*
X24430989Y-23735861D01*
X24453965Y-23712312D01*
X24510159Y-23703548D01*
X24614436Y-23702252D01*
X24802541Y-23702252D01*
X24811153Y-23159315D01*
X24819764Y-22616378D01*
X24914188Y-22616378D01*
X25008612Y-22616378D01*
X25017128Y-23252504D01*
G37*
G36*
X13875389Y-25100724D02*
G01*
X13889727Y-25103036D01*
X14007040Y-25114975D01*
X14126270Y-25118537D01*
X14260037Y-25116087D01*
X14260037Y-25526518D01*
X14260037Y-25936948D01*
X14165613Y-25936948D01*
X14071189Y-25936948D01*
X14071189Y-25676418D01*
X14070674Y-25625708D01*
X14058082Y-25463832D01*
X14026718Y-25355528D01*
X13974013Y-25294883D01*
X13897402Y-25275982D01*
X13859219Y-25280459D01*
X13809825Y-25312405D01*
X13778200Y-25382068D01*
X13761390Y-25497649D01*
X13756443Y-25667345D01*
X13756443Y-25936948D01*
X13662020Y-25936948D01*
X13567596Y-25936948D01*
X13567596Y-25604044D01*
X13567721Y-25515476D01*
X13569878Y-25395351D01*
X13577261Y-25315774D01*
X13593086Y-25262292D01*
X13620571Y-25220452D01*
X13662935Y-25175800D01*
X13731105Y-25116200D01*
X13792725Y-25093896D01*
X13875389Y-25100724D01*
G37*
G36*
X16211462Y-25228770D02*
G01*
X16211462Y-25940937D01*
X16109170Y-25931074D01*
X16006877Y-25921211D01*
X15997692Y-25639579D01*
X15991774Y-25517329D01*
X15977176Y-25397329D01*
X15951573Y-25323509D01*
X15911113Y-25286262D01*
X15851945Y-25275982D01*
X15793821Y-25283393D01*
X15750505Y-25314309D01*
X15724280Y-25378564D01*
X15711337Y-25485942D01*
X15707869Y-25646229D01*
X15707869Y-25940937D01*
X15605576Y-25931074D01*
X15503284Y-25921211D01*
X15494098Y-25677669D01*
X15492032Y-25588973D01*
X15500316Y-25408141D01*
X15529679Y-25276369D01*
X15582587Y-25185557D01*
X15661506Y-25127602D01*
X15696498Y-25112089D01*
X15783952Y-25092512D01*
X15879179Y-25109829D01*
X15988940Y-25143516D01*
X15997908Y-24839922D01*
X16006877Y-24536329D01*
X16109170Y-24526466D01*
X16211462Y-24516603D01*
X16211462Y-25228770D01*
G37*
G36*
X18387616Y-23082994D02*
G01*
X18431366Y-23105763D01*
X18448864Y-23121155D01*
X18494440Y-23103347D01*
X18534122Y-23084318D01*
X18609668Y-23078213D01*
X18635518Y-23083436D01*
X18658039Y-23098552D01*
X18672583Y-23133401D01*
X18681428Y-23198784D01*
X18686853Y-23305504D01*
X18691138Y-23464360D01*
X18693484Y-23610295D01*
X18693380Y-23738911D01*
X18690892Y-23832203D01*
X18686184Y-23876375D01*
X18650075Y-23898061D01*
X18574972Y-23898241D01*
X18477633Y-23883955D01*
X18477633Y-23608110D01*
X18474771Y-23480022D01*
X18460462Y-23362302D01*
X18430699Y-23293616D01*
X18381707Y-23266436D01*
X18309710Y-23273230D01*
X18294581Y-23276536D01*
X18238594Y-23268871D01*
X18198741Y-23211437D01*
X18178688Y-23149142D01*
X18180082Y-23101876D01*
X18183790Y-23097364D01*
X18234491Y-23078341D01*
X18312212Y-23073702D01*
X18387616Y-23082994D01*
G37*
G36*
X21153438Y-25362537D02*
G01*
X21159452Y-25510417D01*
X21184784Y-25651072D01*
X21231016Y-25737606D01*
X21299343Y-25773382D01*
X21344396Y-25775083D01*
X21403006Y-25750002D01*
X21441028Y-25683659D01*
X21461564Y-25569166D01*
X21467720Y-25399632D01*
X21467720Y-25118609D01*
X21562144Y-25118609D01*
X21656567Y-25118609D01*
X21656567Y-25443203D01*
X21656509Y-25500384D01*
X21654768Y-25628827D01*
X21648301Y-25713561D01*
X21634055Y-25768879D01*
X21608976Y-25809076D01*
X21570012Y-25848446D01*
X21559807Y-25857789D01*
X21489946Y-25914603D01*
X21436245Y-25947717D01*
X21407553Y-25955250D01*
X21307956Y-25955321D01*
X21195672Y-25931660D01*
X21101028Y-25889529D01*
X21061896Y-25859325D01*
X21014127Y-25796464D01*
X20984129Y-25706868D01*
X20968572Y-25578627D01*
X20964126Y-25399831D01*
X20964126Y-25118609D01*
X21058550Y-25118609D01*
X21152974Y-25118609D01*
X21153438Y-25362537D01*
G37*
G36*
X20966291Y-23080141D02*
G01*
X21012283Y-23105763D01*
X21029781Y-23121155D01*
X21075357Y-23103347D01*
X21115039Y-23084318D01*
X21190585Y-23078213D01*
X21190815Y-23078245D01*
X21220856Y-23084815D01*
X21241160Y-23101481D01*
X21253633Y-23138813D01*
X21260183Y-23207381D01*
X21262715Y-23317757D01*
X21263135Y-23480511D01*
X21263134Y-23501198D01*
X21262660Y-23657690D01*
X21259887Y-23763244D01*
X21252746Y-23828686D01*
X21239170Y-23864840D01*
X21217094Y-23882533D01*
X21184448Y-23892591D01*
X21127676Y-23902574D01*
X21082156Y-23900021D01*
X21078480Y-23894887D01*
X21068311Y-23842930D01*
X21061216Y-23748664D01*
X21058550Y-23627724D01*
X21056336Y-23517592D01*
X21042015Y-23386087D01*
X21011570Y-23305369D01*
X20961735Y-23268510D01*
X20889245Y-23268584D01*
X20873513Y-23270636D01*
X20798728Y-23251343D01*
X20754143Y-23194109D01*
X20756130Y-23117512D01*
X20761671Y-23108553D01*
X20813008Y-23082819D01*
X20890540Y-23072921D01*
X20966291Y-23080141D01*
G37*
G36*
X19508426Y-23078538D02*
G01*
X19516832Y-23079517D01*
X19555034Y-23087219D01*
X19578737Y-23107539D01*
X19592072Y-23153050D01*
X19599171Y-23236328D01*
X19604164Y-23369947D01*
X19605816Y-23449815D01*
X19598987Y-23617046D01*
X19573849Y-23736981D01*
X19527457Y-23819723D01*
X19456869Y-23875374D01*
X19439805Y-23883453D01*
X19345389Y-23909979D01*
X19238471Y-23921314D01*
X19176818Y-23919084D01*
X19089902Y-23894162D01*
X19010280Y-23830571D01*
X18987902Y-23807791D01*
X18954533Y-23766968D01*
X18934000Y-23720726D01*
X18923189Y-23654683D01*
X18918986Y-23554457D01*
X18918277Y-23405664D01*
X18918277Y-23072760D01*
X19012701Y-23072760D01*
X19107125Y-23072760D01*
X19107125Y-23342363D01*
X19110373Y-23491708D01*
X19124185Y-23611249D01*
X19152320Y-23685363D01*
X19198485Y-23723153D01*
X19266384Y-23733727D01*
X19322332Y-23725337D01*
X19370611Y-23688377D01*
X19401191Y-23614159D01*
X19417227Y-23494300D01*
X19421871Y-23320417D01*
X19421871Y-23068579D01*
X19508426Y-23078538D01*
G37*
G36*
X23658855Y-25560782D02*
G01*
X23625142Y-25696094D01*
X23545174Y-25818074D01*
X23416907Y-25914991D01*
X23375807Y-25933730D01*
X23232459Y-25960276D01*
X23092760Y-25935374D01*
X22968259Y-25867123D01*
X22870505Y-25763625D01*
X22811048Y-25632981D01*
X22804293Y-25527779D01*
X23009975Y-25527779D01*
X23020321Y-25619511D01*
X23072924Y-25716626D01*
X23137880Y-25758233D01*
X23230297Y-25779575D01*
X23258339Y-25778094D01*
X23360780Y-25739254D01*
X23427064Y-25653312D01*
X23450619Y-25527779D01*
X23449324Y-25495731D01*
X23415338Y-25378656D01*
X23340139Y-25302902D01*
X23230297Y-25275982D01*
X23202256Y-25277463D01*
X23099815Y-25316303D01*
X23033530Y-25402246D01*
X23009975Y-25527779D01*
X22804293Y-25527779D01*
X22801437Y-25483292D01*
X22813662Y-25420643D01*
X22879715Y-25280007D01*
X22986544Y-25173046D01*
X23122213Y-25109452D01*
X23274784Y-25098918D01*
X23372018Y-25120859D01*
X23502894Y-25192176D01*
X23595688Y-25297091D01*
X23648356Y-25423870D01*
X23656324Y-25527779D01*
X23658855Y-25560782D01*
G37*
G36*
X16761988Y-25108873D02*
G01*
X16889867Y-25166584D01*
X16991342Y-25260372D01*
X17059443Y-25380119D01*
X17087201Y-25515703D01*
X17067647Y-25657005D01*
X16993812Y-25793904D01*
X16917799Y-25867716D01*
X16827886Y-25925329D01*
X16761604Y-25945975D01*
X16643596Y-25955985D01*
X16529225Y-25941636D01*
X16446287Y-25904449D01*
X16429632Y-25882066D01*
X16408855Y-25817987D01*
X16400243Y-25742633D01*
X16405645Y-25679898D01*
X16426906Y-25653677D01*
X16459157Y-25669751D01*
X16510471Y-25716626D01*
X16517418Y-25723888D01*
X16605814Y-25772009D01*
X16708145Y-25769151D01*
X16803545Y-25715400D01*
X16837031Y-25674776D01*
X16870345Y-25576883D01*
X16863613Y-25470930D01*
X16822456Y-25374044D01*
X16752494Y-25303352D01*
X16659347Y-25275982D01*
X16655616Y-25276055D01*
X16576024Y-25296141D01*
X16491724Y-25341074D01*
X16400310Y-25406167D01*
X16400310Y-25279388D01*
X16400614Y-25245852D01*
X16410210Y-25179499D01*
X16446302Y-25143388D01*
X16526208Y-25114890D01*
X16614675Y-25097361D01*
X16761988Y-25108873D01*
G37*
G36*
X12820074Y-24526466D02*
G01*
X12922367Y-24536329D01*
X12930895Y-25196482D01*
X12931588Y-25254871D01*
X12932971Y-25449375D01*
X12932807Y-25620779D01*
X12931194Y-25759122D01*
X12928231Y-25854447D01*
X12924015Y-25896792D01*
X12886389Y-25924855D01*
X12814838Y-25936948D01*
X12766515Y-25934611D01*
X12734187Y-25916845D01*
X12719163Y-25867817D01*
X12711558Y-25771707D01*
X12702044Y-25606465D01*
X12576146Y-25769914D01*
X12516530Y-25844190D01*
X12457557Y-25901837D01*
X12401986Y-25928185D01*
X12332218Y-25935156D01*
X12310957Y-25935149D01*
X12242000Y-25929341D01*
X12214188Y-25916823D01*
X12218376Y-25907307D01*
X12252479Y-25857002D01*
X12313460Y-25775924D01*
X12392331Y-25676215D01*
X12570473Y-25455731D01*
X12408068Y-25315811D01*
X12407789Y-25315571D01*
X12326114Y-25241263D01*
X12267874Y-25180799D01*
X12245663Y-25147250D01*
X12247408Y-25142316D01*
X12286985Y-25125429D01*
X12362365Y-25118609D01*
X12431533Y-25125291D01*
X12509844Y-25159972D01*
X12598425Y-25235158D01*
X12717782Y-25351706D01*
X12717782Y-24934155D01*
X12717782Y-24516603D01*
X12820074Y-24526466D01*
G37*
G36*
X22312152Y-23532914D02*
G01*
X22271063Y-23658508D01*
X22201509Y-23775955D01*
X22117897Y-23857853D01*
X22019395Y-23901141D01*
X21880605Y-23922044D01*
X21758822Y-23907246D01*
X21620021Y-23844385D01*
X21516537Y-23742088D01*
X21455252Y-23611117D01*
X21443048Y-23462235D01*
X21445443Y-23453696D01*
X21659888Y-23453696D01*
X21666339Y-23566738D01*
X21705564Y-23663774D01*
X21714756Y-23675951D01*
X21777652Y-23720802D01*
X21876890Y-23733727D01*
X21898449Y-23733348D01*
X21989492Y-23715345D01*
X22048215Y-23663774D01*
X22077904Y-23603484D01*
X22096169Y-23495429D01*
X22083204Y-23390051D01*
X22039653Y-23313698D01*
X21988702Y-23282948D01*
X21888119Y-23262923D01*
X21785297Y-23275153D01*
X21708657Y-23319166D01*
X21685957Y-23353183D01*
X21659888Y-23453696D01*
X21445443Y-23453696D01*
X21486808Y-23306204D01*
X21536423Y-23227322D01*
X21645486Y-23134188D01*
X21778174Y-23083184D01*
X21920478Y-23074387D01*
X22058386Y-23107872D01*
X22177888Y-23183715D01*
X22264972Y-23301992D01*
X22271612Y-23316506D01*
X22304250Y-23406827D01*
X22317534Y-23478181D01*
X22315838Y-23495429D01*
X22312152Y-23532914D01*
G37*
G36*
X19968565Y-22502296D02*
G01*
X20049938Y-22580770D01*
X20098319Y-22712002D01*
X20114312Y-22896781D01*
X20116895Y-22966531D01*
X20128324Y-23048563D01*
X20145787Y-23088497D01*
X20165656Y-23118134D01*
X20177261Y-23184779D01*
X20169652Y-23234730D01*
X20145787Y-23261608D01*
X20138845Y-23267619D01*
X20125844Y-23322354D01*
X20117352Y-23426604D01*
X20114312Y-23571108D01*
X20113767Y-23656378D01*
X20110903Y-23775020D01*
X20106136Y-23859261D01*
X20100092Y-23894828D01*
X20066717Y-23903486D01*
X19997800Y-23905253D01*
X19909727Y-23901458D01*
X19900758Y-23581533D01*
X19891788Y-23261608D01*
X19798465Y-23261608D01*
X19749680Y-23258746D01*
X19712976Y-23234091D01*
X19705142Y-23167184D01*
X19708282Y-23115860D01*
X19733486Y-23080253D01*
X19801068Y-23072760D01*
X19896994Y-23072760D01*
X19887623Y-22876044D01*
X19885914Y-22840941D01*
X19878981Y-22748655D01*
X19865463Y-22701354D01*
X19838150Y-22684988D01*
X19789829Y-22685509D01*
X19734612Y-22685044D01*
X19709789Y-22659926D01*
X19711143Y-22591085D01*
X19714470Y-22564726D01*
X19739287Y-22503442D01*
X19794899Y-22480003D01*
X19853594Y-22475792D01*
X19968565Y-22502296D01*
G37*
G36*
X22442919Y-24525129D02*
G01*
X22472150Y-24536444D01*
X22536693Y-24578157D01*
X22575980Y-24643399D01*
X22595516Y-24745107D01*
X22600805Y-24896217D01*
X22600806Y-24897820D01*
X22605030Y-25011272D01*
X22616173Y-25089472D01*
X22632280Y-25118609D01*
X22632671Y-25118616D01*
X22654638Y-25146735D01*
X22663754Y-25213033D01*
X22663752Y-25214207D01*
X22654379Y-25280106D01*
X22632280Y-25307456D01*
X22625016Y-25314137D01*
X22612170Y-25370275D01*
X22603798Y-25475987D01*
X22600805Y-25622202D01*
X22600805Y-25936948D01*
X22506382Y-25936948D01*
X22411958Y-25936948D01*
X22411958Y-25624197D01*
X22411958Y-25311445D01*
X22309665Y-25301582D01*
X22262645Y-25294745D01*
X22218112Y-25269266D01*
X22207373Y-25213033D01*
X22210637Y-25175319D01*
X22238729Y-25139324D01*
X22311113Y-25124375D01*
X22414852Y-25114405D01*
X22405536Y-24919790D01*
X22403667Y-24881524D01*
X22396514Y-24790958D01*
X22381419Y-24743289D01*
X22350014Y-24723185D01*
X22293928Y-24715314D01*
X22248000Y-24708695D01*
X22202671Y-24683469D01*
X22191636Y-24627979D01*
X22198645Y-24587507D01*
X22248547Y-24530010D01*
X22334636Y-24507309D01*
X22442919Y-24525129D01*
G37*
G36*
X15300414Y-25647307D02*
G01*
X15288441Y-25682638D01*
X15225700Y-25792241D01*
X15138525Y-25887976D01*
X15046902Y-25946274D01*
X14924608Y-25963836D01*
X14787770Y-25923160D01*
X14721795Y-25899367D01*
X14683620Y-25907617D01*
X14645116Y-25927931D01*
X14572925Y-25936948D01*
X14480359Y-25936948D01*
X14480359Y-25527779D01*
X14686375Y-25527779D01*
X14687615Y-25569494D01*
X14707720Y-25657620D01*
X14759964Y-25719986D01*
X14861474Y-25772555D01*
X14958999Y-25764955D01*
X15044618Y-25696644D01*
X15093434Y-25608650D01*
X15108108Y-25503493D01*
X15083491Y-25407999D01*
X15027975Y-25332814D01*
X14949954Y-25288584D01*
X14857819Y-25285954D01*
X14759964Y-25335571D01*
X14737374Y-25356098D01*
X14697507Y-25424613D01*
X14686375Y-25527779D01*
X14480359Y-25527779D01*
X14480359Y-25118609D01*
X14590520Y-25118609D01*
X14604954Y-25118859D01*
X14673005Y-25128460D01*
X14700681Y-25147671D01*
X14701522Y-25151089D01*
X14733313Y-25153162D01*
X14796850Y-25128758D01*
X14879563Y-25100463D01*
X15005312Y-25102684D01*
X15120652Y-25152660D01*
X15216709Y-25241251D01*
X15284606Y-25359316D01*
X15315466Y-25497715D01*
X15314885Y-25503493D01*
X15300414Y-25647307D01*
G37*
G36*
X20361129Y-25562691D02*
G01*
X20329744Y-25703570D01*
X20257796Y-25825428D01*
X20145787Y-25913293D01*
X20136206Y-25918028D01*
X20025447Y-25959995D01*
X19932288Y-25960582D01*
X19829478Y-25920403D01*
X19820848Y-25916063D01*
X19760423Y-25894863D01*
X19736617Y-25904665D01*
X19736610Y-25905071D01*
X19708488Y-25927599D01*
X19642193Y-25936948D01*
X19547769Y-25936948D01*
X19547769Y-25520364D01*
X19732882Y-25520364D01*
X19745061Y-25626008D01*
X19799566Y-25716626D01*
X19859787Y-25757684D01*
X19941202Y-25779575D01*
X19967160Y-25777889D01*
X20060523Y-25737162D01*
X20123002Y-25650177D01*
X20145787Y-25527779D01*
X20144417Y-25495830D01*
X20111326Y-25380922D01*
X20040651Y-25304024D01*
X19941202Y-25275982D01*
X19896040Y-25282106D01*
X19813799Y-25331530D01*
X19757604Y-25416577D01*
X19732882Y-25520364D01*
X19547769Y-25520364D01*
X19547769Y-25228770D01*
X19547769Y-24520591D01*
X19642193Y-24520591D01*
X19736617Y-24520591D01*
X19736617Y-24851883D01*
X19736617Y-25183175D01*
X19829478Y-25135154D01*
X19924750Y-25097976D01*
X20044537Y-25096183D01*
X20171287Y-25150890D01*
X20206901Y-25175639D01*
X20300208Y-25283753D01*
X20351450Y-25417761D01*
X20358797Y-25527779D01*
X20361129Y-25562691D01*
G37*
G36*
X24323072Y-23572310D02*
G01*
X24273546Y-23720940D01*
X24168038Y-23844525D01*
X24166262Y-23846007D01*
X24049373Y-23907011D01*
X23916204Y-23922339D01*
X23792759Y-23888915D01*
X23747825Y-23873915D01*
X23692536Y-23881544D01*
X23663540Y-23895256D01*
X23592255Y-23907333D01*
X23568208Y-23904041D01*
X23549839Y-23887473D01*
X23537594Y-23847699D01*
X23529764Y-23774785D01*
X23524643Y-23658797D01*
X23520524Y-23489798D01*
X23519686Y-23449985D01*
X23707099Y-23449985D01*
X23707617Y-23559454D01*
X23751413Y-23663774D01*
X23792614Y-23703100D01*
X23883350Y-23733463D01*
X23982538Y-23722308D01*
X24065791Y-23669212D01*
X24078937Y-23653298D01*
X24121738Y-23554179D01*
X24119127Y-23447893D01*
X24077631Y-23351210D01*
X24003778Y-23280902D01*
X23904094Y-23253739D01*
X23811612Y-23280823D01*
X23743787Y-23351673D01*
X23707099Y-23449985D01*
X23519686Y-23449985D01*
X23511742Y-23072760D01*
X23607079Y-23072760D01*
X23677119Y-23083633D01*
X23702416Y-23121757D01*
X23704189Y-23145767D01*
X23721847Y-23153158D01*
X23772369Y-23121757D01*
X23847747Y-23083800D01*
X23971558Y-23070406D01*
X24093796Y-23105158D01*
X24201683Y-23180967D01*
X24282445Y-23290747D01*
X24323307Y-23427409D01*
X24323101Y-23554179D01*
X24323072Y-23572310D01*
G37*
G36*
X31885811Y-24408593D02*
G01*
X31877569Y-24436212D01*
X31849027Y-24507279D01*
X31807125Y-24602228D01*
X31773547Y-24680730D01*
X31740809Y-24771583D01*
X31727957Y-24828402D01*
X31719634Y-24884460D01*
X31682664Y-24938945D01*
X31626813Y-24944419D01*
X31577565Y-24942853D01*
X31550807Y-24981223D01*
X31565689Y-25044934D01*
X31577531Y-25076163D01*
X31559711Y-25135640D01*
X31547002Y-25146588D01*
X31505664Y-25148868D01*
X31441577Y-25106773D01*
X31433607Y-25100147D01*
X31385467Y-25048968D01*
X31373858Y-25014005D01*
X31395817Y-25013620D01*
X31434501Y-25053348D01*
X31481342Y-25103057D01*
X31522379Y-25117911D01*
X31539591Y-25089382D01*
X31530488Y-25063232D01*
X31491430Y-25011995D01*
X31465913Y-24978012D01*
X31479796Y-24949463D01*
X31543225Y-24912145D01*
X31555667Y-24905492D01*
X31609240Y-24865648D01*
X31607126Y-24838172D01*
X31589596Y-24809287D01*
X31617279Y-24754795D01*
X31625854Y-24743720D01*
X31656029Y-24716275D01*
X31665808Y-24740914D01*
X31667761Y-24749203D01*
X31686421Y-24740669D01*
X31717198Y-24696500D01*
X31750876Y-24633337D01*
X31778238Y-24567816D01*
X31790068Y-24516577D01*
X31790520Y-24511415D01*
X31808438Y-24467899D01*
X31840858Y-24424340D01*
X31871932Y-24398614D01*
X31885811Y-24408593D01*
G37*
G36*
X18016654Y-25477525D02*
G01*
X18004722Y-25641454D01*
X17978680Y-25714688D01*
X17912152Y-25819796D01*
X17827384Y-25903785D01*
X17741513Y-25946778D01*
X17600391Y-25959242D01*
X17452844Y-25925434D01*
X17320942Y-25834941D01*
X17314005Y-25828346D01*
X17259465Y-25758337D01*
X17263127Y-25704978D01*
X17325165Y-25661065D01*
X17361730Y-25647285D01*
X17411920Y-25652519D01*
X17466593Y-25703225D01*
X17471553Y-25708766D01*
X17558083Y-25767282D01*
X17650296Y-25772997D01*
X17730623Y-25724495D01*
X17777725Y-25665572D01*
X17789573Y-25624039D01*
X17756874Y-25598951D01*
X17673518Y-25585838D01*
X17533395Y-25580233D01*
X17265861Y-25574990D01*
X17257284Y-25464829D01*
X17256195Y-25440257D01*
X17270829Y-25364786D01*
X17477565Y-25364786D01*
X17478938Y-25377807D01*
X17523783Y-25395972D01*
X17627819Y-25401880D01*
X17644579Y-25401713D01*
X17739890Y-25390699D01*
X17778796Y-25365780D01*
X17759115Y-25331632D01*
X17678667Y-25292928D01*
X17611581Y-25280734D01*
X17527694Y-25302464D01*
X17477565Y-25364786D01*
X17270829Y-25364786D01*
X17282151Y-25306394D01*
X17355781Y-25199259D01*
X17466197Y-25126522D01*
X17602514Y-25095855D01*
X17753845Y-25114928D01*
X17790012Y-25128113D01*
X17903349Y-25208366D01*
X17980880Y-25329000D01*
X17989739Y-25365780D01*
X18016654Y-25477525D01*
G37*
G36*
X25609058Y-24803863D02*
G01*
X25636952Y-24848678D01*
X25647611Y-24856076D01*
X25637359Y-24811930D01*
X25634386Y-24800333D01*
X25633513Y-24758196D01*
X25667520Y-24760216D01*
X25690584Y-24777122D01*
X25713742Y-24825828D01*
X25713327Y-24875520D01*
X25685668Y-24898287D01*
X25666734Y-24918048D01*
X25661059Y-24976973D01*
X25671418Y-25028629D01*
X25692181Y-25055660D01*
X25705215Y-25063975D01*
X25717272Y-25110740D01*
X25723067Y-25145389D01*
X25744813Y-25123117D01*
X25768645Y-25097826D01*
X25795962Y-25119393D01*
X25801489Y-25146437D01*
X25766676Y-25188243D01*
X25732850Y-25218761D01*
X25748821Y-25260914D01*
X25772842Y-25280506D01*
X25826069Y-25287702D01*
X25873869Y-25290021D01*
X25892955Y-25333465D01*
X25874512Y-25401230D01*
X25874348Y-25401534D01*
X25832083Y-25453755D01*
X25795399Y-25460006D01*
X25779740Y-25417617D01*
X25776305Y-25395914D01*
X25749253Y-25370406D01*
X25736229Y-25363722D01*
X25736883Y-25323194D01*
X25741734Y-25299025D01*
X25723829Y-25275982D01*
X25713383Y-25272216D01*
X25682091Y-25230706D01*
X25657362Y-25166181D01*
X25651542Y-25107427D01*
X25649109Y-25088468D01*
X25620761Y-25037988D01*
X25605426Y-25011967D01*
X25604433Y-24964789D01*
X25609012Y-24952923D01*
X25591405Y-24914341D01*
X25570435Y-24879673D01*
X25560533Y-24809874D01*
X25561648Y-24725176D01*
X25609058Y-24803863D01*
G37*
G36*
X23289867Y-23640273D02*
G01*
X23286858Y-23772626D01*
X23283181Y-23860567D01*
X23279026Y-23894828D01*
X23268566Y-23900387D01*
X23211692Y-23906053D01*
X23139528Y-23899644D01*
X23085569Y-23883177D01*
X23064211Y-23877402D01*
X23008472Y-23892694D01*
X22997190Y-23898287D01*
X22926141Y-23915089D01*
X22832325Y-23922092D01*
X22782636Y-23918702D01*
X22657953Y-23873948D01*
X22560158Y-23786978D01*
X22492945Y-23670217D01*
X22460009Y-23536088D01*
X22463252Y-23446532D01*
X22664441Y-23446532D01*
X22665168Y-23554794D01*
X22712751Y-23663774D01*
X22765042Y-23711592D01*
X22857660Y-23736527D01*
X22955997Y-23715985D01*
X23039165Y-23650795D01*
X23047144Y-23640158D01*
X23093682Y-23531874D01*
X23090407Y-23422174D01*
X23041313Y-23328301D01*
X22950393Y-23267498D01*
X22866274Y-23254653D01*
X22772706Y-23283601D01*
X22702858Y-23351847D01*
X22664441Y-23446532D01*
X22463252Y-23446532D01*
X22465045Y-23397018D01*
X22511749Y-23265428D01*
X22603815Y-23153744D01*
X22632274Y-23132760D01*
X22755100Y-23082369D01*
X22890885Y-23072140D01*
X23012044Y-23105342D01*
X23020367Y-23109662D01*
X23045124Y-23116933D01*
X23060570Y-23101993D01*
X23068893Y-23054659D01*
X23072281Y-22964746D01*
X23072924Y-22822071D01*
X23072924Y-22506217D01*
X23183085Y-22506217D01*
X23293246Y-22506217D01*
X23293246Y-23193413D01*
X23293135Y-23279407D01*
X23292022Y-23472777D01*
X23291262Y-23531874D01*
X23289867Y-23640273D01*
G37*
G36*
X18630563Y-25137924D02*
G01*
X18632630Y-25139369D01*
X18685651Y-25169290D01*
X18733673Y-25167530D01*
X18805932Y-25133321D01*
X18897656Y-25098078D01*
X19000089Y-25102663D01*
X19004256Y-25103754D01*
X19102320Y-25118393D01*
X19209417Y-25120596D01*
X19327447Y-25113795D01*
X19327447Y-25504389D01*
X19327439Y-25515247D01*
X19325626Y-25664931D01*
X19321089Y-25790167D01*
X19314484Y-25878122D01*
X19306464Y-25915965D01*
X19268388Y-25930207D01*
X19196303Y-25936948D01*
X19107125Y-25936948D01*
X19107125Y-25644235D01*
X19105173Y-25520177D01*
X19094574Y-25399190D01*
X19071757Y-25324452D01*
X19033365Y-25286527D01*
X18976039Y-25275982D01*
X18961943Y-25276923D01*
X18912293Y-25304209D01*
X18879310Y-25374043D01*
X18860990Y-25492923D01*
X18855328Y-25667345D01*
X18855328Y-25936948D01*
X18760904Y-25936948D01*
X18666481Y-25936948D01*
X18666017Y-25693020D01*
X18665890Y-25671745D01*
X18655442Y-25498232D01*
X18626942Y-25380280D01*
X18578488Y-25313054D01*
X18508178Y-25291719D01*
X18489129Y-25292021D01*
X18460514Y-25298695D01*
X18442488Y-25322919D01*
X18432003Y-25376037D01*
X18426007Y-25469393D01*
X18421451Y-25614334D01*
X18412482Y-25936948D01*
X18300637Y-25936948D01*
X18188792Y-25936948D01*
X18199446Y-25587938D01*
X18202406Y-25496247D01*
X18208392Y-25372241D01*
X18217861Y-25290328D01*
X18233938Y-25237098D01*
X18259746Y-25199137D01*
X18298409Y-25163031D01*
X18395061Y-25105393D01*
X18515225Y-25091830D01*
X18630563Y-25137924D01*
G37*
G36*
X25017201Y-25259275D02*
G01*
X25017256Y-25263171D01*
X25019066Y-25452572D01*
X25019035Y-25563397D01*
X25019019Y-25621575D01*
X25017250Y-25759547D01*
X25013894Y-25855852D01*
X25009084Y-25899856D01*
X24995423Y-25916262D01*
X24949210Y-25930604D01*
X24861865Y-25935545D01*
X24722674Y-25932299D01*
X24719337Y-25932162D01*
X24589172Y-25925731D01*
X24503927Y-25915394D01*
X24445983Y-25895017D01*
X24397725Y-25858469D01*
X24341535Y-25799615D01*
X24305850Y-25759617D01*
X24257646Y-25691631D01*
X24240988Y-25626694D01*
X24244845Y-25557184D01*
X24457807Y-25557184D01*
X24469531Y-25625983D01*
X24503784Y-25684127D01*
X24513751Y-25691043D01*
X24583961Y-25719276D01*
X24676894Y-25739337D01*
X24804027Y-25756389D01*
X24804027Y-25563397D01*
X24804027Y-25370406D01*
X24700869Y-25370406D01*
X24678028Y-25371082D01*
X24563012Y-25399782D01*
X24485940Y-25464632D01*
X24457807Y-25557184D01*
X24244845Y-25557184D01*
X24245934Y-25537558D01*
X24272519Y-25425022D01*
X24350136Y-25304857D01*
X24388640Y-25261596D01*
X24415591Y-25211084D01*
X24400945Y-25175056D01*
X24392391Y-25162951D01*
X24371672Y-25095192D01*
X24364795Y-25018415D01*
X24557604Y-25018415D01*
X24584812Y-25120678D01*
X24621457Y-25159387D01*
X24710711Y-25181558D01*
X24711398Y-25181558D01*
X24764450Y-25178478D01*
X24792005Y-25158928D01*
X24802413Y-25107415D01*
X24804027Y-25008448D01*
X24802901Y-24928178D01*
X24794605Y-24866383D01*
X24772556Y-24840545D01*
X24730219Y-24835337D01*
X24641201Y-24859361D01*
X24579189Y-24925837D01*
X24557604Y-25018415D01*
X24364795Y-25018415D01*
X24363383Y-25002649D01*
X24364700Y-24961249D01*
X24389100Y-24859274D01*
X24455200Y-24765016D01*
X24479547Y-24738314D01*
X24527018Y-24695835D01*
X24579733Y-24673079D01*
X24656921Y-24663919D01*
X24777815Y-24662227D01*
X25008612Y-24662227D01*
X25013593Y-25008448D01*
X25017201Y-25259275D01*
G37*
G36*
X31235597Y-25565493D02*
G01*
X31237544Y-25574385D01*
X31235009Y-25590728D01*
X31224902Y-25655884D01*
X31208628Y-25675208D01*
X31169817Y-25721294D01*
X31090214Y-25748101D01*
X31070653Y-25748571D01*
X31045921Y-25760677D01*
X31071487Y-25801206D01*
X31086290Y-25819951D01*
X31095637Y-25843032D01*
X31056099Y-25832323D01*
X31054205Y-25831618D01*
X31013676Y-25825773D01*
X31015200Y-25842525D01*
X31016858Y-25860745D01*
X31023959Y-25888497D01*
X31018505Y-25939789D01*
X31003006Y-25959494D01*
X30977552Y-25963023D01*
X30932393Y-25937267D01*
X30853173Y-25876753D01*
X30819609Y-25851557D01*
X30736500Y-25798329D01*
X30733444Y-25796955D01*
X30825948Y-25796955D01*
X30862887Y-25842525D01*
X30907601Y-25884428D01*
X30946452Y-25905474D01*
X30961893Y-25893700D01*
X30973048Y-25842525D01*
X30972995Y-25838517D01*
X30953582Y-25792533D01*
X30889484Y-25779575D01*
X30838837Y-25781302D01*
X30825948Y-25796955D01*
X30733444Y-25796955D01*
X30674040Y-25770243D01*
X30649681Y-25763964D01*
X30639958Y-25755005D01*
X30689777Y-25748025D01*
X30746015Y-25744651D01*
X30797909Y-25746320D01*
X30877214Y-25743908D01*
X30945779Y-25704258D01*
X30959978Y-25669414D01*
X31004523Y-25669414D01*
X31016206Y-25696946D01*
X31067472Y-25716626D01*
X31115217Y-25706405D01*
X31126394Y-25675208D01*
X31080635Y-25641307D01*
X31041582Y-25627554D01*
X31010436Y-25629609D01*
X31004523Y-25669414D01*
X30959978Y-25669414D01*
X30973048Y-25637340D01*
X30981851Y-25590728D01*
X31067472Y-25590728D01*
X31068387Y-25598251D01*
X31098947Y-25622202D01*
X31106470Y-25621288D01*
X31130421Y-25590728D01*
X31129507Y-25583205D01*
X31098947Y-25559253D01*
X31091423Y-25560168D01*
X31067472Y-25590728D01*
X30981851Y-25590728D01*
X30982647Y-25586512D01*
X31016525Y-25559253D01*
X31046365Y-25550157D01*
X31056425Y-25542883D01*
X31168620Y-25542883D01*
X31172387Y-25580236D01*
X31181854Y-25585160D01*
X31193370Y-25559253D01*
X31191099Y-25542591D01*
X31172387Y-25538270D01*
X31168620Y-25542883D01*
X31056425Y-25542883D01*
X31111292Y-25503209D01*
X31179895Y-25433248D01*
X31234222Y-25359573D01*
X31256320Y-25301481D01*
X31261383Y-25270586D01*
X31287794Y-25244507D01*
X31304891Y-25236225D01*
X31322920Y-25189427D01*
X31324072Y-25172987D01*
X31329003Y-25150636D01*
X31340965Y-25189427D01*
X31366540Y-25225526D01*
X31439606Y-25248158D01*
X31451602Y-25248770D01*
X31490018Y-25255240D01*
X31466462Y-25266649D01*
X31435216Y-25282716D01*
X31427476Y-25329451D01*
X31431430Y-25360087D01*
X31396254Y-25358371D01*
X31393348Y-25357281D01*
X31360976Y-25357143D01*
X31366544Y-25402078D01*
X31372147Y-25440336D01*
X31352864Y-25464829D01*
X31337385Y-25459485D01*
X31319269Y-25417617D01*
X31311190Y-25385163D01*
X31279221Y-25372889D01*
X31248311Y-25409749D01*
X31249859Y-25440105D01*
X31285032Y-25491005D01*
X31301625Y-25505193D01*
X31315750Y-25523886D01*
X31276132Y-25514143D01*
X31261027Y-25509820D01*
X31230268Y-25515322D01*
X31234934Y-25559253D01*
X31235597Y-25565493D01*
G37*
G36*
X27263333Y-22427526D02*
G01*
X27223500Y-22537683D01*
X27143980Y-22443179D01*
X27127023Y-22424132D01*
X27072073Y-22376668D01*
X27035855Y-22366355D01*
X27023578Y-22377322D01*
X27007408Y-22428135D01*
X27015960Y-22467218D01*
X27019085Y-22481498D01*
X27054461Y-22506217D01*
X27076072Y-22508853D01*
X27101675Y-22529823D01*
X27096925Y-22535951D01*
X27049592Y-22547417D01*
X26967908Y-22550689D01*
X26958604Y-22550574D01*
X26932691Y-22553429D01*
X26857975Y-22561661D01*
X26815612Y-22584904D01*
X26800957Y-22592945D01*
X26781215Y-22609446D01*
X26709170Y-22641538D01*
X26612109Y-22666973D01*
X26556828Y-22679139D01*
X26480424Y-22703893D01*
X26445952Y-22727010D01*
X26441825Y-22735344D01*
X26400067Y-22758014D01*
X26379880Y-22765438D01*
X26321608Y-22806332D01*
X26248937Y-22871028D01*
X26210101Y-22907260D01*
X26147579Y-22953276D01*
X26120230Y-22952386D01*
X26128047Y-22908263D01*
X26171025Y-22824580D01*
X26249160Y-22705011D01*
X26334144Y-22600641D01*
X26566605Y-22600641D01*
X26571931Y-22615120D01*
X26613816Y-22632116D01*
X26635535Y-22628565D01*
X26661028Y-22600641D01*
X26655702Y-22586162D01*
X26652602Y-22584904D01*
X26755452Y-22584904D01*
X26771189Y-22600641D01*
X26786927Y-22584904D01*
X26771189Y-22569166D01*
X26755452Y-22584904D01*
X26652602Y-22584904D01*
X26613816Y-22569166D01*
X26592098Y-22572717D01*
X26566605Y-22600641D01*
X26334144Y-22600641D01*
X26372587Y-22553429D01*
X26692503Y-22553429D01*
X26708240Y-22569166D01*
X26723978Y-22553429D01*
X26708240Y-22537692D01*
X26692503Y-22553429D01*
X26372587Y-22553429D01*
X26452142Y-22455727D01*
X26826926Y-22455727D01*
X26827413Y-22466471D01*
X26868236Y-22472258D01*
X26899174Y-22467218D01*
X26887252Y-22453242D01*
X26869051Y-22448213D01*
X26826926Y-22455727D01*
X26452142Y-22455727D01*
X26459899Y-22446200D01*
X26554833Y-22362536D01*
X27151660Y-22362536D01*
X27166306Y-22414940D01*
X27199917Y-22465527D01*
X27220930Y-22461870D01*
X27227571Y-22397044D01*
X27217062Y-22341794D01*
X27180936Y-22337241D01*
X27151660Y-22362536D01*
X26554833Y-22362536D01*
X26703264Y-22231726D01*
X26975408Y-22069479D01*
X27030142Y-22043826D01*
X27141903Y-21997462D01*
X27242815Y-21969397D01*
X27357475Y-21953922D01*
X27510477Y-21945332D01*
X27829427Y-21958679D01*
X28167172Y-22025229D01*
X28492949Y-22140862D01*
X28793188Y-22300701D01*
X29054316Y-22499872D01*
X29060520Y-22506217D01*
X29201884Y-22650798D01*
X29356231Y-22867799D01*
X29458232Y-23104648D01*
X29511523Y-23370525D01*
X29519742Y-23674611D01*
X29508463Y-23847642D01*
X29489944Y-23966795D01*
X29464426Y-24024386D01*
X29439429Y-24044155D01*
X29442433Y-24027031D01*
X29445103Y-24012078D01*
X29427732Y-23951359D01*
X29384101Y-23873134D01*
X29362423Y-23840158D01*
X29321241Y-23769913D01*
X29304895Y-23729491D01*
X29296683Y-23710995D01*
X29257366Y-23649662D01*
X29192963Y-23558621D01*
X29111707Y-23449787D01*
X29073085Y-23399461D01*
X28972946Y-23272754D01*
X28904669Y-23195634D01*
X28864874Y-23166702D01*
X28850180Y-23184562D01*
X28857205Y-23247815D01*
X28882568Y-23355064D01*
X28919344Y-23595342D01*
X28909929Y-23873885D01*
X28852633Y-24156175D01*
X28751428Y-24428653D01*
X28610282Y-24677759D01*
X28433167Y-24889931D01*
X28396950Y-24923574D01*
X28236365Y-25046604D01*
X28050788Y-25157970D01*
X27862168Y-25245598D01*
X27692456Y-25297412D01*
X27662051Y-25304414D01*
X27621822Y-25316732D01*
X27557049Y-25336565D01*
X27447893Y-25378228D01*
X27306258Y-25438934D01*
X27444073Y-25562043D01*
X27496431Y-25606872D01*
X27590288Y-25670817D01*
X27653485Y-25682988D01*
X27689813Y-25643229D01*
X27703061Y-25551385D01*
X27706431Y-25417617D01*
X27735734Y-25548081D01*
X27741406Y-25572555D01*
X27766089Y-25644312D01*
X27806323Y-25677962D01*
X27881868Y-25693118D01*
X27947098Y-25700460D01*
X27999159Y-25698349D01*
X28007002Y-25673291D01*
X27981432Y-25617029D01*
X27973562Y-25601556D01*
X27962745Y-25572097D01*
X27983149Y-25582769D01*
X28041520Y-25635661D01*
X28139711Y-25727807D01*
X28173477Y-25630946D01*
X28174140Y-25629074D01*
X28205491Y-25574990D01*
X28234758Y-25574990D01*
X28250496Y-25590728D01*
X28266233Y-25574990D01*
X28250496Y-25559253D01*
X28234758Y-25574990D01*
X28205491Y-25574990D01*
X28215839Y-25557138D01*
X28268213Y-25518141D01*
X28297599Y-25511626D01*
X28323268Y-25518128D01*
X28323070Y-25557858D01*
X28318577Y-25574990D01*
X28300424Y-25644204D01*
X28297310Y-25655092D01*
X28283604Y-25715875D01*
X28299529Y-25731078D01*
X28355505Y-25713880D01*
X28421062Y-25690085D01*
X28480044Y-25668947D01*
X28480747Y-25668696D01*
X28504687Y-25643453D01*
X28485609Y-25588960D01*
X28465224Y-25547446D01*
X28475010Y-25541428D01*
X28527687Y-25573901D01*
X28549874Y-25587992D01*
X28595533Y-25605876D01*
X28639919Y-25590978D01*
X28707009Y-25538575D01*
X28724905Y-25523393D01*
X28775228Y-25475349D01*
X28781868Y-25449234D01*
X28750128Y-25431926D01*
X28723191Y-25421205D01*
X28718222Y-25406368D01*
X28769826Y-25387182D01*
X28844494Y-25352547D01*
X28925603Y-25295970D01*
X29002693Y-25228770D01*
X28949209Y-25314218D01*
X28948700Y-25315032D01*
X28911268Y-25385159D01*
X28895725Y-25434445D01*
X28895719Y-25434955D01*
X28875826Y-25487341D01*
X28822774Y-25575808D01*
X28744424Y-25688994D01*
X28648632Y-25815535D01*
X28543260Y-25944067D01*
X28464627Y-26039675D01*
X28422628Y-26103662D01*
X28411144Y-26148913D01*
X28423638Y-26188806D01*
X28431067Y-26202280D01*
X28452263Y-26227091D01*
X28483110Y-26226508D01*
X28537509Y-26196860D01*
X28629359Y-26134475D01*
X28713314Y-26071274D01*
X28776593Y-26013618D01*
X28800928Y-25977279D01*
X28807975Y-25960057D01*
X28848513Y-25957041D01*
X28887174Y-25980808D01*
X28885214Y-26014638D01*
X28824907Y-26043792D01*
X28777206Y-26066879D01*
X28705160Y-26115733D01*
X28630939Y-26174750D01*
X28572927Y-26229207D01*
X28549504Y-26264380D01*
X28551815Y-26266638D01*
X28592390Y-26281143D01*
X28667139Y-26301635D01*
X28754573Y-26322821D01*
X28833202Y-26339412D01*
X28881537Y-26346118D01*
X28889532Y-26337862D01*
X28899376Y-26291038D01*
X28900440Y-26276275D01*
X28905735Y-26254710D01*
X28917914Y-26293599D01*
X28927936Y-26317169D01*
X28953386Y-26334057D01*
X29005294Y-26341425D01*
X29095759Y-26340792D01*
X29236878Y-26333679D01*
X29318513Y-26328568D01*
X29488703Y-26313844D01*
X29601004Y-26296493D01*
X29613457Y-26292057D01*
X29779794Y-26292057D01*
X29815868Y-26324366D01*
X29846464Y-26354786D01*
X29855335Y-26383204D01*
X29854113Y-26385442D01*
X29870275Y-26419056D01*
X29918773Y-26472133D01*
X29955225Y-26504456D01*
X29988528Y-26521313D01*
X29997336Y-26495361D01*
X29987150Y-26463871D01*
X29938044Y-26425965D01*
X29905319Y-26406048D01*
X29882963Y-26354232D01*
X29874564Y-26321762D01*
X29824225Y-26290985D01*
X29796752Y-26286931D01*
X29779794Y-26292057D01*
X29613457Y-26292057D01*
X29643623Y-26281311D01*
X29902912Y-26281311D01*
X29904112Y-26290142D01*
X29934386Y-26330381D01*
X29950602Y-26333342D01*
X29955035Y-26323878D01*
X30022585Y-26323878D01*
X30028512Y-26377036D01*
X30051968Y-26409362D01*
X30110594Y-26453112D01*
X30140348Y-26461356D01*
X30141343Y-26443669D01*
X30107136Y-26385997D01*
X30054401Y-26303266D01*
X30022585Y-26323878D01*
X29955035Y-26323878D01*
X29965861Y-26300764D01*
X29965556Y-26298906D01*
X30051621Y-26298906D01*
X30052806Y-26300764D01*
X30054401Y-26303266D01*
X30055512Y-26302547D01*
X30150377Y-26391350D01*
X30206268Y-26443669D01*
X30249132Y-26483794D01*
X30249132Y-26402631D01*
X30233485Y-26337400D01*
X30172947Y-26302346D01*
X30149633Y-26297242D01*
X30066342Y-26295531D01*
X30055512Y-26302547D01*
X30051621Y-26298906D01*
X29965556Y-26298906D01*
X29962009Y-26277313D01*
X29934386Y-26251694D01*
X29926919Y-26252542D01*
X29902912Y-26281311D01*
X29643623Y-26281311D01*
X29659054Y-26275814D01*
X29666491Y-26251110D01*
X29666200Y-26245851D01*
X29700163Y-26237822D01*
X29772721Y-26242521D01*
X29839903Y-26248032D01*
X29899980Y-26233534D01*
X29907349Y-26225785D01*
X30098709Y-26225785D01*
X30123234Y-26248482D01*
X30150806Y-26265993D01*
X30192194Y-26282687D01*
X30204028Y-26278168D01*
X30312082Y-26278168D01*
X30312151Y-26281011D01*
X30334032Y-26308577D01*
X30401915Y-26304545D01*
X30472375Y-26301831D01*
X30527814Y-26322643D01*
X30554864Y-26339591D01*
X30563878Y-26305201D01*
X30562044Y-26281257D01*
X30544473Y-26256773D01*
X30495214Y-26244425D01*
X30398637Y-26237842D01*
X30339657Y-26244298D01*
X30312082Y-26278168D01*
X30204028Y-26278168D01*
X30213676Y-26274484D01*
X30240169Y-26235375D01*
X30236547Y-26197143D01*
X30230068Y-26192723D01*
X30217658Y-26212027D01*
X30201330Y-26230012D01*
X30146840Y-26230280D01*
X30128093Y-26226401D01*
X30098709Y-26225785D01*
X29907349Y-26225785D01*
X29945839Y-26185311D01*
X29958639Y-26167643D01*
X29988614Y-26138702D01*
X29997336Y-26162658D01*
X29997337Y-26163225D01*
X30006121Y-26193229D01*
X30042779Y-26198547D01*
X30123234Y-26181570D01*
X30139129Y-26177229D01*
X30443547Y-26177229D01*
X30469455Y-26188745D01*
X30486117Y-26186474D01*
X30489227Y-26173008D01*
X30532404Y-26173008D01*
X30548141Y-26188745D01*
X30563878Y-26173008D01*
X30548141Y-26157271D01*
X30537650Y-26167762D01*
X30532404Y-26173008D01*
X30489227Y-26173008D01*
X30490438Y-26167762D01*
X30485825Y-26163995D01*
X30448472Y-26167762D01*
X30443547Y-26177229D01*
X30139129Y-26177229D01*
X30153263Y-26173369D01*
X30221774Y-26148968D01*
X30249132Y-26129609D01*
X30256933Y-26123801D01*
X30309579Y-26118247D01*
X30395496Y-26121246D01*
X30421371Y-26123181D01*
X30496584Y-26124560D01*
X30525679Y-26111741D01*
X30521755Y-26080495D01*
X30515479Y-26053643D01*
X30530514Y-26045942D01*
X30552327Y-26040588D01*
X30573079Y-25992496D01*
X30579869Y-25961019D01*
X30586722Y-25956164D01*
X30591067Y-26011134D01*
X30592383Y-26030421D01*
X30607864Y-26080595D01*
X30645139Y-26081951D01*
X30671023Y-26073313D01*
X30725947Y-26062847D01*
X30740820Y-26048177D01*
X30735738Y-25995956D01*
X30727913Y-25953094D01*
X30749354Y-25950602D01*
X30770252Y-25953471D01*
X30787338Y-25915200D01*
X30787784Y-25908753D01*
X30795982Y-25892086D01*
X30813035Y-25936948D01*
X30841653Y-25991857D01*
X30896319Y-26004610D01*
X30934983Y-25999462D01*
X30936833Y-26013475D01*
X30896213Y-26060801D01*
X30843145Y-26102823D01*
X30795063Y-26112543D01*
X30777333Y-26108880D01*
X30736139Y-26127171D01*
X30731769Y-26138296D01*
X30752726Y-26157271D01*
X30765718Y-26160543D01*
X30766192Y-26173008D01*
X30766887Y-26191295D01*
X30733292Y-26209048D01*
X30662737Y-26204957D01*
X30616720Y-26194584D01*
X30602228Y-26198601D01*
X30638956Y-26228705D01*
X30647797Y-26235375D01*
X30649472Y-26236639D01*
X30676560Y-26265801D01*
X30662802Y-26294727D01*
X30649160Y-26305201D01*
X30602470Y-26341050D01*
X30591139Y-26348773D01*
X30514367Y-26385632D01*
X30456218Y-26389934D01*
X30455019Y-26389478D01*
X30420846Y-26387251D01*
X30427223Y-26429169D01*
X30438590Y-26464645D01*
X30427551Y-26467153D01*
X30380368Y-26427795D01*
X30333935Y-26389715D01*
X30314880Y-26393645D01*
X30314424Y-26402631D01*
X30312082Y-26448778D01*
X30303046Y-26495361D01*
X30299654Y-26512850D01*
X30252042Y-26546820D01*
X30173542Y-26527051D01*
X30159320Y-26519979D01*
X30127377Y-26513598D01*
X30134556Y-26550546D01*
X30136135Y-26559520D01*
X30140972Y-26587001D01*
X30109887Y-26587450D01*
X30086407Y-26583710D01*
X30051818Y-26607552D01*
X30041851Y-26622104D01*
X29998567Y-26629009D01*
X29911119Y-26610949D01*
X29896194Y-26607007D01*
X29824339Y-26591392D01*
X29797082Y-26597314D01*
X29801058Y-26626686D01*
X29806997Y-26645786D01*
X29798648Y-26654669D01*
X29754765Y-26620162D01*
X29735161Y-26603688D01*
X29694997Y-26583212D01*
X29673624Y-26607354D01*
X29641841Y-26627282D01*
X29566191Y-26632479D01*
X29466190Y-26622261D01*
X29360358Y-26599695D01*
X29267219Y-26567849D01*
X29205296Y-26529791D01*
X29175922Y-26504345D01*
X29131817Y-26479416D01*
X29312564Y-26479416D01*
X29350303Y-26521802D01*
X29389044Y-26547300D01*
X29437263Y-26565537D01*
X29446051Y-26547717D01*
X29407187Y-26497371D01*
X29404400Y-26494623D01*
X29361253Y-26463347D01*
X29445794Y-26463347D01*
X29493742Y-26519228D01*
X29525040Y-26547717D01*
X29561564Y-26580963D01*
X29605182Y-26593066D01*
X29619640Y-26549924D01*
X29598449Y-26509542D01*
X29538905Y-26471237D01*
X29497633Y-26456114D01*
X29445854Y-26443623D01*
X29445794Y-26463347D01*
X29361253Y-26463347D01*
X29349996Y-26455187D01*
X29313687Y-26452733D01*
X29312564Y-26479416D01*
X29131817Y-26479416D01*
X29126520Y-26476422D01*
X29095655Y-26474719D01*
X29100310Y-26503491D01*
X29109417Y-26524427D01*
X29095205Y-26535024D01*
X29055461Y-26515839D01*
X29005986Y-26472128D01*
X29002803Y-26468648D01*
X28951305Y-26430206D01*
X28907562Y-26443779D01*
X28894959Y-26450180D01*
X28827609Y-26450003D01*
X28730253Y-26425745D01*
X28718753Y-26421437D01*
X29084572Y-26421437D01*
X29090371Y-26429584D01*
X29131784Y-26451924D01*
X29155925Y-26456872D01*
X29178996Y-26439554D01*
X29173678Y-26425539D01*
X29131784Y-26409067D01*
X29110274Y-26410435D01*
X29084572Y-26421437D01*
X28718753Y-26421437D01*
X28654989Y-26397551D01*
X28806868Y-26397551D01*
X28832776Y-26409067D01*
X28846401Y-26407210D01*
X29210471Y-26407210D01*
X29211671Y-26416040D01*
X29229362Y-26439554D01*
X29241945Y-26456279D01*
X29258161Y-26459240D01*
X29266701Y-26441008D01*
X29700288Y-26441008D01*
X29722512Y-26483199D01*
X29794018Y-26521786D01*
X29865312Y-26549924D01*
X29876123Y-26554191D01*
X29914490Y-26559520D01*
X29904047Y-26528616D01*
X29849173Y-26456280D01*
X29797388Y-26394213D01*
X29751549Y-26354206D01*
X29741763Y-26356610D01*
X29723798Y-26361023D01*
X29704276Y-26411625D01*
X29701522Y-26431914D01*
X29700288Y-26441008D01*
X29266701Y-26441008D01*
X29273420Y-26426662D01*
X29269568Y-26403212D01*
X29241945Y-26377593D01*
X29234478Y-26378440D01*
X29226431Y-26388084D01*
X29210471Y-26407210D01*
X28846401Y-26407210D01*
X28849438Y-26406796D01*
X28853759Y-26388084D01*
X28849145Y-26384317D01*
X28811792Y-26388084D01*
X28806868Y-26397551D01*
X28654989Y-26397551D01*
X28620374Y-26384584D01*
X28573512Y-26361855D01*
X28706877Y-26361855D01*
X28722614Y-26377593D01*
X28725982Y-26374225D01*
X29430793Y-26374225D01*
X29437357Y-26390650D01*
X29480579Y-26421437D01*
X29498311Y-26426662D01*
X29540760Y-26439170D01*
X29574244Y-26431914D01*
X29556691Y-26393330D01*
X29552206Y-26388222D01*
X29501253Y-26353945D01*
X29481632Y-26351562D01*
X29571353Y-26351562D01*
X29586543Y-26391103D01*
X29625547Y-26421442D01*
X29661880Y-26419286D01*
X29668808Y-26409929D01*
X29682590Y-26356610D01*
X29662906Y-26323804D01*
X29616013Y-26316218D01*
X29574633Y-26342552D01*
X29571353Y-26351562D01*
X29481632Y-26351562D01*
X29452533Y-26348028D01*
X29441058Y-26361855D01*
X29430793Y-26374225D01*
X28725982Y-26374225D01*
X28738352Y-26361855D01*
X28722614Y-26346118D01*
X28706877Y-26361855D01*
X28573512Y-26361855D01*
X28515454Y-26333696D01*
X28432975Y-26280261D01*
X28390419Y-26231455D01*
X28385263Y-26218129D01*
X28363795Y-26181663D01*
X28329086Y-26180565D01*
X28259790Y-26211587D01*
X28245863Y-26218516D01*
X28176721Y-26255923D01*
X28140334Y-26280703D01*
X28114612Y-26297813D01*
X28045603Y-26335067D01*
X27951487Y-26381727D01*
X27926044Y-26393725D01*
X27784341Y-26451798D01*
X27640306Y-26491988D01*
X27463631Y-26523076D01*
X27455122Y-26524081D01*
X27375844Y-26524214D01*
X27267673Y-26515259D01*
X27148947Y-26499904D01*
X27038005Y-26480840D01*
X26953185Y-26460752D01*
X26912825Y-26442330D01*
X26902796Y-26433923D01*
X26847136Y-26403986D01*
X26763498Y-26367883D01*
X26725723Y-26351617D01*
X26607962Y-26289970D01*
X26498661Y-26220220D01*
X26495132Y-26217654D01*
X26401295Y-26144287D01*
X26298785Y-26056450D01*
X26199078Y-25965012D01*
X26113650Y-25880845D01*
X26053977Y-25814815D01*
X26031536Y-25777793D01*
X26030635Y-25770747D01*
X26000062Y-25748101D01*
X25985667Y-25742870D01*
X25968587Y-25701156D01*
X25955241Y-25664001D01*
X25905638Y-25614898D01*
X25876474Y-25592650D01*
X25845720Y-25547697D01*
X25852356Y-25516332D01*
X25897769Y-25515998D01*
X25906117Y-25518644D01*
X25933911Y-25523730D01*
X25905901Y-25500584D01*
X25876552Y-25468067D01*
X25898032Y-25428371D01*
X25932279Y-25405752D01*
X25974882Y-25427060D01*
X25991232Y-25447602D01*
X25986766Y-25464829D01*
X25979033Y-25473896D01*
X25999774Y-25511695D01*
X26026510Y-25535043D01*
X26066577Y-25541312D01*
X26079001Y-25537929D01*
X26098116Y-25565264D01*
X26099620Y-25582280D01*
X26105985Y-25653677D01*
X26119511Y-25680183D01*
X26173147Y-25695210D01*
X26212488Y-25699821D01*
X26261636Y-25735215D01*
X26278846Y-25755955D01*
X26316742Y-25762643D01*
X26327216Y-25758282D01*
X26346282Y-25776730D01*
X26351495Y-25790093D01*
X26389436Y-25792515D01*
X26422243Y-25791311D01*
X26478485Y-25821851D01*
X26499384Y-25838858D01*
X26579474Y-25887365D01*
X26692779Y-25945158D01*
X26821546Y-26003936D01*
X26948024Y-26055396D01*
X27054461Y-26091235D01*
X27115772Y-26105424D01*
X27257359Y-26126803D01*
X27421120Y-26141784D01*
X27586025Y-26149153D01*
X27731049Y-26147700D01*
X27835164Y-26136213D01*
X27954901Y-26109801D01*
X27685867Y-25910544D01*
X27555722Y-25812660D01*
X27455804Y-25733100D01*
X27404314Y-25684882D01*
X27399195Y-25666045D01*
X27438390Y-25674630D01*
X27457055Y-25678231D01*
X27453451Y-25656002D01*
X27402587Y-25595506D01*
X27366062Y-25558589D01*
X27314844Y-25523499D01*
X27285039Y-25535570D01*
X27266799Y-25553546D01*
X27259528Y-25519910D01*
X27253971Y-25490793D01*
X27224204Y-25464829D01*
X27208534Y-25457060D01*
X27208424Y-25415154D01*
X27208634Y-25385738D01*
X27169034Y-25317197D01*
X27141497Y-25289447D01*
X27205428Y-25289447D01*
X27225080Y-25334277D01*
X27249123Y-25374990D01*
X27278322Y-25394553D01*
X27327675Y-25387096D01*
X27416419Y-25354668D01*
X27462849Y-25335436D01*
X27489123Y-25316732D01*
X27459696Y-25309851D01*
X27384504Y-25302438D01*
X27290857Y-25287065D01*
X27288830Y-25286660D01*
X27222650Y-25276466D01*
X27205428Y-25289447D01*
X27141497Y-25289447D01*
X27085423Y-25232938D01*
X26965273Y-25141375D01*
X26913795Y-25099938D01*
X26810870Y-24966366D01*
X26738788Y-24795094D01*
X26700815Y-24599890D01*
X26700217Y-24394523D01*
X26703306Y-24378956D01*
X27038724Y-24378956D01*
X27054461Y-24394693D01*
X27070198Y-24378956D01*
X27054461Y-24363218D01*
X27038724Y-24378956D01*
X26703306Y-24378956D01*
X26740259Y-24192762D01*
X26767289Y-24114266D01*
X26795208Y-24050193D01*
X26812292Y-24031872D01*
X26819723Y-24033399D01*
X26865372Y-24013981D01*
X26933418Y-23968216D01*
X27038245Y-23888261D01*
X27008991Y-23965205D01*
X26994347Y-24030745D01*
X26993937Y-24143323D01*
X27014160Y-24252995D01*
X27051603Y-24330505D01*
X27056089Y-24336038D01*
X27080614Y-24378956D01*
X27094693Y-24403595D01*
X27130081Y-24492357D01*
X27159837Y-24563492D01*
X27253344Y-24681978D01*
X27400681Y-24781152D01*
X27549299Y-24854591D01*
X27729360Y-24926602D01*
X27874674Y-24959369D01*
X27992617Y-24954300D01*
X28090568Y-24912803D01*
X28147946Y-24882096D01*
X28191753Y-24872350D01*
X28238041Y-24860935D01*
X28313890Y-24818937D01*
X28401992Y-24758168D01*
X28485176Y-24690478D01*
X28546267Y-24627719D01*
X28546811Y-24627026D01*
X28599613Y-24545095D01*
X28632232Y-24468483D01*
X28651179Y-24424746D01*
X28678760Y-24412505D01*
X28691924Y-24416230D01*
X28704111Y-24397153D01*
X28712881Y-24339510D01*
X28721075Y-24231129D01*
X28725311Y-24203572D01*
X28747166Y-24155065D01*
X28765344Y-24127858D01*
X28766087Y-24095459D01*
X28739275Y-24095114D01*
X28712453Y-24082752D01*
X28690616Y-24026154D01*
X28680818Y-23987660D01*
X28648861Y-23888934D01*
X28607886Y-23780938D01*
X28583535Y-23719042D01*
X28553683Y-23633477D01*
X28541138Y-23582903D01*
X28540939Y-23580926D01*
X28511999Y-23537250D01*
X28449835Y-23489562D01*
X28445240Y-23486796D01*
X28385348Y-23439202D01*
X28360657Y-23397445D01*
X28353927Y-23379438D01*
X28313445Y-23376124D01*
X28288129Y-23379898D01*
X28265751Y-23351530D01*
X28261948Y-23328590D01*
X28241986Y-23345414D01*
X28233717Y-23355119D01*
X28191213Y-23363039D01*
X28111431Y-23336904D01*
X28094606Y-23329782D01*
X28037010Y-23301114D01*
X28029387Y-23278451D01*
X28064340Y-23247794D01*
X28100015Y-23217829D01*
X28092390Y-23198930D01*
X28030135Y-23180640D01*
X27958460Y-23156137D01*
X27916977Y-23128957D01*
X27892692Y-23113926D01*
X27821568Y-23101358D01*
X27731417Y-23100335D01*
X27647836Y-23110617D01*
X27596422Y-23131964D01*
X27555981Y-23153934D01*
X27480942Y-23165905D01*
X27443816Y-23164543D01*
X27424475Y-23155052D01*
X27445678Y-23126553D01*
X27510842Y-23067829D01*
X27585587Y-23011924D01*
X27701730Y-22940478D01*
X27824319Y-22876955D01*
X27933406Y-22833268D01*
X28137915Y-22793147D01*
X28338521Y-22813436D01*
X28545145Y-22894374D01*
X28556402Y-22900256D01*
X28645596Y-22944549D01*
X28702377Y-22961811D01*
X28747726Y-22954566D01*
X28802627Y-22925334D01*
X28844312Y-22899863D01*
X28886979Y-22860898D01*
X28877859Y-22820826D01*
X28818905Y-22759768D01*
X28742086Y-22687600D01*
X28711583Y-22793625D01*
X28681080Y-22899650D01*
X28678241Y-22766990D01*
X28675887Y-22721818D01*
X28656170Y-22643381D01*
X28610607Y-22599653D01*
X28579373Y-22588905D01*
X28509917Y-22582441D01*
X28437850Y-22588264D01*
X28384965Y-22603883D01*
X28373053Y-22626808D01*
X28373440Y-22627530D01*
X28353550Y-22643993D01*
X28291643Y-22654690D01*
X28244694Y-22656547D01*
X28217932Y-22646426D01*
X28236685Y-22614057D01*
X28239302Y-22610810D01*
X28253526Y-22573908D01*
X28232836Y-22528135D01*
X28213452Y-22506217D01*
X28360657Y-22506217D01*
X28361571Y-22513740D01*
X28392131Y-22537692D01*
X28399654Y-22536777D01*
X28423606Y-22506217D01*
X28422691Y-22498694D01*
X28392131Y-22474743D01*
X28384608Y-22475657D01*
X28383869Y-22476600D01*
X28360657Y-22506217D01*
X28213452Y-22506217D01*
X28170559Y-22457716D01*
X28133671Y-22424880D01*
X28252024Y-22424880D01*
X28254223Y-22457371D01*
X28264383Y-22480250D01*
X28287593Y-22505198D01*
X28297707Y-22476600D01*
X28296589Y-22468051D01*
X28266593Y-22427754D01*
X28252024Y-22424880D01*
X28133671Y-22424880D01*
X28096895Y-22392144D01*
X28021248Y-22352938D01*
X27969662Y-22361718D01*
X27949002Y-22419662D01*
X27946340Y-22458003D01*
X27937086Y-22459260D01*
X27914905Y-22403925D01*
X27881559Y-22346631D01*
X27822157Y-22317370D01*
X27812570Y-22317429D01*
X27780502Y-22323730D01*
X27781093Y-22352253D01*
X27812824Y-22419662D01*
X27839222Y-22473347D01*
X27843064Y-22491372D01*
X27816275Y-22466326D01*
X27753444Y-22396056D01*
X27642264Y-22270158D01*
X27612547Y-22348844D01*
X27589760Y-22409216D01*
X27565058Y-22474743D01*
X27560779Y-22482557D01*
X27550217Y-22466970D01*
X27544802Y-22403925D01*
X27540695Y-22342922D01*
X27521531Y-22297371D01*
X27478260Y-22285895D01*
X27456434Y-22286674D01*
X27430609Y-22302323D01*
X27449336Y-22351540D01*
X27459658Y-22372674D01*
X27471433Y-22423882D01*
X27451759Y-22430333D01*
X27411028Y-22383384D01*
X27396069Y-22361280D01*
X27347967Y-22321997D01*
X27304771Y-22343766D01*
X27278413Y-22397044D01*
X27263333Y-22427526D01*
G37*
%TD*%
M02*
