%TF.GenerationSoftware,KiCad,Pcbnew,10.0.1*%
%TF.CreationDate,2026-08-06T17:23:21+02:00*%
%TF.ProjectId,Honeywell_HSC_SMT,486f6e65-7977-4656-9c6c-5f4853435f53,Mario Wilhelm*%
%TF.SameCoordinates,Original*%
%TF.FileFunction,Legend,Top*%
%TF.FilePolarity,Positive*%
%FSLAX46Y46*%
G04 Gerber Fmt 4.6, Leading zero omitted, Abs format (unit mm)*
G04 Created by KiCad (PCBNEW 10.0.1) date 2026-08-06 17:23:21*
%MOMM*%
%LPD*%
G01*
G04 APERTURE LIST*
%ADD10C,0.100000*%
%ADD11C,0.200000*%
%ADD12C,0.150000*%
%ADD13C,0.375000*%
%ADD14C,0.120000*%
%ADD15C,0.250000*%
G04 APERTURE END LIST*
D10*
X18227693Y-15620038D02*
X18132455Y-15572419D01*
X18132455Y-15572419D02*
X17989598Y-15572419D01*
X17989598Y-15572419D02*
X17846741Y-15620038D01*
X17846741Y-15620038D02*
X17751503Y-15715276D01*
X17751503Y-15715276D02*
X17703884Y-15810514D01*
X17703884Y-15810514D02*
X17656265Y-16000990D01*
X17656265Y-16000990D02*
X17656265Y-16143847D01*
X17656265Y-16143847D02*
X17703884Y-16334323D01*
X17703884Y-16334323D02*
X17751503Y-16429561D01*
X17751503Y-16429561D02*
X17846741Y-16524800D01*
X17846741Y-16524800D02*
X17989598Y-16572419D01*
X17989598Y-16572419D02*
X18084836Y-16572419D01*
X18084836Y-16572419D02*
X18227693Y-16524800D01*
X18227693Y-16524800D02*
X18275312Y-16477180D01*
X18275312Y-16477180D02*
X18275312Y-16143847D01*
X18275312Y-16143847D02*
X18084836Y-16143847D01*
X18703884Y-16572419D02*
X18703884Y-15572419D01*
X18703884Y-15572419D02*
X19275312Y-16572419D01*
X19275312Y-16572419D02*
X19275312Y-15572419D01*
X19751503Y-16572419D02*
X19751503Y-15572419D01*
X19751503Y-15572419D02*
X19989598Y-15572419D01*
X19989598Y-15572419D02*
X20132455Y-15620038D01*
X20132455Y-15620038D02*
X20227693Y-15715276D01*
X20227693Y-15715276D02*
X20275312Y-15810514D01*
X20275312Y-15810514D02*
X20322931Y-16000990D01*
X20322931Y-16000990D02*
X20322931Y-16143847D01*
X20322931Y-16143847D02*
X20275312Y-16334323D01*
X20275312Y-16334323D02*
X20227693Y-16429561D01*
X20227693Y-16429561D02*
X20132455Y-16524800D01*
X20132455Y-16524800D02*
X19989598Y-16572419D01*
X19989598Y-16572419D02*
X19751503Y-16572419D01*
X17706265Y-21624800D02*
X17849122Y-21672419D01*
X17849122Y-21672419D02*
X18087217Y-21672419D01*
X18087217Y-21672419D02*
X18182455Y-21624800D01*
X18182455Y-21624800D02*
X18230074Y-21577180D01*
X18230074Y-21577180D02*
X18277693Y-21481942D01*
X18277693Y-21481942D02*
X18277693Y-21386704D01*
X18277693Y-21386704D02*
X18230074Y-21291466D01*
X18230074Y-21291466D02*
X18182455Y-21243847D01*
X18182455Y-21243847D02*
X18087217Y-21196228D01*
X18087217Y-21196228D02*
X17896741Y-21148609D01*
X17896741Y-21148609D02*
X17801503Y-21100990D01*
X17801503Y-21100990D02*
X17753884Y-21053371D01*
X17753884Y-21053371D02*
X17706265Y-20958133D01*
X17706265Y-20958133D02*
X17706265Y-20862895D01*
X17706265Y-20862895D02*
X17753884Y-20767657D01*
X17753884Y-20767657D02*
X17801503Y-20720038D01*
X17801503Y-20720038D02*
X17896741Y-20672419D01*
X17896741Y-20672419D02*
X18134836Y-20672419D01*
X18134836Y-20672419D02*
X18277693Y-20720038D01*
X18706265Y-21672419D02*
X18706265Y-20672419D01*
X18706265Y-20672419D02*
X18944360Y-20672419D01*
X18944360Y-20672419D02*
X19087217Y-20720038D01*
X19087217Y-20720038D02*
X19182455Y-20815276D01*
X19182455Y-20815276D02*
X19230074Y-20910514D01*
X19230074Y-20910514D02*
X19277693Y-21100990D01*
X19277693Y-21100990D02*
X19277693Y-21243847D01*
X19277693Y-21243847D02*
X19230074Y-21434323D01*
X19230074Y-21434323D02*
X19182455Y-21529561D01*
X19182455Y-21529561D02*
X19087217Y-21624800D01*
X19087217Y-21624800D02*
X18944360Y-21672419D01*
X18944360Y-21672419D02*
X18706265Y-21672419D01*
X19658646Y-21386704D02*
X20134836Y-21386704D01*
X19563408Y-21672419D02*
X19896741Y-20672419D01*
X19896741Y-20672419D02*
X20230074Y-21672419D01*
D11*
X17608720Y-14206028D02*
X17608720Y-12706028D01*
X17608720Y-12706028D02*
X18180149Y-12706028D01*
X18180149Y-12706028D02*
X18323006Y-12777457D01*
X18323006Y-12777457D02*
X18394435Y-12848885D01*
X18394435Y-12848885D02*
X18465863Y-12991742D01*
X18465863Y-12991742D02*
X18465863Y-13206028D01*
X18465863Y-13206028D02*
X18394435Y-13348885D01*
X18394435Y-13348885D02*
X18323006Y-13420314D01*
X18323006Y-13420314D02*
X18180149Y-13491742D01*
X18180149Y-13491742D02*
X17608720Y-13491742D01*
X19037292Y-12848885D02*
X19108720Y-12777457D01*
X19108720Y-12777457D02*
X19251578Y-12706028D01*
X19251578Y-12706028D02*
X19608720Y-12706028D01*
X19608720Y-12706028D02*
X19751578Y-12777457D01*
X19751578Y-12777457D02*
X19823006Y-12848885D01*
X19823006Y-12848885D02*
X19894435Y-12991742D01*
X19894435Y-12991742D02*
X19894435Y-13134600D01*
X19894435Y-13134600D02*
X19823006Y-13348885D01*
X19823006Y-13348885D02*
X18965863Y-14206028D01*
X18965863Y-14206028D02*
X19894435Y-14206028D01*
X22037291Y-14706028D02*
X22037291Y-12563171D01*
X24251576Y-14206028D02*
X24251576Y-12706028D01*
X24251576Y-12706028D02*
X24823005Y-12706028D01*
X24823005Y-12706028D02*
X24965862Y-12777457D01*
X24965862Y-12777457D02*
X25037291Y-12848885D01*
X25037291Y-12848885D02*
X25108719Y-12991742D01*
X25108719Y-12991742D02*
X25108719Y-13206028D01*
X25108719Y-13206028D02*
X25037291Y-13348885D01*
X25037291Y-13348885D02*
X24965862Y-13420314D01*
X24965862Y-13420314D02*
X24823005Y-13491742D01*
X24823005Y-13491742D02*
X24251576Y-13491742D01*
X26537291Y-14206028D02*
X25680148Y-14206028D01*
X26108719Y-14206028D02*
X26108719Y-12706028D01*
X26108719Y-12706028D02*
X25965862Y-12920314D01*
X25965862Y-12920314D02*
X25823005Y-13063171D01*
X25823005Y-13063171D02*
X25680148Y-13134600D01*
D10*
X17711027Y-18122419D02*
X18044360Y-19122419D01*
X18044360Y-19122419D02*
X18377693Y-18122419D01*
X18711027Y-19122419D02*
X18711027Y-18122419D01*
X18711027Y-18122419D02*
X18949122Y-18122419D01*
X18949122Y-18122419D02*
X19091979Y-18170038D01*
X19091979Y-18170038D02*
X19187217Y-18265276D01*
X19187217Y-18265276D02*
X19234836Y-18360514D01*
X19234836Y-18360514D02*
X19282455Y-18550990D01*
X19282455Y-18550990D02*
X19282455Y-18693847D01*
X19282455Y-18693847D02*
X19234836Y-18884323D01*
X19234836Y-18884323D02*
X19187217Y-18979561D01*
X19187217Y-18979561D02*
X19091979Y-19074800D01*
X19091979Y-19074800D02*
X18949122Y-19122419D01*
X18949122Y-19122419D02*
X18711027Y-19122419D01*
X19711027Y-19122419D02*
X19711027Y-18122419D01*
X19711027Y-18122419D02*
X19949122Y-18122419D01*
X19949122Y-18122419D02*
X20091979Y-18170038D01*
X20091979Y-18170038D02*
X20187217Y-18265276D01*
X20187217Y-18265276D02*
X20234836Y-18360514D01*
X20234836Y-18360514D02*
X20282455Y-18550990D01*
X20282455Y-18550990D02*
X20282455Y-18693847D01*
X20282455Y-18693847D02*
X20234836Y-18884323D01*
X20234836Y-18884323D02*
X20187217Y-18979561D01*
X20187217Y-18979561D02*
X20091979Y-19074800D01*
X20091979Y-19074800D02*
X19949122Y-19122419D01*
X19949122Y-19122419D02*
X19711027Y-19122419D01*
X18065265Y-24174800D02*
X18208122Y-24222419D01*
X18208122Y-24222419D02*
X18446217Y-24222419D01*
X18446217Y-24222419D02*
X18541455Y-24174800D01*
X18541455Y-24174800D02*
X18589074Y-24127180D01*
X18589074Y-24127180D02*
X18636693Y-24031942D01*
X18636693Y-24031942D02*
X18636693Y-23936704D01*
X18636693Y-23936704D02*
X18589074Y-23841466D01*
X18589074Y-23841466D02*
X18541455Y-23793847D01*
X18541455Y-23793847D02*
X18446217Y-23746228D01*
X18446217Y-23746228D02*
X18255741Y-23698609D01*
X18255741Y-23698609D02*
X18160503Y-23650990D01*
X18160503Y-23650990D02*
X18112884Y-23603371D01*
X18112884Y-23603371D02*
X18065265Y-23508133D01*
X18065265Y-23508133D02*
X18065265Y-23412895D01*
X18065265Y-23412895D02*
X18112884Y-23317657D01*
X18112884Y-23317657D02*
X18160503Y-23270038D01*
X18160503Y-23270038D02*
X18255741Y-23222419D01*
X18255741Y-23222419D02*
X18493836Y-23222419D01*
X18493836Y-23222419D02*
X18636693Y-23270038D01*
X19636693Y-24127180D02*
X19589074Y-24174800D01*
X19589074Y-24174800D02*
X19446217Y-24222419D01*
X19446217Y-24222419D02*
X19350979Y-24222419D01*
X19350979Y-24222419D02*
X19208122Y-24174800D01*
X19208122Y-24174800D02*
X19112884Y-24079561D01*
X19112884Y-24079561D02*
X19065265Y-23984323D01*
X19065265Y-23984323D02*
X19017646Y-23793847D01*
X19017646Y-23793847D02*
X19017646Y-23650990D01*
X19017646Y-23650990D02*
X19065265Y-23460514D01*
X19065265Y-23460514D02*
X19112884Y-23365276D01*
X19112884Y-23365276D02*
X19208122Y-23270038D01*
X19208122Y-23270038D02*
X19350979Y-23222419D01*
X19350979Y-23222419D02*
X19446217Y-23222419D01*
X19446217Y-23222419D02*
X19589074Y-23270038D01*
X19589074Y-23270038D02*
X19636693Y-23317657D01*
X20541455Y-24222419D02*
X20065265Y-24222419D01*
X20065265Y-24222419D02*
X20065265Y-23222419D01*
D12*
X31750000Y-30750000D02*
G75*
G02*
X25750000Y-30750000I-3000000J0D01*
G01*
X25750000Y-30750000D02*
G75*
G02*
X31750000Y-30750000I3000000J0D01*
G01*
X18250000Y-30750000D02*
G75*
G02*
X12250000Y-30750000I-3000000J0D01*
G01*
X12250000Y-30750000D02*
G75*
G02*
X18250000Y-30750000I3000000J0D01*
G01*
X19883333Y-27154819D02*
X19550000Y-26678628D01*
X19311905Y-27154819D02*
X19311905Y-26154819D01*
X19311905Y-26154819D02*
X19692857Y-26154819D01*
X19692857Y-26154819D02*
X19788095Y-26202438D01*
X19788095Y-26202438D02*
X19835714Y-26250057D01*
X19835714Y-26250057D02*
X19883333Y-26345295D01*
X19883333Y-26345295D02*
X19883333Y-26488152D01*
X19883333Y-26488152D02*
X19835714Y-26583390D01*
X19835714Y-26583390D02*
X19788095Y-26631009D01*
X19788095Y-26631009D02*
X19692857Y-26678628D01*
X19692857Y-26678628D02*
X19311905Y-26678628D01*
X20835714Y-27154819D02*
X20264286Y-27154819D01*
X20550000Y-27154819D02*
X20550000Y-26154819D01*
X20550000Y-26154819D02*
X20454762Y-26297676D01*
X20454762Y-26297676D02*
X20359524Y-26392914D01*
X20359524Y-26392914D02*
X20264286Y-26440533D01*
X28883333Y-27154819D02*
X28550000Y-26678628D01*
X28311905Y-27154819D02*
X28311905Y-26154819D01*
X28311905Y-26154819D02*
X28692857Y-26154819D01*
X28692857Y-26154819D02*
X28788095Y-26202438D01*
X28788095Y-26202438D02*
X28835714Y-26250057D01*
X28835714Y-26250057D02*
X28883333Y-26345295D01*
X28883333Y-26345295D02*
X28883333Y-26488152D01*
X28883333Y-26488152D02*
X28835714Y-26583390D01*
X28835714Y-26583390D02*
X28788095Y-26631009D01*
X28788095Y-26631009D02*
X28692857Y-26678628D01*
X28692857Y-26678628D02*
X28311905Y-26678628D01*
X29264286Y-26250057D02*
X29311905Y-26202438D01*
X29311905Y-26202438D02*
X29407143Y-26154819D01*
X29407143Y-26154819D02*
X29645238Y-26154819D01*
X29645238Y-26154819D02*
X29740476Y-26202438D01*
X29740476Y-26202438D02*
X29788095Y-26250057D01*
X29788095Y-26250057D02*
X29835714Y-26345295D01*
X29835714Y-26345295D02*
X29835714Y-26440533D01*
X29835714Y-26440533D02*
X29788095Y-26583390D01*
X29788095Y-26583390D02*
X29216667Y-27154819D01*
X29216667Y-27154819D02*
X29835714Y-27154819D01*
D13*
G36*
X21896645Y-21911238D02*
G01*
X21925043Y-21939637D01*
X21963071Y-22015691D01*
X21963071Y-22141450D01*
X21925043Y-22217504D01*
X21896645Y-22245903D01*
X21820595Y-22283928D01*
X21480547Y-22283928D01*
X21404496Y-22245903D01*
X21376098Y-22217504D01*
X21338071Y-22141450D01*
X21338071Y-22015691D01*
X21376098Y-21939637D01*
X21404496Y-21911238D01*
X21480547Y-21873214D01*
X21820595Y-21873214D01*
X21896645Y-21911238D01*
G37*
G36*
X21939387Y-18039753D02*
G01*
X21963071Y-18087119D01*
X21963071Y-18284307D01*
X21941542Y-18327364D01*
X21879284Y-18016071D01*
X21892023Y-18016071D01*
X21939387Y-18039753D01*
G37*
G36*
X23025571Y-23914254D02*
G01*
X20775571Y-23914254D01*
X20775571Y-23077706D01*
X20966674Y-23077706D01*
X20966674Y-23150864D01*
X20994670Y-23218454D01*
X21046402Y-23270186D01*
X21113992Y-23298182D01*
X21150571Y-23301785D01*
X21820594Y-23301785D01*
X21896646Y-23339811D01*
X21925043Y-23368209D01*
X21963071Y-23444263D01*
X21963071Y-23542857D01*
X21966674Y-23579436D01*
X21994670Y-23647026D01*
X22046402Y-23698758D01*
X22113992Y-23726754D01*
X22187150Y-23726754D01*
X22254740Y-23698758D01*
X22306472Y-23647026D01*
X22334468Y-23579436D01*
X22338071Y-23542857D01*
X22338071Y-23400000D01*
X22334468Y-23363421D01*
X22331889Y-23357196D01*
X22331412Y-23350475D01*
X22318276Y-23316147D01*
X22281776Y-23243149D01*
X22306472Y-23218454D01*
X22334468Y-23150864D01*
X22334468Y-23077706D01*
X22306472Y-23010116D01*
X22254740Y-22958384D01*
X22187150Y-22930388D01*
X22150571Y-22926785D01*
X21150571Y-22926785D01*
X21113992Y-22930388D01*
X21046402Y-22958384D01*
X20994670Y-23010116D01*
X20966674Y-23077706D01*
X20775571Y-23077706D01*
X20775571Y-21971428D01*
X20963071Y-21971428D01*
X20963071Y-22185714D01*
X20966674Y-22222293D01*
X20969252Y-22228517D01*
X20969730Y-22235238D01*
X20982866Y-22269567D01*
X21054295Y-22412424D01*
X21064205Y-22428167D01*
X21066099Y-22432739D01*
X21070323Y-22437887D01*
X21073876Y-22443530D01*
X21077618Y-22446775D01*
X21089417Y-22461153D01*
X21160844Y-22532581D01*
X21175226Y-22544384D01*
X21178470Y-22548124D01*
X21184106Y-22551672D01*
X21189257Y-22555899D01*
X21193831Y-22557793D01*
X21209576Y-22567705D01*
X21352433Y-22639133D01*
X21386762Y-22652269D01*
X21393481Y-22652746D01*
X21399706Y-22655325D01*
X21436285Y-22658928D01*
X21864857Y-22658928D01*
X21901436Y-22655325D01*
X21907660Y-22652746D01*
X21914380Y-22652269D01*
X21948709Y-22639133D01*
X22091566Y-22567705D01*
X22107310Y-22557793D01*
X22111885Y-22555899D01*
X22117035Y-22551672D01*
X22122672Y-22548124D01*
X22125915Y-22544384D01*
X22140297Y-22532582D01*
X22211725Y-22461153D01*
X22223525Y-22446774D01*
X22227266Y-22443530D01*
X22230815Y-22437890D01*
X22235043Y-22432740D01*
X22236937Y-22428165D01*
X22246847Y-22412424D01*
X22318276Y-22269567D01*
X22331412Y-22235239D01*
X22331889Y-22228517D01*
X22334468Y-22222293D01*
X22338071Y-22185714D01*
X22338071Y-21971428D01*
X22334468Y-21934849D01*
X22331889Y-21928624D01*
X22331412Y-21921903D01*
X22318276Y-21887575D01*
X22246847Y-21744718D01*
X22236937Y-21728976D01*
X22235043Y-21724402D01*
X22230815Y-21719251D01*
X22227266Y-21713612D01*
X22223525Y-21710367D01*
X22211725Y-21695989D01*
X22140297Y-21624560D01*
X22125915Y-21612757D01*
X22122672Y-21609018D01*
X22117035Y-21605469D01*
X22111885Y-21601243D01*
X22107310Y-21599348D01*
X22091566Y-21589437D01*
X21948709Y-21518009D01*
X21914380Y-21504873D01*
X21907660Y-21504395D01*
X21901436Y-21501817D01*
X21864857Y-21498214D01*
X21436285Y-21498214D01*
X21399706Y-21501817D01*
X21393481Y-21504395D01*
X21386762Y-21504873D01*
X21352433Y-21518009D01*
X21209576Y-21589437D01*
X21193831Y-21599348D01*
X21189257Y-21601243D01*
X21184106Y-21605469D01*
X21178470Y-21609018D01*
X21175226Y-21612757D01*
X21160844Y-21624561D01*
X21089417Y-21695989D01*
X21077618Y-21710366D01*
X21073876Y-21713612D01*
X21070323Y-21719254D01*
X21066099Y-21724403D01*
X21064205Y-21728974D01*
X21054295Y-21744718D01*
X20982866Y-21887575D01*
X20969730Y-21921904D01*
X20969252Y-21928624D01*
X20966674Y-21934849D01*
X20963071Y-21971428D01*
X20775571Y-21971428D01*
X20775571Y-20614285D01*
X20963071Y-20614285D01*
X20963071Y-20899999D01*
X20966674Y-20936578D01*
X20969252Y-20942802D01*
X20969730Y-20949523D01*
X20982866Y-20983852D01*
X21054295Y-21126709D01*
X21058144Y-21132823D01*
X21059107Y-21135712D01*
X21062226Y-21139308D01*
X21073876Y-21157815D01*
X21091636Y-21173219D01*
X21107041Y-21190980D01*
X21125547Y-21202629D01*
X21129144Y-21205749D01*
X21132032Y-21206711D01*
X21138147Y-21210561D01*
X21281004Y-21281990D01*
X21315332Y-21295126D01*
X21322053Y-21295603D01*
X21328278Y-21298182D01*
X21364857Y-21301785D01*
X21436285Y-21301785D01*
X21472864Y-21298182D01*
X21479088Y-21295603D01*
X21485809Y-21295126D01*
X21520138Y-21281990D01*
X21662995Y-21210561D01*
X21669109Y-21206711D01*
X21671998Y-21205749D01*
X21675594Y-21202629D01*
X21694101Y-21190980D01*
X21709505Y-21173219D01*
X21727266Y-21157815D01*
X21738915Y-21139308D01*
X21742035Y-21135712D01*
X21742997Y-21132823D01*
X21746847Y-21126709D01*
X21818276Y-20983852D01*
X21831412Y-20949524D01*
X21831889Y-20942802D01*
X21834468Y-20936578D01*
X21838071Y-20899999D01*
X21838071Y-20729977D01*
X21861754Y-20682609D01*
X21900571Y-20663201D01*
X21939387Y-20682610D01*
X21963071Y-20729976D01*
X21963071Y-20855735D01*
X21911437Y-20959003D01*
X21898301Y-20993332D01*
X21893114Y-21066306D01*
X21916249Y-21135712D01*
X21964183Y-21190980D01*
X22029618Y-21223697D01*
X22102592Y-21228884D01*
X22171998Y-21205749D01*
X22227266Y-21157815D01*
X22246847Y-21126709D01*
X22318276Y-20983852D01*
X22331412Y-20949524D01*
X22331889Y-20942802D01*
X22334468Y-20936578D01*
X22338071Y-20899999D01*
X22338071Y-20685714D01*
X22334468Y-20649135D01*
X22331889Y-20642910D01*
X22331412Y-20636190D01*
X22318276Y-20601861D01*
X22246847Y-20459003D01*
X22242998Y-20452889D01*
X22242035Y-20449999D01*
X22238912Y-20446399D01*
X22227266Y-20427898D01*
X22209505Y-20412494D01*
X22194100Y-20394732D01*
X22175597Y-20383084D01*
X22171998Y-20379963D01*
X22169107Y-20378999D01*
X22162994Y-20375151D01*
X22020137Y-20303723D01*
X21985808Y-20290587D01*
X21979088Y-20290109D01*
X21972864Y-20287531D01*
X21936285Y-20283928D01*
X21864857Y-20283928D01*
X21828278Y-20287531D01*
X21822053Y-20290109D01*
X21815334Y-20290587D01*
X21781005Y-20303723D01*
X21638148Y-20375151D01*
X21632034Y-20378999D01*
X21629144Y-20379963D01*
X21625544Y-20383084D01*
X21607042Y-20394732D01*
X21591637Y-20412493D01*
X21573876Y-20427898D01*
X21562228Y-20446401D01*
X21559108Y-20449999D01*
X21558144Y-20452888D01*
X21554295Y-20459004D01*
X21482866Y-20601861D01*
X21469730Y-20636190D01*
X21469252Y-20642910D01*
X21466674Y-20649135D01*
X21463071Y-20685714D01*
X21463071Y-20855735D01*
X21439387Y-20903101D01*
X21400571Y-20922510D01*
X21361754Y-20903101D01*
X21338071Y-20855735D01*
X21338071Y-20658548D01*
X21389705Y-20555281D01*
X21402841Y-20520953D01*
X21408028Y-20447978D01*
X21384893Y-20378572D01*
X21336959Y-20323305D01*
X21271524Y-20290587D01*
X21198550Y-20285400D01*
X21129144Y-20308535D01*
X21073876Y-20356469D01*
X21054295Y-20387575D01*
X20982866Y-20530432D01*
X20969730Y-20564761D01*
X20969252Y-20571481D01*
X20966674Y-20577706D01*
X20963071Y-20614285D01*
X20775571Y-20614285D01*
X20775571Y-19149134D01*
X20966674Y-19149134D01*
X20966674Y-19222292D01*
X20994670Y-19289882D01*
X21046402Y-19341614D01*
X21113992Y-19369610D01*
X21150571Y-19373213D01*
X21927546Y-19373213D01*
X21963071Y-19444262D01*
X21963071Y-19570021D01*
X21939387Y-19617387D01*
X21892022Y-19641071D01*
X21150571Y-19641071D01*
X21113992Y-19644674D01*
X21046402Y-19672670D01*
X20994670Y-19724402D01*
X20966674Y-19791992D01*
X20966674Y-19865150D01*
X20994670Y-19932740D01*
X21046402Y-19984472D01*
X21113992Y-20012468D01*
X21150571Y-20016071D01*
X21936285Y-20016071D01*
X21972864Y-20012468D01*
X21979088Y-20009889D01*
X21985809Y-20009412D01*
X22020138Y-19996276D01*
X22162995Y-19924847D01*
X22169109Y-19920997D01*
X22171998Y-19920035D01*
X22175594Y-19916915D01*
X22194101Y-19905266D01*
X22209505Y-19887505D01*
X22227266Y-19872101D01*
X22238915Y-19853594D01*
X22242035Y-19849998D01*
X22242997Y-19847109D01*
X22246847Y-19840995D01*
X22318276Y-19698138D01*
X22331412Y-19663810D01*
X22331889Y-19657088D01*
X22334468Y-19650864D01*
X22338071Y-19614285D01*
X22338071Y-19399999D01*
X22334468Y-19363420D01*
X22331889Y-19357195D01*
X22331412Y-19350474D01*
X22318276Y-19316146D01*
X22305586Y-19290767D01*
X22306472Y-19289882D01*
X22334468Y-19222292D01*
X22334468Y-19149134D01*
X22306472Y-19081544D01*
X22254740Y-19029812D01*
X22187150Y-19001816D01*
X22150571Y-18998213D01*
X21150571Y-18998213D01*
X21113992Y-19001816D01*
X21046402Y-19029812D01*
X20994670Y-19081544D01*
X20966674Y-19149134D01*
X20775571Y-19149134D01*
X20775571Y-18042857D01*
X20963071Y-18042857D01*
X20963071Y-18328571D01*
X20966674Y-18365150D01*
X20969252Y-18371374D01*
X20969730Y-18378095D01*
X20982866Y-18412424D01*
X21054295Y-18555281D01*
X21073876Y-18586387D01*
X21129144Y-18634321D01*
X21198550Y-18657456D01*
X21271524Y-18652269D01*
X21336959Y-18619551D01*
X21384893Y-18564284D01*
X21408028Y-18494878D01*
X21402841Y-18421903D01*
X21389705Y-18387575D01*
X21338071Y-18284307D01*
X21338071Y-18087120D01*
X21361754Y-18039752D01*
X21409119Y-18016071D01*
X21496858Y-18016071D01*
X21609569Y-18579629D01*
X21620276Y-18614791D01*
X21630496Y-18630053D01*
X21637527Y-18647026D01*
X21650654Y-18660153D01*
X21660984Y-18675578D01*
X21676269Y-18685768D01*
X21689259Y-18698758D01*
X21706410Y-18705862D01*
X21721857Y-18716160D01*
X21739879Y-18719725D01*
X21756849Y-18726754D01*
X21793428Y-18730357D01*
X21793625Y-18730357D01*
X21936285Y-18730357D01*
X21972864Y-18726754D01*
X21979088Y-18724175D01*
X21985809Y-18723698D01*
X22020138Y-18710562D01*
X22162995Y-18639133D01*
X22169109Y-18635283D01*
X22171998Y-18634321D01*
X22175594Y-18631201D01*
X22194101Y-18619552D01*
X22209505Y-18601791D01*
X22227266Y-18586387D01*
X22238915Y-18567880D01*
X22242035Y-18564284D01*
X22242997Y-18561395D01*
X22246847Y-18555281D01*
X22318276Y-18412424D01*
X22331412Y-18378096D01*
X22331889Y-18371374D01*
X22334468Y-18365150D01*
X22338071Y-18328571D01*
X22338071Y-18042857D01*
X22334468Y-18006278D01*
X22331889Y-18000053D01*
X22331412Y-17993333D01*
X22318276Y-17959004D01*
X22246847Y-17816146D01*
X22242998Y-17810032D01*
X22242035Y-17807142D01*
X22238912Y-17803542D01*
X22227266Y-17785041D01*
X22209505Y-17769637D01*
X22194100Y-17751875D01*
X22175597Y-17740227D01*
X22171998Y-17737106D01*
X22169107Y-17736142D01*
X22162994Y-17732294D01*
X22020137Y-17660866D01*
X21985808Y-17647730D01*
X21979088Y-17647252D01*
X21972864Y-17644674D01*
X21936285Y-17641071D01*
X21364857Y-17641071D01*
X21328278Y-17644674D01*
X21322053Y-17647252D01*
X21315334Y-17647730D01*
X21281005Y-17660866D01*
X21138148Y-17732294D01*
X21132034Y-17736142D01*
X21129144Y-17737106D01*
X21125544Y-17740227D01*
X21107042Y-17751875D01*
X21091637Y-17769636D01*
X21073876Y-17785041D01*
X21062228Y-17803544D01*
X21059108Y-17807142D01*
X21058144Y-17810031D01*
X21054295Y-17816147D01*
X20982866Y-17959004D01*
X20969730Y-17993333D01*
X20969252Y-18000053D01*
X20966674Y-18006278D01*
X20963071Y-18042857D01*
X20775571Y-18042857D01*
X20775571Y-16614286D01*
X20963071Y-16614286D01*
X20963071Y-16971428D01*
X20966674Y-17008007D01*
X20969252Y-17014231D01*
X20969730Y-17020952D01*
X20982866Y-17055281D01*
X21054295Y-17198138D01*
X21064204Y-17213880D01*
X21066100Y-17218456D01*
X21070328Y-17223609D01*
X21073876Y-17229244D01*
X21077612Y-17232485D01*
X21089417Y-17246869D01*
X21160845Y-17318296D01*
X21175224Y-17330096D01*
X21178469Y-17333838D01*
X21184109Y-17337388D01*
X21189258Y-17341614D01*
X21193830Y-17343508D01*
X21209575Y-17353419D01*
X21352432Y-17424848D01*
X21386760Y-17437984D01*
X21393481Y-17438461D01*
X21399706Y-17441040D01*
X21436285Y-17444643D01*
X21579142Y-17444643D01*
X21615721Y-17441040D01*
X21621945Y-17438461D01*
X21628666Y-17437984D01*
X21662995Y-17424848D01*
X21805852Y-17353419D01*
X21821594Y-17343509D01*
X21826170Y-17341614D01*
X21831323Y-17337385D01*
X21836958Y-17333838D01*
X21840199Y-17330101D01*
X21854583Y-17318297D01*
X21926010Y-17246869D01*
X21937813Y-17232486D01*
X21941552Y-17229244D01*
X21945100Y-17223607D01*
X21949328Y-17218456D01*
X21951222Y-17213881D01*
X21961133Y-17198139D01*
X22032562Y-17055281D01*
X22033586Y-17052602D01*
X22034392Y-17051516D01*
X22039877Y-17036162D01*
X22045698Y-17020952D01*
X22045793Y-17019604D01*
X22046759Y-17016903D01*
X22113195Y-16751157D01*
X22161812Y-16653923D01*
X22190208Y-16625526D01*
X22266262Y-16587500D01*
X22320595Y-16587500D01*
X22396645Y-16625524D01*
X22425043Y-16653923D01*
X22463071Y-16729977D01*
X22463071Y-17012429D01*
X22401264Y-17197850D01*
X22393115Y-17233691D01*
X22398300Y-17306666D01*
X22431018Y-17372102D01*
X22486287Y-17420036D01*
X22555690Y-17443170D01*
X22628665Y-17437985D01*
X22694101Y-17405267D01*
X22742035Y-17349998D01*
X22757020Y-17316436D01*
X22828449Y-17102150D01*
X22832573Y-17084010D01*
X22834468Y-17079436D01*
X22835121Y-17072804D01*
X22836598Y-17066309D01*
X22836247Y-17061372D01*
X22838071Y-17042857D01*
X22838071Y-16685714D01*
X22834468Y-16649135D01*
X22831889Y-16642910D01*
X22831412Y-16636189D01*
X22818276Y-16601861D01*
X22746847Y-16459004D01*
X22736937Y-16443262D01*
X22735043Y-16438688D01*
X22730815Y-16433537D01*
X22727266Y-16427898D01*
X22723525Y-16424653D01*
X22711725Y-16410275D01*
X22640297Y-16338846D01*
X22625915Y-16327043D01*
X22622672Y-16323304D01*
X22617035Y-16319755D01*
X22611885Y-16315529D01*
X22607310Y-16313634D01*
X22591566Y-16303723D01*
X22448709Y-16232295D01*
X22414380Y-16219159D01*
X22407660Y-16218681D01*
X22401436Y-16216103D01*
X22364857Y-16212500D01*
X22222000Y-16212500D01*
X22185421Y-16216103D01*
X22179198Y-16218680D01*
X22172477Y-16219158D01*
X22138149Y-16232294D01*
X21995290Y-16303722D01*
X21979543Y-16313635D01*
X21974971Y-16315529D01*
X21969821Y-16319754D01*
X21964184Y-16323304D01*
X21960940Y-16327043D01*
X21946558Y-16338847D01*
X21875131Y-16410275D01*
X21863332Y-16424652D01*
X21859590Y-16427898D01*
X21856037Y-16433540D01*
X21851813Y-16438689D01*
X21849919Y-16443260D01*
X21840009Y-16459004D01*
X21768580Y-16601861D01*
X21767555Y-16604539D01*
X21766750Y-16605626D01*
X21761264Y-16620979D01*
X21755444Y-16636190D01*
X21755348Y-16637537D01*
X21754383Y-16640239D01*
X21687946Y-16905986D01*
X21639330Y-17003218D01*
X21610931Y-17031616D01*
X21534879Y-17069643D01*
X21480548Y-17069643D01*
X21404495Y-17031616D01*
X21376097Y-17003217D01*
X21338071Y-16927165D01*
X21338071Y-16644713D01*
X21399878Y-16459293D01*
X21408027Y-16423452D01*
X21402842Y-16350477D01*
X21370124Y-16285041D01*
X21314855Y-16237108D01*
X21245452Y-16213973D01*
X21172477Y-16219158D01*
X21107041Y-16251877D01*
X21059107Y-16307145D01*
X21044122Y-16340707D01*
X20972693Y-16554993D01*
X20968568Y-16573132D01*
X20966674Y-16577707D01*
X20966020Y-16584338D01*
X20964544Y-16590834D01*
X20964894Y-16595770D01*
X20963071Y-16614286D01*
X20775571Y-16614286D01*
X20775571Y-16025000D01*
X23025571Y-16025000D01*
X23025571Y-23914254D01*
G37*
D12*
X21816666Y-31654819D02*
X21816666Y-32369104D01*
X21816666Y-32369104D02*
X21769047Y-32511961D01*
X21769047Y-32511961D02*
X21673809Y-32607200D01*
X21673809Y-32607200D02*
X21530952Y-32654819D01*
X21530952Y-32654819D02*
X21435714Y-32654819D01*
X22816666Y-32654819D02*
X22245238Y-32654819D01*
X22530952Y-32654819D02*
X22530952Y-31654819D01*
X22530952Y-31654819D02*
X22435714Y-31797676D01*
X22435714Y-31797676D02*
X22340476Y-31892914D01*
X22340476Y-31892914D02*
X22245238Y-31940533D01*
X14833333Y-27059580D02*
X14785714Y-27107200D01*
X14785714Y-27107200D02*
X14642857Y-27154819D01*
X14642857Y-27154819D02*
X14547619Y-27154819D01*
X14547619Y-27154819D02*
X14404762Y-27107200D01*
X14404762Y-27107200D02*
X14309524Y-27011961D01*
X14309524Y-27011961D02*
X14261905Y-26916723D01*
X14261905Y-26916723D02*
X14214286Y-26726247D01*
X14214286Y-26726247D02*
X14214286Y-26583390D01*
X14214286Y-26583390D02*
X14261905Y-26392914D01*
X14261905Y-26392914D02*
X14309524Y-26297676D01*
X14309524Y-26297676D02*
X14404762Y-26202438D01*
X14404762Y-26202438D02*
X14547619Y-26154819D01*
X14547619Y-26154819D02*
X14642857Y-26154819D01*
X14642857Y-26154819D02*
X14785714Y-26202438D01*
X14785714Y-26202438D02*
X14833333Y-26250057D01*
X15785714Y-27154819D02*
X15214286Y-27154819D01*
X15500000Y-27154819D02*
X15500000Y-26154819D01*
X15500000Y-26154819D02*
X15404762Y-26297676D01*
X15404762Y-26297676D02*
X15309524Y-26392914D01*
X15309524Y-26392914D02*
X15214286Y-26440533D01*
%TO.C,R1*%
D14*
X23162258Y-27222500D02*
X22687742Y-27222500D01*
X23162258Y-26177500D02*
X22687742Y-26177500D01*
%TO.C,R2*%
X25687742Y-27222500D02*
X26162258Y-27222500D01*
X25687742Y-26177500D02*
X26162258Y-26177500D01*
%TO.C,Sensor*%
D15*
X14975000Y-16100000D02*
G75*
G02*
X14725000Y-16100000I-125000J0D01*
G01*
X14725000Y-16100000D02*
G75*
G02*
X14975000Y-16100000I125000J0D01*
G01*
D12*
X28850000Y-25000000D02*
X27750000Y-25000000D01*
X28850000Y-23900000D02*
X28850000Y-25000000D01*
X28850000Y-18100000D02*
X28850000Y-21700000D01*
X28850000Y-14800000D02*
X28850000Y-15900000D01*
X27750000Y-14800000D02*
X28850000Y-14800000D01*
X20200000Y-25000000D02*
X23800000Y-25000000D01*
X20200000Y-14800000D02*
X23800000Y-14800000D01*
X16250000Y-25000000D02*
X15150000Y-25000000D01*
X15150000Y-25000000D02*
X15150000Y-23900000D01*
X15150000Y-18100000D02*
X15150000Y-21700000D01*
X15150000Y-15900000D02*
X15150000Y-14800000D01*
X15150000Y-14800000D02*
X16250000Y-14800000D01*
%TO.C,J1*%
D14*
X25485000Y-33610000D02*
X22000000Y-33610000D01*
X25485000Y-27890000D02*
X25485000Y-33610000D01*
X24415000Y-28190000D02*
X24415000Y-27890000D01*
X24415000Y-27890000D02*
X25485000Y-27890000D01*
X22000000Y-28190000D02*
X24415000Y-28190000D01*
X22000000Y-28190000D02*
X19585000Y-28190000D01*
X19875000Y-27900000D02*
X19875000Y-27600000D01*
X19875000Y-27600000D02*
X19375000Y-27600000D01*
X19585000Y-28190000D02*
X19585000Y-27890000D01*
X19585000Y-27890000D02*
X18515000Y-27890000D01*
X18515000Y-33610000D02*
X22000000Y-33610000D01*
X18515000Y-27890000D02*
X18515000Y-33610000D01*
%TO.C,C1*%
X17284420Y-27210000D02*
X17565580Y-27210000D01*
X17284420Y-26190000D02*
X17565580Y-26190000D01*
%TD*%
M02*
