%TF.GenerationSoftware,KiCad,Pcbnew,10.0.5*%
%TF.CreationDate,2026-08-07T13:29:25+02:00*%
%TF.ProjectId,Honeywell_HSC_SMT,486f6e65-7977-4656-9c6c-5f4853435f53,Mario Wilhelm*%
%TF.SameCoordinates,Original*%
%TF.FileFunction,Copper,L2,Bot*%
%TF.FilePolarity,Positive*%
%FSLAX46Y46*%
G04 Gerber Fmt 4.6, Leading zero omitted, Abs format (unit mm)*
G04 Created by KiCad (PCBNEW 10.0.5) date 2026-08-07 13:29:25*
%MOMM*%
%LPD*%
G01*
G04 APERTURE LIST*
G04 Aperture macros list*
%AMRoundRect*
0 Rectangle with rounded corners*
0 $1 Rounding radius*
0 $2 $3 $4 $5 $6 $7 $8 $9 X,Y pos of 4 corners*
0 Add a 4 corners polygon primitive as box body*
4,1,4,$2,$3,$4,$5,$6,$7,$8,$9,$2,$3,0*
0 Add four circle primitives for the rounded corners*
1,1,$1+$1,$2,$3*
1,1,$1+$1,$4,$5*
1,1,$1+$1,$6,$7*
1,1,$1+$1,$8,$9*
0 Add four rect primitives between the rounded corners*
20,1,$1+$1,$2,$3,$4,$5,0*
20,1,$1+$1,$4,$5,$6,$7,0*
20,1,$1+$1,$6,$7,$8,$9,0*
20,1,$1+$1,$8,$9,$2,$3,0*%
G04 Aperture macros list end*
%TA.AperFunction,ComponentPad*%
%ADD10RoundRect,0.200000X-0.200000X-0.450000X0.200000X-0.450000X0.200000X0.450000X-0.200000X0.450000X0*%
%TD*%
%TA.AperFunction,ComponentPad*%
%ADD11O,0.800000X1.300000*%
%TD*%
%TA.AperFunction,ViaPad*%
%ADD12C,0.800000*%
%TD*%
%TA.AperFunction,Conductor*%
%ADD13C,0.300000*%
%TD*%
G04 APERTURE END LIST*
D10*
%TO.P,J1,1,Pin_1_1*%
%TO.N,/GND*%
X20125000Y-29050000D03*
D11*
%TO.P,J1,2,Pin_2_2*%
%TO.N,/VDD*%
X21375000Y-29050000D03*
%TO.P,J1,3,Pin_3_3*%
%TO.N,/SDA*%
X22625000Y-29050000D03*
%TO.P,J1,4,Pin_4_4*%
%TO.N,/SCL*%
X23875000Y-29050000D03*
%TD*%
D12*
%TO.N,/GND*%
X15600000Y-26700000D03*
X14100000Y-16100000D03*
%TO.N,/SDA*%
X21000000Y-26700000D03*
X14575000Y-21175000D03*
%TO.N,/SCL*%
X27850000Y-26700000D03*
X14575000Y-23725000D03*
%TD*%
%TO.N,/SDA*%
D13*
X21000000Y-26700000D02*
X20100000Y-26700000D01*
X20100000Y-26700000D02*
X14575000Y-21175000D01*
%TO.N,/SCL*%
X18550000Y-27700000D02*
X14575000Y-23725000D01*
X27850000Y-26700000D02*
X26850000Y-27700000D01*
X26850000Y-27700000D02*
X18550000Y-27700000D01*
%TD*%
%TA.AperFunction,Conductor*%
%TO.N,/GND*%
G36*
X29003736Y-12500726D02*
G01*
X29293796Y-12518271D01*
X29308659Y-12520076D01*
X29590797Y-12571780D01*
X29605334Y-12575363D01*
X29879182Y-12660698D01*
X29893163Y-12666000D01*
X30154734Y-12783724D01*
X30167987Y-12790680D01*
X30413458Y-12939071D01*
X30425776Y-12947573D01*
X30651573Y-13124474D01*
X30662781Y-13134404D01*
X30865595Y-13337218D01*
X30875525Y-13348426D01*
X31052422Y-13574217D01*
X31060928Y-13586541D01*
X31209319Y-13832012D01*
X31216277Y-13845269D01*
X31333994Y-14106823D01*
X31339304Y-14120825D01*
X31424635Y-14394664D01*
X31428219Y-14409202D01*
X31479923Y-14691340D01*
X31481728Y-14706205D01*
X31499274Y-14996263D01*
X31499500Y-15003750D01*
X31499500Y-30996249D01*
X31499274Y-31003736D01*
X31481728Y-31293794D01*
X31479923Y-31308659D01*
X31428219Y-31590797D01*
X31424635Y-31605335D01*
X31339304Y-31879174D01*
X31333994Y-31893176D01*
X31216277Y-32154730D01*
X31209319Y-32167987D01*
X31060928Y-32413458D01*
X31052422Y-32425782D01*
X30875525Y-32651573D01*
X30865595Y-32662781D01*
X30662781Y-32865595D01*
X30651573Y-32875525D01*
X30425782Y-33052422D01*
X30413458Y-33060928D01*
X30167987Y-33209319D01*
X30154730Y-33216277D01*
X29893176Y-33333994D01*
X29879174Y-33339304D01*
X29605335Y-33424635D01*
X29590797Y-33428219D01*
X29308659Y-33479923D01*
X29293794Y-33481728D01*
X29003736Y-33499274D01*
X28996249Y-33499500D01*
X15003751Y-33499500D01*
X14996264Y-33499274D01*
X14706205Y-33481728D01*
X14691340Y-33479923D01*
X14409202Y-33428219D01*
X14394664Y-33424635D01*
X14120825Y-33339304D01*
X14106827Y-33333995D01*
X13954096Y-33265256D01*
X13845269Y-33216277D01*
X13832012Y-33209319D01*
X13586541Y-33060928D01*
X13574217Y-33052422D01*
X13348426Y-32875525D01*
X13337218Y-32865595D01*
X13134404Y-32662781D01*
X13124474Y-32651573D01*
X13005919Y-32500249D01*
X12947573Y-32425776D01*
X12939071Y-32413458D01*
X12790680Y-32167987D01*
X12783722Y-32154730D01*
X12666000Y-31893163D01*
X12660698Y-31879182D01*
X12575363Y-31605334D01*
X12571780Y-31590797D01*
X12548556Y-31464068D01*
X12520075Y-31308657D01*
X12518271Y-31293794D01*
X12510218Y-31160668D01*
X12500726Y-31003736D01*
X12500500Y-30996249D01*
X12500500Y-30612332D01*
X13149500Y-30612332D01*
X13149500Y-30887667D01*
X13149501Y-30887684D01*
X13185438Y-31160655D01*
X13185439Y-31160660D01*
X13185440Y-31160666D01*
X13185441Y-31160668D01*
X13256704Y-31426630D01*
X13362075Y-31681017D01*
X13362080Y-31681028D01*
X13441809Y-31819121D01*
X13499751Y-31919479D01*
X13499753Y-31919482D01*
X13499754Y-31919483D01*
X13667370Y-32137926D01*
X13667376Y-32137933D01*
X13862066Y-32332623D01*
X13862072Y-32332628D01*
X14080521Y-32500249D01*
X14233778Y-32588732D01*
X14318971Y-32637919D01*
X14318976Y-32637921D01*
X14318979Y-32637923D01*
X14573368Y-32743295D01*
X14839334Y-32814560D01*
X15112326Y-32850500D01*
X15112333Y-32850500D01*
X15387667Y-32850500D01*
X15387674Y-32850500D01*
X15660666Y-32814560D01*
X15926632Y-32743295D01*
X16181021Y-32637923D01*
X16419479Y-32500249D01*
X16637928Y-32332628D01*
X16832628Y-32137928D01*
X17000249Y-31919479D01*
X17137923Y-31681021D01*
X17243295Y-31426632D01*
X17314560Y-31160666D01*
X17350500Y-30887674D01*
X17350500Y-30612332D01*
X26649500Y-30612332D01*
X26649500Y-30887667D01*
X26649501Y-30887684D01*
X26685438Y-31160655D01*
X26685439Y-31160660D01*
X26685440Y-31160666D01*
X26685441Y-31160668D01*
X26756704Y-31426630D01*
X26862075Y-31681017D01*
X26862080Y-31681028D01*
X26941809Y-31819121D01*
X26999751Y-31919479D01*
X26999753Y-31919482D01*
X26999754Y-31919483D01*
X27167370Y-32137926D01*
X27167376Y-32137933D01*
X27362066Y-32332623D01*
X27362072Y-32332628D01*
X27580521Y-32500249D01*
X27733778Y-32588732D01*
X27818971Y-32637919D01*
X27818976Y-32637921D01*
X27818979Y-32637923D01*
X28073368Y-32743295D01*
X28339334Y-32814560D01*
X28612326Y-32850500D01*
X28612333Y-32850500D01*
X28887667Y-32850500D01*
X28887674Y-32850500D01*
X29160666Y-32814560D01*
X29426632Y-32743295D01*
X29681021Y-32637923D01*
X29919479Y-32500249D01*
X30137928Y-32332628D01*
X30332628Y-32137928D01*
X30500249Y-31919479D01*
X30637923Y-31681021D01*
X30743295Y-31426632D01*
X30814560Y-31160666D01*
X30850500Y-30887674D01*
X30850500Y-30612326D01*
X30814560Y-30339334D01*
X30743295Y-30073368D01*
X30637923Y-29818979D01*
X30637921Y-29818976D01*
X30637919Y-29818971D01*
X30584553Y-29726540D01*
X30500249Y-29580521D01*
X30431099Y-29490403D01*
X30332629Y-29362073D01*
X30332623Y-29362066D01*
X30137933Y-29167376D01*
X30137926Y-29167370D01*
X29919483Y-28999754D01*
X29919482Y-28999753D01*
X29919479Y-28999751D01*
X29788275Y-28924000D01*
X29681028Y-28862080D01*
X29681017Y-28862075D01*
X29426630Y-28756704D01*
X29293649Y-28721072D01*
X29160666Y-28685440D01*
X29160660Y-28685439D01*
X29160655Y-28685438D01*
X28887684Y-28649501D01*
X28887679Y-28649500D01*
X28887674Y-28649500D01*
X28612326Y-28649500D01*
X28612320Y-28649500D01*
X28612315Y-28649501D01*
X28339344Y-28685438D01*
X28339337Y-28685439D01*
X28339334Y-28685440D01*
X28283125Y-28700500D01*
X28073369Y-28756704D01*
X27818982Y-28862075D01*
X27818971Y-28862080D01*
X27580516Y-28999754D01*
X27362073Y-29167370D01*
X27362066Y-29167376D01*
X27167376Y-29362066D01*
X27167370Y-29362073D01*
X26999754Y-29580516D01*
X26862080Y-29818971D01*
X26862075Y-29818982D01*
X26756704Y-30073369D01*
X26685441Y-30339331D01*
X26685438Y-30339344D01*
X26649501Y-30612315D01*
X26649500Y-30612332D01*
X17350500Y-30612332D01*
X17350500Y-30612326D01*
X17314560Y-30339334D01*
X17243295Y-30073368D01*
X17137923Y-29818979D01*
X17137921Y-29818976D01*
X17137919Y-29818971D01*
X17084553Y-29726540D01*
X17000249Y-29580521D01*
X16981880Y-29556582D01*
X19225001Y-29556582D01*
X19231408Y-29627102D01*
X19231409Y-29627107D01*
X19281981Y-29789396D01*
X19369927Y-29934877D01*
X19490122Y-30055072D01*
X19635604Y-30143019D01*
X19635603Y-30143019D01*
X19797894Y-30193590D01*
X19797893Y-30193590D01*
X19868408Y-30199998D01*
X19868426Y-30199999D01*
X19874999Y-30199998D01*
X19875000Y-30199998D01*
X19875000Y-29300000D01*
X19225001Y-29300000D01*
X19225001Y-29556582D01*
X16981880Y-29556582D01*
X16931099Y-29490403D01*
X16832629Y-29362073D01*
X16832623Y-29362066D01*
X16637933Y-29167376D01*
X16637926Y-29167370D01*
X16419483Y-28999754D01*
X16419482Y-28999753D01*
X16419479Y-28999751D01*
X16288275Y-28924000D01*
X16181028Y-28862080D01*
X16181017Y-28862075D01*
X15926630Y-28756704D01*
X15793649Y-28721072D01*
X15660666Y-28685440D01*
X15660660Y-28685439D01*
X15660655Y-28685438D01*
X15387684Y-28649501D01*
X15387679Y-28649500D01*
X15387674Y-28649500D01*
X15112326Y-28649500D01*
X15112320Y-28649500D01*
X15112315Y-28649501D01*
X14839344Y-28685438D01*
X14839337Y-28685439D01*
X14839334Y-28685440D01*
X14783125Y-28700500D01*
X14573369Y-28756704D01*
X14318982Y-28862075D01*
X14318971Y-28862080D01*
X14080516Y-28999754D01*
X13862073Y-29167370D01*
X13862066Y-29167376D01*
X13667376Y-29362066D01*
X13667370Y-29362073D01*
X13499754Y-29580516D01*
X13362080Y-29818971D01*
X13362075Y-29818982D01*
X13256704Y-30073369D01*
X13185441Y-30339331D01*
X13185438Y-30339344D01*
X13149501Y-30612315D01*
X13149500Y-30612332D01*
X12500500Y-30612332D01*
X12500500Y-21086304D01*
X13674500Y-21086304D01*
X13674500Y-21263695D01*
X13709103Y-21437658D01*
X13709106Y-21437667D01*
X13776983Y-21601540D01*
X13776990Y-21601553D01*
X13875535Y-21749034D01*
X13875538Y-21749038D01*
X14000961Y-21874461D01*
X14000965Y-21874464D01*
X14148446Y-21973009D01*
X14148459Y-21973016D01*
X14271363Y-22023923D01*
X14312334Y-22040894D01*
X14312336Y-22040894D01*
X14312341Y-22040896D01*
X14486304Y-22075499D01*
X14486307Y-22075500D01*
X14486309Y-22075500D01*
X14504192Y-22075500D01*
X14571231Y-22095185D01*
X14591873Y-22111819D01*
X19317873Y-26837819D01*
X19351358Y-26899142D01*
X19346374Y-26968834D01*
X19304502Y-27024767D01*
X19239038Y-27049184D01*
X19230192Y-27049500D01*
X18870808Y-27049500D01*
X18803769Y-27029815D01*
X18783127Y-27013181D01*
X15511819Y-23741873D01*
X15478334Y-23680550D01*
X15475500Y-23654192D01*
X15475500Y-23636306D01*
X15475499Y-23636304D01*
X15440896Y-23462341D01*
X15440893Y-23462332D01*
X15373016Y-23298459D01*
X15373009Y-23298446D01*
X15274464Y-23150965D01*
X15274461Y-23150961D01*
X15149038Y-23025538D01*
X15149034Y-23025535D01*
X15001553Y-22926990D01*
X15001540Y-22926983D01*
X14837667Y-22859106D01*
X14837658Y-22859103D01*
X14663694Y-22824500D01*
X14663691Y-22824500D01*
X14486309Y-22824500D01*
X14486306Y-22824500D01*
X14312341Y-22859103D01*
X14312332Y-22859106D01*
X14148459Y-22926983D01*
X14148446Y-22926990D01*
X14000965Y-23025535D01*
X14000961Y-23025538D01*
X13875538Y-23150961D01*
X13875535Y-23150965D01*
X13776990Y-23298446D01*
X13776983Y-23298459D01*
X13709106Y-23462332D01*
X13709103Y-23462341D01*
X13674500Y-23636304D01*
X13674500Y-23813695D01*
X13709103Y-23987658D01*
X13709106Y-23987667D01*
X13776983Y-24151540D01*
X13776990Y-24151553D01*
X13875535Y-24299034D01*
X13875538Y-24299038D01*
X14000961Y-24424461D01*
X14000965Y-24424464D01*
X14148446Y-24523009D01*
X14148459Y-24523016D01*
X14271363Y-24573923D01*
X14312334Y-24590894D01*
X14312336Y-24590894D01*
X14312341Y-24590896D01*
X14486304Y-24625499D01*
X14486307Y-24625500D01*
X14486309Y-24625500D01*
X14504192Y-24625500D01*
X14571231Y-24645185D01*
X14591873Y-24661819D01*
X18135325Y-28205272D01*
X18135326Y-28205273D01*
X18135329Y-28205275D01*
X18135331Y-28205277D01*
X18241873Y-28276465D01*
X18360256Y-28325501D01*
X18360260Y-28325501D01*
X18360261Y-28325502D01*
X18485928Y-28350500D01*
X18485931Y-28350500D01*
X19106753Y-28350500D01*
X19173792Y-28370185D01*
X19219547Y-28422989D01*
X19230244Y-28485722D01*
X19225000Y-28543428D01*
X19225000Y-28800000D01*
X20001000Y-28800000D01*
X20044461Y-28812761D01*
X19983386Y-28838060D01*
X19913060Y-28908386D01*
X19875000Y-29000272D01*
X19875000Y-29099728D01*
X19913060Y-29191614D01*
X19983386Y-29261940D01*
X20075272Y-29300000D01*
X20174728Y-29300000D01*
X20266614Y-29261940D01*
X20336940Y-29191614D01*
X20364406Y-29125303D01*
X20375000Y-29174000D01*
X20375000Y-30199999D01*
X20381581Y-30199999D01*
X20452102Y-30193591D01*
X20452107Y-30193590D01*
X20614398Y-30143018D01*
X20757662Y-30056411D01*
X20825217Y-30038574D01*
X20890702Y-30059425D01*
X20948453Y-30098013D01*
X20948455Y-30098014D01*
X20948457Y-30098015D01*
X21057106Y-30143018D01*
X21112334Y-30165894D01*
X21112336Y-30165894D01*
X21112341Y-30165896D01*
X21286304Y-30200499D01*
X21286307Y-30200500D01*
X21286309Y-30200500D01*
X21463693Y-30200500D01*
X21463694Y-30200499D01*
X21521682Y-30188964D01*
X21637658Y-30165896D01*
X21637661Y-30165894D01*
X21637666Y-30165894D01*
X21801547Y-30098013D01*
X21931109Y-30011442D01*
X21997786Y-29990564D01*
X22065166Y-30009048D01*
X22068891Y-30011442D01*
X22198453Y-30098013D01*
X22198455Y-30098014D01*
X22198459Y-30098016D01*
X22307106Y-30143018D01*
X22362334Y-30165894D01*
X22362336Y-30165894D01*
X22362341Y-30165896D01*
X22536304Y-30200499D01*
X22536307Y-30200500D01*
X22536309Y-30200500D01*
X22713693Y-30200500D01*
X22713694Y-30200499D01*
X22771682Y-30188964D01*
X22887658Y-30165896D01*
X22887661Y-30165894D01*
X22887666Y-30165894D01*
X23051547Y-30098013D01*
X23181109Y-30011442D01*
X23247786Y-29990564D01*
X23315166Y-30009048D01*
X23318891Y-30011442D01*
X23448453Y-30098013D01*
X23448455Y-30098014D01*
X23448459Y-30098016D01*
X23557106Y-30143018D01*
X23612334Y-30165894D01*
X23612336Y-30165894D01*
X23612341Y-30165896D01*
X23786304Y-30200499D01*
X23786307Y-30200500D01*
X23786309Y-30200500D01*
X23963693Y-30200500D01*
X23963694Y-30200499D01*
X24021682Y-30188964D01*
X24137658Y-30165896D01*
X24137661Y-30165894D01*
X24137666Y-30165894D01*
X24301547Y-30098013D01*
X24449035Y-29999464D01*
X24574464Y-29874035D01*
X24673013Y-29726547D01*
X24740894Y-29562666D01*
X24742105Y-29556582D01*
X24775499Y-29388695D01*
X24775500Y-29388693D01*
X24775500Y-28711306D01*
X24775499Y-28711304D01*
X24740896Y-28537341D01*
X24740893Y-28537332D01*
X24734522Y-28521950D01*
X24727055Y-28452480D01*
X24758331Y-28390002D01*
X24818421Y-28354351D01*
X24849084Y-28350500D01*
X26914071Y-28350500D01*
X26998615Y-28333682D01*
X27039744Y-28325501D01*
X27158127Y-28276465D01*
X27264669Y-28205277D01*
X27833127Y-27636819D01*
X27894450Y-27603334D01*
X27920808Y-27600500D01*
X27938693Y-27600500D01*
X27938694Y-27600499D01*
X27996682Y-27588964D01*
X28112658Y-27565896D01*
X28112661Y-27565894D01*
X28112666Y-27565894D01*
X28276547Y-27498013D01*
X28424035Y-27399464D01*
X28549464Y-27274035D01*
X28648013Y-27126547D01*
X28715894Y-26962666D01*
X28750500Y-26788691D01*
X28750500Y-26611309D01*
X28750500Y-26611306D01*
X28750499Y-26611304D01*
X28715896Y-26437341D01*
X28715893Y-26437332D01*
X28648016Y-26273459D01*
X28648009Y-26273446D01*
X28549464Y-26125965D01*
X28549461Y-26125961D01*
X28424038Y-26000538D01*
X28424034Y-26000535D01*
X28276553Y-25901990D01*
X28276540Y-25901983D01*
X28112667Y-25834106D01*
X28112658Y-25834103D01*
X27938694Y-25799500D01*
X27938691Y-25799500D01*
X27761309Y-25799500D01*
X27761306Y-25799500D01*
X27587341Y-25834103D01*
X27587332Y-25834106D01*
X27423459Y-25901983D01*
X27423446Y-25901990D01*
X27275965Y-26000535D01*
X27275961Y-26000538D01*
X27150538Y-26125961D01*
X27150535Y-26125965D01*
X27051990Y-26273446D01*
X27051983Y-26273459D01*
X26984106Y-26437332D01*
X26984103Y-26437341D01*
X26949500Y-26611304D01*
X26949500Y-26629192D01*
X26929815Y-26696231D01*
X26913181Y-26716873D01*
X26616873Y-27013181D01*
X26555550Y-27046666D01*
X26529192Y-27049500D01*
X21999716Y-27049500D01*
X21932677Y-27029815D01*
X21886922Y-26977011D01*
X21876978Y-26907853D01*
X21878099Y-26901308D01*
X21900500Y-26788693D01*
X21900500Y-26611306D01*
X21900499Y-26611304D01*
X21865896Y-26437341D01*
X21865893Y-26437332D01*
X21798016Y-26273459D01*
X21798009Y-26273446D01*
X21699464Y-26125965D01*
X21699461Y-26125961D01*
X21574038Y-26000538D01*
X21574034Y-26000535D01*
X21426553Y-25901990D01*
X21426540Y-25901983D01*
X21262667Y-25834106D01*
X21262658Y-25834103D01*
X21088694Y-25799500D01*
X21088691Y-25799500D01*
X20911309Y-25799500D01*
X20911306Y-25799500D01*
X20737341Y-25834103D01*
X20737332Y-25834106D01*
X20573459Y-25901983D01*
X20573446Y-25901990D01*
X20447346Y-25986249D01*
X20380669Y-26007127D01*
X20313289Y-25988643D01*
X20290774Y-25970828D01*
X15511819Y-21191873D01*
X15478334Y-21130550D01*
X15475500Y-21104192D01*
X15475500Y-21086306D01*
X15475499Y-21086304D01*
X15440896Y-20912341D01*
X15440893Y-20912332D01*
X15373016Y-20748459D01*
X15373009Y-20748446D01*
X15274464Y-20600965D01*
X15274461Y-20600961D01*
X15149038Y-20475538D01*
X15149034Y-20475535D01*
X15001553Y-20376990D01*
X15001540Y-20376983D01*
X14837667Y-20309106D01*
X14837658Y-20309103D01*
X14663694Y-20274500D01*
X14663691Y-20274500D01*
X14486309Y-20274500D01*
X14486306Y-20274500D01*
X14312341Y-20309103D01*
X14312332Y-20309106D01*
X14148459Y-20376983D01*
X14148446Y-20376990D01*
X14000965Y-20475535D01*
X14000961Y-20475538D01*
X13875538Y-20600961D01*
X13875535Y-20600965D01*
X13776990Y-20748446D01*
X13776983Y-20748459D01*
X13709106Y-20912332D01*
X13709103Y-20912341D01*
X13674500Y-21086304D01*
X12500500Y-21086304D01*
X12500500Y-15003750D01*
X12500726Y-14996263D01*
X12518271Y-14706205D01*
X12520076Y-14691340D01*
X12571780Y-14409202D01*
X12575364Y-14394664D01*
X12660699Y-14120812D01*
X12665997Y-14106842D01*
X12783727Y-13845258D01*
X12790680Y-13832012D01*
X12830959Y-13765381D01*
X12939075Y-13586534D01*
X12947567Y-13574230D01*
X13124481Y-13348417D01*
X13134396Y-13337226D01*
X13337226Y-13134396D01*
X13348417Y-13124481D01*
X13574230Y-12947567D01*
X13586534Y-12939075D01*
X13832012Y-12790680D01*
X13845258Y-12783727D01*
X14106842Y-12665997D01*
X14120812Y-12660699D01*
X14394668Y-12575362D01*
X14409198Y-12571780D01*
X14691344Y-12520075D01*
X14706201Y-12518271D01*
X14996264Y-12500726D01*
X15003751Y-12500500D01*
X15065892Y-12500500D01*
X28934108Y-12500500D01*
X28996249Y-12500500D01*
X29003736Y-12500726D01*
G37*
%TD.AperFunction*%
%TD*%
M02*
