%TF.GenerationSoftware,KiCad,Pcbnew,10.0.1*%
%TF.CreationDate,2026-07-30T17:59:27+02:00*%
%TF.ProjectId,Improved_GlobalResist,496d7072-6f76-4656-945f-476c6f62616c,rev?*%
%TF.SameCoordinates,Original*%
%TF.FileFunction,Copper,L4,Bot*%
%TF.FilePolarity,Positive*%
%FSLAX46Y46*%
G04 Gerber Fmt 4.6, Leading zero omitted, Abs format (unit mm)*
G04 Created by KiCad (PCBNEW 10.0.1) date 2026-07-30 17:59:27*
%MOMM*%
%LPD*%
G01*
G04 APERTURE LIST*
G04 Aperture macros list*
%AMRoundRect*
0 Rectangle with rounded corners*
0 $1 Rounding radius*
0 $2 $3 $4 $5 $6 $7 $8 $9 X,Y pos of 4 corners*
0 Add a 4 corners polygon primitive as box body*
4,1,4,$2,$3,$4,$5,$6,$7,$8,$9,$2,$3,0*
0 Add four circle primitives for the rounded corners*
1,1,$1+$1,$2,$3*
1,1,$1+$1,$4,$5*
1,1,$1+$1,$6,$7*
1,1,$1+$1,$8,$9*
0 Add four rect primitives between the rounded corners*
20,1,$1+$1,$2,$3,$4,$5,0*
20,1,$1+$1,$4,$5,$6,$7,0*
20,1,$1+$1,$6,$7,$8,$9,0*
20,1,$1+$1,$8,$9,$2,$3,0*%
G04 Aperture macros list end*
%TA.AperFunction,ComponentPad*%
%ADD10C,1.408000*%
%TD*%
%TA.AperFunction,ComponentPad*%
%ADD11R,1.408000X1.408000*%
%TD*%
%TA.AperFunction,ComponentPad*%
%ADD12RoundRect,0.200000X-0.200000X-0.450000X0.200000X-0.450000X0.200000X0.450000X-0.200000X0.450000X0*%
%TD*%
%TA.AperFunction,ComponentPad*%
%ADD13O,0.800000X1.300000*%
%TD*%
%TA.AperFunction,ComponentPad*%
%ADD14RoundRect,0.200000X0.200000X0.450000X-0.200000X0.450000X-0.200000X-0.450000X0.200000X-0.450000X0*%
%TD*%
%TA.AperFunction,ComponentPad*%
%ADD15R,1.700000X1.700000*%
%TD*%
%TA.AperFunction,ComponentPad*%
%ADD16C,1.700000*%
%TD*%
%TA.AperFunction,ComponentPad*%
%ADD17O,1.700000X1.100000*%
%TD*%
%TA.AperFunction,ViaPad*%
%ADD18C,0.600000*%
%TD*%
%TA.AperFunction,ViaPad*%
%ADD19C,0.900000*%
%TD*%
%TA.AperFunction,ViaPad*%
%ADD20C,2.000000*%
%TD*%
%TA.AperFunction,ViaPad*%
%ADD21C,1.200000*%
%TD*%
%TA.AperFunction,Conductor*%
%ADD22C,0.400000*%
%TD*%
%TA.AperFunction,Conductor*%
%ADD23C,0.600000*%
%TD*%
%TA.AperFunction,Conductor*%
%ADD24C,0.200000*%
%TD*%
G04 APERTURE END LIST*
D10*
%TO.P,S1,6*%
%TO.N,unconnected-(S1-Pad6)*%
X88000000Y-28700000D03*
%TO.P,S1,5*%
%TO.N,GNDREF*%
X85500000Y-28700000D03*
%TO.P,S1,4*%
%TO.N,Net-(Q8-Pad1)*%
X83000000Y-28700000D03*
%TO.P,S1,3*%
%TO.N,Net-(Q9-Pad1)*%
X88000000Y-34700000D03*
%TO.P,S1,2*%
%TO.N,GNDREF*%
X85500000Y-34700000D03*
D11*
%TO.P,S1,1*%
%TO.N,unconnected-(S1-Pad1)*%
X83000000Y-34700000D03*
%TD*%
D12*
%TO.P,P1,1,Pin_1_1*%
%TO.N,GNDREF*%
X15896691Y-47397500D03*
D13*
%TO.P,P1,2,Pin_2_2*%
%TO.N,+3.3V*%
X17146691Y-47397500D03*
%TO.P,P1,3,Pin_3_3*%
%TO.N,/SD1_P*%
X18396691Y-47397500D03*
%TO.P,P1,4,Pin_4_4*%
%TO.N,/SC1_P*%
X19646691Y-47397500D03*
%TD*%
D14*
%TO.P,Q7,1,Pin_1_1*%
%TO.N,GNDREF*%
X77943750Y-42056250D03*
D13*
%TO.P,Q7,2,Pin_2_2*%
%TO.N,/SD7_Q*%
X76693750Y-42056250D03*
%TO.P,Q7,3,Pin_3_3*%
%TO.N,+3.3V*%
X75443750Y-42056250D03*
%TO.P,Q7,4,Pin_4_4*%
%TO.N,GNDREF*%
X74193750Y-42056250D03*
%TO.P,Q7,5,Pin_5_5*%
%TO.N,/SC7_Q*%
X72943750Y-42056250D03*
%TO.P,Q7,6,Pin_6_6*%
%TO.N,GNDREF*%
X71693750Y-42056250D03*
%TD*%
D15*
%TO.P,R-ESP32-C3,1,Pin_1_1*%
%TO.N,Net-(R-ESP32-C3-Pin_1)*%
X55990000Y-15950000D03*
D16*
%TO.P,R-ESP32-C3,2,Pin_2_2*%
X53450000Y-15950000D03*
%TO.P,R-ESP32-C3,3,Pin_3_3*%
%TO.N,GNDREF*%
X55990000Y-18490000D03*
%TO.P,R-ESP32-C3,4,Pin_4_4*%
X53450000Y-18490000D03*
%TO.P,R-ESP32-C3,5,Pin_5_5*%
%TO.N,+3.3V*%
X55990000Y-21030000D03*
%TO.P,R-ESP32-C3,6,Pin_6_6*%
X53450000Y-21030000D03*
%TO.P,R-ESP32-C3,7,Pin_7_7*%
%TO.N,/SCK*%
X55990000Y-23570000D03*
%TO.P,R-ESP32-C3,8,Pin_8_8*%
X53450000Y-23570000D03*
%TO.P,R-ESP32-C3,9,Pin_9_9*%
%TO.N,Net-(R-ESP32-C3-Pin_10)*%
X55990000Y-26110000D03*
%TO.P,R-ESP32-C3,10,Pin_10_10*%
X53450000Y-26110000D03*
%TO.P,R-ESP32-C3,11,Pin_11_11*%
%TO.N,Net-(R-ESP32-C3-Pin_11)*%
X55990000Y-28650000D03*
%TO.P,R-ESP32-C3,12,Pin_12_12*%
X53450000Y-28650000D03*
%TO.P,R-ESP32-C3,13,Pin_13_13*%
%TO.N,/SDA*%
X55990000Y-31190000D03*
%TO.P,R-ESP32-C3,14,Pin_14_14*%
X53450000Y-31190000D03*
%TO.P,R-ESP32-C3,15,Pin_15_15*%
%TO.N,/SCL*%
X55990000Y-33730000D03*
%TO.P,R-ESP32-C3,16,Pin_16_16*%
X53450000Y-33730000D03*
%TD*%
D14*
%TO.P,Q4,1,Pin_1_1*%
%TO.N,GNDREF*%
X77918750Y-63933375D03*
D13*
%TO.P,Q4,2,Pin_2_2*%
%TO.N,/SD4_Q*%
X76668750Y-63933375D03*
%TO.P,Q4,3,Pin_3_3*%
%TO.N,+3.3V*%
X75418750Y-63933375D03*
%TO.P,Q4,4,Pin_4_4*%
%TO.N,GNDREF*%
X74168750Y-63933375D03*
%TO.P,Q4,5,Pin_5_5*%
%TO.N,/SC4_Q*%
X72918750Y-63933375D03*
%TO.P,Q4,6,Pin_6_6*%
%TO.N,GNDREF*%
X71668750Y-63933375D03*
%TD*%
D14*
%TO.P,P4,1,Pin_1_1*%
%TO.N,GNDREF*%
X40293750Y-64100000D03*
D13*
%TO.P,P4,2,Pin_2_2*%
%TO.N,+3.3V*%
X39043750Y-64100000D03*
%TO.P,P4,3,Pin_3_3*%
%TO.N,/SD4_P*%
X37793750Y-64100000D03*
%TO.P,P4,4,Pin_4_4*%
%TO.N,/SC4_P*%
X36543750Y-64100000D03*
%TD*%
D17*
%TO.P,J1,SH,SHIELD_SH*%
%TO.N,unconnected-(J1-SHIELD-PadSH)*%
X93625000Y-27120000D03*
%TO.N,unconnected-(J1-SHIELD-PadSH)_1*%
X97425000Y-27120000D03*
%TO.N,unconnected-(J1-SHIELD-PadSH)_2*%
X93625000Y-18480000D03*
%TO.N,unconnected-(J1-SHIELD-PadSH)_3*%
X97425000Y-18480000D03*
%TD*%
D15*
%TO.P,SPI_SD-Card_1,1,Pin_1_1*%
%TO.N,+3.3V*%
X28850000Y-15200000D03*
D16*
%TO.P,SPI_SD-Card_1,2,Pin_2_2*%
%TO.N,/CS*%
X28850000Y-17740000D03*
%TO.P,SPI_SD-Card_1,3,Pin_3_3*%
%TO.N,/MOSI*%
X28850000Y-20280000D03*
%TO.P,SPI_SD-Card_1,4,Pin_4_4*%
%TO.N,/SCK*%
X28850000Y-22820000D03*
%TO.P,SPI_SD-Card_1,5,Pin_5_5*%
%TO.N,/MISO*%
X28850000Y-25360000D03*
%TO.P,SPI_SD-Card_1,6,Pin_6_6*%
%TO.N,GNDREF*%
X28850000Y-27900000D03*
%TD*%
D12*
%TO.P,Q1,1,Pin_1_1*%
%TO.N,GNDREF*%
X48443750Y-47339125D03*
D13*
%TO.P,Q1,2,Pin_2_2*%
%TO.N,/SD1_Q*%
X49693750Y-47339125D03*
%TO.P,Q1,3,Pin_3_3*%
%TO.N,+3.3V*%
X50943750Y-47339125D03*
%TO.P,Q1,4,Pin_4_4*%
%TO.N,GNDREF*%
X52193750Y-47339125D03*
%TO.P,Q1,5,Pin_5_5*%
%TO.N,/SC1_Q*%
X53443750Y-47339125D03*
%TO.P,Q1,6,Pin_6_6*%
%TO.N,GNDREF*%
X54693750Y-47339125D03*
%TD*%
D12*
%TO.P,Q0,1,Pin_1_1*%
%TO.N,GNDREF*%
X48443750Y-40039125D03*
D13*
%TO.P,Q0,2,Pin_2_2*%
%TO.N,/SD0_Q*%
X49693750Y-40039125D03*
%TO.P,Q0,3,Pin_3_3*%
%TO.N,+3.3V*%
X50943750Y-40039125D03*
%TO.P,Q0,4,Pin_4_4*%
%TO.N,GNDREF*%
X52193750Y-40039125D03*
%TO.P,Q0,5,Pin_5_5*%
%TO.N,/SC0_Q*%
X53443750Y-40039125D03*
%TO.P,Q0,6,Pin_6_6*%
%TO.N,GNDREF*%
X54693750Y-40039125D03*
%TD*%
D12*
%TO.P,P3,1,Pin_1_1*%
%TO.N,GNDREF*%
X15918750Y-62005000D03*
D13*
%TO.P,P3,2,Pin_2_2*%
%TO.N,+3.3V*%
X17168750Y-62005000D03*
%TO.P,P3,3,Pin_3_3*%
%TO.N,/SD3_P*%
X18418750Y-62005000D03*
%TO.P,P3,4,Pin_4_4*%
%TO.N,/SC3_P*%
X19668750Y-62005000D03*
%TD*%
D12*
%TO.P,P2,1,Pin_1_1*%
%TO.N,GNDREF*%
X15918750Y-54697500D03*
D13*
%TO.P,P2,2,Pin_2_2*%
%TO.N,+3.3V*%
X17168750Y-54697500D03*
%TO.P,P2,3,Pin_3_3*%
%TO.N,/SD2_P*%
X18418750Y-54697500D03*
%TO.P,P2,4,Pin_4_4*%
%TO.N,/SC2_P*%
X19668750Y-54697500D03*
%TD*%
D14*
%TO.P,Q5,1,Pin_1_1*%
%TO.N,GNDREF*%
X77943750Y-56656250D03*
D13*
%TO.P,Q5,2,Pin_2_2*%
%TO.N,/SD5_Q*%
X76693750Y-56656250D03*
%TO.P,Q5,3,Pin_3_3*%
%TO.N,+3.3V*%
X75443750Y-56656250D03*
%TO.P,Q5,4,Pin_4_4*%
%TO.N,GNDREF*%
X74193750Y-56656250D03*
%TO.P,Q5,5,Pin_5_5*%
%TO.N,/SC5_Q*%
X72943750Y-56656250D03*
%TO.P,Q5,6,Pin_6_6*%
%TO.N,GNDREF*%
X71693750Y-56656250D03*
%TD*%
D12*
%TO.P,Q3,1,Pin_1_1*%
%TO.N,GNDREF*%
X48443750Y-61939125D03*
D13*
%TO.P,Q3,2,Pin_2_2*%
%TO.N,/SD3_Q*%
X49693750Y-61939125D03*
%TO.P,Q3,3,Pin_3_3*%
%TO.N,+3.3V*%
X50943750Y-61939125D03*
%TO.P,Q3,4,Pin_4_4*%
%TO.N,GNDREF*%
X52193750Y-61939125D03*
%TO.P,Q3,5,Pin_5_5*%
%TO.N,/SC3_Q*%
X53443750Y-61939125D03*
%TO.P,Q3,6,Pin_6_6*%
%TO.N,GNDREF*%
X54693750Y-61939125D03*
%TD*%
D12*
%TO.P,Q2,1,Pin_1_1*%
%TO.N,GNDREF*%
X48443750Y-54639125D03*
D13*
%TO.P,Q2,2,Pin_2_2*%
%TO.N,/SD2_Q*%
X49693750Y-54639125D03*
%TO.P,Q2,3,Pin_3_3*%
%TO.N,+3.3V*%
X50943750Y-54639125D03*
%TO.P,Q2,4,Pin_4_4*%
%TO.N,GNDREF*%
X52193750Y-54639125D03*
%TO.P,Q2,5,Pin_5_5*%
%TO.N,/SC2_Q*%
X53443750Y-54639125D03*
%TO.P,Q2,6,Pin_6_6*%
%TO.N,GNDREF*%
X54693750Y-54639125D03*
%TD*%
D14*
%TO.P,P5,1,Pin_1_1*%
%TO.N,GNDREF*%
X40293750Y-56800000D03*
D13*
%TO.P,P5,2,Pin_2_2*%
%TO.N,+3.3V*%
X39043750Y-56800000D03*
%TO.P,P5,3,Pin_3_3*%
%TO.N,/SD5_P*%
X37793750Y-56800000D03*
%TO.P,P5,4,Pin_4_4*%
%TO.N,/SC5_P*%
X36543750Y-56800000D03*
%TD*%
D14*
%TO.P,P6,1,Pin_1_1*%
%TO.N,GNDREF*%
X40293750Y-49517500D03*
D13*
%TO.P,P6,2,Pin_2_2*%
%TO.N,+3.3V*%
X39043750Y-49517500D03*
%TO.P,P6,3,Pin_3_3*%
%TO.N,/SD6_P*%
X37793750Y-49517500D03*
%TO.P,P6,4,Pin_4_4*%
%TO.N,/SC6_P*%
X36543750Y-49517500D03*
%TD*%
D14*
%TO.P,P7,1,Pin_1_1*%
%TO.N,GNDREF*%
X40293750Y-42237500D03*
D13*
%TO.P,P7,2,Pin_2_2*%
%TO.N,+3.3V*%
X39043750Y-42237500D03*
%TO.P,P7,3,Pin_3_3*%
%TO.N,/SD7_P*%
X37793750Y-42237500D03*
%TO.P,P7,4,Pin_4_4*%
%TO.N,/SC7_P*%
X36543750Y-42237500D03*
%TD*%
D15*
%TO.P,L-ESP32-C3,1,Pin_1_1*%
%TO.N,/CS*%
X38150000Y-15950000D03*
D16*
%TO.P,L-ESP32-C3,2,Pin_2_2*%
X35610000Y-15950000D03*
%TO.P,L-ESP32-C3,3,Pin_3_3*%
%TO.N,/MOSI*%
X38150000Y-18490000D03*
%TO.P,L-ESP32-C3,4,Pin_4_4*%
X35610000Y-18490000D03*
%TO.P,L-ESP32-C3,5,Pin_5_5*%
%TO.N,/MISO*%
X38150000Y-21030000D03*
%TO.P,L-ESP32-C3,6,Pin_6_6*%
X35610000Y-21030000D03*
%TO.P,L-ESP32-C3,7,Pin_7_7*%
%TO.N,Net-(L-ESP32-C3-Pin_7)*%
X38150000Y-23570000D03*
%TO.P,L-ESP32-C3,8,Pin_8_8*%
X35610000Y-23570000D03*
%TO.P,L-ESP32-C3,9,Pin_9_9*%
%TO.N,Net-(L-ESP32-C3-Pin_10)*%
X38150000Y-26110000D03*
%TO.P,L-ESP32-C3,10,Pin_10_10*%
X35610000Y-26110000D03*
%TO.P,L-ESP32-C3,11,Pin_11_11*%
%TO.N,Net-(L-ESP32-C3-Pin_11)*%
X38150000Y-28650000D03*
%TO.P,L-ESP32-C3,12,Pin_12_12*%
X35610000Y-28650000D03*
%TO.P,L-ESP32-C3,13,Pin_13_13*%
%TO.N,Net-(L-ESP32-C3-Pin_13)*%
X38150000Y-31190000D03*
%TO.P,L-ESP32-C3,14,Pin_14_14*%
X35610000Y-31190000D03*
%TO.P,L-ESP32-C3,15,Pin_15_15*%
%TO.N,Net-(L-ESP32-C3-Pin_15)*%
X38150000Y-33730000D03*
%TO.P,L-ESP32-C3,16,Pin_16_16*%
X35610000Y-33730000D03*
%TD*%
D12*
%TO.P,P0,1,Pin_1_1*%
%TO.N,GNDREF*%
X15896691Y-40097500D03*
D13*
%TO.P,P0,2,Pin_2_2*%
%TO.N,+3.3V*%
X17146691Y-40097500D03*
%TO.P,P0,3,Pin_3_3*%
%TO.N,/SD0_P*%
X18396691Y-40097500D03*
%TO.P,P0,4,Pin_4_4*%
%TO.N,/SC0_P*%
X19646691Y-40097500D03*
%TD*%
D14*
%TO.P,Q6,1,Pin_1_1*%
%TO.N,GNDREF*%
X77943750Y-49356250D03*
D13*
%TO.P,Q6,2,Pin_2_2*%
%TO.N,/SD6_Q*%
X76693750Y-49356250D03*
%TO.P,Q6,3,Pin_3_3*%
%TO.N,+3.3V*%
X75443750Y-49356250D03*
%TO.P,Q6,4,Pin_4_4*%
%TO.N,GNDREF*%
X74193750Y-49356250D03*
%TO.P,Q6,5,Pin_5_5*%
%TO.N,/SC6_Q*%
X72943750Y-49356250D03*
%TO.P,Q6,6,Pin_6_6*%
%TO.N,GNDREF*%
X71693750Y-49356250D03*
%TD*%
D18*
%TO.N,GNDREF*%
X32450000Y-48300000D03*
D19*
%TO.N,+3.3V*%
X66106250Y-45811250D03*
X17146875Y-58700000D03*
X63446875Y-37017500D03*
X74818750Y-45361250D03*
D18*
X78587500Y-14300000D03*
D19*
X39046875Y-45497500D03*
X30993750Y-45650000D03*
X51568750Y-44061250D03*
X62396875Y-42711250D03*
X51568750Y-58661250D03*
X51568750Y-65961250D03*
X30096875Y-42500000D03*
X74768750Y-38061250D03*
X39046875Y-52780000D03*
D18*
X80062500Y-14300000D03*
D19*
X25043750Y-41367500D03*
D18*
X76312500Y-20000000D03*
D19*
X39046875Y-38217500D03*
X17146875Y-44100000D03*
D20*
X66150000Y-21900000D03*
D19*
X39046875Y-60080000D03*
X27346875Y-42500000D03*
X51568750Y-51411250D03*
D18*
X77325000Y-15600000D03*
D19*
X74818750Y-52711250D03*
X74818750Y-60011250D03*
D18*
X75812500Y-14362500D03*
D19*
X28396875Y-37067500D03*
D18*
X67618750Y-48511250D03*
D19*
X17146875Y-51400000D03*
X17146875Y-66000000D03*
D18*
X69812500Y-15800000D03*
D19*
X60096875Y-41567500D03*
X65146875Y-42711250D03*
D21*
%TO.N,GNDREF*%
X91400000Y-18400000D03*
D19*
X25293750Y-54700000D03*
D21*
X91400000Y-27100000D03*
D19*
X65146875Y-44261250D03*
D21*
X70350000Y-34400000D03*
X64250000Y-34400000D03*
D19*
X60318750Y-54911250D03*
D18*
X77325000Y-16400000D03*
D20*
X61500000Y-30550000D03*
D19*
X60295875Y-45811250D03*
X30096875Y-44075000D03*
X86900000Y-23850000D03*
D18*
X80062500Y-17900000D03*
D19*
X97552500Y-39650000D03*
X25276250Y-45650000D03*
X27346875Y-44075000D03*
D18*
X78525000Y-17900000D03*
D19*
X62396875Y-44261250D03*
X96376250Y-31650000D03*
X86900000Y-21760000D03*
D18*
X72850000Y-20025000D03*
X73725000Y-15600000D03*
%TO.N,/SCL*%
X70962500Y-14150000D03*
X65000000Y-36100000D03*
D19*
%TO.N,Net-(D4-K)*%
X81250000Y-20050000D03*
D18*
X91800000Y-36200000D03*
%TD*%
%TO.N,Net-(D4-K)*%
D22*
X91800000Y-30600000D02*
X91800000Y-36200000D01*
X81250000Y-20050000D02*
X91800000Y-30600000D01*
%TO.N,+3.3V*%
D23*
X55990000Y-21030000D02*
X53450000Y-21030000D01*
%TO.N,GNDREF*%
X55990000Y-18490000D02*
X53450000Y-18490000D01*
%TO.N,/SCL*%
D24*
X67177767Y-14150000D02*
X59100000Y-22227767D01*
X65000000Y-36100000D02*
X58360000Y-36100000D01*
X59100000Y-30620000D02*
X55990000Y-33730000D01*
X58360000Y-36100000D02*
X55990000Y-33730000D01*
D23*
X55990000Y-33730000D02*
X53450000Y-33730000D01*
D24*
X59100000Y-22227767D02*
X59100000Y-30620000D01*
X70962500Y-14150000D02*
X67177767Y-14150000D01*
%TO.N,/SDA*%
D23*
X55990000Y-31190000D02*
X53450000Y-31190000D01*
%TO.N,/CS*%
X38150000Y-15950000D02*
X35610000Y-15950000D01*
%TO.N,/MOSI*%
X38150000Y-18490000D02*
X35610000Y-18490000D01*
%TO.N,/MISO*%
X38150000Y-21030000D02*
X35610000Y-21030000D01*
%TO.N,/SCK*%
X55990000Y-23570000D02*
X53450000Y-23570000D01*
D24*
X32400000Y-19270000D02*
X28850000Y-22820000D01*
X53450000Y-23570000D02*
X43980000Y-14100000D01*
X43980000Y-14100000D02*
X33900000Y-14100000D01*
X32400000Y-15600000D02*
X32400000Y-19270000D01*
X33900000Y-14100000D02*
X32400000Y-15600000D01*
%TO.N,Net-(L-ESP32-C3-Pin_13)*%
D23*
X38150000Y-31190000D02*
X35610000Y-31190000D01*
%TO.N,Net-(L-ESP32-C3-Pin_11)*%
X38150000Y-28650000D02*
X35610000Y-28650000D01*
%TO.N,Net-(L-ESP32-C3-Pin_10)*%
X38150000Y-26110000D02*
X35610000Y-26110000D01*
%TO.N,Net-(R-ESP32-C3-Pin_1)*%
X55990000Y-15950000D02*
X53450000Y-15950000D01*
%TO.N,Net-(R-ESP32-C3-Pin_11)*%
X55990000Y-28650000D02*
X53450000Y-28650000D01*
%TO.N,Net-(L-ESP32-C3-Pin_15)*%
X38150000Y-33730000D02*
X35610000Y-33730000D01*
%TO.N,Net-(L-ESP32-C3-Pin_7)*%
X38150000Y-23570000D02*
X35610000Y-23570000D01*
%TO.N,Net-(R-ESP32-C3-Pin_10)*%
X55990000Y-26110000D02*
X53450000Y-26110000D01*
%TD*%
M02*
