%TF.GenerationSoftware,KiCad,Pcbnew,10.0.1*%
%TF.CreationDate,2026-07-30T17:59:27+02:00*%
%TF.ProjectId,Improved_GlobalResist,496d7072-6f76-4656-945f-476c6f62616c,rev?*%
%TF.SameCoordinates,Original*%
%TF.FileFunction,Paste,Top*%
%TF.FilePolarity,Positive*%
%FSLAX46Y46*%
G04 Gerber Fmt 4.6, Leading zero omitted, Abs format (unit mm)*
G04 Created by KiCad (PCBNEW 10.0.1) date 2026-07-30 17:59:27*
%MOMM*%
%LPD*%
G01*
G04 APERTURE LIST*
G04 Aperture macros list*
%AMRoundRect*
0 Rectangle with rounded corners*
0 $1 Rounding radius*
0 $2 $3 $4 $5 $6 $7 $8 $9 X,Y pos of 4 corners*
0 Add a 4 corners polygon primitive as box body*
4,1,4,$2,$3,$4,$5,$6,$7,$8,$9,$2,$3,0*
0 Add four circle primitives for the rounded corners*
1,1,$1+$1,$2,$3*
1,1,$1+$1,$4,$5*
1,1,$1+$1,$6,$7*
1,1,$1+$1,$8,$9*
0 Add four rect primitives between the rounded corners*
20,1,$1+$1,$2,$3,$4,$5,0*
20,1,$1+$1,$4,$5,$6,$7,0*
20,1,$1+$1,$6,$7,$8,$9,0*
20,1,$1+$1,$8,$9,$2,$3,0*%
G04 Aperture macros list end*
%ADD10RoundRect,0.250000X0.650000X-1.000000X0.650000X1.000000X-0.650000X1.000000X-0.650000X-1.000000X0*%
%ADD11RoundRect,0.250000X-0.250000X-0.475000X0.250000X-0.475000X0.250000X0.475000X-0.250000X0.475000X0*%
%ADD12RoundRect,0.200000X-0.275000X0.200000X-0.275000X-0.200000X0.275000X-0.200000X0.275000X0.200000X0*%
%ADD13RoundRect,0.200000X0.275000X-0.200000X0.275000X0.200000X-0.275000X0.200000X-0.275000X-0.200000X0*%
%ADD14RoundRect,0.073750X-0.531250X-0.221250X0.531250X-0.221250X0.531250X0.221250X-0.531250X0.221250X0*%
%ADD15RoundRect,0.250000X0.250000X0.475000X-0.250000X0.475000X-0.250000X-0.475000X0.250000X-0.475000X0*%
%ADD16RoundRect,0.100000X-0.637500X-0.100000X0.637500X-0.100000X0.637500X0.100000X-0.637500X0.100000X0*%
%ADD17RoundRect,0.200000X-0.200000X-0.275000X0.200000X-0.275000X0.200000X0.275000X-0.200000X0.275000X0*%
%ADD18RoundRect,0.250000X-0.262500X-0.450000X0.262500X-0.450000X0.262500X0.450000X-0.262500X0.450000X0*%
%ADD19RoundRect,0.218750X0.218750X0.256250X-0.218750X0.256250X-0.218750X-0.256250X0.218750X-0.256250X0*%
%ADD20RoundRect,0.375000X0.375000X-0.625000X0.375000X0.625000X-0.375000X0.625000X-0.375000X-0.625000X0*%
%ADD21RoundRect,0.500000X1.400000X-0.500000X1.400000X0.500000X-1.400000X0.500000X-1.400000X-0.500000X0*%
%ADD22RoundRect,0.225000X-0.250000X0.225000X-0.250000X-0.225000X0.250000X-0.225000X0.250000X0.225000X0*%
%ADD23RoundRect,0.073750X-0.221250X0.531250X-0.221250X-0.531250X0.221250X-0.531250X0.221250X0.531250X0*%
%ADD24RoundRect,0.175000X0.425000X-0.175000X0.425000X0.175000X-0.425000X0.175000X-0.425000X-0.175000X0*%
%ADD25RoundRect,0.190000X-0.410000X0.190000X-0.410000X-0.190000X0.410000X-0.190000X0.410000X0.190000X0*%
%ADD26RoundRect,0.200000X-0.400000X0.200000X-0.400000X-0.200000X0.400000X-0.200000X0.400000X0.200000X0*%
%ADD27RoundRect,0.175000X-0.425000X0.175000X-0.425000X-0.175000X0.425000X-0.175000X0.425000X0.175000X0*%
%ADD28RoundRect,0.190000X0.410000X-0.190000X0.410000X0.190000X-0.410000X0.190000X-0.410000X-0.190000X0*%
%ADD29RoundRect,0.200000X0.400000X-0.200000X0.400000X0.200000X-0.400000X0.200000X-0.400000X-0.200000X0*%
%ADD30O,1.700000X1.100000*%
%ADD31RoundRect,0.200000X0.200000X0.275000X-0.200000X0.275000X-0.200000X-0.275000X0.200000X-0.275000X0*%
%ADD32RoundRect,0.250000X-1.000000X-0.650000X1.000000X-0.650000X1.000000X0.650000X-1.000000X0.650000X0*%
%ADD33RoundRect,0.250000X-0.450000X0.262500X-0.450000X-0.262500X0.450000X-0.262500X0.450000X0.262500X0*%
%ADD34RoundRect,0.250000X0.262500X0.450000X-0.262500X0.450000X-0.262500X-0.450000X0.262500X-0.450000X0*%
%ADD35R,0.275000X0.300000*%
%ADD36R,0.300000X0.275000*%
G04 APERTURE END LIST*
D10*
%TO.C,D3*%
X73400000Y-30250000D03*
X73400000Y-26250000D03*
%TD*%
D11*
%TO.C,C39*%
X68450000Y-32850000D03*
X70350000Y-32850000D03*
%TD*%
D12*
%TO.C,R9*%
X53418750Y-56986250D03*
X53418750Y-58636250D03*
%TD*%
D13*
%TO.C,R36*%
X36393750Y-54425000D03*
X36393750Y-52775000D03*
%TD*%
D14*
%TO.C,Q9*%
X94995000Y-33300000D03*
X94995000Y-35200000D03*
X97505000Y-34250000D03*
%TD*%
D13*
%TO.C,R39*%
X37893750Y-47142500D03*
X37893750Y-45492500D03*
%TD*%
D15*
%TO.C,C40*%
X66150000Y-32850000D03*
X64250000Y-32850000D03*
%TD*%
D13*
%TO.C,R22*%
X75312500Y-20025000D03*
X75312500Y-18375000D03*
%TD*%
D16*
%TO.C,MUX1*%
X60343750Y-46792500D03*
X60343750Y-47442500D03*
X60343750Y-48092500D03*
X60343750Y-48742500D03*
X60343750Y-49392500D03*
X60343750Y-50042500D03*
X60343750Y-50692500D03*
X60343750Y-51342500D03*
X60343750Y-51992500D03*
X60343750Y-52642500D03*
X60343750Y-53292500D03*
X60343750Y-53942500D03*
X66068750Y-53942500D03*
X66068750Y-53292500D03*
X66068750Y-52642500D03*
X66068750Y-51992500D03*
X66068750Y-51342500D03*
X66068750Y-50692500D03*
X66068750Y-50042500D03*
X66068750Y-49392500D03*
X66068750Y-48742500D03*
X66068750Y-48092500D03*
X66068750Y-47442500D03*
X66068750Y-46792500D03*
%TD*%
D17*
%TO.C,R3*%
X63503750Y-40001250D03*
X65153750Y-40001250D03*
%TD*%
D13*
%TO.C,R15*%
X72968750Y-54308375D03*
X72968750Y-52658375D03*
%TD*%
D17*
%TO.C,R25*%
X28418750Y-39800000D03*
X30068750Y-39800000D03*
%TD*%
D18*
%TO.C,R42*%
X88112500Y-21750000D03*
X89937500Y-21750000D03*
%TD*%
D19*
%TO.C,D2*%
X97637500Y-38450000D03*
X96062500Y-38450000D03*
%TD*%
D13*
%TO.C,R38*%
X36393750Y-47142500D03*
X36393750Y-45492500D03*
%TD*%
D20*
%TO.C,U1*%
X63850000Y-30500000D03*
X66150000Y-30500000D03*
D21*
X66150000Y-24200000D03*
D20*
X68450000Y-30500000D03*
%TD*%
D13*
%TO.C,R12*%
X76668750Y-61608375D03*
X76668750Y-59958375D03*
%TD*%
D22*
%TO.C,C2*%
X63581250Y-42723750D03*
X63581250Y-44273750D03*
%TD*%
D13*
%TO.C,R23*%
X25043750Y-44125000D03*
X25043750Y-42475000D03*
%TD*%
D12*
%TO.C,R27*%
X18315809Y-42475000D03*
X18315809Y-44125000D03*
%TD*%
D22*
%TO.C,C4*%
X28493750Y-42525000D03*
X28493750Y-44075000D03*
%TD*%
%TO.C,C3*%
X31243750Y-42525000D03*
X31243750Y-44075000D03*
%TD*%
D19*
%TO.C,D1*%
X96363750Y-30450000D03*
X94788750Y-30450000D03*
%TD*%
D12*
%TO.C,R7*%
X53418750Y-49686250D03*
X53418750Y-51336250D03*
%TD*%
%TO.C,R10*%
X49718750Y-64264125D03*
X49718750Y-65914125D03*
%TD*%
D23*
%TO.C,Q8*%
X79050000Y-28325000D03*
X77150000Y-28325000D03*
X78100000Y-30835000D03*
%TD*%
D12*
%TO.C,R28*%
X19793750Y-49775000D03*
X19793750Y-51425000D03*
%TD*%
D22*
%TO.C,C6*%
X78562500Y-15325000D03*
X78562500Y-16875000D03*
%TD*%
%TO.C,C1*%
X66331250Y-42723750D03*
X66331250Y-44273750D03*
%TD*%
D12*
%TO.C,R31*%
X18315809Y-57075000D03*
X18315809Y-58725000D03*
%TD*%
%TO.C,R32*%
X19815809Y-64375000D03*
X19815809Y-66025000D03*
%TD*%
D24*
%TO.C,J1*%
X93545000Y-23300000D03*
D25*
X93545000Y-21280000D03*
D26*
X93545000Y-20050000D03*
D27*
X93545000Y-22300000D03*
D28*
X93545000Y-24320000D03*
D29*
X93545000Y-25550000D03*
D30*
X93625000Y-27120000D03*
X97425000Y-27120000D03*
X93625000Y-18480000D03*
X97425000Y-18480000D03*
%TD*%
D31*
%TO.C,R44*%
X93301250Y-30450000D03*
X91651250Y-30450000D03*
%TD*%
D12*
%TO.C,R8*%
X49718750Y-56986250D03*
X49718750Y-58636250D03*
%TD*%
D13*
%TO.C,R17*%
X72968750Y-47008375D03*
X72968750Y-45358375D03*
%TD*%
%TO.C,R20*%
X70912500Y-17450000D03*
X70912500Y-15800000D03*
%TD*%
D12*
%TO.C,R30*%
X19815809Y-57075000D03*
X19815809Y-58725000D03*
%TD*%
D13*
%TO.C,R34*%
X36393750Y-61725000D03*
X36393750Y-60075000D03*
%TD*%
%TO.C,R35*%
X37893750Y-61725000D03*
X37893750Y-60075000D03*
%TD*%
D32*
%TO.C,D4*%
X79650000Y-22800000D03*
X83650000Y-22800000D03*
%TD*%
D12*
%TO.C,R11*%
X53443750Y-64264125D03*
X53443750Y-65914125D03*
%TD*%
D13*
%TO.C,R37*%
X37893750Y-54425000D03*
X37893750Y-52775000D03*
%TD*%
%TO.C,R19*%
X72918750Y-39758375D03*
X72918750Y-38108375D03*
%TD*%
D33*
%TO.C,R47*%
X91892500Y-33350000D03*
X91892500Y-35175000D03*
%TD*%
D17*
%TO.C,R24*%
X26743750Y-38250000D03*
X28393750Y-38250000D03*
%TD*%
D31*
%TO.C,R48*%
X97700000Y-36850000D03*
X96050000Y-36850000D03*
%TD*%
D12*
%TO.C,R4*%
X49718750Y-42386250D03*
X49718750Y-44036250D03*
%TD*%
D34*
%TO.C,R46*%
X79012500Y-25700000D03*
X77187500Y-25700000D03*
%TD*%
D16*
%TO.C,MUX2*%
X25268750Y-46600000D03*
X25268750Y-47250000D03*
X25268750Y-47900000D03*
X25268750Y-48550000D03*
X25268750Y-49200000D03*
X25268750Y-49850000D03*
X25268750Y-50500000D03*
X25268750Y-51150000D03*
X25268750Y-51800000D03*
X25268750Y-52450000D03*
X25268750Y-53100000D03*
X25268750Y-53750000D03*
X30993750Y-53750000D03*
X30993750Y-53100000D03*
X30993750Y-52450000D03*
X30993750Y-51800000D03*
X30993750Y-51150000D03*
X30993750Y-50500000D03*
X30993750Y-49850000D03*
X30993750Y-49200000D03*
X30993750Y-48550000D03*
X30993750Y-47900000D03*
X30993750Y-47250000D03*
X30993750Y-46600000D03*
%TD*%
D13*
%TO.C,R13*%
X72868750Y-61608375D03*
X72868750Y-59958375D03*
%TD*%
D12*
%TO.C,R29*%
X18315809Y-49775000D03*
X18315809Y-51425000D03*
%TD*%
D35*
%TO.C,BMP580*%
X75812500Y-15337500D03*
X75312500Y-15337500D03*
D36*
X74800000Y-15600000D03*
X74800000Y-16100000D03*
X74800000Y-16600000D03*
D35*
X75312500Y-16862500D03*
X75812500Y-16862500D03*
D36*
X76325000Y-16600000D03*
X76325000Y-16100000D03*
X76325000Y-15600000D03*
%TD*%
D12*
%TO.C,R5*%
X53418750Y-42386250D03*
X53418750Y-44036250D03*
%TD*%
%TO.C,R21*%
X72412500Y-14150000D03*
X72412500Y-15800000D03*
%TD*%
D18*
%TO.C,R43*%
X88112500Y-23850000D03*
X89937500Y-23850000D03*
%TD*%
D12*
%TO.C,R33*%
X18315809Y-64375000D03*
X18315809Y-66025000D03*
%TD*%
D13*
%TO.C,R1*%
X60068750Y-44336250D03*
X60068750Y-42686250D03*
%TD*%
D12*
%TO.C,R26*%
X19815809Y-42475000D03*
X19815809Y-44125000D03*
%TD*%
D13*
%TO.C,R16*%
X76668750Y-47008375D03*
X76668750Y-45358375D03*
%TD*%
%TO.C,R18*%
X76668750Y-39708375D03*
X76668750Y-38058375D03*
%TD*%
D12*
%TO.C,R45*%
X73850000Y-18375000D03*
X73850000Y-20025000D03*
%TD*%
%TO.C,R6*%
X49718750Y-49686250D03*
X49718750Y-51336250D03*
%TD*%
D13*
%TO.C,R14*%
X76668750Y-54308375D03*
X76668750Y-52658375D03*
%TD*%
%TO.C,R41*%
X37893750Y-39862500D03*
X37893750Y-38212500D03*
%TD*%
D22*
%TO.C,C5*%
X80062500Y-15340000D03*
X80062500Y-16890000D03*
%TD*%
D17*
%TO.C,R2*%
X61803750Y-38201250D03*
X63453750Y-38201250D03*
%TD*%
D13*
%TO.C,R40*%
X36393750Y-39862500D03*
X36393750Y-38212500D03*
%TD*%
M02*
