M48
; DRILL file KiCad 10.0.1 date 2026-07-30T18:00:44
; FORMAT={-:-/ absolute / metric / decimal}
; #@! TF.CreationDate,2026-07-30T18:00:44+02:00
; #@! TF.GenerationSoftware,Kicad,Pcbnew,10.0.1
; #@! TF.FileFunction,Plated,1,4,PTH
FMAT,2
METRIC
; #@! TA.AperFunction,Plated,PTH,ViaDrill
T1C0.300
; #@! TA.AperFunction,Plated,PTH,ComponentDrill
T2C0.500
; #@! TA.AperFunction,Plated,PTH,ViaDrill
T3C0.600
; #@! TA.AperFunction,Plated,PTH,ComponentDrill
T4C0.600
; #@! TA.AperFunction,Plated,PTH,ViaDrill
T5C0.900
; #@! TA.AperFunction,Plated,PTH,ComponentDrill
T6C0.900
; #@! TA.AperFunction,Plated,PTH,ComponentDrill
T7C1.000
; #@! TA.AperFunction,Plated,PTH,ViaDrill
T8C1.500
%
G90
G05
T1
X32.45Y-48.3
X65.0Y-36.1
X67.619Y-48.511
X69.812Y-15.8
X70.962Y-14.15
X72.85Y-20.025
X73.725Y-15.6
X75.812Y-14.362
X76.312Y-20.0
X77.325Y-15.6
X77.325Y-16.4
X78.525Y-17.9
X78.587Y-14.3
X80.062Y-14.3
X80.062Y-17.9
X91.8Y-36.2
T2
X15.897Y-40.097
X15.897Y-47.398
X15.919Y-54.697
X15.919Y-62.005
X17.147Y-40.097
X17.147Y-47.398
X17.169Y-54.697
X17.169Y-62.005
X18.397Y-40.097
X18.397Y-47.398
X18.419Y-54.697
X18.419Y-62.005
X19.647Y-40.097
X19.647Y-47.398
X19.669Y-54.697
X19.669Y-62.005
X36.544Y-42.237
X36.544Y-49.517
X36.544Y-56.8
X36.544Y-64.1
X37.794Y-42.237
X37.794Y-49.517
X37.794Y-56.8
X37.794Y-64.1
X39.044Y-42.237
X39.044Y-49.517
X39.044Y-56.8
X39.044Y-64.1
X40.294Y-42.237
X40.294Y-49.517
X40.294Y-56.8
X40.294Y-64.1
X48.444Y-40.039
X48.444Y-47.339
X48.444Y-54.639
X48.444Y-61.939
X49.694Y-40.039
X49.694Y-47.339
X49.694Y-54.639
X49.694Y-61.939
X50.944Y-40.039
X50.944Y-47.339
X50.944Y-54.639
X50.944Y-61.939
X52.194Y-40.039
X52.194Y-47.339
X52.194Y-54.639
X52.194Y-61.939
X53.444Y-40.039
X53.444Y-47.339
X53.444Y-54.639
X53.444Y-61.939
X54.694Y-40.039
X54.694Y-47.339
X54.694Y-54.639
X54.694Y-61.939
X71.669Y-63.933
X71.694Y-42.056
X71.694Y-49.356
X71.694Y-56.656
X72.919Y-63.933
X72.944Y-42.056
X72.944Y-49.356
X72.944Y-56.656
X74.169Y-63.933
X74.194Y-42.056
X74.194Y-49.356
X74.194Y-56.656
X75.419Y-63.933
X75.444Y-42.056
X75.444Y-49.356
X75.444Y-56.656
X76.669Y-63.933
X76.694Y-42.056
X76.694Y-49.356
X76.694Y-56.656
X77.919Y-63.933
X77.944Y-42.056
X77.944Y-49.356
X77.944Y-56.656
T3
X17.147Y-44.1
X17.147Y-51.4
X17.147Y-58.7
X17.147Y-66.0
X25.044Y-41.367
X25.276Y-45.65
X25.294Y-54.7
X27.347Y-42.5
X27.347Y-44.075
X28.397Y-37.067
X30.097Y-42.5
X30.097Y-44.075
X30.994Y-45.65
X39.047Y-38.218
X39.047Y-45.497
X39.047Y-52.78
X39.047Y-60.08
X51.569Y-44.061
X51.569Y-51.411
X51.569Y-58.661
X51.569Y-65.961
X60.097Y-41.567
X60.296Y-45.811
X60.319Y-54.911
X62.397Y-42.711
X62.397Y-44.261
X63.447Y-37.017
X65.147Y-42.711
X65.147Y-44.261
X66.106Y-45.811
X74.769Y-38.061
X74.819Y-45.361
X74.819Y-52.711
X74.819Y-60.011
X81.25Y-20.05
X86.9Y-21.76
X86.9Y-23.85
X96.376Y-31.65
X97.552Y-39.65
T5
X64.25Y-34.4
X70.35Y-34.4
X91.4Y-18.4
X91.4Y-27.1
T6
X83.0Y-28.7
X83.0Y-34.7
X85.5Y-28.7
X85.5Y-34.7
X88.0Y-28.7
X88.0Y-34.7
T7
X28.85Y-15.2
X28.85Y-17.74
X28.85Y-20.28
X28.85Y-22.82
X28.85Y-25.36
X28.85Y-27.9
X35.61Y-15.95
X35.61Y-18.49
X35.61Y-21.03
X35.61Y-23.57
X35.61Y-26.11
X35.61Y-28.65
X35.61Y-31.19
X35.61Y-33.73
X38.15Y-15.95
X38.15Y-18.49
X38.15Y-21.03
X38.15Y-23.57
X38.15Y-26.11
X38.15Y-28.65
X38.15Y-31.19
X38.15Y-33.73
X53.45Y-15.95
X53.45Y-18.49
X53.45Y-21.03
X53.45Y-23.57
X53.45Y-26.11
X53.45Y-28.65
X53.45Y-31.19
X53.45Y-33.73
X55.99Y-15.95
X55.99Y-18.49
X55.99Y-21.03
X55.99Y-23.57
X55.99Y-26.11
X55.99Y-28.65
X55.99Y-31.19
X55.99Y-33.73
T8
X61.5Y-30.55
X66.15Y-21.9
T4
X93.325Y-18.48G85X93.925Y-18.48
G05
X93.325Y-27.12G85X93.925Y-27.12
G05
X97.125Y-18.48G85X97.725Y-18.48
G05
X97.125Y-27.12G85X97.725Y-27.12
G05
M30
