%TF.GenerationSoftware,KiCad,Pcbnew,10.0.1*%
%TF.CreationDate,2026-07-30T17:59:27+02:00*%
%TF.ProjectId,Improved_GlobalResist,496d7072-6f76-4656-945f-476c6f62616c,rev?*%
%TF.SameCoordinates,Original*%
%TF.FileFunction,Copper,L1,Top*%
%TF.FilePolarity,Positive*%
%FSLAX46Y46*%
G04 Gerber Fmt 4.6, Leading zero omitted, Abs format (unit mm)*
G04 Created by KiCad (PCBNEW 10.0.1) date 2026-07-30 17:59:27*
%MOMM*%
%LPD*%
G01*
G04 APERTURE LIST*
G04 Aperture macros list*
%AMRoundRect*
0 Rectangle with rounded corners*
0 $1 Rounding radius*
0 $2 $3 $4 $5 $6 $7 $8 $9 X,Y pos of 4 corners*
0 Add a 4 corners polygon primitive as box body*
4,1,4,$2,$3,$4,$5,$6,$7,$8,$9,$2,$3,0*
0 Add four circle primitives for the rounded corners*
1,1,$1+$1,$2,$3*
1,1,$1+$1,$4,$5*
1,1,$1+$1,$6,$7*
1,1,$1+$1,$8,$9*
0 Add four rect primitives between the rounded corners*
20,1,$1+$1,$2,$3,$4,$5,0*
20,1,$1+$1,$4,$5,$6,$7,0*
20,1,$1+$1,$6,$7,$8,$9,0*
20,1,$1+$1,$8,$9,$2,$3,0*%
G04 Aperture macros list end*
%TA.AperFunction,ComponentPad*%
%ADD10C,1.408000*%
%TD*%
%TA.AperFunction,ComponentPad*%
%ADD11R,1.408000X1.408000*%
%TD*%
%TA.AperFunction,SMDPad,CuDef*%
%ADD12RoundRect,0.250000X0.650000X-1.000000X0.650000X1.000000X-0.650000X1.000000X-0.650000X-1.000000X0*%
%TD*%
%TA.AperFunction,SMDPad,CuDef*%
%ADD13RoundRect,0.250000X-0.250000X-0.475000X0.250000X-0.475000X0.250000X0.475000X-0.250000X0.475000X0*%
%TD*%
%TA.AperFunction,SMDPad,CuDef*%
%ADD14RoundRect,0.200000X-0.275000X0.200000X-0.275000X-0.200000X0.275000X-0.200000X0.275000X0.200000X0*%
%TD*%
%TA.AperFunction,SMDPad,CuDef*%
%ADD15RoundRect,0.200000X0.275000X-0.200000X0.275000X0.200000X-0.275000X0.200000X-0.275000X-0.200000X0*%
%TD*%
%TA.AperFunction,SMDPad,CuDef*%
%ADD16RoundRect,0.073750X-0.531250X-0.221250X0.531250X-0.221250X0.531250X0.221250X-0.531250X0.221250X0*%
%TD*%
%TA.AperFunction,ComponentPad*%
%ADD17RoundRect,0.200000X-0.200000X-0.450000X0.200000X-0.450000X0.200000X0.450000X-0.200000X0.450000X0*%
%TD*%
%TA.AperFunction,ComponentPad*%
%ADD18O,0.800000X1.300000*%
%TD*%
%TA.AperFunction,ComponentPad*%
%ADD19RoundRect,0.200000X0.200000X0.450000X-0.200000X0.450000X-0.200000X-0.450000X0.200000X-0.450000X0*%
%TD*%
%TA.AperFunction,SMDPad,CuDef*%
%ADD20RoundRect,0.250000X0.250000X0.475000X-0.250000X0.475000X-0.250000X-0.475000X0.250000X-0.475000X0*%
%TD*%
%TA.AperFunction,SMDPad,CuDef*%
%ADD21RoundRect,0.100000X-0.637500X-0.100000X0.637500X-0.100000X0.637500X0.100000X-0.637500X0.100000X0*%
%TD*%
%TA.AperFunction,SMDPad,CuDef*%
%ADD22RoundRect,0.200000X-0.200000X-0.275000X0.200000X-0.275000X0.200000X0.275000X-0.200000X0.275000X0*%
%TD*%
%TA.AperFunction,SMDPad,CuDef*%
%ADD23RoundRect,0.250000X-0.262500X-0.450000X0.262500X-0.450000X0.262500X0.450000X-0.262500X0.450000X0*%
%TD*%
%TA.AperFunction,SMDPad,CuDef*%
%ADD24RoundRect,0.218750X0.218750X0.256250X-0.218750X0.256250X-0.218750X-0.256250X0.218750X-0.256250X0*%
%TD*%
%TA.AperFunction,SMDPad,CuDef*%
%ADD25RoundRect,0.375000X0.375000X-0.625000X0.375000X0.625000X-0.375000X0.625000X-0.375000X-0.625000X0*%
%TD*%
%TA.AperFunction,SMDPad,CuDef*%
%ADD26RoundRect,0.500000X1.400000X-0.500000X1.400000X0.500000X-1.400000X0.500000X-1.400000X-0.500000X0*%
%TD*%
%TA.AperFunction,ComponentPad*%
%ADD27R,1.700000X1.700000*%
%TD*%
%TA.AperFunction,ComponentPad*%
%ADD28C,1.700000*%
%TD*%
%TA.AperFunction,SMDPad,CuDef*%
%ADD29RoundRect,0.225000X-0.250000X0.225000X-0.250000X-0.225000X0.250000X-0.225000X0.250000X0.225000X0*%
%TD*%
%TA.AperFunction,SMDPad,CuDef*%
%ADD30RoundRect,0.073750X-0.221250X0.531250X-0.221250X-0.531250X0.221250X-0.531250X0.221250X0.531250X0*%
%TD*%
%TA.AperFunction,SMDPad,CuDef*%
%ADD31RoundRect,0.175000X0.425000X-0.175000X0.425000X0.175000X-0.425000X0.175000X-0.425000X-0.175000X0*%
%TD*%
%TA.AperFunction,SMDPad,CuDef*%
%ADD32RoundRect,0.190000X-0.410000X0.190000X-0.410000X-0.190000X0.410000X-0.190000X0.410000X0.190000X0*%
%TD*%
%TA.AperFunction,SMDPad,CuDef*%
%ADD33RoundRect,0.200000X-0.400000X0.200000X-0.400000X-0.200000X0.400000X-0.200000X0.400000X0.200000X0*%
%TD*%
%TA.AperFunction,SMDPad,CuDef*%
%ADD34RoundRect,0.175000X-0.425000X0.175000X-0.425000X-0.175000X0.425000X-0.175000X0.425000X0.175000X0*%
%TD*%
%TA.AperFunction,SMDPad,CuDef*%
%ADD35RoundRect,0.190000X0.410000X-0.190000X0.410000X0.190000X-0.410000X0.190000X-0.410000X-0.190000X0*%
%TD*%
%TA.AperFunction,SMDPad,CuDef*%
%ADD36RoundRect,0.200000X0.400000X-0.200000X0.400000X0.200000X-0.400000X0.200000X-0.400000X-0.200000X0*%
%TD*%
%TA.AperFunction,ComponentPad*%
%ADD37O,1.700000X1.100000*%
%TD*%
%TA.AperFunction,SMDPad,CuDef*%
%ADD38RoundRect,0.200000X0.200000X0.275000X-0.200000X0.275000X-0.200000X-0.275000X0.200000X-0.275000X0*%
%TD*%
%TA.AperFunction,SMDPad,CuDef*%
%ADD39RoundRect,0.250000X-1.000000X-0.650000X1.000000X-0.650000X1.000000X0.650000X-1.000000X0.650000X0*%
%TD*%
%TA.AperFunction,SMDPad,CuDef*%
%ADD40RoundRect,0.250000X-0.450000X0.262500X-0.450000X-0.262500X0.450000X-0.262500X0.450000X0.262500X0*%
%TD*%
%TA.AperFunction,SMDPad,CuDef*%
%ADD41RoundRect,0.250000X0.262500X0.450000X-0.262500X0.450000X-0.262500X-0.450000X0.262500X-0.450000X0*%
%TD*%
%TA.AperFunction,SMDPad,CuDef*%
%ADD42R,0.275000X0.300000*%
%TD*%
%TA.AperFunction,SMDPad,CuDef*%
%ADD43R,0.300000X0.275000*%
%TD*%
%TA.AperFunction,ViaPad*%
%ADD44C,0.600000*%
%TD*%
%TA.AperFunction,ViaPad*%
%ADD45C,0.900000*%
%TD*%
%TA.AperFunction,ViaPad*%
%ADD46C,2.000000*%
%TD*%
%TA.AperFunction,ViaPad*%
%ADD47C,1.200000*%
%TD*%
%TA.AperFunction,Conductor*%
%ADD48C,0.200000*%
%TD*%
%TA.AperFunction,Conductor*%
%ADD49C,0.600000*%
%TD*%
%TA.AperFunction,Conductor*%
%ADD50C,0.400000*%
%TD*%
%TA.AperFunction,Conductor*%
%ADD51C,1.000000*%
%TD*%
G04 APERTURE END LIST*
D10*
%TO.P,S1,6*%
%TO.N,unconnected-(S1-Pad6)*%
X88000000Y-28700000D03*
%TO.P,S1,5*%
%TO.N,GNDREF*%
X85500000Y-28700000D03*
%TO.P,S1,4*%
%TO.N,Net-(Q8-Pad1)*%
X83000000Y-28700000D03*
%TO.P,S1,3*%
%TO.N,Net-(Q9-Pad1)*%
X88000000Y-34700000D03*
%TO.P,S1,2*%
%TO.N,GNDREF*%
X85500000Y-34700000D03*
D11*
%TO.P,S1,1*%
%TO.N,unconnected-(S1-Pad1)*%
X83000000Y-34700000D03*
%TD*%
D12*
%TO.P,D3,1,K_1*%
%TO.N,Net-(D3-K)*%
X73400000Y-30250000D03*
%TO.P,D3,2,A_2*%
%TO.N,+3.3V*%
X73400000Y-26250000D03*
%TD*%
D13*
%TO.P,C39,1*%
%TO.N,Net-(D3-K)*%
X68450000Y-32850000D03*
%TO.P,C39,2*%
%TO.N,GNDREF*%
X70350000Y-32850000D03*
%TD*%
D14*
%TO.P,R9,1*%
%TO.N,/SC2_Q*%
X53418750Y-56986250D03*
%TO.P,R9,2*%
%TO.N,+3.3V*%
X53418750Y-58636250D03*
%TD*%
D15*
%TO.P,R36,1*%
%TO.N,/SC5_P*%
X36393750Y-54425000D03*
%TO.P,R36,2*%
%TO.N,+3.3V*%
X36393750Y-52775000D03*
%TD*%
D16*
%TO.P,Q9,1*%
%TO.N,Net-(Q9-Pad1)*%
X94995000Y-33300000D03*
%TO.P,Q9,2*%
%TO.N,Net-(D4-K)*%
X94995000Y-35200000D03*
%TO.P,Q9,3*%
%TO.N,Net-(Q9-Pad3)*%
X97505000Y-34250000D03*
%TD*%
D17*
%TO.P,P1,1,Pin_1_1*%
%TO.N,GNDREF*%
X15896691Y-47397500D03*
D18*
%TO.P,P1,2,Pin_2_2*%
%TO.N,+3.3V*%
X17146691Y-47397500D03*
%TO.P,P1,3,Pin_3_3*%
%TO.N,/SD1_P*%
X18396691Y-47397500D03*
%TO.P,P1,4,Pin_4_4*%
%TO.N,/SC1_P*%
X19646691Y-47397500D03*
%TD*%
D19*
%TO.P,Q7,1,Pin_1_1*%
%TO.N,GNDREF*%
X77943750Y-42056250D03*
D18*
%TO.P,Q7,2,Pin_2_2*%
%TO.N,/SD7_Q*%
X76693750Y-42056250D03*
%TO.P,Q7,3,Pin_3_3*%
%TO.N,+3.3V*%
X75443750Y-42056250D03*
%TO.P,Q7,4,Pin_4_4*%
%TO.N,GNDREF*%
X74193750Y-42056250D03*
%TO.P,Q7,5,Pin_5_5*%
%TO.N,/SC7_Q*%
X72943750Y-42056250D03*
%TO.P,Q7,6,Pin_6_6*%
%TO.N,GNDREF*%
X71693750Y-42056250D03*
%TD*%
D15*
%TO.P,R39,1*%
%TO.N,/SD6_P*%
X37893750Y-47142500D03*
%TO.P,R39,2*%
%TO.N,+3.3V*%
X37893750Y-45492500D03*
%TD*%
D20*
%TO.P,C40,1*%
%TO.N,+3.3V*%
X66150000Y-32850000D03*
%TO.P,C40,2*%
%TO.N,GNDREF*%
X64250000Y-32850000D03*
%TD*%
D15*
%TO.P,R22,1*%
%TO.N,+3.3V*%
X75312500Y-20025000D03*
%TO.P,R22,2*%
%TO.N,Net-(BMP580-CSB)*%
X75312500Y-18375000D03*
%TD*%
D21*
%TO.P,MUX1,1,A0_1*%
%TO.N,GNDREF*%
X60343750Y-46792500D03*
%TO.P,MUX1,2,A1_2*%
X60343750Y-47442500D03*
%TO.P,MUX1,3,~{RESET}_3*%
%TO.N,Net-(MUX1-~{RESET})*%
X60343750Y-48092500D03*
%TO.P,MUX1,4,SD0_4*%
%TO.N,/SD0_Q*%
X60343750Y-48742500D03*
%TO.P,MUX1,5,SC0_5*%
%TO.N,/SC0_Q*%
X60343750Y-49392500D03*
%TO.P,MUX1,6,SD1_6*%
%TO.N,/SD1_Q*%
X60343750Y-50042500D03*
%TO.P,MUX1,7,SC1_7*%
%TO.N,/SC1_Q*%
X60343750Y-50692500D03*
%TO.P,MUX1,8,SD2_8*%
%TO.N,/SD2_Q*%
X60343750Y-51342500D03*
%TO.P,MUX1,9,SC2_9*%
%TO.N,/SC2_Q*%
X60343750Y-51992500D03*
%TO.P,MUX1,10,SD3_10*%
%TO.N,/SD3_Q*%
X60343750Y-52642500D03*
%TO.P,MUX1,11,SC3_11*%
%TO.N,/SC3_Q*%
X60343750Y-53292500D03*
%TO.P,MUX1,12,GND_12*%
%TO.N,GNDREF*%
X60343750Y-53942500D03*
%TO.P,MUX1,13,SD4_13*%
%TO.N,/SD4_Q*%
X66068750Y-53942500D03*
%TO.P,MUX1,14,SC4_14*%
%TO.N,/SC4_Q*%
X66068750Y-53292500D03*
%TO.P,MUX1,15,SD5_15*%
%TO.N,/SD5_Q*%
X66068750Y-52642500D03*
%TO.P,MUX1,16,SC5_16*%
%TO.N,/SC5_Q*%
X66068750Y-51992500D03*
%TO.P,MUX1,17,SD6_17*%
%TO.N,/SD6_Q*%
X66068750Y-51342500D03*
%TO.P,MUX1,18,SC6_18*%
%TO.N,/SC6_Q*%
X66068750Y-50692500D03*
%TO.P,MUX1,19,SD7_19*%
%TO.N,/SD7_Q*%
X66068750Y-50042500D03*
%TO.P,MUX1,20,SC7_20*%
%TO.N,/SC7_Q*%
X66068750Y-49392500D03*
%TO.P,MUX1,21,A2_21*%
%TO.N,+3.3V*%
X66068750Y-48742500D03*
%TO.P,MUX1,22,SCL_22*%
%TO.N,/SCL*%
X66068750Y-48092500D03*
%TO.P,MUX1,23,SDA_23*%
%TO.N,/SDA*%
X66068750Y-47442500D03*
%TO.P,MUX1,24,VCC_24*%
%TO.N,+3.3V*%
X66068750Y-46792500D03*
%TD*%
D22*
%TO.P,R3,1*%
%TO.N,+3.3V*%
X63503750Y-40001250D03*
%TO.P,R3,2*%
%TO.N,/SCL*%
X65153750Y-40001250D03*
%TD*%
D15*
%TO.P,R15,1*%
%TO.N,/SC5_Q*%
X72968750Y-54308375D03*
%TO.P,R15,2*%
%TO.N,+3.3V*%
X72968750Y-52658375D03*
%TD*%
D22*
%TO.P,R25,1*%
%TO.N,+3.3V*%
X28418750Y-39800000D03*
%TO.P,R25,2*%
%TO.N,/SCL*%
X30068750Y-39800000D03*
%TD*%
D23*
%TO.P,R42,1*%
%TO.N,GNDREF*%
X88112500Y-21750000D03*
%TO.P,R42,2*%
%TO.N,Net-(J1-CC2)*%
X89937500Y-21750000D03*
%TD*%
D24*
%TO.P,D2,1,K_1*%
%TO.N,GNDREF*%
X97637500Y-38450000D03*
%TO.P,D2,2,A_2*%
%TO.N,Net-(D2-A)*%
X96062500Y-38450000D03*
%TD*%
D15*
%TO.P,R38,1*%
%TO.N,/SC6_P*%
X36393750Y-47142500D03*
%TO.P,R38,2*%
%TO.N,+3.3V*%
X36393750Y-45492500D03*
%TD*%
D25*
%TO.P,U1,1,GND_1*%
%TO.N,GNDREF*%
X63850000Y-30500000D03*
%TO.P,U1,2,VO_2*%
%TO.N,+3.3V*%
X66150000Y-30500000D03*
D26*
X66150000Y-24200000D03*
D25*
%TO.P,U1,3,VI_3*%
%TO.N,Net-(D3-K)*%
X68450000Y-30500000D03*
%TD*%
D27*
%TO.P,R-ESP32-C3,1,Pin_1_1*%
%TO.N,Net-(R-ESP32-C3-Pin_1)*%
X55990000Y-15950000D03*
D28*
%TO.P,R-ESP32-C3,2,Pin_2_2*%
X53450000Y-15950000D03*
%TO.P,R-ESP32-C3,3,Pin_3_3*%
%TO.N,GNDREF*%
X55990000Y-18490000D03*
%TO.P,R-ESP32-C3,4,Pin_4_4*%
X53450000Y-18490000D03*
%TO.P,R-ESP32-C3,5,Pin_5_5*%
%TO.N,+3.3V*%
X55990000Y-21030000D03*
%TO.P,R-ESP32-C3,6,Pin_6_6*%
X53450000Y-21030000D03*
%TO.P,R-ESP32-C3,7,Pin_7_7*%
%TO.N,/SCK*%
X55990000Y-23570000D03*
%TO.P,R-ESP32-C3,8,Pin_8_8*%
X53450000Y-23570000D03*
%TO.P,R-ESP32-C3,9,Pin_9_9*%
%TO.N,Net-(R-ESP32-C3-Pin_10)*%
X55990000Y-26110000D03*
%TO.P,R-ESP32-C3,10,Pin_10_10*%
X53450000Y-26110000D03*
%TO.P,R-ESP32-C3,11,Pin_11_11*%
%TO.N,Net-(R-ESP32-C3-Pin_11)*%
X55990000Y-28650000D03*
%TO.P,R-ESP32-C3,12,Pin_12_12*%
X53450000Y-28650000D03*
%TO.P,R-ESP32-C3,13,Pin_13_13*%
%TO.N,/SDA*%
X55990000Y-31190000D03*
%TO.P,R-ESP32-C3,14,Pin_14_14*%
X53450000Y-31190000D03*
%TO.P,R-ESP32-C3,15,Pin_15_15*%
%TO.N,/SCL*%
X55990000Y-33730000D03*
%TO.P,R-ESP32-C3,16,Pin_16_16*%
X53450000Y-33730000D03*
%TD*%
D15*
%TO.P,R12,1*%
%TO.N,/SD4_Q*%
X76668750Y-61608375D03*
%TO.P,R12,2*%
%TO.N,+3.3V*%
X76668750Y-59958375D03*
%TD*%
D29*
%TO.P,C2,1*%
%TO.N,+3.3V*%
X63581250Y-42723750D03*
%TO.P,C2,2*%
%TO.N,GNDREF*%
X63581250Y-44273750D03*
%TD*%
D15*
%TO.P,R23,1*%
%TO.N,Net-(MUX2-~{RESET})*%
X25043750Y-44125000D03*
%TO.P,R23,2*%
%TO.N,+3.3V*%
X25043750Y-42475000D03*
%TD*%
D14*
%TO.P,R27,1*%
%TO.N,/SD0_P*%
X18315809Y-42475000D03*
%TO.P,R27,2*%
%TO.N,+3.3V*%
X18315809Y-44125000D03*
%TD*%
D19*
%TO.P,Q4,1,Pin_1_1*%
%TO.N,GNDREF*%
X77918750Y-63933375D03*
D18*
%TO.P,Q4,2,Pin_2_2*%
%TO.N,/SD4_Q*%
X76668750Y-63933375D03*
%TO.P,Q4,3,Pin_3_3*%
%TO.N,+3.3V*%
X75418750Y-63933375D03*
%TO.P,Q4,4,Pin_4_4*%
%TO.N,GNDREF*%
X74168750Y-63933375D03*
%TO.P,Q4,5,Pin_5_5*%
%TO.N,/SC4_Q*%
X72918750Y-63933375D03*
%TO.P,Q4,6,Pin_6_6*%
%TO.N,GNDREF*%
X71668750Y-63933375D03*
%TD*%
D29*
%TO.P,C4,1*%
%TO.N,+3.3V*%
X28493750Y-42525000D03*
%TO.P,C4,2*%
%TO.N,GNDREF*%
X28493750Y-44075000D03*
%TD*%
%TO.P,C3,1*%
%TO.N,+3.3V*%
X31243750Y-42525000D03*
%TO.P,C3,2*%
%TO.N,GNDREF*%
X31243750Y-44075000D03*
%TD*%
D24*
%TO.P,D1,1,K_1*%
%TO.N,GNDREF*%
X96363750Y-30450000D03*
%TO.P,D1,2,A_2*%
%TO.N,Net-(D1-A)*%
X94788750Y-30450000D03*
%TD*%
D14*
%TO.P,R7,1*%
%TO.N,/SC1_Q*%
X53418750Y-49686250D03*
%TO.P,R7,2*%
%TO.N,+3.3V*%
X53418750Y-51336250D03*
%TD*%
D19*
%TO.P,P4,1,Pin_1_1*%
%TO.N,GNDREF*%
X40293750Y-64100000D03*
D18*
%TO.P,P4,2,Pin_2_2*%
%TO.N,+3.3V*%
X39043750Y-64100000D03*
%TO.P,P4,3,Pin_3_3*%
%TO.N,/SD4_P*%
X37793750Y-64100000D03*
%TO.P,P4,4,Pin_4_4*%
%TO.N,/SC4_P*%
X36543750Y-64100000D03*
%TD*%
D14*
%TO.P,R10,1*%
%TO.N,/SD3_Q*%
X49718750Y-64264125D03*
%TO.P,R10,2*%
%TO.N,+3.3V*%
X49718750Y-65914125D03*
%TD*%
D30*
%TO.P,Q8,1*%
%TO.N,Net-(Q8-Pad1)*%
X79050000Y-28325000D03*
%TO.P,Q8,2*%
%TO.N,Net-(D4-K)*%
X77150000Y-28325000D03*
%TO.P,Q8,3*%
%TO.N,Net-(D3-K)*%
X78100000Y-30835000D03*
%TD*%
D14*
%TO.P,R28,1*%
%TO.N,/SC1_P*%
X19793750Y-49775000D03*
%TO.P,R28,2*%
%TO.N,+3.3V*%
X19793750Y-51425000D03*
%TD*%
D29*
%TO.P,C6,1*%
%TO.N,+3.3V*%
X78562500Y-15325000D03*
%TO.P,C6,2*%
%TO.N,GNDREF*%
X78562500Y-16875000D03*
%TD*%
%TO.P,C1,1*%
%TO.N,+3.3V*%
X66331250Y-42723750D03*
%TO.P,C1,2*%
%TO.N,GNDREF*%
X66331250Y-44273750D03*
%TD*%
D14*
%TO.P,R31,1*%
%TO.N,/SD2_P*%
X18315809Y-57075000D03*
%TO.P,R31,2*%
%TO.N,+3.3V*%
X18315809Y-58725000D03*
%TD*%
%TO.P,R32,1*%
%TO.N,/SC3_P*%
X19815809Y-64375000D03*
%TO.P,R32,2*%
%TO.N,+3.3V*%
X19815809Y-66025000D03*
%TD*%
D31*
%TO.P,J1,A5,CC1_A5*%
%TO.N,Net-(J1-CC1)*%
X93545000Y-23300000D03*
D32*
%TO.P,J1,A9,VBUS_A9*%
%TO.N,+5V*%
X93545000Y-21280000D03*
D33*
%TO.P,J1,A12,GND_A12*%
%TO.N,GNDREF*%
X93545000Y-20050000D03*
D34*
%TO.P,J1,B5,CC2_B5*%
%TO.N,Net-(J1-CC2)*%
X93545000Y-22300000D03*
D35*
%TO.P,J1,B9,VBUS_B9*%
%TO.N,+5V*%
X93545000Y-24320000D03*
D36*
%TO.P,J1,B12,GND_B12*%
%TO.N,GNDREF*%
X93545000Y-25550000D03*
D37*
%TO.P,J1,SH,SHIELD_SH*%
%TO.N,unconnected-(J1-SHIELD-PadSH)*%
X93625000Y-27120000D03*
%TO.N,unconnected-(J1-SHIELD-PadSH)_1*%
X97425000Y-27120000D03*
%TO.N,unconnected-(J1-SHIELD-PadSH)_2*%
X93625000Y-18480000D03*
%TO.N,unconnected-(J1-SHIELD-PadSH)_3*%
X97425000Y-18480000D03*
%TD*%
D38*
%TO.P,R44,1*%
%TO.N,Net-(D1-A)*%
X93301250Y-30450000D03*
%TO.P,R44,2*%
%TO.N,+5V*%
X91651250Y-30450000D03*
%TD*%
D27*
%TO.P,SPI_SD-Card_1,1,Pin_1_1*%
%TO.N,+3.3V*%
X28850000Y-15200000D03*
D28*
%TO.P,SPI_SD-Card_1,2,Pin_2_2*%
%TO.N,/CS*%
X28850000Y-17740000D03*
%TO.P,SPI_SD-Card_1,3,Pin_3_3*%
%TO.N,/MOSI*%
X28850000Y-20280000D03*
%TO.P,SPI_SD-Card_1,4,Pin_4_4*%
%TO.N,/SCK*%
X28850000Y-22820000D03*
%TO.P,SPI_SD-Card_1,5,Pin_5_5*%
%TO.N,/MISO*%
X28850000Y-25360000D03*
%TO.P,SPI_SD-Card_1,6,Pin_6_6*%
%TO.N,GNDREF*%
X28850000Y-27900000D03*
%TD*%
D14*
%TO.P,R8,1*%
%TO.N,/SD2_Q*%
X49718750Y-56986250D03*
%TO.P,R8,2*%
%TO.N,+3.3V*%
X49718750Y-58636250D03*
%TD*%
D15*
%TO.P,R17,1*%
%TO.N,/SC6_Q*%
X72968750Y-47008375D03*
%TO.P,R17,2*%
%TO.N,+3.3V*%
X72968750Y-45358375D03*
%TD*%
%TO.P,R20,1*%
%TO.N,/SDA*%
X70912500Y-17450000D03*
%TO.P,R20,2*%
%TO.N,+3.3V*%
X70912500Y-15800000D03*
%TD*%
D14*
%TO.P,R30,1*%
%TO.N,/SC2_P*%
X19815809Y-57075000D03*
%TO.P,R30,2*%
%TO.N,+3.3V*%
X19815809Y-58725000D03*
%TD*%
D15*
%TO.P,R34,1*%
%TO.N,/SC4_P*%
X36393750Y-61725000D03*
%TO.P,R34,2*%
%TO.N,+3.3V*%
X36393750Y-60075000D03*
%TD*%
D17*
%TO.P,Q1,1,Pin_1_1*%
%TO.N,GNDREF*%
X48443750Y-47339125D03*
D18*
%TO.P,Q1,2,Pin_2_2*%
%TO.N,/SD1_Q*%
X49693750Y-47339125D03*
%TO.P,Q1,3,Pin_3_3*%
%TO.N,+3.3V*%
X50943750Y-47339125D03*
%TO.P,Q1,4,Pin_4_4*%
%TO.N,GNDREF*%
X52193750Y-47339125D03*
%TO.P,Q1,5,Pin_5_5*%
%TO.N,/SC1_Q*%
X53443750Y-47339125D03*
%TO.P,Q1,6,Pin_6_6*%
%TO.N,GNDREF*%
X54693750Y-47339125D03*
%TD*%
D15*
%TO.P,R35,1*%
%TO.N,/SD4_P*%
X37893750Y-61725000D03*
%TO.P,R35,2*%
%TO.N,+3.3V*%
X37893750Y-60075000D03*
%TD*%
D17*
%TO.P,Q0,1,Pin_1_1*%
%TO.N,GNDREF*%
X48443750Y-40039125D03*
D18*
%TO.P,Q0,2,Pin_2_2*%
%TO.N,/SD0_Q*%
X49693750Y-40039125D03*
%TO.P,Q0,3,Pin_3_3*%
%TO.N,+3.3V*%
X50943750Y-40039125D03*
%TO.P,Q0,4,Pin_4_4*%
%TO.N,GNDREF*%
X52193750Y-40039125D03*
%TO.P,Q0,5,Pin_5_5*%
%TO.N,/SC0_Q*%
X53443750Y-40039125D03*
%TO.P,Q0,6,Pin_6_6*%
%TO.N,GNDREF*%
X54693750Y-40039125D03*
%TD*%
D17*
%TO.P,P3,1,Pin_1_1*%
%TO.N,GNDREF*%
X15918750Y-62005000D03*
D18*
%TO.P,P3,2,Pin_2_2*%
%TO.N,+3.3V*%
X17168750Y-62005000D03*
%TO.P,P3,3,Pin_3_3*%
%TO.N,/SD3_P*%
X18418750Y-62005000D03*
%TO.P,P3,4,Pin_4_4*%
%TO.N,/SC3_P*%
X19668750Y-62005000D03*
%TD*%
D39*
%TO.P,D4,1,K_1*%
%TO.N,Net-(D4-K)*%
X79650000Y-22800000D03*
%TO.P,D4,2,A_2*%
%TO.N,+5V*%
X83650000Y-22800000D03*
%TD*%
D14*
%TO.P,R11,1*%
%TO.N,/SC3_Q*%
X53443750Y-64264125D03*
%TO.P,R11,2*%
%TO.N,+3.3V*%
X53443750Y-65914125D03*
%TD*%
D17*
%TO.P,P2,1,Pin_1_1*%
%TO.N,GNDREF*%
X15918750Y-54697500D03*
D18*
%TO.P,P2,2,Pin_2_2*%
%TO.N,+3.3V*%
X17168750Y-54697500D03*
%TO.P,P2,3,Pin_3_3*%
%TO.N,/SD2_P*%
X18418750Y-54697500D03*
%TO.P,P2,4,Pin_4_4*%
%TO.N,/SC2_P*%
X19668750Y-54697500D03*
%TD*%
D15*
%TO.P,R37,1*%
%TO.N,/SD5_P*%
X37893750Y-54425000D03*
%TO.P,R37,2*%
%TO.N,+3.3V*%
X37893750Y-52775000D03*
%TD*%
%TO.P,R19,1*%
%TO.N,/SC7_Q*%
X72918750Y-39758375D03*
%TO.P,R19,2*%
%TO.N,+3.3V*%
X72918750Y-38108375D03*
%TD*%
D40*
%TO.P,R47,1*%
%TO.N,Net-(Q9-Pad1)*%
X91892500Y-33350000D03*
%TO.P,R47,2*%
%TO.N,Net-(D4-K)*%
X91892500Y-35175000D03*
%TD*%
D19*
%TO.P,Q5,1,Pin_1_1*%
%TO.N,GNDREF*%
X77943750Y-56656250D03*
D18*
%TO.P,Q5,2,Pin_2_2*%
%TO.N,/SD5_Q*%
X76693750Y-56656250D03*
%TO.P,Q5,3,Pin_3_3*%
%TO.N,+3.3V*%
X75443750Y-56656250D03*
%TO.P,Q5,4,Pin_4_4*%
%TO.N,GNDREF*%
X74193750Y-56656250D03*
%TO.P,Q5,5,Pin_5_5*%
%TO.N,/SC5_Q*%
X72943750Y-56656250D03*
%TO.P,Q5,6,Pin_6_6*%
%TO.N,GNDREF*%
X71693750Y-56656250D03*
%TD*%
D17*
%TO.P,Q3,1,Pin_1_1*%
%TO.N,GNDREF*%
X48443750Y-61939125D03*
D18*
%TO.P,Q3,2,Pin_2_2*%
%TO.N,/SD3_Q*%
X49693750Y-61939125D03*
%TO.P,Q3,3,Pin_3_3*%
%TO.N,+3.3V*%
X50943750Y-61939125D03*
%TO.P,Q3,4,Pin_4_4*%
%TO.N,GNDREF*%
X52193750Y-61939125D03*
%TO.P,Q3,5,Pin_5_5*%
%TO.N,/SC3_Q*%
X53443750Y-61939125D03*
%TO.P,Q3,6,Pin_6_6*%
%TO.N,GNDREF*%
X54693750Y-61939125D03*
%TD*%
D22*
%TO.P,R24,1*%
%TO.N,/SDA*%
X26743750Y-38250000D03*
%TO.P,R24,2*%
%TO.N,+3.3V*%
X28393750Y-38250000D03*
%TD*%
D17*
%TO.P,Q2,1,Pin_1_1*%
%TO.N,GNDREF*%
X48443750Y-54639125D03*
D18*
%TO.P,Q2,2,Pin_2_2*%
%TO.N,/SD2_Q*%
X49693750Y-54639125D03*
%TO.P,Q2,3,Pin_3_3*%
%TO.N,+3.3V*%
X50943750Y-54639125D03*
%TO.P,Q2,4,Pin_4_4*%
%TO.N,GNDREF*%
X52193750Y-54639125D03*
%TO.P,Q2,5,Pin_5_5*%
%TO.N,/SC2_Q*%
X53443750Y-54639125D03*
%TO.P,Q2,6,Pin_6_6*%
%TO.N,GNDREF*%
X54693750Y-54639125D03*
%TD*%
D38*
%TO.P,R48,1*%
%TO.N,Net-(Q9-Pad3)*%
X97700000Y-36850000D03*
%TO.P,R48,2*%
%TO.N,Net-(D2-A)*%
X96050000Y-36850000D03*
%TD*%
D14*
%TO.P,R4,1*%
%TO.N,/SD0_Q*%
X49718750Y-42386250D03*
%TO.P,R4,2*%
%TO.N,+3.3V*%
X49718750Y-44036250D03*
%TD*%
D19*
%TO.P,P5,1,Pin_1_1*%
%TO.N,GNDREF*%
X40293750Y-56800000D03*
D18*
%TO.P,P5,2,Pin_2_2*%
%TO.N,+3.3V*%
X39043750Y-56800000D03*
%TO.P,P5,3,Pin_3_3*%
%TO.N,/SD5_P*%
X37793750Y-56800000D03*
%TO.P,P5,4,Pin_4_4*%
%TO.N,/SC5_P*%
X36543750Y-56800000D03*
%TD*%
D41*
%TO.P,R46,1*%
%TO.N,Net-(Q8-Pad1)*%
X79012500Y-25700000D03*
%TO.P,R46,2*%
%TO.N,Net-(D4-K)*%
X77187500Y-25700000D03*
%TD*%
D21*
%TO.P,MUX2,1,A0_1*%
%TO.N,GNDREF*%
X25268750Y-46600000D03*
%TO.P,MUX2,2,A1_2*%
X25268750Y-47250000D03*
%TO.P,MUX2,3,~{RESET}_3*%
%TO.N,Net-(MUX2-~{RESET})*%
X25268750Y-47900000D03*
%TO.P,MUX2,4,SD0_4*%
%TO.N,/SD0_P*%
X25268750Y-48550000D03*
%TO.P,MUX2,5,SC0_5*%
%TO.N,/SC0_P*%
X25268750Y-49200000D03*
%TO.P,MUX2,6,SD1_6*%
%TO.N,/SD1_P*%
X25268750Y-49850000D03*
%TO.P,MUX2,7,SC1_7*%
%TO.N,/SC1_P*%
X25268750Y-50500000D03*
%TO.P,MUX2,8,SD2_8*%
%TO.N,/SD2_P*%
X25268750Y-51150000D03*
%TO.P,MUX2,9,SC2_9*%
%TO.N,/SC2_P*%
X25268750Y-51800000D03*
%TO.P,MUX2,10,SD3_10*%
%TO.N,/SD3_P*%
X25268750Y-52450000D03*
%TO.P,MUX2,11,SC3_11*%
%TO.N,/SC3_P*%
X25268750Y-53100000D03*
%TO.P,MUX2,12,GND_12*%
%TO.N,GNDREF*%
X25268750Y-53750000D03*
%TO.P,MUX2,13,SD4_13*%
%TO.N,/SD4_P*%
X30993750Y-53750000D03*
%TO.P,MUX2,14,SC4_14*%
%TO.N,/SC4_P*%
X30993750Y-53100000D03*
%TO.P,MUX2,15,SD5_15*%
%TO.N,/SD5_P*%
X30993750Y-52450000D03*
%TO.P,MUX2,16,SC5_16*%
%TO.N,/SC5_P*%
X30993750Y-51800000D03*
%TO.P,MUX2,17,SD6_17*%
%TO.N,/SD6_P*%
X30993750Y-51150000D03*
%TO.P,MUX2,18,SC6_18*%
%TO.N,/SC6_P*%
X30993750Y-50500000D03*
%TO.P,MUX2,19,SD7_19*%
%TO.N,/SD7_P*%
X30993750Y-49850000D03*
%TO.P,MUX2,20,SC7_20*%
%TO.N,/SC7_P*%
X30993750Y-49200000D03*
%TO.P,MUX2,21,A2_21*%
%TO.N,GNDREF*%
X30993750Y-48550000D03*
%TO.P,MUX2,22,SCL_22*%
%TO.N,/SCL*%
X30993750Y-47900000D03*
%TO.P,MUX2,23,SDA_23*%
%TO.N,/SDA*%
X30993750Y-47250000D03*
%TO.P,MUX2,24,VCC_24*%
%TO.N,+3.3V*%
X30993750Y-46600000D03*
%TD*%
D15*
%TO.P,R13,1*%
%TO.N,/SC4_Q*%
X72868750Y-61608375D03*
%TO.P,R13,2*%
%TO.N,+3.3V*%
X72868750Y-59958375D03*
%TD*%
D14*
%TO.P,R29,1*%
%TO.N,/SD1_P*%
X18315809Y-49775000D03*
%TO.P,R29,2*%
%TO.N,+3.3V*%
X18315809Y-51425000D03*
%TD*%
D42*
%TO.P,BMP580,1,VDDIO_1*%
%TO.N,+3.3V*%
X75812500Y-15337500D03*
%TO.P,BMP580,2,SCK_2*%
%TO.N,/SCL*%
X75312500Y-15337500D03*
D43*
%TO.P,BMP580,3,VSS_3*%
%TO.N,GNDREF*%
X74800000Y-15600000D03*
%TO.P,BMP580,4,SDI_4*%
%TO.N,/SDA*%
X74800000Y-16100000D03*
%TO.P,BMP580,5,SDO_5*%
%TO.N,Net-(BMP580-SDO)*%
X74800000Y-16600000D03*
D42*
%TO.P,BMP580,6,CSB_6*%
%TO.N,Net-(BMP580-CSB)*%
X75312500Y-16862500D03*
%TO.P,BMP580,7,INT_7*%
%TO.N,unconnected-(BMP580-INT-Pad7)*%
X75812500Y-16862500D03*
D43*
%TO.P,BMP580,8,VSS_8*%
%TO.N,GNDREF*%
X76325000Y-16600000D03*
%TO.P,BMP580,9,VSS_9*%
X76325000Y-16100000D03*
%TO.P,BMP580,10,VDD_10*%
%TO.N,+3.3V*%
X76325000Y-15600000D03*
%TD*%
D14*
%TO.P,R5,1*%
%TO.N,/SC0_Q*%
X53418750Y-42386250D03*
%TO.P,R5,2*%
%TO.N,+3.3V*%
X53418750Y-44036250D03*
%TD*%
%TO.P,R21,1*%
%TO.N,/SCL*%
X72412500Y-14150000D03*
%TO.P,R21,2*%
%TO.N,+3.3V*%
X72412500Y-15800000D03*
%TD*%
D23*
%TO.P,R43,1*%
%TO.N,GNDREF*%
X88112500Y-23850000D03*
%TO.P,R43,2*%
%TO.N,Net-(J1-CC1)*%
X89937500Y-23850000D03*
%TD*%
D19*
%TO.P,P6,1,Pin_1_1*%
%TO.N,GNDREF*%
X40293750Y-49517500D03*
D18*
%TO.P,P6,2,Pin_2_2*%
%TO.N,+3.3V*%
X39043750Y-49517500D03*
%TO.P,P6,3,Pin_3_3*%
%TO.N,/SD6_P*%
X37793750Y-49517500D03*
%TO.P,P6,4,Pin_4_4*%
%TO.N,/SC6_P*%
X36543750Y-49517500D03*
%TD*%
D19*
%TO.P,P7,1,Pin_1_1*%
%TO.N,GNDREF*%
X40293750Y-42237500D03*
D18*
%TO.P,P7,2,Pin_2_2*%
%TO.N,+3.3V*%
X39043750Y-42237500D03*
%TO.P,P7,3,Pin_3_3*%
%TO.N,/SD7_P*%
X37793750Y-42237500D03*
%TO.P,P7,4,Pin_4_4*%
%TO.N,/SC7_P*%
X36543750Y-42237500D03*
%TD*%
D14*
%TO.P,R33,1*%
%TO.N,/SD3_P*%
X18315809Y-64375000D03*
%TO.P,R33,2*%
%TO.N,+3.3V*%
X18315809Y-66025000D03*
%TD*%
D15*
%TO.P,R1,1*%
%TO.N,Net-(MUX1-~{RESET})*%
X60068750Y-44336250D03*
%TO.P,R1,2*%
%TO.N,+3.3V*%
X60068750Y-42686250D03*
%TD*%
D14*
%TO.P,R26,1*%
%TO.N,/SC0_P*%
X19815809Y-42475000D03*
%TO.P,R26,2*%
%TO.N,+3.3V*%
X19815809Y-44125000D03*
%TD*%
D15*
%TO.P,R16,1*%
%TO.N,/SD6_Q*%
X76668750Y-47008375D03*
%TO.P,R16,2*%
%TO.N,+3.3V*%
X76668750Y-45358375D03*
%TD*%
%TO.P,R18,1*%
%TO.N,/SD7_Q*%
X76668750Y-39708375D03*
%TO.P,R18,2*%
%TO.N,+3.3V*%
X76668750Y-38058375D03*
%TD*%
D14*
%TO.P,R45,1*%
%TO.N,Net-(BMP580-SDO)*%
X73850000Y-18375000D03*
%TO.P,R45,2*%
%TO.N,GNDREF*%
X73850000Y-20025000D03*
%TD*%
D27*
%TO.P,L-ESP32-C3,1,Pin_1_1*%
%TO.N,/CS*%
X38150000Y-15950000D03*
D28*
%TO.P,L-ESP32-C3,2,Pin_2_2*%
X35610000Y-15950000D03*
%TO.P,L-ESP32-C3,3,Pin_3_3*%
%TO.N,/MOSI*%
X38150000Y-18490000D03*
%TO.P,L-ESP32-C3,4,Pin_4_4*%
X35610000Y-18490000D03*
%TO.P,L-ESP32-C3,5,Pin_5_5*%
%TO.N,/MISO*%
X38150000Y-21030000D03*
%TO.P,L-ESP32-C3,6,Pin_6_6*%
X35610000Y-21030000D03*
%TO.P,L-ESP32-C3,7,Pin_7_7*%
%TO.N,Net-(L-ESP32-C3-Pin_7)*%
X38150000Y-23570000D03*
%TO.P,L-ESP32-C3,8,Pin_8_8*%
X35610000Y-23570000D03*
%TO.P,L-ESP32-C3,9,Pin_9_9*%
%TO.N,Net-(L-ESP32-C3-Pin_10)*%
X38150000Y-26110000D03*
%TO.P,L-ESP32-C3,10,Pin_10_10*%
X35610000Y-26110000D03*
%TO.P,L-ESP32-C3,11,Pin_11_11*%
%TO.N,Net-(L-ESP32-C3-Pin_11)*%
X38150000Y-28650000D03*
%TO.P,L-ESP32-C3,12,Pin_12_12*%
X35610000Y-28650000D03*
%TO.P,L-ESP32-C3,13,Pin_13_13*%
%TO.N,Net-(L-ESP32-C3-Pin_13)*%
X38150000Y-31190000D03*
%TO.P,L-ESP32-C3,14,Pin_14_14*%
X35610000Y-31190000D03*
%TO.P,L-ESP32-C3,15,Pin_15_15*%
%TO.N,Net-(L-ESP32-C3-Pin_15)*%
X38150000Y-33730000D03*
%TO.P,L-ESP32-C3,16,Pin_16_16*%
X35610000Y-33730000D03*
%TD*%
D14*
%TO.P,R6,1*%
%TO.N,/SD1_Q*%
X49718750Y-49686250D03*
%TO.P,R6,2*%
%TO.N,+3.3V*%
X49718750Y-51336250D03*
%TD*%
D15*
%TO.P,R14,1*%
%TO.N,/SD5_Q*%
X76668750Y-54308375D03*
%TO.P,R14,2*%
%TO.N,+3.3V*%
X76668750Y-52658375D03*
%TD*%
%TO.P,R41,1*%
%TO.N,/SD7_P*%
X37893750Y-39862500D03*
%TO.P,R41,2*%
%TO.N,+3.3V*%
X37893750Y-38212500D03*
%TD*%
D29*
%TO.P,C5,1*%
%TO.N,+3.3V*%
X80062500Y-15340000D03*
%TO.P,C5,2*%
%TO.N,GNDREF*%
X80062500Y-16890000D03*
%TD*%
D17*
%TO.P,P0,1,Pin_1_1*%
%TO.N,GNDREF*%
X15896691Y-40097500D03*
D18*
%TO.P,P0,2,Pin_2_2*%
%TO.N,+3.3V*%
X17146691Y-40097500D03*
%TO.P,P0,3,Pin_3_3*%
%TO.N,/SD0_P*%
X18396691Y-40097500D03*
%TO.P,P0,4,Pin_4_4*%
%TO.N,/SC0_P*%
X19646691Y-40097500D03*
%TD*%
D22*
%TO.P,R2,1*%
%TO.N,/SDA*%
X61803750Y-38201250D03*
%TO.P,R2,2*%
%TO.N,+3.3V*%
X63453750Y-38201250D03*
%TD*%
D19*
%TO.P,Q6,1,Pin_1_1*%
%TO.N,GNDREF*%
X77943750Y-49356250D03*
D18*
%TO.P,Q6,2,Pin_2_2*%
%TO.N,/SD6_Q*%
X76693750Y-49356250D03*
%TO.P,Q6,3,Pin_3_3*%
%TO.N,+3.3V*%
X75443750Y-49356250D03*
%TO.P,Q6,4,Pin_4_4*%
%TO.N,GNDREF*%
X74193750Y-49356250D03*
%TO.P,Q6,5,Pin_5_5*%
%TO.N,/SC6_Q*%
X72943750Y-49356250D03*
%TO.P,Q6,6,Pin_6_6*%
%TO.N,GNDREF*%
X71693750Y-49356250D03*
%TD*%
D15*
%TO.P,R40,1*%
%TO.N,/SC7_P*%
X36393750Y-39862500D03*
%TO.P,R40,2*%
%TO.N,+3.3V*%
X36393750Y-38212500D03*
%TD*%
D44*
%TO.N,GNDREF*%
X32450000Y-48300000D03*
D45*
%TO.N,+3.3V*%
X66106250Y-45811250D03*
X17146875Y-58700000D03*
X63446875Y-37017500D03*
X74818750Y-45361250D03*
D44*
X78587500Y-14300000D03*
D45*
X39046875Y-45497500D03*
X30993750Y-45650000D03*
X51568750Y-44061250D03*
X62396875Y-42711250D03*
X51568750Y-58661250D03*
X51568750Y-65961250D03*
X30096875Y-42500000D03*
X74768750Y-38061250D03*
X39046875Y-52780000D03*
D44*
X80062500Y-14300000D03*
D45*
X25043750Y-41367500D03*
D44*
X76312500Y-20000000D03*
D45*
X39046875Y-38217500D03*
X17146875Y-44100000D03*
D46*
X66150000Y-21900000D03*
D45*
X39046875Y-60080000D03*
X27346875Y-42500000D03*
X51568750Y-51411250D03*
D44*
X77325000Y-15600000D03*
D45*
X74818750Y-52711250D03*
X74818750Y-60011250D03*
D44*
X75812500Y-14362500D03*
D45*
X28396875Y-37067500D03*
D44*
X67618750Y-48511250D03*
D45*
X17146875Y-51400000D03*
X17146875Y-66000000D03*
D44*
X69812500Y-15800000D03*
D45*
X60096875Y-41567500D03*
X65146875Y-42711250D03*
D47*
%TO.N,GNDREF*%
X91400000Y-18400000D03*
D45*
X25293750Y-54700000D03*
D47*
X91400000Y-27100000D03*
D45*
X65146875Y-44261250D03*
D47*
X70350000Y-34400000D03*
X64250000Y-34400000D03*
D45*
X60318750Y-54911250D03*
D44*
X77325000Y-16400000D03*
D46*
X61500000Y-30550000D03*
D45*
X60295875Y-45811250D03*
X30096875Y-44075000D03*
X86900000Y-23850000D03*
D44*
X80062500Y-17900000D03*
D45*
X97552500Y-39650000D03*
X25276250Y-45650000D03*
X27346875Y-44075000D03*
D44*
X78525000Y-17900000D03*
D45*
X62396875Y-44261250D03*
X96376250Y-31650000D03*
X86900000Y-21760000D03*
D44*
X72850000Y-20025000D03*
X73725000Y-15600000D03*
%TO.N,/SCL*%
X70962500Y-14150000D03*
X65000000Y-36100000D03*
D45*
%TO.N,Net-(D4-K)*%
X81250000Y-20050000D03*
D44*
X91800000Y-36200000D03*
%TD*%
%TO.N,GNDREF*%
D48*
X32200000Y-48550000D02*
X30993750Y-48550000D01*
X32450000Y-48300000D02*
X32200000Y-48550000D01*
%TO.N,/SC7_P*%
X36206250Y-42237500D02*
X36543750Y-42237500D01*
X33793750Y-44650000D02*
X36206250Y-42237500D01*
X33793750Y-47956250D02*
X33793750Y-44650000D01*
X32550000Y-49200000D02*
X33793750Y-47956250D01*
X30993750Y-49200000D02*
X32550000Y-49200000D01*
%TO.N,Net-(D3-K)*%
D49*
X78100000Y-31700000D02*
X77800000Y-32000000D01*
%TO.N,Net-(Q9-Pad1)*%
D50*
X89400000Y-34700000D02*
X90750000Y-33350000D01*
%TO.N,Net-(D3-K)*%
D49*
X73400000Y-31350000D02*
X73400000Y-30250000D01*
%TO.N,Net-(D4-K)*%
D51*
X78450000Y-22800000D02*
X79650000Y-22800000D01*
%TO.N,Net-(Q8-Pad1)*%
D50*
X82600000Y-28300000D02*
X79075000Y-28300000D01*
X79075000Y-28300000D02*
X79050000Y-28325000D01*
%TO.N,Net-(D3-K)*%
D49*
X78100000Y-30835000D02*
X78100000Y-31700000D01*
%TO.N,Net-(Q8-Pad1)*%
D50*
X83000000Y-28700000D02*
X82600000Y-28300000D01*
%TO.N,Net-(D4-K)*%
D51*
X77187500Y-25700000D02*
X77187500Y-24062500D01*
%TO.N,Net-(D3-K)*%
D49*
X77800000Y-32000000D02*
X74050000Y-32000000D01*
%TO.N,Net-(Q9-Pad1)*%
D50*
X90750000Y-33350000D02*
X91892500Y-33350000D01*
%TO.N,Net-(D3-K)*%
D49*
X74050000Y-32000000D02*
X73400000Y-31350000D01*
%TO.N,Net-(D4-K)*%
D51*
X77187500Y-24062500D02*
X78450000Y-22800000D01*
%TO.N,Net-(Q9-Pad1)*%
D50*
X88000000Y-34700000D02*
X89400000Y-34700000D01*
%TO.N,Net-(D4-K)*%
X79650000Y-20350000D02*
X79650000Y-22800000D01*
X81250000Y-20050000D02*
X79950000Y-20050000D01*
X79950000Y-20050000D02*
X79650000Y-20350000D01*
%TO.N,Net-(D3-K)*%
D51*
X68700000Y-30250000D02*
X68450000Y-30500000D01*
D49*
X68450000Y-30500000D02*
X68450000Y-32850000D01*
D51*
X73400000Y-30250000D02*
X68700000Y-30250000D01*
%TO.N,+3.3V*%
D50*
X37893750Y-52775000D02*
X36393750Y-52775000D01*
X39046875Y-45497500D02*
X37898750Y-45497500D01*
X28393750Y-39775000D02*
X28418750Y-39800000D01*
X76665875Y-45361250D02*
X76668750Y-45358375D01*
D51*
X71350000Y-24200000D02*
X66150000Y-24200000D01*
D50*
X17146875Y-44100000D02*
X18290809Y-44100000D01*
X60096875Y-42658125D02*
X60068750Y-42686250D01*
D48*
X70912500Y-15800000D02*
X72412500Y-15800000D01*
D50*
X63446875Y-38194375D02*
X63453750Y-38201250D01*
X51568750Y-58661250D02*
X53393750Y-58661250D01*
X62396875Y-42711250D02*
X63568750Y-42711250D01*
X17146875Y-51400000D02*
X18290809Y-51400000D01*
X74818750Y-60011250D02*
X76615875Y-60011250D01*
X18290809Y-44100000D02*
X18315809Y-44125000D01*
X51568750Y-44061250D02*
X53393750Y-44061250D01*
X49743750Y-44061250D02*
X49718750Y-44036250D01*
X51568750Y-51411250D02*
X49793750Y-51411250D01*
D48*
X78587500Y-14300000D02*
X78587500Y-15300000D01*
D50*
X53396625Y-65961250D02*
X53443750Y-65914125D01*
D49*
X66150000Y-30500000D02*
X66150000Y-32850000D01*
D50*
X72921625Y-60011250D02*
X72868750Y-59958375D01*
X74768750Y-38061250D02*
X76665875Y-38061250D01*
X53393750Y-44061250D02*
X53418750Y-44036250D01*
X72971625Y-45361250D02*
X72968750Y-45358375D01*
X60096875Y-41567500D02*
X60096875Y-42658125D01*
X30993750Y-45650000D02*
X30993750Y-46600000D01*
X74818750Y-45361250D02*
X76665875Y-45361250D01*
X80247500Y-15325000D02*
X80262500Y-15340000D01*
X74768750Y-38061250D02*
X72965875Y-38061250D01*
X74818750Y-52711250D02*
X73021625Y-52711250D01*
D48*
X80062500Y-14300000D02*
X80062500Y-15340000D01*
D50*
X17146875Y-58700000D02*
X18290809Y-58700000D01*
X30096875Y-42500000D02*
X31218750Y-42500000D01*
X37893750Y-60075000D02*
X36393750Y-60075000D01*
X49743750Y-58661250D02*
X49718750Y-58636250D01*
X18315809Y-44125000D02*
X19815809Y-44125000D01*
X51568750Y-58661250D02*
X49743750Y-58661250D01*
X74818750Y-52711250D02*
X76615875Y-52711250D01*
X74818750Y-60011250D02*
X72921625Y-60011250D01*
X49793750Y-51411250D02*
X49718750Y-51336250D01*
D51*
X66150000Y-24200000D02*
X66150000Y-21900000D01*
D50*
X18315809Y-51425000D02*
X19793750Y-51425000D01*
X76615875Y-60011250D02*
X76668750Y-59958375D01*
D48*
X77325000Y-15600000D02*
X76325000Y-15600000D01*
D50*
X74818750Y-45361250D02*
X72971625Y-45361250D01*
X18290809Y-58700000D02*
X18315809Y-58725000D01*
X63568750Y-42711250D02*
X63581250Y-42723750D01*
X66106250Y-46742500D02*
X66068750Y-46742500D01*
X18315809Y-58725000D02*
X19815809Y-58725000D01*
X72965875Y-38061250D02*
X72918750Y-38108375D01*
X18290809Y-66000000D02*
X18315809Y-66025000D01*
X65146875Y-42711250D02*
X66318750Y-42711250D01*
X73021625Y-52711250D02*
X72968750Y-52658375D01*
X76665875Y-38061250D02*
X76668750Y-38058375D01*
D51*
X73400000Y-26250000D02*
X71350000Y-24200000D01*
D50*
X63453750Y-39951250D02*
X63503750Y-40001250D01*
X39046875Y-38217500D02*
X37898750Y-38217500D01*
X25043750Y-41367500D02*
X25043750Y-42475000D01*
X39046875Y-52780000D02*
X37898750Y-52780000D01*
D48*
X78587500Y-15300000D02*
X78562500Y-15325000D01*
D50*
X51568750Y-65961250D02*
X53396625Y-65961250D01*
D48*
X80262500Y-15340000D02*
X80402500Y-15200000D01*
D50*
X28468750Y-42500000D02*
X28493750Y-42525000D01*
X28396875Y-38246875D02*
X28393750Y-38250000D01*
D48*
X76312500Y-20000000D02*
X75337500Y-20000000D01*
X69812500Y-15800000D02*
X70912500Y-15800000D01*
D50*
X37898750Y-45497500D02*
X37893750Y-45492500D01*
X37893750Y-45492500D02*
X36393750Y-45492500D01*
X63446875Y-37017500D02*
X63446875Y-38194375D01*
X66106250Y-45811250D02*
X66106250Y-46742500D01*
X37898750Y-38217500D02*
X37893750Y-38212500D01*
X28396875Y-37067500D02*
X28396875Y-38246875D01*
D48*
X67618750Y-48511250D02*
X67368750Y-48761250D01*
D50*
X37898750Y-60080000D02*
X37893750Y-60075000D01*
X28393750Y-38250000D02*
X28393750Y-39775000D01*
X37898750Y-52780000D02*
X37893750Y-52775000D01*
D51*
X66150000Y-24200000D02*
X66150000Y-30500000D01*
D50*
X31218750Y-42500000D02*
X31243750Y-42525000D01*
X63453750Y-38201250D02*
X63453750Y-39951250D01*
D48*
X67368750Y-48761250D02*
X66087500Y-48761250D01*
X66087500Y-48761250D02*
X66068750Y-48742500D01*
D50*
X17146875Y-66000000D02*
X18290809Y-66000000D01*
X51568750Y-44061250D02*
X49743750Y-44061250D01*
X53393750Y-58661250D02*
X53418750Y-58636250D01*
X37893750Y-38212500D02*
X36393750Y-38212500D01*
D48*
X75812500Y-14362500D02*
X75812500Y-15337500D01*
D50*
X39046875Y-60080000D02*
X37898750Y-60080000D01*
X18290809Y-51400000D02*
X18315809Y-51425000D01*
X53343750Y-51411250D02*
X53418750Y-51336250D01*
X27346875Y-42500000D02*
X28468750Y-42500000D01*
X49765875Y-65961250D02*
X49718750Y-65914125D01*
X66318750Y-42711250D02*
X66331250Y-42723750D01*
X51568750Y-51411250D02*
X53343750Y-51411250D01*
X76615875Y-52711250D02*
X76668750Y-52658375D01*
X18315809Y-66025000D02*
X19815809Y-66025000D01*
X51568750Y-65961250D02*
X49765875Y-65961250D01*
%TO.N,GNDREF*%
X66318750Y-44261250D02*
X66331250Y-44273750D01*
D48*
X73725000Y-15600000D02*
X74800000Y-15600000D01*
D49*
X93545000Y-20050000D02*
X93050000Y-20050000D01*
D48*
X78525000Y-17900000D02*
X78525000Y-16912500D01*
D49*
X93545000Y-25550000D02*
X92950000Y-25550000D01*
D50*
X86910000Y-21750000D02*
X86900000Y-21760000D01*
X96376250Y-30462500D02*
X96363750Y-30450000D01*
D48*
X97552500Y-39487500D02*
X97540000Y-39475000D01*
D49*
X70350000Y-32850000D02*
X70350000Y-34400000D01*
D50*
X60295875Y-46744625D02*
X60343750Y-46792500D01*
D48*
X97552500Y-39650000D02*
X97552500Y-39487500D01*
D50*
X30096875Y-44075000D02*
X31243750Y-44075000D01*
D49*
X92950000Y-25550000D02*
X91400000Y-27100000D01*
D50*
X25293750Y-54700000D02*
X25293750Y-53775000D01*
D51*
X61550000Y-30500000D02*
X61500000Y-30550000D01*
D48*
X63800000Y-30550000D02*
X63850000Y-30500000D01*
D50*
X78587500Y-16900000D02*
X78562500Y-16875000D01*
X60343750Y-46792500D02*
X60343750Y-47392500D01*
X60343750Y-54886250D02*
X60343750Y-53992500D01*
X25276250Y-45650000D02*
X25276250Y-46592500D01*
D49*
X64250000Y-32850000D02*
X64250000Y-34400000D01*
D50*
X60318750Y-54911250D02*
X60343750Y-54886250D01*
X97540000Y-39637500D02*
X97552500Y-39650000D01*
X25276250Y-46592500D02*
X25268750Y-46600000D01*
D48*
X78525000Y-16912500D02*
X78562500Y-16875000D01*
D50*
X60295875Y-45811250D02*
X60295875Y-46744625D01*
X97540000Y-38450000D02*
X97540000Y-39637500D01*
D48*
X72850000Y-20025000D02*
X73850000Y-20025000D01*
D49*
X93050000Y-20050000D02*
X91400000Y-18400000D01*
D50*
X25293750Y-53775000D02*
X25268750Y-53750000D01*
X80247500Y-16875000D02*
X80262500Y-16890000D01*
D48*
X76325000Y-16100000D02*
X76625000Y-16400000D01*
D50*
X88112500Y-23850000D02*
X86900000Y-23850000D01*
D51*
X63850000Y-30500000D02*
X61550000Y-30500000D01*
D50*
X25268750Y-46600000D02*
X25268750Y-47250000D01*
X88112500Y-21750000D02*
X86910000Y-21750000D01*
X63568750Y-44261250D02*
X63581250Y-44273750D01*
X65146875Y-44261250D02*
X66318750Y-44261250D01*
X96376250Y-31650000D02*
X96376250Y-30462500D01*
D48*
X80062500Y-17900000D02*
X80062500Y-16890000D01*
D50*
X27346875Y-44075000D02*
X28493750Y-44075000D01*
D48*
X76525000Y-16400000D02*
X76325000Y-16600000D01*
D50*
X62396875Y-44261250D02*
X63568750Y-44261250D01*
D48*
X77325000Y-16400000D02*
X76525000Y-16400000D01*
X76625000Y-16400000D02*
X77325000Y-16400000D01*
%TO.N,/SC2_Q*%
X60343750Y-51992500D02*
X55959004Y-51992500D01*
X53418750Y-54664125D02*
X53443750Y-54639125D01*
X55959004Y-51992500D02*
X53443750Y-54507754D01*
X53443750Y-54507754D02*
X53443750Y-54639125D01*
X53418750Y-56986250D02*
X53418750Y-54664125D01*
%TO.N,/SC5_P*%
X36543750Y-56392894D02*
X36543750Y-56800000D01*
X36393750Y-56650000D02*
X36543750Y-56800000D01*
X31950856Y-51800000D02*
X36543750Y-56392894D01*
X36393750Y-54425000D02*
X36393750Y-56650000D01*
X30993750Y-51800000D02*
X31950856Y-51800000D01*
%TO.N,Net-(Q9-Pad1)*%
D50*
X91942500Y-33300000D02*
X91892500Y-33350000D01*
X94877500Y-33300000D02*
X91942500Y-33300000D01*
%TO.N,+5V*%
D49*
X93545000Y-24320000D02*
X92380000Y-24320000D01*
X90900000Y-25800000D02*
X86650000Y-25800000D01*
X86650000Y-19800000D02*
X83650000Y-22800000D01*
X93545000Y-21280000D02*
X92380000Y-21280000D01*
X92380000Y-21280000D02*
X90900000Y-19800000D01*
D50*
X91651250Y-30450000D02*
X90000000Y-28798750D01*
X90000000Y-26700000D02*
X90900000Y-25800000D01*
D49*
X90900000Y-19800000D02*
X86650000Y-19800000D01*
X86650000Y-25800000D02*
X83650000Y-22800000D01*
X92380000Y-24320000D02*
X90900000Y-25800000D01*
D50*
X90000000Y-28798750D02*
X90000000Y-26700000D01*
%TO.N,Net-(Q9-Pad3)*%
D49*
X97700000Y-36850000D02*
X97700000Y-34445000D01*
X97700000Y-34445000D02*
X97505000Y-34250000D01*
%TO.N,/SD1_P*%
D48*
X19991250Y-46347500D02*
X19096691Y-46347500D01*
X18315809Y-47478382D02*
X18396691Y-47397500D01*
X18396691Y-47047500D02*
X18396691Y-47397500D01*
X19096691Y-46347500D02*
X18396691Y-47047500D01*
X18315809Y-49775000D02*
X18315809Y-47478382D01*
X23493750Y-49850000D02*
X19991250Y-46347500D01*
X25268750Y-49850000D02*
X23493750Y-49850000D01*
%TO.N,/SC1_P*%
X19793750Y-47544559D02*
X19646691Y-47397500D01*
X22749191Y-50500000D02*
X19646691Y-47397500D01*
X19793750Y-49775000D02*
X19793750Y-47544559D01*
X25268750Y-50500000D02*
X22749191Y-50500000D01*
%TO.N,/SD7_Q*%
X66068750Y-50042500D02*
X68587500Y-50042500D01*
X68587500Y-50042500D02*
X71568750Y-47061250D01*
X76668750Y-39708375D02*
X76668750Y-42031250D01*
X71568750Y-47061250D02*
X71568750Y-45261250D01*
X73618750Y-43211250D02*
X75888750Y-43211250D01*
X76668750Y-42031250D02*
X76693750Y-42056250D01*
X71568750Y-45261250D02*
X73618750Y-43211250D01*
X76693750Y-42406250D02*
X76693750Y-42056250D01*
X75888750Y-43211250D02*
X76693750Y-42406250D01*
%TO.N,/SC7_Q*%
X72918750Y-42031250D02*
X72943750Y-42056250D01*
X72943750Y-42236250D02*
X72943750Y-42056250D01*
X67787500Y-49392500D02*
X70718750Y-46461250D01*
X66068750Y-49392500D02*
X67787500Y-49392500D01*
X70718750Y-44461250D02*
X72943750Y-42236250D01*
X72918750Y-39758375D02*
X72918750Y-42031250D01*
X70718750Y-46461250D02*
X70718750Y-44461250D01*
%TO.N,/SD6_P*%
X37793750Y-49767500D02*
X37793750Y-49517500D01*
X30993750Y-51150000D02*
X36411250Y-51150000D01*
X36411250Y-51150000D02*
X37793750Y-49767500D01*
X37893750Y-47142500D02*
X37893750Y-49417500D01*
X37893750Y-49417500D02*
X37793750Y-49517500D01*
%TO.N,Net-(BMP580-CSB)*%
X75312500Y-16862500D02*
X75312500Y-18375000D01*
%TO.N,Net-(MUX1-~{RESET})*%
X59450000Y-48092500D02*
X60343750Y-48092500D01*
X59206250Y-47848750D02*
X59450000Y-48092500D01*
X60068750Y-44336250D02*
X59206250Y-45198750D01*
X59206250Y-45198750D02*
X59206250Y-47848750D01*
%TO.N,/SD0_Q*%
X49693750Y-39686250D02*
X49693750Y-40039125D01*
X58800000Y-48742500D02*
X58068750Y-48011250D01*
X50518750Y-38861250D02*
X49693750Y-39686250D01*
X58068750Y-48011250D02*
X58068750Y-41811250D01*
X49718750Y-42386250D02*
X49718750Y-40064125D01*
X58068750Y-41811250D02*
X55118750Y-38861250D01*
X60343750Y-48742500D02*
X58800000Y-48742500D01*
X49718750Y-40064125D02*
X49693750Y-40039125D01*
X55118750Y-38861250D02*
X50518750Y-38861250D01*
%TO.N,/SC0_Q*%
X57800000Y-49392500D02*
X60343750Y-49392500D01*
X53443750Y-40289125D02*
X57018750Y-43864125D01*
X53443750Y-40039125D02*
X53443750Y-40289125D01*
X57018750Y-43864125D02*
X57018750Y-48611250D01*
X53418750Y-42386250D02*
X53418750Y-40064125D01*
X57018750Y-48611250D02*
X57800000Y-49392500D01*
X53418750Y-40064125D02*
X53443750Y-40039125D01*
%TO.N,/SD1_Q*%
X55068750Y-46211250D02*
X56018750Y-47161250D01*
X49693750Y-47339125D02*
X49693750Y-47036250D01*
X49693750Y-47036250D02*
X50518750Y-46211250D01*
X56850000Y-50042500D02*
X60343750Y-50042500D01*
X56018750Y-49211250D02*
X56850000Y-50042500D01*
X56018750Y-47161250D02*
X56018750Y-49211250D01*
X49718750Y-47364125D02*
X49693750Y-47339125D01*
X50518750Y-46211250D02*
X55068750Y-46211250D01*
X49718750Y-49686250D02*
X49718750Y-47364125D01*
%TO.N,/SC1_Q*%
X53418750Y-49686250D02*
X53418750Y-47364125D01*
X56100000Y-50692500D02*
X53443750Y-48036250D01*
X60343750Y-50692500D02*
X56100000Y-50692500D01*
X53418750Y-47364125D02*
X53443750Y-47339125D01*
X53443750Y-48036250D02*
X53443750Y-47339125D01*
%TO.N,/SD2_Q*%
X50568750Y-53461250D02*
X49693750Y-54336250D01*
X49693750Y-54336250D02*
X49693750Y-54639125D01*
X53168750Y-53461250D02*
X50568750Y-53461250D01*
X49718750Y-56986250D02*
X49718750Y-54664125D01*
X49718750Y-54664125D02*
X49693750Y-54639125D01*
X60343750Y-51342500D02*
X55287500Y-51342500D01*
X55287500Y-51342500D02*
X53168750Y-53461250D01*
%TO.N,/SD3_Q*%
X49693750Y-61586250D02*
X49693750Y-61939125D01*
X49718750Y-64264125D02*
X49718750Y-61964125D01*
X58118750Y-55611250D02*
X52968750Y-60761250D01*
X52968750Y-60761250D02*
X50518750Y-60761250D01*
X59087500Y-52642500D02*
X58118750Y-53611250D01*
X60343750Y-52642500D02*
X59087500Y-52642500D01*
X58118750Y-53611250D02*
X58118750Y-55611250D01*
X50518750Y-60761250D02*
X49693750Y-61586250D01*
X49718750Y-61964125D02*
X49693750Y-61939125D01*
%TO.N,/SC3_Q*%
X53443750Y-61686250D02*
X53443750Y-61939125D01*
X53443750Y-64264125D02*
X53443750Y-61939125D01*
X59546372Y-53292500D02*
X58968750Y-53870122D01*
X60343750Y-53292500D02*
X59546372Y-53292500D01*
X58968750Y-53870122D02*
X58968750Y-56161250D01*
X58968750Y-56161250D02*
X53443750Y-61686250D01*
%TO.N,/SD4_Q*%
X66068750Y-61361250D02*
X70468750Y-65761250D01*
X66068750Y-53942500D02*
X66068750Y-61361250D01*
X75018750Y-65761250D02*
X76668750Y-64111250D01*
X70468750Y-65761250D02*
X75018750Y-65761250D01*
X76668750Y-61608375D02*
X76668750Y-63933375D01*
X76668750Y-64111250D02*
X76668750Y-63933375D01*
%TO.N,/SC4_Q*%
X72868750Y-61608375D02*
X72868750Y-63883375D01*
X67318750Y-57983375D02*
X72918750Y-63583375D01*
X72868750Y-63883375D02*
X72918750Y-63933375D01*
X72918750Y-63583375D02*
X72918750Y-63933375D01*
X66866128Y-53292500D02*
X67318750Y-53745122D01*
X67318750Y-53745122D02*
X67318750Y-57983375D01*
X66068750Y-53292500D02*
X66866128Y-53292500D01*
%TO.N,/SD5_Q*%
X67200000Y-52642500D02*
X68068750Y-53511250D01*
X76693750Y-56936250D02*
X76693750Y-56656250D01*
X68068750Y-53511250D02*
X68068750Y-54561250D01*
X66068750Y-52642500D02*
X67200000Y-52642500D01*
X75818750Y-57811250D02*
X76693750Y-56936250D01*
X76668750Y-56631250D02*
X76693750Y-56656250D01*
X68068750Y-54561250D02*
X71318750Y-57811250D01*
X76668750Y-54308375D02*
X76668750Y-56631250D01*
X71318750Y-57811250D02*
X75818750Y-57811250D01*
%TO.N,/SC5_Q*%
X72968750Y-54308375D02*
X72968750Y-56631250D01*
X72968750Y-56631250D02*
X72943750Y-56656250D01*
X68630000Y-51992500D02*
X72943750Y-56306250D01*
X72943750Y-56306250D02*
X72943750Y-56656250D01*
X66068750Y-51992500D02*
X68630000Y-51992500D01*
%TO.N,/SD6_Q*%
X75057500Y-51342500D02*
X76693750Y-49706250D01*
X66068750Y-51342500D02*
X75057500Y-51342500D01*
X76693750Y-49706250D02*
X76693750Y-49356250D01*
X76668750Y-47008375D02*
X76668750Y-49331250D01*
X76668750Y-49331250D02*
X76693750Y-49356250D01*
%TO.N,/SC6_Q*%
X72968750Y-49331250D02*
X72943750Y-49356250D01*
X72968750Y-47008375D02*
X72968750Y-49331250D01*
X66068750Y-50692500D02*
X71957500Y-50692500D01*
X71957500Y-50692500D02*
X72943750Y-49706250D01*
X72943750Y-49706250D02*
X72943750Y-49356250D01*
%TO.N,/SCL*%
X32243750Y-47450000D02*
X32243750Y-41750000D01*
X30993750Y-47900000D02*
X31791128Y-47900000D01*
X67296875Y-41967500D02*
X65330625Y-40001250D01*
X75312500Y-15337500D02*
X74125000Y-14150000D01*
X65153750Y-40001250D02*
X65153750Y-36253750D01*
X31791128Y-47900000D02*
X32131250Y-47559878D01*
X65153750Y-36253750D02*
X65000000Y-36100000D01*
X33068750Y-36800000D02*
X50380000Y-36800000D01*
X74125000Y-14150000D02*
X72412500Y-14150000D01*
X65330625Y-40001250D02*
X65153750Y-40001250D01*
X72412500Y-14150000D02*
X70962500Y-14150000D01*
X32243750Y-41750000D02*
X30293750Y-39800000D01*
X30068750Y-39800000D02*
X33068750Y-36800000D01*
X32131250Y-47559878D02*
X32133872Y-47559878D01*
X66866128Y-48092500D02*
X67296875Y-47661753D01*
X66068750Y-48092500D02*
X66866128Y-48092500D01*
X67296875Y-47661753D02*
X67296875Y-41967500D01*
X30293750Y-39800000D02*
X30068750Y-39800000D01*
X50380000Y-36800000D02*
X53450000Y-33730000D01*
X32133872Y-47559878D02*
X32243750Y-47450000D01*
%TO.N,/SDA*%
X28903714Y-35500000D02*
X49140000Y-35500000D01*
X26743750Y-37659964D02*
X28903714Y-35500000D01*
X26743750Y-38250000D02*
X26743750Y-37659964D01*
X72723529Y-17450000D02*
X70912500Y-17450000D01*
X61803750Y-37003750D02*
X55990000Y-31190000D01*
X61000000Y-26180000D02*
X55990000Y-31190000D01*
X74800000Y-16100000D02*
X74073529Y-16100000D01*
X61000000Y-22867767D02*
X61000000Y-26180000D01*
X66068750Y-47442500D02*
X64250000Y-47442500D01*
X29093750Y-47250000D02*
X26393750Y-44550000D01*
X61418750Y-44611250D02*
X61418750Y-38586250D01*
X61418750Y-38586250D02*
X61803750Y-38201250D01*
X26393750Y-44550000D02*
X26393750Y-38600000D01*
X74073529Y-16100000D02*
X72723529Y-17450000D01*
X66417767Y-17450000D02*
X61000000Y-22867767D01*
X26393750Y-38600000D02*
X26743750Y-38250000D01*
X30993750Y-47250000D02*
X29093750Y-47250000D01*
X70912500Y-17450000D02*
X66417767Y-17450000D01*
X49140000Y-35500000D02*
X53450000Y-31190000D01*
X64250000Y-47442500D02*
X61418750Y-44611250D01*
X61803750Y-38201250D02*
X61803750Y-37003750D01*
%TO.N,Net-(J1-CC2)*%
D50*
X90487500Y-22300000D02*
X89937500Y-21750000D01*
X93545000Y-22300000D02*
X90487500Y-22300000D01*
%TO.N,Net-(D2-A)*%
X95952500Y-36850000D02*
X95952500Y-38437500D01*
X95952500Y-38437500D02*
X95965000Y-38450000D01*
%TO.N,/SC6_P*%
D48*
X36393750Y-47142500D02*
X36393750Y-49367500D01*
X35561250Y-50500000D02*
X36543750Y-49517500D01*
X30993750Y-50500000D02*
X35561250Y-50500000D01*
X36393750Y-49367500D02*
X36543750Y-49517500D01*
%TO.N,/CS*%
X31360000Y-17740000D02*
X33150000Y-15950000D01*
X33150000Y-15950000D02*
X35610000Y-15950000D01*
X28850000Y-17740000D02*
X31360000Y-17740000D01*
%TO.N,/MOSI*%
X33010000Y-18490000D02*
X35610000Y-18490000D01*
X28850000Y-20280000D02*
X31220000Y-20280000D01*
X31220000Y-20280000D02*
X33010000Y-18490000D01*
%TO.N,/MISO*%
X33180000Y-21030000D02*
X35610000Y-21030000D01*
X28850000Y-25360000D02*
X33180000Y-21030000D01*
%TO.N,Net-(MUX2-~{RESET})*%
X24043750Y-47630956D02*
X24312794Y-47900000D01*
X24312794Y-47900000D02*
X25268750Y-47900000D01*
X24043750Y-45125000D02*
X24043750Y-47630956D01*
X25043750Y-44125000D02*
X24043750Y-45125000D01*
%TO.N,/SD0_P*%
X23993750Y-48550000D02*
X23293750Y-47850000D01*
X25268750Y-48550000D02*
X23993750Y-48550000D01*
X23293750Y-40750000D02*
X21591250Y-39047500D01*
X18315809Y-40178382D02*
X18396691Y-40097500D01*
X23293750Y-47850000D02*
X23293750Y-40750000D01*
X19096691Y-39047500D02*
X18396691Y-39747500D01*
X21591250Y-39047500D02*
X19096691Y-39047500D01*
X18315809Y-42475000D02*
X18315809Y-40178382D01*
X18396691Y-39747500D02*
X18396691Y-40097500D01*
%TO.N,Net-(D1-A)*%
D50*
X93301250Y-30450000D02*
X94788750Y-30450000D01*
%TO.N,/SD4_P*%
D48*
X37893750Y-64000000D02*
X37793750Y-64100000D01*
X36212379Y-65150000D02*
X36993750Y-65150000D01*
X37793750Y-64350000D02*
X37793750Y-64100000D01*
X30993750Y-59931371D02*
X36212379Y-65150000D01*
X36993750Y-65150000D02*
X37793750Y-64350000D01*
X37893750Y-61725000D02*
X37893750Y-64000000D01*
X30993750Y-53750000D02*
X30993750Y-59931371D01*
%TO.N,/SC4_P*%
X32193750Y-59750000D02*
X36543750Y-64100000D01*
X30993750Y-53100000D02*
X31791128Y-53100000D01*
X32193750Y-53502622D02*
X32193750Y-59750000D01*
X36393750Y-63950000D02*
X36543750Y-64100000D01*
X31791128Y-53100000D02*
X32193750Y-53502622D01*
X36393750Y-61725000D02*
X36393750Y-63950000D01*
%TO.N,Net-(Q8-Pad1)*%
D49*
X79050000Y-25737500D02*
X79012500Y-25700000D01*
X79050000Y-28325000D02*
X79050000Y-25737500D01*
%TO.N,Net-(D4-K)*%
D50*
X91800000Y-36200000D02*
X91800000Y-35267500D01*
X94877500Y-35200000D02*
X91917500Y-35200000D01*
D49*
X77150000Y-25737500D02*
X77187500Y-25700000D01*
X77150000Y-28325000D02*
X77150000Y-25737500D01*
D50*
X91800000Y-35267500D02*
X91892500Y-35175000D01*
%TO.N,/SD2_P*%
D48*
X18418750Y-54347500D02*
X18418750Y-54697500D01*
X18315809Y-57075000D02*
X18315809Y-54800441D01*
X22055759Y-51150000D02*
X19655759Y-53550000D01*
X19655759Y-53550000D02*
X19216250Y-53550000D01*
X18315809Y-54800441D02*
X18418750Y-54697500D01*
X25268750Y-51150000D02*
X22055759Y-51150000D01*
X19216250Y-53550000D02*
X18418750Y-54347500D01*
%TO.N,/SC3_P*%
X22793750Y-53550000D02*
X22793750Y-59750000D01*
X19815809Y-64375000D02*
X19815809Y-62152059D01*
X22793750Y-59750000D02*
X20538750Y-62005000D01*
X19815809Y-62152059D02*
X19668750Y-62005000D01*
X23243750Y-53100000D02*
X22793750Y-53550000D01*
X25268750Y-53100000D02*
X23243750Y-53100000D01*
X20538750Y-62005000D02*
X19668750Y-62005000D01*
%TO.N,Net-(J1-CC1)*%
D50*
X93545000Y-23300000D02*
X90487500Y-23300000D01*
X90487500Y-23300000D02*
X89937500Y-23850000D01*
%TO.N,/SC2_P*%
D48*
X19815809Y-57075000D02*
X19815809Y-54844559D01*
X25268750Y-51800000D02*
X22343750Y-51800000D01*
X19815809Y-54844559D02*
X19668750Y-54697500D01*
X22343750Y-51800000D02*
X19668750Y-54475000D01*
X19668750Y-54475000D02*
X19668750Y-54697500D01*
%TO.N,/SD3_P*%
X18315809Y-64375000D02*
X18315809Y-62107941D01*
X25268750Y-52450000D02*
X22693750Y-52450000D01*
X18315809Y-62107941D02*
X18418750Y-62005000D01*
X19163064Y-60955000D02*
X18418750Y-61699314D01*
X22693750Y-52450000D02*
X21993750Y-53150000D01*
X21993750Y-53150000D02*
X21993750Y-59550000D01*
X18418750Y-61699314D02*
X18418750Y-62005000D01*
X21993750Y-59550000D02*
X20588750Y-60955000D01*
X20588750Y-60955000D02*
X19163064Y-60955000D01*
%TO.N,/SD5_P*%
X37893750Y-54425000D02*
X37893750Y-56700000D01*
X32893750Y-54650000D02*
X36093750Y-57850000D01*
X37293750Y-57850000D02*
X37793750Y-57350000D01*
X37793750Y-57350000D02*
X37793750Y-56800000D01*
X32893750Y-53450000D02*
X32893750Y-54650000D01*
X37893750Y-56700000D02*
X37793750Y-56800000D01*
X31893750Y-52450000D02*
X32893750Y-53450000D01*
X36093750Y-57850000D02*
X37293750Y-57850000D01*
X30993750Y-52450000D02*
X31893750Y-52450000D01*
%TO.N,/SC0_P*%
X25268750Y-49200000D02*
X23743750Y-49200000D01*
X21541250Y-40097500D02*
X19646691Y-40097500D01*
X19815809Y-42475000D02*
X19815809Y-40266618D01*
X22593750Y-41150000D02*
X21541250Y-40097500D01*
X22593750Y-48050000D02*
X22593750Y-41150000D01*
X19815809Y-40266618D02*
X19646691Y-40097500D01*
X23743750Y-49200000D02*
X22593750Y-48050000D01*
%TO.N,/SD7_P*%
X36812621Y-43350000D02*
X37793750Y-42368871D01*
X34493750Y-45050000D02*
X36193750Y-43350000D01*
X36193750Y-43350000D02*
X36812621Y-43350000D01*
X37793750Y-42368871D02*
X37793750Y-42237500D01*
X30993750Y-49850000D02*
X32893750Y-49850000D01*
X37893750Y-42137500D02*
X37793750Y-42237500D01*
X37893750Y-39862500D02*
X37893750Y-42137500D01*
X34493750Y-48250000D02*
X34493750Y-45050000D01*
X32893750Y-49850000D02*
X34493750Y-48250000D01*
%TO.N,/SC7_P*%
X36393750Y-42087500D02*
X36543750Y-42237500D01*
X36393750Y-39862500D02*
X36393750Y-42087500D01*
%TO.N,Net-(BMP580-SDO)*%
X73850000Y-17550000D02*
X74800000Y-16600000D01*
X73850000Y-18375000D02*
X73850000Y-17550000D01*
%TD*%
M02*
