%TF.GenerationSoftware,KiCad,Pcbnew,10.0.5*%
%TF.CreationDate,2026-08-05T13:38:04+02:00*%
%TF.ProjectId,Simplyfied_Global_Resist_Electronics,53696d70-6c79-4666-9965-645f476c6f62,rev?*%
%TF.SameCoordinates,Original*%
%TF.FileFunction,Copper,L1,Top*%
%TF.FilePolarity,Positive*%
%FSLAX46Y46*%
G04 Gerber Fmt 4.6, Leading zero omitted, Abs format (unit mm)*
G04 Created by KiCad (PCBNEW 10.0.5) date 2026-08-05 13:38:04*
%MOMM*%
%LPD*%
G01*
G04 APERTURE LIST*
G04 Aperture macros list*
%AMRoundRect*
0 Rectangle with rounded corners*
0 $1 Rounding radius*
0 $2 $3 $4 $5 $6 $7 $8 $9 X,Y pos of 4 corners*
0 Add a 4 corners polygon primitive as box body*
4,1,4,$2,$3,$4,$5,$6,$7,$8,$9,$2,$3,0*
0 Add four circle primitives for the rounded corners*
1,1,$1+$1,$2,$3*
1,1,$1+$1,$4,$5*
1,1,$1+$1,$6,$7*
1,1,$1+$1,$8,$9*
0 Add four rect primitives between the rounded corners*
20,1,$1+$1,$2,$3,$4,$5,0*
20,1,$1+$1,$4,$5,$6,$7,0*
20,1,$1+$1,$6,$7,$8,$9,0*
20,1,$1+$1,$8,$9,$2,$3,0*%
G04 Aperture macros list end*
%TA.AperFunction,ComponentPad*%
%ADD10RoundRect,0.250000X-0.845000X0.620000X-0.845000X-0.620000X0.845000X-0.620000X0.845000X0.620000X0*%
%TD*%
%TA.AperFunction,ComponentPad*%
%ADD11O,2.190000X1.740000*%
%TD*%
%TA.AperFunction,ComponentPad*%
%ADD12RoundRect,0.250000X0.845000X-0.620000X0.845000X0.620000X-0.845000X0.620000X-0.845000X-0.620000X0*%
%TD*%
%TA.AperFunction,SMDPad,CuDef*%
%ADD13RoundRect,0.200000X0.275000X-0.200000X0.275000X0.200000X-0.275000X0.200000X-0.275000X-0.200000X0*%
%TD*%
%TA.AperFunction,ComponentPad*%
%ADD14RoundRect,0.200000X-0.200000X-0.450000X0.200000X-0.450000X0.200000X0.450000X-0.200000X0.450000X0*%
%TD*%
%TA.AperFunction,ComponentPad*%
%ADD15O,0.800000X1.300000*%
%TD*%
%TA.AperFunction,SMDPad,CuDef*%
%ADD16RoundRect,0.200000X-0.275000X0.200000X-0.275000X-0.200000X0.275000X-0.200000X0.275000X0.200000X0*%
%TD*%
%TA.AperFunction,ComponentPad*%
%ADD17RoundRect,0.200000X0.200000X0.450000X-0.200000X0.450000X-0.200000X-0.450000X0.200000X-0.450000X0*%
%TD*%
%TA.AperFunction,SMDPad,CuDef*%
%ADD18RoundRect,0.225000X-0.250000X0.225000X-0.250000X-0.225000X0.250000X-0.225000X0.250000X0.225000X0*%
%TD*%
%TA.AperFunction,ComponentPad*%
%ADD19R,1.700000X1.700000*%
%TD*%
%TA.AperFunction,ComponentPad*%
%ADD20C,1.700000*%
%TD*%
%TA.AperFunction,SMDPad,CuDef*%
%ADD21RoundRect,0.225000X0.225000X0.250000X-0.225000X0.250000X-0.225000X-0.250000X0.225000X-0.250000X0*%
%TD*%
%TA.AperFunction,ComponentPad*%
%ADD22R,1.408000X1.408000*%
%TD*%
%TA.AperFunction,ComponentPad*%
%ADD23C,1.408000*%
%TD*%
%TA.AperFunction,SMDPad,CuDef*%
%ADD24RoundRect,0.225000X-0.225000X-0.250000X0.225000X-0.250000X0.225000X0.250000X-0.225000X0.250000X0*%
%TD*%
%TA.AperFunction,SMDPad,CuDef*%
%ADD25RoundRect,0.073750X0.531250X0.221250X-0.531250X0.221250X-0.531250X-0.221250X0.531250X-0.221250X0*%
%TD*%
%TA.AperFunction,SMDPad,CuDef*%
%ADD26RoundRect,0.100000X-0.637500X-0.100000X0.637500X-0.100000X0.637500X0.100000X-0.637500X0.100000X0*%
%TD*%
%TA.AperFunction,ComponentPad*%
%ADD27R,3.500000X3.500000*%
%TD*%
%TA.AperFunction,ComponentPad*%
%ADD28RoundRect,0.750000X0.750000X1.000000X-0.750000X1.000000X-0.750000X-1.000000X0.750000X-1.000000X0*%
%TD*%
%TA.AperFunction,ComponentPad*%
%ADD29RoundRect,0.875000X0.875000X0.875000X-0.875000X0.875000X-0.875000X-0.875000X0.875000X-0.875000X0*%
%TD*%
%TA.AperFunction,SMDPad,CuDef*%
%ADD30RoundRect,0.250000X0.250000X0.475000X-0.250000X0.475000X-0.250000X-0.475000X0.250000X-0.475000X0*%
%TD*%
%TA.AperFunction,SMDPad,CuDef*%
%ADD31RoundRect,0.250000X0.850000X0.350000X-0.850000X0.350000X-0.850000X-0.350000X0.850000X-0.350000X0*%
%TD*%
%TA.AperFunction,SMDPad,CuDef*%
%ADD32RoundRect,0.249997X2.950003X2.650003X-2.950003X2.650003X-2.950003X-2.650003X2.950003X-2.650003X0*%
%TD*%
%TA.AperFunction,SMDPad,CuDef*%
%ADD33RoundRect,0.250000X0.450000X-0.262500X0.450000X0.262500X-0.450000X0.262500X-0.450000X-0.262500X0*%
%TD*%
%TA.AperFunction,SMDPad,CuDef*%
%ADD34RoundRect,0.375000X0.375000X-0.625000X0.375000X0.625000X-0.375000X0.625000X-0.375000X-0.625000X0*%
%TD*%
%TA.AperFunction,SMDPad,CuDef*%
%ADD35RoundRect,0.500000X1.400000X-0.500000X1.400000X0.500000X-1.400000X0.500000X-1.400000X-0.500000X0*%
%TD*%
%TA.AperFunction,SMDPad,CuDef*%
%ADD36RoundRect,0.250000X0.650000X-1.000000X0.650000X1.000000X-0.650000X1.000000X-0.650000X-1.000000X0*%
%TD*%
%TA.AperFunction,SMDPad,CuDef*%
%ADD37RoundRect,0.250000X-0.250000X-0.475000X0.250000X-0.475000X0.250000X0.475000X-0.250000X0.475000X0*%
%TD*%
%TA.AperFunction,SMDPad,CuDef*%
%ADD38RoundRect,0.250000X-0.650000X1.000000X-0.650000X-1.000000X0.650000X-1.000000X0.650000X1.000000X0*%
%TD*%
%TA.AperFunction,SMDPad,CuDef*%
%ADD39RoundRect,0.250000X1.000000X0.650000X-1.000000X0.650000X-1.000000X-0.650000X1.000000X-0.650000X0*%
%TD*%
%TA.AperFunction,SMDPad,CuDef*%
%ADD40RoundRect,0.250000X-0.475000X0.250000X-0.475000X-0.250000X0.475000X-0.250000X0.475000X0.250000X0*%
%TD*%
%TA.AperFunction,SMDPad,CuDef*%
%ADD41RoundRect,0.033750X-0.101250X0.526250X-0.101250X-0.526250X0.101250X-0.526250X0.101250X0.526250X0*%
%TD*%
%TA.AperFunction,ViaPad*%
%ADD42C,0.900000*%
%TD*%
%TA.AperFunction,ViaPad*%
%ADD43C,0.600000*%
%TD*%
%TA.AperFunction,Conductor*%
%ADD44C,0.200000*%
%TD*%
%TA.AperFunction,Conductor*%
%ADD45C,0.400000*%
%TD*%
%TA.AperFunction,Conductor*%
%ADD46C,1.000000*%
%TD*%
%TA.AperFunction,Conductor*%
%ADD47C,0.600000*%
%TD*%
%TA.AperFunction,Conductor*%
%ADD48C,0.500000*%
%TD*%
%TA.AperFunction,Conductor*%
%ADD49C,1.500000*%
%TD*%
G04 APERTURE END LIST*
D10*
%TO.P,J5,1,Pin_1_1*%
%TO.N,/PIEZO42-_2*%
X94000000Y-16000000D03*
D11*
%TO.P,J5,2,Pin_2_2*%
%TO.N,/PIEZO42+_2*%
X94000000Y-18540000D03*
%TO.P,J5,3,Pin_3_3*%
%TO.N,/PIEZO41+_2*%
X94000000Y-21080000D03*
%TO.P,J5,4,Pin_4_4*%
%TO.N,/PIEZO41-_2*%
X94000000Y-23620000D03*
%TO.P,J5,5,Pin_5_5*%
%TO.N,/PIEZO32-_2*%
X94000000Y-26160000D03*
%TO.P,J5,6,Pin_6_6*%
%TO.N,/PIEZO32+_2*%
X94000000Y-28700000D03*
%TO.P,J5,7,Pin_7_7*%
%TO.N,/PIEZO31+_2*%
X94000000Y-31240000D03*
%TO.P,J5,8,Pin_8_8*%
%TO.N,/PIEZO31-_2*%
X94000000Y-33780000D03*
%TD*%
D12*
%TO.P,J4,1,Pin_1_1*%
%TO.N,/PIEZO22-_2*%
X65000000Y-33780000D03*
D11*
%TO.P,J4,2,Pin_2_2*%
%TO.N,/PIEZO22+_2*%
X65000000Y-31240000D03*
%TO.P,J4,3,Pin_3_3*%
%TO.N,/PIEZO21+_2*%
X65000000Y-28700000D03*
%TO.P,J4,4,Pin_4_4*%
%TO.N,/PIEZO21-_2*%
X65000000Y-26160000D03*
%TO.P,J4,5,Pin_5_5*%
%TO.N,/PIEZO12-_2*%
X65000000Y-23620000D03*
%TO.P,J4,6,Pin_6_6*%
%TO.N,/PIEZO12+_2*%
X65000000Y-21080000D03*
%TO.P,J4,7,Pin_7_7*%
%TO.N,/PIEZO11+_2*%
X65000000Y-18540000D03*
%TO.P,J4,8,Pin_8_8*%
%TO.N,/PIEZO11-_2*%
X65000000Y-16000000D03*
%TD*%
D12*
%TO.P,J3,1,Pin_1_1*%
%TO.N,/PIEZO42-_1*%
X65000000Y-94025000D03*
D11*
%TO.P,J3,2,Pin_2_2*%
%TO.N,/PIEZO42+_1*%
X65000000Y-91485000D03*
%TO.P,J3,3,Pin_3_3*%
%TO.N,/PIEZO41+_1*%
X65000000Y-88945000D03*
%TO.P,J3,4,Pin_4_4*%
%TO.N,/PIEZO41-_1*%
X65000000Y-86405000D03*
%TO.P,J3,5,Pin_5_5*%
%TO.N,/PIEZO32-_1*%
X65000000Y-83865000D03*
%TO.P,J3,6,Pin_6_6*%
%TO.N,/PIEZO32+_1*%
X65000000Y-81325000D03*
%TO.P,J3,7,Pin_7_7*%
%TO.N,/PIEZO31+_1*%
X65000000Y-78785000D03*
%TO.P,J3,8,Pin_8_8*%
%TO.N,/PIEZO31-_1*%
X65000000Y-76245000D03*
%TD*%
D10*
%TO.P,J2,1,Pin_1_1*%
%TO.N,/PIEZO22-_1*%
X94000000Y-76245000D03*
D11*
%TO.P,J2,2,Pin_2_2*%
%TO.N,/PIEZO22+_1*%
X94000000Y-78785000D03*
%TO.P,J2,3,Pin_3_3*%
%TO.N,/PIEZO21+_1*%
X94000000Y-81325000D03*
%TO.P,J2,4,Pin_4_4*%
%TO.N,/PIEZO21-_1*%
X94000000Y-83865000D03*
%TO.P,J2,5,Pin_5_5*%
%TO.N,/PIEZO12-_1*%
X94000000Y-86405000D03*
%TO.P,J2,6,Pin_6_6*%
%TO.N,/PIEZO12+_1*%
X94000000Y-88945000D03*
%TO.P,J2,7,Pin_7_7*%
%TO.N,/PIEZO11+_1*%
X94000000Y-91485000D03*
%TO.P,J2,8,Pin_8_8*%
%TO.N,/PIEZO11-_1*%
X94000000Y-94025000D03*
%TD*%
D13*
%TO.P,R23,1*%
%TO.N,/SD6_P*%
X37752500Y-45145000D03*
%TO.P,R23,2*%
%TO.N,+3.3V*%
X37752500Y-43495000D03*
%TD*%
%TO.P,R22,1*%
%TO.N,/SC6_P*%
X36252500Y-45145000D03*
%TO.P,R22,2*%
%TO.N,+3.3V*%
X36252500Y-43495000D03*
%TD*%
D14*
%TO.P,P3,1,Pin_1_1*%
%TO.N,GNDREF*%
X15777500Y-60007500D03*
D15*
%TO.P,P3,2,Pin_2_2*%
%TO.N,+3.3V*%
X17027500Y-60007500D03*
%TO.P,P3,3,Pin_3_3*%
%TO.N,/SD3_P*%
X18277500Y-60007500D03*
%TO.P,P3,4,Pin_4_4*%
%TO.N,/SC3_P*%
X19527500Y-60007500D03*
%TD*%
D16*
%TO.P,R30,1*%
%TO.N,/SD2_Q*%
X17113437Y-84227500D03*
%TO.P,R30,2*%
%TO.N,+3.3V*%
X17113437Y-85877500D03*
%TD*%
%TO.P,R13,1*%
%TO.N,/SD1_P*%
X18174559Y-47777500D03*
%TO.P,R13,2*%
%TO.N,+3.3V*%
X18174559Y-49427500D03*
%TD*%
D17*
%TO.P,Q7,1,Pin_1_1*%
%TO.N,GNDREF*%
X45338437Y-69297500D03*
D15*
%TO.P,Q7,2,Pin_2_2*%
%TO.N,/SD7_Q*%
X44088437Y-69297500D03*
%TO.P,Q7,3,Pin_3_3*%
%TO.N,+3.3V*%
X42838437Y-69297500D03*
%TO.P,Q7,4,Pin_4_4*%
%TO.N,GNDREF*%
X41588437Y-69297500D03*
%TO.P,Q7,5,Pin_5_5*%
%TO.N,/SC7_Q*%
X40338437Y-69297500D03*
%TO.P,Q7,6,Pin_6_6*%
%TO.N,GNDREF*%
X39088437Y-69297500D03*
%TD*%
D16*
%TO.P,R27,1*%
%TO.N,/SC0_Q*%
X20813437Y-69627500D03*
%TO.P,R27,2*%
%TO.N,+3.3V*%
X20813437Y-71277500D03*
%TD*%
D13*
%TO.P,R34,1*%
%TO.N,/SD4_Q*%
X44063437Y-88849625D03*
%TO.P,R34,2*%
%TO.N,+3.3V*%
X44063437Y-87199625D03*
%TD*%
D16*
%TO.P,R28,1*%
%TO.N,/SD1_Q*%
X17113437Y-76927500D03*
%TO.P,R28,2*%
%TO.N,+3.3V*%
X17113437Y-78577500D03*
%TD*%
D18*
%TO.P,C6,1*%
%TO.N,+3.3V*%
X30975937Y-69965000D03*
%TO.P,C6,2*%
%TO.N,GNDREF*%
X30975937Y-71515000D03*
%TD*%
D16*
%TO.P,R12,1*%
%TO.N,/SC1_P*%
X19652500Y-47777500D03*
%TO.P,R12,2*%
%TO.N,+3.3V*%
X19652500Y-49427500D03*
%TD*%
D18*
%TO.P,C8,1*%
%TO.N,+3.3V*%
X28352500Y-40527500D03*
%TO.P,C8,2*%
%TO.N,GNDREF*%
X28352500Y-42077500D03*
%TD*%
D13*
%TO.P,R38,1*%
%TO.N,/SD6_Q*%
X44063437Y-74249625D03*
%TO.P,R38,2*%
%TO.N,+3.3V*%
X44063437Y-72599625D03*
%TD*%
%TO.P,R25,1*%
%TO.N,/SD7_P*%
X37752500Y-37865000D03*
%TO.P,R25,2*%
%TO.N,+3.3V*%
X37752500Y-36215000D03*
%TD*%
D16*
%TO.P,R15,1*%
%TO.N,/SD2_P*%
X18174559Y-55077500D03*
%TO.P,R15,2*%
%TO.N,+3.3V*%
X18174559Y-56727500D03*
%TD*%
%TO.P,R29,1*%
%TO.N,/SC1_Q*%
X20813437Y-76927500D03*
%TO.P,R29,2*%
%TO.N,+3.3V*%
X20813437Y-78577500D03*
%TD*%
D14*
%TO.P,P2,1,Pin_1_1*%
%TO.N,GNDREF*%
X15777500Y-52700000D03*
D15*
%TO.P,P2,2,Pin_2_2*%
%TO.N,+3.3V*%
X17027500Y-52700000D03*
%TO.P,P2,3,Pin_3_3*%
%TO.N,/SD2_P*%
X18277500Y-52700000D03*
%TO.P,P2,4,Pin_4_4*%
%TO.N,/SC2_P*%
X19527500Y-52700000D03*
%TD*%
D13*
%TO.P,R41,1*%
%TO.N,/SC7_Q*%
X40313437Y-66999625D03*
%TO.P,R41,2*%
%TO.N,+3.3V*%
X40313437Y-65349625D03*
%TD*%
D19*
%TO.P,L_Highdrive4_1,1,Pin_1_1*%
%TO.N,GNDREF*%
X71700000Y-61000000D03*
D20*
%TO.P,L_Highdrive4_1,2,Pin_2_2*%
%TO.N,+5V*%
X71700000Y-63540000D03*
%TO.P,L_Highdrive4_1,3,Pin_3_3*%
%TO.N,GNDREF*%
X71700000Y-66080000D03*
%TO.P,L_Highdrive4_1,4,Pin_4_4*%
X71700000Y-68620000D03*
%TO.P,L_Highdrive4_1,5,Pin_5_5*%
%TO.N,/SDA_5V*%
X71700000Y-71160000D03*
%TO.P,L_Highdrive4_1,6,Pin_6_6*%
%TO.N,/SCL_5V*%
X71700000Y-73700000D03*
%TO.P,L_Highdrive4_1,7,Pin_7_7*%
%TO.N,/PIEZO31-_1*%
X71700000Y-76240000D03*
%TO.P,L_Highdrive4_1,8,Pin_8_8*%
%TO.N,/PIEZO31+_1*%
X71700000Y-78780000D03*
%TO.P,L_Highdrive4_1,9,Pin_9_9*%
%TO.N,/PIEZO32+_1*%
X71700000Y-81320000D03*
%TO.P,L_Highdrive4_1,10,Pin_10_10*%
%TO.N,/PIEZO32-_1*%
X71700000Y-83860000D03*
%TO.P,L_Highdrive4_1,11,Pin_11_11*%
%TO.N,/PIEZO41-_1*%
X71700000Y-86400000D03*
%TO.P,L_Highdrive4_1,12,Pin_12_12*%
%TO.N,/PIEZO41+_1*%
X71700000Y-88940000D03*
%TO.P,L_Highdrive4_1,13,Pin_13_13*%
%TO.N,/PIEZO42+_1*%
X71700000Y-91480000D03*
%TO.P,L_Highdrive4_1,14,Pin_14_14*%
%TO.N,/PIEZO42-_1*%
X71700000Y-94020000D03*
%TD*%
D13*
%TO.P,R39,1*%
%TO.N,/SC6_Q*%
X40363437Y-74249625D03*
%TO.P,R39,2*%
%TO.N,+3.3V*%
X40363437Y-72599625D03*
%TD*%
%TO.P,R35,1*%
%TO.N,/SC4_Q*%
X40263437Y-88849625D03*
%TO.P,R35,2*%
%TO.N,+3.3V*%
X40263437Y-87199625D03*
%TD*%
D16*
%TO.P,R17,1*%
%TO.N,/SD3_P*%
X18174559Y-62377500D03*
%TO.P,R17,2*%
%TO.N,+3.3V*%
X18174559Y-64027500D03*
%TD*%
D21*
%TO.P,C10,1*%
%TO.N,+5V*%
X57012500Y-59250000D03*
%TO.P,C10,2*%
%TO.N,GNDREF*%
X55462500Y-59250000D03*
%TD*%
D16*
%TO.P,R31,1*%
%TO.N,/SC2_Q*%
X20813437Y-84227500D03*
%TO.P,R31,2*%
%TO.N,+3.3V*%
X20813437Y-85877500D03*
%TD*%
D13*
%TO.P,R24,1*%
%TO.N,/SC7_P*%
X36252500Y-37865000D03*
%TO.P,R24,2*%
%TO.N,+3.3V*%
X36252500Y-36215000D03*
%TD*%
D17*
%TO.P,Q6,1,Pin_1_1*%
%TO.N,GNDREF*%
X45338437Y-76597500D03*
D15*
%TO.P,Q6,2,Pin_2_2*%
%TO.N,/SD6_Q*%
X44088437Y-76597500D03*
%TO.P,Q6,3,Pin_3_3*%
%TO.N,+3.3V*%
X42838437Y-76597500D03*
%TO.P,Q6,4,Pin_4_4*%
%TO.N,GNDREF*%
X41588437Y-76597500D03*
%TO.P,Q6,5,Pin_5_5*%
%TO.N,/SC6_Q*%
X40338437Y-76597500D03*
%TO.P,Q6,6,Pin_6_6*%
%TO.N,GNDREF*%
X39088437Y-76597500D03*
%TD*%
D22*
%TO.P,S1,1*%
%TO.N,unconnected-(S1-Pad1)*%
X70002500Y-106800000D03*
D23*
%TO.P,S1,2*%
%TO.N,unconnected-(S1-Pad2)*%
X70002500Y-109300000D03*
%TO.P,S1,3*%
%TO.N,unconnected-(S1-Pad3)*%
X70002500Y-111800000D03*
%TO.P,S1,4*%
%TO.N,Net-(Q8-Pad1)*%
X76002500Y-106800000D03*
%TO.P,S1,5*%
%TO.N,GNDREF*%
X76002500Y-109300000D03*
%TO.P,S1,6*%
%TO.N,unconnected-(S1-Pad6)*%
X76002500Y-111800000D03*
%TD*%
D24*
%TO.P,C9,1*%
%TO.N,+3.3V*%
X55462500Y-52150000D03*
%TO.P,C9,2*%
%TO.N,GNDREF*%
X57012500Y-52150000D03*
%TD*%
D14*
%TO.P,Q1,1,Pin_1_1*%
%TO.N,GNDREF*%
X15838437Y-74580375D03*
D15*
%TO.P,Q1,2,Pin_2_2*%
%TO.N,/SD1_Q*%
X17088437Y-74580375D03*
%TO.P,Q1,3,Pin_3_3*%
%TO.N,+3.3V*%
X18338437Y-74580375D03*
%TO.P,Q1,4,Pin_4_4*%
%TO.N,GNDREF*%
X19588437Y-74580375D03*
%TO.P,Q1,5,Pin_5_5*%
%TO.N,/SC1_Q*%
X20838437Y-74580375D03*
%TO.P,Q1,6,Pin_6_6*%
%TO.N,GNDREF*%
X22088437Y-74580375D03*
%TD*%
D17*
%TO.P,P6,1,Pin_1_1*%
%TO.N,GNDREF*%
X40152500Y-47520000D03*
D15*
%TO.P,P6,2,Pin_2_2*%
%TO.N,+3.3V*%
X38902500Y-47520000D03*
%TO.P,P6,3,Pin_3_3*%
%TO.N,/SD6_P*%
X37652500Y-47520000D03*
%TO.P,P6,4,Pin_4_4*%
%TO.N,/SC6_P*%
X36402500Y-47520000D03*
%TD*%
D13*
%TO.P,R20,1*%
%TO.N,/SC5_P*%
X36252500Y-52427500D03*
%TO.P,R20,2*%
%TO.N,+3.3V*%
X36252500Y-50777500D03*
%TD*%
D16*
%TO.P,R11,1*%
%TO.N,/SD0_P*%
X18174559Y-40477500D03*
%TO.P,R11,2*%
%TO.N,+3.3V*%
X18174559Y-42127500D03*
%TD*%
D25*
%TO.P,Q8,1*%
%TO.N,Net-(Q8-Pad1)*%
X73400000Y-102750000D03*
%TO.P,Q8,2*%
%TO.N,+9V*%
X73400000Y-100850000D03*
%TO.P,Q8,3*%
%TO.N,Net-(D3-K)*%
X70890000Y-101800000D03*
%TD*%
D13*
%TO.P,R8,1*%
%TO.N,Net-(MUX2-~{RESET})*%
X24902500Y-42127500D03*
%TO.P,R8,2*%
%TO.N,+3.3V*%
X24902500Y-40477500D03*
%TD*%
D19*
%TO.P,L_Highdrive4_2,1,Pin_1_1*%
%TO.N,GNDREF*%
X87000000Y-49020000D03*
D20*
%TO.P,L_Highdrive4_2,2,Pin_2_2*%
%TO.N,+5V*%
X87000000Y-46480000D03*
%TO.P,L_Highdrive4_2,3,Pin_3_3*%
X87000000Y-43940000D03*
%TO.P,L_Highdrive4_2,4,Pin_4_4*%
%TO.N,GNDREF*%
X87000000Y-41400000D03*
%TO.P,L_Highdrive4_2,5,Pin_5_5*%
%TO.N,/SDA_5V*%
X87000000Y-38860000D03*
%TO.P,L_Highdrive4_2,6,Pin_6_6*%
%TO.N,/SCL_5V*%
X87000000Y-36320000D03*
%TO.P,L_Highdrive4_2,7,Pin_7_7*%
%TO.N,/PIEZO31-_2*%
X87000000Y-33780000D03*
%TO.P,L_Highdrive4_2,8,Pin_8_8*%
%TO.N,/PIEZO31+_2*%
X87000000Y-31240000D03*
%TO.P,L_Highdrive4_2,9,Pin_9_9*%
%TO.N,/PIEZO32+_2*%
X87000000Y-28700000D03*
%TO.P,L_Highdrive4_2,10,Pin_10_10*%
%TO.N,/PIEZO32-_2*%
X87000000Y-26160000D03*
%TO.P,L_Highdrive4_2,11,Pin_11_11*%
%TO.N,/PIEZO41-_2*%
X87000000Y-23620000D03*
%TO.P,L_Highdrive4_2,12,Pin_12_12*%
%TO.N,/PIEZO41+_2*%
X87000000Y-21080000D03*
%TO.P,L_Highdrive4_2,13,Pin_13_13*%
%TO.N,/PIEZO42+_2*%
X87000000Y-18540000D03*
%TO.P,L_Highdrive4_2,14,Pin_14_14*%
%TO.N,/PIEZO42-_2*%
X87000000Y-16000000D03*
%TD*%
D26*
%TO.P,MUX2,1,A0_1*%
%TO.N,GNDREF*%
X25127500Y-44602500D03*
%TO.P,MUX2,2,A1_2*%
X25127500Y-45252500D03*
%TO.P,MUX2,3,~{RESET}_3*%
%TO.N,Net-(MUX2-~{RESET})*%
X25127500Y-45902500D03*
%TO.P,MUX2,4,SD0_4*%
%TO.N,/SD0_P*%
X25127500Y-46552500D03*
%TO.P,MUX2,5,SC0_5*%
%TO.N,/SC0_P*%
X25127500Y-47202500D03*
%TO.P,MUX2,6,SD1_6*%
%TO.N,/SD1_P*%
X25127500Y-47852500D03*
%TO.P,MUX2,7,SC1_7*%
%TO.N,/SC1_P*%
X25127500Y-48502500D03*
%TO.P,MUX2,8,SD2_8*%
%TO.N,/SD2_P*%
X25127500Y-49152500D03*
%TO.P,MUX2,9,SC2_9*%
%TO.N,/SC2_P*%
X25127500Y-49802500D03*
%TO.P,MUX2,10,SD3_10*%
%TO.N,/SD3_P*%
X25127500Y-50452500D03*
%TO.P,MUX2,11,SC3_11*%
%TO.N,/SC3_P*%
X25127500Y-51102500D03*
%TO.P,MUX2,12,GND_12*%
%TO.N,GNDREF*%
X25127500Y-51752500D03*
%TO.P,MUX2,13,SD4_13*%
%TO.N,/SD4_P*%
X30852500Y-51752500D03*
%TO.P,MUX2,14,SC4_14*%
%TO.N,/SC4_P*%
X30852500Y-51102500D03*
%TO.P,MUX2,15,SD5_15*%
%TO.N,/SD5_P*%
X30852500Y-50452500D03*
%TO.P,MUX2,16,SC5_16*%
%TO.N,/SC5_P*%
X30852500Y-49802500D03*
%TO.P,MUX2,17,SD6_17*%
%TO.N,/SD6_P*%
X30852500Y-49152500D03*
%TO.P,MUX2,18,SC6_18*%
%TO.N,/SC6_P*%
X30852500Y-48502500D03*
%TO.P,MUX2,19,SD7_19*%
%TO.N,/SD7_P*%
X30852500Y-47852500D03*
%TO.P,MUX2,20,SC7_20*%
%TO.N,/SC7_P*%
X30852500Y-47202500D03*
%TO.P,MUX2,21,A2_21*%
%TO.N,GNDREF*%
X30852500Y-46552500D03*
%TO.P,MUX2,22,SCL_22*%
%TO.N,/SCL_3.3V*%
X30852500Y-45902500D03*
%TO.P,MUX2,23,SDA_23*%
%TO.N,/SDA_3.3V*%
X30852500Y-45252500D03*
%TO.P,MUX2,24,VCC_24*%
%TO.N,+3.3V*%
X30852500Y-44602500D03*
%TD*%
D14*
%TO.P,Q0,1,Pin_1_1*%
%TO.N,GNDREF*%
X15838437Y-67280375D03*
D15*
%TO.P,Q0,2,Pin_2_2*%
%TO.N,/SD0_Q*%
X17088437Y-67280375D03*
%TO.P,Q0,3,Pin_3_3*%
%TO.N,+3.3V*%
X18338437Y-67280375D03*
%TO.P,Q0,4,Pin_4_4*%
%TO.N,GNDREF*%
X19588437Y-67280375D03*
%TO.P,Q0,5,Pin_5_5*%
%TO.N,/SC0_Q*%
X20838437Y-67280375D03*
%TO.P,Q0,6,Pin_6_6*%
%TO.N,GNDREF*%
X22088437Y-67280375D03*
%TD*%
D27*
%TO.P,J1,1*%
%TO.N,Net-(D1-A)*%
X84002500Y-105600000D03*
D28*
%TO.P,J1,2*%
%TO.N,GNDREF*%
X90002500Y-105600000D03*
D29*
%TO.P,J1,3*%
X87002500Y-100900000D03*
%TD*%
D13*
%TO.P,R21,1*%
%TO.N,/SD5_P*%
X37752500Y-52427500D03*
%TO.P,R21,2*%
%TO.N,+3.3V*%
X37752500Y-50777500D03*
%TD*%
D30*
%TO.P,C4,1*%
%TO.N,+3.3V*%
X43015000Y-112000000D03*
%TO.P,C4,2*%
%TO.N,GNDREF*%
X41115000Y-112000000D03*
%TD*%
D13*
%TO.P,R40,1*%
%TO.N,/SD7_Q*%
X44063437Y-66949625D03*
%TO.P,R40,2*%
%TO.N,+3.3V*%
X44063437Y-65299625D03*
%TD*%
D16*
%TO.P,R10,1*%
%TO.N,/SC0_P*%
X19674559Y-40477500D03*
%TO.P,R10,2*%
%TO.N,+3.3V*%
X19674559Y-42127500D03*
%TD*%
D14*
%TO.P,Q3,1,Pin_1_1*%
%TO.N,GNDREF*%
X15838437Y-89180375D03*
D15*
%TO.P,Q3,2,Pin_2_2*%
%TO.N,/SD3_Q*%
X17088437Y-89180375D03*
%TO.P,Q3,3,Pin_3_3*%
%TO.N,+3.3V*%
X18338437Y-89180375D03*
%TO.P,Q3,4,Pin_4_4*%
%TO.N,GNDREF*%
X19588437Y-89180375D03*
%TO.P,Q3,5,Pin_5_5*%
%TO.N,/SC3_Q*%
X20838437Y-89180375D03*
%TO.P,Q3,6,Pin_6_6*%
%TO.N,GNDREF*%
X22088437Y-89180375D03*
%TD*%
D16*
%TO.P,R33,1*%
%TO.N,/SC3_Q*%
X20838437Y-91505375D03*
%TO.P,R33,2*%
%TO.N,+3.3V*%
X20838437Y-93155375D03*
%TD*%
D13*
%TO.P,R19,1*%
%TO.N,/SD4_P*%
X37752500Y-59727500D03*
%TO.P,R19,2*%
%TO.N,+3.3V*%
X37752500Y-58077500D03*
%TD*%
%TO.P,R37,1*%
%TO.N,/SC5_Q*%
X40363437Y-81549625D03*
%TO.P,R37,2*%
%TO.N,+3.3V*%
X40363437Y-79899625D03*
%TD*%
%TO.P,R7,1*%
%TO.N,Net-(MUX1-~{RESET})*%
X27463437Y-71577500D03*
%TO.P,R7,2*%
%TO.N,+3.3V*%
X27463437Y-69927500D03*
%TD*%
D16*
%TO.P,R26,1*%
%TO.N,/SD0_Q*%
X17113437Y-69627500D03*
%TO.P,R26,2*%
%TO.N,+3.3V*%
X17113437Y-71277500D03*
%TD*%
D17*
%TO.P,P5,1,Pin_1_1*%
%TO.N,GNDREF*%
X40152500Y-54802500D03*
D15*
%TO.P,P5,2,Pin_2_2*%
%TO.N,+3.3V*%
X38902500Y-54802500D03*
%TO.P,P5,3,Pin_3_3*%
%TO.N,/SD5_P*%
X37652500Y-54802500D03*
%TO.P,P5,4,Pin_4_4*%
%TO.N,/SC5_P*%
X36402500Y-54802500D03*
%TD*%
D13*
%TO.P,R18,1*%
%TO.N,/SC4_P*%
X36252500Y-59727500D03*
%TO.P,R18,2*%
%TO.N,+3.3V*%
X36252500Y-58077500D03*
%TD*%
D16*
%TO.P,R9,1*%
%TO.N,+3.3V*%
X54250000Y-54875000D03*
%TO.P,R9,2*%
%TO.N,Net-(U3-OE)*%
X54250000Y-56525000D03*
%TD*%
D18*
%TO.P,C5,1*%
%TO.N,+3.3V*%
X33725937Y-69965000D03*
%TO.P,C5,2*%
%TO.N,GNDREF*%
X33725937Y-71515000D03*
%TD*%
D17*
%TO.P,Q5,1,Pin_1_1*%
%TO.N,GNDREF*%
X45338437Y-83897500D03*
D15*
%TO.P,Q5,2,Pin_2_2*%
%TO.N,/SD5_Q*%
X44088437Y-83897500D03*
%TO.P,Q5,3,Pin_3_3*%
%TO.N,+3.3V*%
X42838437Y-83897500D03*
%TO.P,Q5,4,Pin_4_4*%
%TO.N,GNDREF*%
X41588437Y-83897500D03*
%TO.P,Q5,5,Pin_5_5*%
%TO.N,/SC5_Q*%
X40338437Y-83897500D03*
%TO.P,Q5,6,Pin_6_6*%
%TO.N,GNDREF*%
X39088437Y-83897500D03*
%TD*%
D31*
%TO.P,U2,1,GND_1*%
%TO.N,GNDREF*%
X64940000Y-110805000D03*
D32*
%TO.P,U2,2,VO_2*%
%TO.N,+5V*%
X58640000Y-108525000D03*
D31*
%TO.P,U2,3,VI_3*%
%TO.N,Net-(D3-K)*%
X64940000Y-106245000D03*
%TD*%
D33*
%TO.P,R5,1*%
%TO.N,Net-(Q8-Pad1)*%
X76002500Y-102737500D03*
%TO.P,R5,2*%
%TO.N,+9V*%
X76002500Y-100912500D03*
%TD*%
D17*
%TO.P,Q4,1,Pin_1_1*%
%TO.N,GNDREF*%
X45313437Y-91174625D03*
D15*
%TO.P,Q4,2,Pin_2_2*%
%TO.N,/SD4_Q*%
X44063437Y-91174625D03*
%TO.P,Q4,3,Pin_3_3*%
%TO.N,+3.3V*%
X42813437Y-91174625D03*
%TO.P,Q4,4,Pin_4_4*%
%TO.N,GNDREF*%
X41563437Y-91174625D03*
%TO.P,Q4,5,Pin_5_5*%
%TO.N,/SC4_Q*%
X40313437Y-91174625D03*
%TO.P,Q4,6,Pin_6_6*%
%TO.N,GNDREF*%
X39063437Y-91174625D03*
%TD*%
D16*
%TO.P,R16,1*%
%TO.N,/SC3_P*%
X19674559Y-62377500D03*
%TO.P,R16,2*%
%TO.N,+3.3V*%
X19674559Y-64027500D03*
%TD*%
D34*
%TO.P,U1,1,GND_1*%
%TO.N,GNDREF*%
X40715000Y-109650000D03*
%TO.P,U1,2,VO_2*%
%TO.N,+3.3V*%
X43015000Y-109650000D03*
D35*
X43015000Y-103350000D03*
D34*
%TO.P,U1,3,VI_3*%
%TO.N,+5V*%
X45315000Y-109650000D03*
%TD*%
D36*
%TO.P,D2,1,K_1*%
%TO.N,+5V*%
X50015000Y-108500000D03*
%TO.P,D2,2,A_2*%
%TO.N,+3.3V*%
X50015000Y-104500000D03*
%TD*%
D14*
%TO.P,Q2,1,Pin_1_1*%
%TO.N,GNDREF*%
X15838437Y-81880375D03*
D15*
%TO.P,Q2,2,Pin_2_2*%
%TO.N,/SD2_Q*%
X17088437Y-81880375D03*
%TO.P,Q2,3,Pin_3_3*%
%TO.N,+3.3V*%
X18338437Y-81880375D03*
%TO.P,Q2,4,Pin_4_4*%
%TO.N,GNDREF*%
X19588437Y-81880375D03*
%TO.P,Q2,5,Pin_5_5*%
%TO.N,/SC2_Q*%
X20838437Y-81880375D03*
%TO.P,Q2,6,Pin_6_6*%
%TO.N,GNDREF*%
X22088437Y-81880375D03*
%TD*%
D17*
%TO.P,P7,1,Pin_1_1*%
%TO.N,GNDREF*%
X40152500Y-40240000D03*
D15*
%TO.P,P7,2,Pin_2_2*%
%TO.N,+3.3V*%
X38902500Y-40240000D03*
%TO.P,P7,3,Pin_3_3*%
%TO.N,/SD7_P*%
X37652500Y-40240000D03*
%TO.P,P7,4,Pin_4_4*%
%TO.N,/SC7_P*%
X36402500Y-40240000D03*
%TD*%
D16*
%TO.P,R32,1*%
%TO.N,/SD3_Q*%
X17113437Y-91505375D03*
%TO.P,R32,2*%
%TO.N,+3.3V*%
X17113437Y-93155375D03*
%TD*%
D19*
%TO.P,R_Highdrive4_2,1,Pin_1_1*%
%TO.N,+5V*%
X71700000Y-49020000D03*
D20*
%TO.P,R_Highdrive4_2,2,Pin_2_2*%
%TO.N,GNDREF*%
X71700000Y-46480000D03*
%TO.P,R_Highdrive4_2,3,Pin_3_3*%
%TO.N,unconnected-(R_Highdrive4_2-Pin_3-Pad3)*%
X71700000Y-43940000D03*
%TO.P,R_Highdrive4_2,4,Pin_4_4*%
%TO.N,unconnected-(R_Highdrive4_2-Pin_4-Pad4)*%
X71700000Y-41400000D03*
%TO.P,R_Highdrive4_2,5,Pin_5_5*%
%TO.N,unconnected-(R_Highdrive4_2-Pin_5-Pad5)*%
X71700000Y-38860000D03*
%TO.P,R_Highdrive4_2,6,Pin_6_6*%
%TO.N,unconnected-(R_Highdrive4_2-Pin_6-Pad6)*%
X71700000Y-36320000D03*
%TO.P,R_Highdrive4_2,7,Pin_7_7*%
%TO.N,/PIEZO22-_2*%
X71700000Y-33780000D03*
%TO.P,R_Highdrive4_2,8,Pin_8_8*%
%TO.N,/PIEZO22+_2*%
X71700000Y-31240000D03*
%TO.P,R_Highdrive4_2,9,Pin_9_9*%
%TO.N,/PIEZO21+_2*%
X71700000Y-28700000D03*
%TO.P,R_Highdrive4_2,10,Pin_10_10*%
%TO.N,/PIEZO21-_2*%
X71700000Y-26160000D03*
%TO.P,R_Highdrive4_2,11,Pin_11_11*%
%TO.N,/PIEZO12-_2*%
X71700000Y-23620000D03*
%TO.P,R_Highdrive4_2,12,Pin_12_12*%
%TO.N,/PIEZO12+_2*%
X71700000Y-21080000D03*
%TO.P,R_Highdrive4_2,13,Pin_13_13*%
%TO.N,/PIEZO11+_2*%
X71700000Y-18540000D03*
%TO.P,R_Highdrive4_2,14,Pin_14_14*%
%TO.N,/PIEZO11-_2*%
X71700000Y-16000000D03*
%TD*%
D37*
%TO.P,C2,1*%
%TO.N,+5V*%
X58615000Y-113600000D03*
%TO.P,C2,2*%
%TO.N,GNDREF*%
X60515000Y-113600000D03*
%TD*%
D38*
%TO.P,D1,1,K_1*%
%TO.N,+9V*%
X79402500Y-101600000D03*
%TO.P,D1,2,A_2*%
%TO.N,Net-(D1-A)*%
X79402500Y-105600000D03*
%TD*%
D17*
%TO.P,P4,1,Pin_1_1*%
%TO.N,GNDREF*%
X40152500Y-62102500D03*
D15*
%TO.P,P4,2,Pin_2_2*%
%TO.N,+3.3V*%
X38902500Y-62102500D03*
%TO.P,P4,3,Pin_3_3*%
%TO.N,/SD4_P*%
X37652500Y-62102500D03*
%TO.P,P4,4,Pin_4_4*%
%TO.N,/SC4_P*%
X36402500Y-62102500D03*
%TD*%
D14*
%TO.P,P1,1,Pin_1_1*%
%TO.N,GNDREF*%
X15755441Y-45400000D03*
D15*
%TO.P,P1,2,Pin_2_2*%
%TO.N,+3.3V*%
X17005441Y-45400000D03*
%TO.P,P1,3,Pin_3_3*%
%TO.N,/SD1_P*%
X18255441Y-45400000D03*
%TO.P,P1,4,Pin_4_4*%
%TO.N,/SC1_P*%
X19505441Y-45400000D03*
%TD*%
D39*
%TO.P,D3,1,K_1*%
%TO.N,Net-(D3-K)*%
X64915000Y-101800000D03*
%TO.P,D3,2,A_2*%
%TO.N,+5V*%
X60915000Y-101800000D03*
%TD*%
D40*
%TO.P,C1,1*%
%TO.N,Net-(D3-K)*%
X67350000Y-107575000D03*
%TO.P,C1,2*%
%TO.N,GNDREF*%
X67350000Y-109475000D03*
%TD*%
D37*
%TO.P,C3,1*%
%TO.N,+5V*%
X45315000Y-112000000D03*
%TO.P,C3,2*%
%TO.N,GNDREF*%
X47215000Y-112000000D03*
%TD*%
D41*
%TO.P,U3,1,SDA_B_1*%
%TO.N,/SDA_5V*%
X57000000Y-54290000D03*
%TO.P,U3,2,GND_2*%
%TO.N,GNDREF*%
X56500000Y-54290000D03*
%TO.P,U3,3,VCCA_3*%
%TO.N,+3.3V*%
X56000000Y-54290000D03*
%TO.P,U3,4,SDA_A_4*%
%TO.N,/SDA_3.3V*%
X55500000Y-54290000D03*
%TO.P,U3,5,SCL_A_5*%
%TO.N,/SCL_3.3V*%
X55500000Y-57100000D03*
%TO.P,U3,6,OE_6*%
%TO.N,Net-(U3-OE)*%
X56000000Y-57100000D03*
%TO.P,U3,7,VCCB_7*%
%TO.N,+5V*%
X56500000Y-57100000D03*
%TO.P,U3,8,SCL_B_8*%
%TO.N,/SCL_5V*%
X57000000Y-57100000D03*
%TD*%
D26*
%TO.P,MUX1,1,A0_1*%
%TO.N,GNDREF*%
X27738437Y-74033750D03*
%TO.P,MUX1,2,A1_2*%
X27738437Y-74683750D03*
%TO.P,MUX1,3,~{RESET}_3*%
%TO.N,Net-(MUX1-~{RESET})*%
X27738437Y-75333750D03*
%TO.P,MUX1,4,SD0_4*%
%TO.N,/SD0_Q*%
X27738437Y-75983750D03*
%TO.P,MUX1,5,SC0_5*%
%TO.N,/SC0_Q*%
X27738437Y-76633750D03*
%TO.P,MUX1,6,SD1_6*%
%TO.N,/SD1_Q*%
X27738437Y-77283750D03*
%TO.P,MUX1,7,SC1_7*%
%TO.N,/SC1_Q*%
X27738437Y-77933750D03*
%TO.P,MUX1,8,SD2_8*%
%TO.N,/SD2_Q*%
X27738437Y-78583750D03*
%TO.P,MUX1,9,SC2_9*%
%TO.N,/SC2_Q*%
X27738437Y-79233750D03*
%TO.P,MUX1,10,SD3_10*%
%TO.N,/SD3_Q*%
X27738437Y-79883750D03*
%TO.P,MUX1,11,SC3_11*%
%TO.N,/SC3_Q*%
X27738437Y-80533750D03*
%TO.P,MUX1,12,GND_12*%
%TO.N,GNDREF*%
X27738437Y-81183750D03*
%TO.P,MUX1,13,SD4_13*%
%TO.N,/SD4_Q*%
X33463437Y-81183750D03*
%TO.P,MUX1,14,SC4_14*%
%TO.N,/SC4_Q*%
X33463437Y-80533750D03*
%TO.P,MUX1,15,SD5_15*%
%TO.N,/SD5_Q*%
X33463437Y-79883750D03*
%TO.P,MUX1,16,SC5_16*%
%TO.N,/SC5_Q*%
X33463437Y-79233750D03*
%TO.P,MUX1,17,SD6_17*%
%TO.N,/SD6_Q*%
X33463437Y-78583750D03*
%TO.P,MUX1,18,SC6_18*%
%TO.N,/SC6_Q*%
X33463437Y-77933750D03*
%TO.P,MUX1,19,SD7_19*%
%TO.N,/SD7_Q*%
X33463437Y-77283750D03*
%TO.P,MUX1,20,SC7_20*%
%TO.N,/SC7_Q*%
X33463437Y-76633750D03*
%TO.P,MUX1,21,A2_21*%
%TO.N,+3.3V*%
X33463437Y-75983750D03*
%TO.P,MUX1,22,SCL_22*%
%TO.N,/SCL_3.3V*%
X33463437Y-75333750D03*
%TO.P,MUX1,23,SDA_23*%
%TO.N,/SDA_3.3V*%
X33463437Y-74683750D03*
%TO.P,MUX1,24,VCC_24*%
%TO.N,+3.3V*%
X33463437Y-74033750D03*
%TD*%
D13*
%TO.P,R36,1*%
%TO.N,/SD5_Q*%
X44063437Y-81549625D03*
%TO.P,R36,2*%
%TO.N,+3.3V*%
X44063437Y-79899625D03*
%TD*%
D18*
%TO.P,C7,1*%
%TO.N,+3.3V*%
X31102500Y-40527500D03*
%TO.P,C7,2*%
%TO.N,GNDREF*%
X31102500Y-42077500D03*
%TD*%
D19*
%TO.P,L-ESP32-C3,1,Pin_1_1*%
%TO.N,/CS*%
X38150000Y-15950000D03*
D20*
%TO.P,L-ESP32-C3,2,Pin_2_2*%
X35610000Y-15950000D03*
%TO.P,L-ESP32-C3,3,Pin_3_3*%
%TO.N,/MOSI*%
X38150000Y-18490000D03*
%TO.P,L-ESP32-C3,4,Pin_4_4*%
X35610000Y-18490000D03*
%TO.P,L-ESP32-C3,5,Pin_5_5*%
%TO.N,/MISO*%
X38150000Y-21030000D03*
%TO.P,L-ESP32-C3,6,Pin_6_6*%
X35610000Y-21030000D03*
%TO.P,L-ESP32-C3,7,Pin_7_7*%
%TO.N,unconnected-(L-ESP32-C3-Pin_7-Pad7)*%
X38150000Y-23570000D03*
%TO.P,L-ESP32-C3,8,Pin_8_8*%
X35610000Y-23570000D03*
%TO.P,L-ESP32-C3,9,Pin_9_9*%
%TO.N,unconnected-(L-ESP32-C3-Pin_10-Pad10)*%
X38150000Y-26110000D03*
%TO.P,L-ESP32-C3,10,Pin_10_10*%
X35610000Y-26110000D03*
%TO.P,L-ESP32-C3,11,Pin_11_11*%
%TO.N,unconnected-(L-ESP32-C3-Pin_11-Pad11)*%
X38150000Y-28650000D03*
%TO.P,L-ESP32-C3,12,Pin_12_12*%
X35610000Y-28650000D03*
%TO.P,L-ESP32-C3,13,Pin_13_13*%
%TO.N,unconnected-(L-ESP32-C3-Pin_13-Pad13)*%
X38150000Y-31190000D03*
%TO.P,L-ESP32-C3,14,Pin_14_14*%
X35610000Y-31190000D03*
%TO.P,L-ESP32-C3,15,Pin_15_15*%
%TO.N,unconnected-(L-ESP32-C3-Pin_15-Pad15)*%
X38150000Y-33730000D03*
%TO.P,L-ESP32-C3,16,Pin_16_16*%
X35610000Y-33730000D03*
%TD*%
D19*
%TO.P,R-ESP32-C3,1,Pin_1_1*%
%TO.N,unconnected-(R-ESP32-C3-Pin_1-Pad1)*%
X55990000Y-15950000D03*
D20*
%TO.P,R-ESP32-C3,2,Pin_2_2*%
X53450000Y-15950000D03*
%TO.P,R-ESP32-C3,3,Pin_3_3*%
%TO.N,GNDREF*%
X55990000Y-18490000D03*
%TO.P,R-ESP32-C3,4,Pin_4_4*%
X53450000Y-18490000D03*
%TO.P,R-ESP32-C3,5,Pin_5_5*%
%TO.N,+3.3V*%
X55990000Y-21030000D03*
%TO.P,R-ESP32-C3,6,Pin_6_6*%
X53450000Y-21030000D03*
%TO.P,R-ESP32-C3,7,Pin_7_7*%
%TO.N,/SCK*%
X55990000Y-23570000D03*
%TO.P,R-ESP32-C3,8,Pin_8_8*%
X53450000Y-23570000D03*
%TO.P,R-ESP32-C3,9,Pin_9_9*%
%TO.N,unconnected-(R-ESP32-C3-Pin_10-Pad10)*%
X55990000Y-26110000D03*
%TO.P,R-ESP32-C3,10,Pin_10_10*%
X53450000Y-26110000D03*
%TO.P,R-ESP32-C3,11,Pin_11_11*%
%TO.N,unconnected-(R-ESP32-C3-Pin_11-Pad11)*%
X55990000Y-28650000D03*
%TO.P,R-ESP32-C3,12,Pin_12_12*%
X53450000Y-28650000D03*
%TO.P,R-ESP32-C3,13,Pin_13_13*%
%TO.N,/SDA_3.3V*%
X55990000Y-31190000D03*
%TO.P,R-ESP32-C3,14,Pin_14_14*%
X53450000Y-31190000D03*
%TO.P,R-ESP32-C3,15,Pin_15_15*%
%TO.N,/SCL_3.3V*%
X55990000Y-33730000D03*
%TO.P,R-ESP32-C3,16,Pin_16_16*%
X53450000Y-33730000D03*
%TD*%
D14*
%TO.P,P0,1,Pin_1_1*%
%TO.N,GNDREF*%
X15755441Y-38100000D03*
D15*
%TO.P,P0,2,Pin_2_2*%
%TO.N,+3.3V*%
X17005441Y-38100000D03*
%TO.P,P0,3,Pin_3_3*%
%TO.N,/SD0_P*%
X18255441Y-38100000D03*
%TO.P,P0,4,Pin_4_4*%
%TO.N,/SC0_P*%
X19505441Y-38100000D03*
%TD*%
D16*
%TO.P,R14,1*%
%TO.N,/SC2_P*%
X19674559Y-55077500D03*
%TO.P,R14,2*%
%TO.N,+3.3V*%
X19674559Y-56727500D03*
%TD*%
D19*
%TO.P,SPI_SD-Card_1,1,Pin_1_1*%
%TO.N,+3.3V*%
X28850000Y-15960000D03*
D20*
%TO.P,SPI_SD-Card_1,2,Pin_2_2*%
%TO.N,/CS*%
X28850000Y-18500000D03*
%TO.P,SPI_SD-Card_1,3,Pin_3_3*%
%TO.N,/MOSI*%
X28850000Y-21040000D03*
%TO.P,SPI_SD-Card_1,4,Pin_4_4*%
%TO.N,/SCK*%
X28850000Y-23580000D03*
%TO.P,SPI_SD-Card_1,5,Pin_5_5*%
%TO.N,/MISO*%
X28850000Y-26120000D03*
%TO.P,SPI_SD-Card_1,6,Pin_6_6*%
%TO.N,GNDREF*%
X28850000Y-28660000D03*
%TD*%
D19*
%TO.P,R_Highdrive4_1,1,Pin_1_1*%
%TO.N,+5V*%
X87000000Y-61000000D03*
D20*
%TO.P,R_Highdrive4_1,2,Pin_2_2*%
%TO.N,GNDREF*%
X87000000Y-63540000D03*
%TO.P,R_Highdrive4_1,3,Pin_3_3*%
%TO.N,unconnected-(R_Highdrive4_1-Pin_3-Pad3)*%
X87000000Y-66080000D03*
%TO.P,R_Highdrive4_1,4,Pin_4_4*%
%TO.N,unconnected-(R_Highdrive4_1-Pin_4-Pad4)*%
X87000000Y-68620000D03*
%TO.P,R_Highdrive4_1,5,Pin_5_5*%
%TO.N,unconnected-(R_Highdrive4_1-Pin_5-Pad5)*%
X87000000Y-71160000D03*
%TO.P,R_Highdrive4_1,6,Pin_6_6*%
%TO.N,unconnected-(R_Highdrive4_1-Pin_6-Pad6)*%
X87000000Y-73700000D03*
%TO.P,R_Highdrive4_1,7,Pin_7_7*%
%TO.N,/PIEZO22-_1*%
X87000000Y-76240000D03*
%TO.P,R_Highdrive4_1,8,Pin_8_8*%
%TO.N,/PIEZO22+_1*%
X87000000Y-78780000D03*
%TO.P,R_Highdrive4_1,9,Pin_9_9*%
%TO.N,/PIEZO21+_1*%
X87000000Y-81320000D03*
%TO.P,R_Highdrive4_1,10,Pin_10_10*%
%TO.N,/PIEZO21-_1*%
X87000000Y-83860000D03*
%TO.P,R_Highdrive4_1,11,Pin_11_11*%
%TO.N,/PIEZO12-_1*%
X87000000Y-86400000D03*
%TO.P,R_Highdrive4_1,12,Pin_12_12*%
%TO.N,/PIEZO12+_1*%
X87000000Y-88940000D03*
%TO.P,R_Highdrive4_1,13,Pin_13_13*%
%TO.N,/PIEZO11+_1*%
X87000000Y-91480000D03*
%TO.P,R_Highdrive4_1,14,Pin_14_14*%
%TO.N,/PIEZO11-_1*%
X87000000Y-94020000D03*
%TD*%
D42*
%TO.N,+3.3V*%
X17005625Y-56702500D03*
X18963437Y-93202500D03*
X42213437Y-79952500D03*
X18963437Y-71302500D03*
X42163437Y-65302500D03*
X27205625Y-40502500D03*
X40805000Y-100000000D03*
X45115000Y-100000000D03*
X38905625Y-43500000D03*
X29955625Y-40502500D03*
X42213437Y-87252500D03*
X30852500Y-43652500D03*
X18963437Y-85902500D03*
X24902500Y-39370000D03*
X42990000Y-101050000D03*
X38905625Y-50782500D03*
D43*
X35013437Y-75752500D03*
D42*
X32541562Y-69952500D03*
X17005625Y-49402500D03*
D43*
X55487500Y-51110000D03*
D42*
X38905625Y-36220000D03*
X18963437Y-78652500D03*
X29791562Y-69952500D03*
X17005625Y-42102500D03*
X42213437Y-72602500D03*
X38905625Y-58082500D03*
X17005625Y-64002500D03*
X33500937Y-73052500D03*
X27491562Y-68808750D03*
%TO.N,GNDREF*%
X25135000Y-43652500D03*
X60515000Y-115200000D03*
D43*
X55487500Y-60290000D03*
D42*
X37205000Y-107690000D03*
X47215000Y-113600000D03*
X38365000Y-109700000D03*
D43*
X56975000Y-51110000D03*
D42*
X25152500Y-52702500D03*
X37205000Y-111690000D03*
X63315000Y-115000000D03*
X32541562Y-71502500D03*
X27205625Y-42077500D03*
X64915000Y-113200000D03*
D43*
X32308750Y-46302500D03*
D42*
X29955625Y-42077500D03*
X66515000Y-115000000D03*
X29791562Y-71502500D03*
X27690562Y-73052500D03*
X41115000Y-113600000D03*
X27713437Y-82152500D03*
%TO.N,+5V*%
X53715000Y-106000000D03*
X53715000Y-111000000D03*
X53715000Y-108500000D03*
D43*
X57025000Y-60290000D03*
%TO.N,/SDA_5V*%
X58537500Y-53350000D03*
%TO.N,/SCL_5V*%
X58487500Y-58050000D03*
D42*
%TO.N,+9V*%
X78400000Y-98300000D03*
X80400000Y-98300000D03*
X79400000Y-99400000D03*
D43*
%TO.N,/SCL_3.3V*%
X54100000Y-58050000D03*
X35950000Y-73550000D03*
X32950000Y-43850000D03*
%TO.N,/SDA_3.3V*%
X54100000Y-53300000D03*
X35050000Y-73550000D03*
X32150000Y-43850000D03*
D42*
%TO.N,Net-(D1-A)*%
X79400000Y-107700000D03*
X78500000Y-108800000D03*
X80300000Y-108800000D03*
%TD*%
%TO.N,/SD6_P*%
D44*
X37652500Y-47770000D02*
X37652500Y-47520000D01*
X36270000Y-49152500D02*
X37652500Y-47770000D01*
X37752500Y-47420000D02*
X37652500Y-47520000D01*
X30852500Y-49152500D02*
X36270000Y-49152500D01*
X37752500Y-45145000D02*
X37752500Y-47420000D01*
%TO.N,+3.3V*%
D45*
X37752500Y-58077500D02*
X36252500Y-58077500D01*
X44010562Y-87252500D02*
X44063437Y-87199625D01*
X17138437Y-85902500D02*
X17113437Y-85877500D01*
X44060562Y-65302500D02*
X44063437Y-65299625D01*
X42213437Y-79952500D02*
X44010562Y-79952500D01*
D44*
X55487500Y-52125000D02*
X55462500Y-52150000D01*
D45*
X17138437Y-71302500D02*
X17113437Y-71277500D01*
X20788437Y-85902500D02*
X20813437Y-85877500D01*
X18149559Y-56702500D02*
X18174559Y-56727500D01*
D46*
X43015000Y-101075000D02*
X42990000Y-101050000D01*
D44*
X56000000Y-54290000D02*
X56000000Y-54987500D01*
D45*
X29955625Y-40502500D02*
X31077500Y-40502500D01*
D44*
X54675000Y-55300000D02*
X54250000Y-54875000D01*
D45*
X44010562Y-79952500D02*
X44063437Y-79899625D01*
X40316312Y-87252500D02*
X40263437Y-87199625D01*
X37757500Y-50782500D02*
X37752500Y-50777500D01*
X28327500Y-40502500D02*
X28352500Y-40527500D01*
X17005625Y-49402500D02*
X18149559Y-49402500D01*
X18963437Y-71302500D02*
X20788437Y-71302500D01*
X44060562Y-72602500D02*
X44063437Y-72599625D01*
X18174559Y-56727500D02*
X19674559Y-56727500D01*
D46*
X43015000Y-103350000D02*
X47550000Y-103350000D01*
D45*
X37752500Y-43495000D02*
X36252500Y-43495000D01*
X18963437Y-93202500D02*
X20791312Y-93202500D01*
X17160562Y-93202500D02*
X17113437Y-93155375D01*
D46*
X43015000Y-103350000D02*
X43015000Y-101075000D01*
D44*
X56000000Y-52687500D02*
X56000000Y-54290000D01*
X55687500Y-55300000D02*
X54675000Y-55300000D01*
D45*
X17005625Y-64002500D02*
X18149559Y-64002500D01*
X18963437Y-78652500D02*
X20738437Y-78652500D01*
D46*
X47550000Y-103350000D02*
X48700000Y-104500000D01*
D45*
X18149559Y-64002500D02*
X18174559Y-64027500D01*
X18963437Y-85902500D02*
X20788437Y-85902500D01*
X18963437Y-93202500D02*
X17160562Y-93202500D01*
X18963437Y-85902500D02*
X17138437Y-85902500D01*
X18174559Y-42127500D02*
X19674559Y-42127500D01*
X18963437Y-71302500D02*
X17138437Y-71302500D01*
X33500937Y-73052500D02*
X33500937Y-73983750D01*
X31077500Y-40502500D02*
X31102500Y-40527500D01*
X42213437Y-87252500D02*
X44010562Y-87252500D01*
X37757500Y-58082500D02*
X37752500Y-58077500D01*
X38905625Y-36220000D02*
X37757500Y-36220000D01*
X24902500Y-39370000D02*
X24902500Y-40477500D01*
D47*
X43015000Y-109650000D02*
X43015000Y-112000000D01*
D45*
X40416312Y-79952500D02*
X40363437Y-79899625D01*
D44*
X34763437Y-76002500D02*
X33482187Y-76002500D01*
D45*
X18149559Y-49402500D02*
X18174559Y-49427500D01*
X40366312Y-72602500D02*
X40363437Y-72599625D01*
X38905625Y-43500000D02*
X37757500Y-43500000D01*
X20791312Y-93202500D02*
X20838437Y-93155375D01*
X37752500Y-36215000D02*
X36252500Y-36215000D01*
X38905625Y-58082500D02*
X37757500Y-58082500D01*
X17188437Y-78652500D02*
X17113437Y-78577500D01*
X42163437Y-65302500D02*
X44060562Y-65302500D01*
X27491562Y-68808750D02*
X27491562Y-69899375D01*
X37752500Y-50777500D02*
X36252500Y-50777500D01*
X44040000Y-100000000D02*
X42990000Y-101050000D01*
D44*
X55462500Y-52150000D02*
X56000000Y-52687500D01*
D45*
X40360562Y-65302500D02*
X40313437Y-65349625D01*
X27205625Y-40502500D02*
X28327500Y-40502500D01*
X42213437Y-72602500D02*
X40366312Y-72602500D01*
X18963437Y-78652500D02*
X17188437Y-78652500D01*
D44*
X35013437Y-75752500D02*
X34763437Y-76002500D01*
D45*
X38905625Y-50782500D02*
X37757500Y-50782500D01*
D44*
X33482187Y-76002500D02*
X33463437Y-75983750D01*
D45*
X17005625Y-42102500D02*
X18149559Y-42102500D01*
X40805000Y-100000000D02*
X41940000Y-100000000D01*
X42213437Y-79952500D02*
X40416312Y-79952500D01*
D44*
X55487500Y-51110000D02*
X55487500Y-52125000D01*
D45*
X30963437Y-69952500D02*
X30975937Y-69965000D01*
X20738437Y-78652500D02*
X20813437Y-78577500D01*
X18174559Y-49427500D02*
X19652500Y-49427500D01*
X29791562Y-69952500D02*
X30963437Y-69952500D01*
X45115000Y-100000000D02*
X44040000Y-100000000D01*
X17005625Y-56702500D02*
X18149559Y-56702500D01*
X18174559Y-64027500D02*
X19674559Y-64027500D01*
X30852500Y-43652500D02*
X30852500Y-44602500D01*
X41940000Y-100000000D02*
X42990000Y-101050000D01*
X18149559Y-42102500D02*
X18174559Y-42127500D01*
X37757500Y-36220000D02*
X37752500Y-36215000D01*
X33500937Y-73983750D02*
X33463437Y-73983750D01*
X37757500Y-43500000D02*
X37752500Y-43495000D01*
X32541562Y-69952500D02*
X33713437Y-69952500D01*
X27491562Y-69899375D02*
X27463437Y-69927500D01*
X20788437Y-71302500D02*
X20813437Y-71277500D01*
D46*
X43015000Y-103350000D02*
X43015000Y-109650000D01*
D45*
X42213437Y-87252500D02*
X40316312Y-87252500D01*
D46*
X48700000Y-104500000D02*
X50015000Y-104500000D01*
D45*
X42213437Y-72602500D02*
X44060562Y-72602500D01*
X42163437Y-65302500D02*
X40360562Y-65302500D01*
X33713437Y-69952500D02*
X33725937Y-69965000D01*
D44*
X56000000Y-54987500D02*
X55687500Y-55300000D01*
%TO.N,/SC6_P*%
X36252500Y-45145000D02*
X36252500Y-47370000D01*
X35420000Y-48502500D02*
X36402500Y-47520000D01*
X30852500Y-48502500D02*
X35420000Y-48502500D01*
X36252500Y-47370000D02*
X36402500Y-47520000D01*
%TO.N,GNDREF*%
D45*
X27690562Y-73985875D02*
X27738437Y-74033750D01*
D48*
X64940000Y-110805000D02*
X64940000Y-113175000D01*
X64915000Y-113400000D02*
X63315000Y-115000000D01*
D45*
X37205000Y-107690000D02*
X37205000Y-108540000D01*
D46*
X66895000Y-110805000D02*
X67350000Y-110350000D01*
D44*
X56975000Y-52112500D02*
X57012500Y-52150000D01*
D45*
X25152500Y-52702500D02*
X25152500Y-51777500D01*
D46*
X64915000Y-113200000D02*
X64915000Y-113400000D01*
D44*
X32308750Y-46302500D02*
X32058750Y-46552500D01*
D46*
X67350000Y-110350000D02*
X67350000Y-109475000D01*
D45*
X27738437Y-74033750D02*
X27738437Y-74633750D01*
D46*
X64940000Y-113175000D02*
X64915000Y-113200000D01*
X64940000Y-110805000D02*
X66895000Y-110805000D01*
D45*
X30963437Y-71502500D02*
X30975937Y-71515000D01*
D44*
X56500000Y-52662500D02*
X56500000Y-54290000D01*
D45*
X25135000Y-44595000D02*
X25127500Y-44602500D01*
D46*
X38415000Y-109650000D02*
X38365000Y-109700000D01*
D44*
X57012500Y-52150000D02*
X56500000Y-52662500D01*
D45*
X29955625Y-42077500D02*
X31102500Y-42077500D01*
D44*
X55487500Y-59275000D02*
X55462500Y-59250000D01*
D48*
X60515000Y-115200000D02*
X60515000Y-113600000D01*
D45*
X27738437Y-82127500D02*
X27738437Y-81233750D01*
X25135000Y-43652500D02*
X25135000Y-44595000D01*
X25127500Y-44602500D02*
X25127500Y-45252500D01*
X29791562Y-71502500D02*
X30963437Y-71502500D01*
X37205000Y-108540000D02*
X38365000Y-109700000D01*
D44*
X40665000Y-109700000D02*
X40715000Y-109650000D01*
D45*
X25152500Y-51777500D02*
X25127500Y-51752500D01*
X37205000Y-111690000D02*
X37205000Y-110860000D01*
X33713437Y-71502500D02*
X33725937Y-71515000D01*
X27713437Y-82152500D02*
X27738437Y-82127500D01*
X27690562Y-73052500D02*
X27690562Y-73985875D01*
D48*
X64915000Y-113400000D02*
X66515000Y-115000000D01*
D45*
X32541562Y-71502500D02*
X33713437Y-71502500D01*
D44*
X56975000Y-51110000D02*
X56975000Y-52112500D01*
D45*
X27205625Y-42077500D02*
X28352500Y-42077500D01*
D44*
X55487500Y-60290000D02*
X55487500Y-59275000D01*
D48*
X47215000Y-112000000D02*
X47215000Y-113500000D01*
X41115000Y-112000000D02*
X41115000Y-113600000D01*
D45*
X37205000Y-110860000D02*
X38365000Y-109700000D01*
D44*
X32058750Y-46552500D02*
X30852500Y-46552500D01*
D46*
X40715000Y-109650000D02*
X38415000Y-109650000D01*
%TO.N,/SD3_P*%
D44*
X22552500Y-50452500D02*
X21852500Y-51152500D01*
X20447500Y-58957500D02*
X19021814Y-58957500D01*
X18277500Y-59701814D02*
X18277500Y-60007500D01*
X21852500Y-57552500D02*
X20447500Y-58957500D01*
X18174559Y-60110441D02*
X18277500Y-60007500D01*
X25127500Y-50452500D02*
X22552500Y-50452500D01*
X19021814Y-58957500D02*
X18277500Y-59701814D01*
X21852500Y-51152500D02*
X21852500Y-57552500D01*
X18174559Y-62377500D02*
X18174559Y-60110441D01*
%TO.N,/SC3_P*%
X22652500Y-57752500D02*
X20397500Y-60007500D01*
X25127500Y-51102500D02*
X23102500Y-51102500D01*
X19674559Y-62377500D02*
X19674559Y-60154559D01*
X22652500Y-51552500D02*
X22652500Y-57752500D01*
X20397500Y-60007500D02*
X19527500Y-60007500D01*
X23102500Y-51102500D02*
X22652500Y-51552500D01*
X19674559Y-60154559D02*
X19527500Y-60007500D01*
%TO.N,/SD2_Q*%
X20563437Y-80702500D02*
X17963437Y-80702500D01*
X17088437Y-81577500D02*
X17088437Y-81880375D01*
X22682187Y-78583750D02*
X20563437Y-80702500D01*
X17113437Y-81905375D02*
X17088437Y-81880375D01*
X17113437Y-84227500D02*
X17113437Y-81905375D01*
X17963437Y-80702500D02*
X17088437Y-81577500D01*
X27738437Y-78583750D02*
X22682187Y-78583750D01*
%TO.N,/SD1_P*%
X18174559Y-45480882D02*
X18255441Y-45400000D01*
X25127500Y-47852500D02*
X23352500Y-47852500D01*
X19850000Y-44350000D02*
X18955441Y-44350000D01*
X18955441Y-44350000D02*
X18255441Y-45050000D01*
X18255441Y-45050000D02*
X18255441Y-45400000D01*
X23352500Y-47852500D02*
X19850000Y-44350000D01*
X18174559Y-47777500D02*
X18174559Y-45480882D01*
%TO.N,/SD7_Q*%
X44088437Y-69647500D02*
X44088437Y-69297500D01*
X43283437Y-70452500D02*
X44088437Y-69647500D01*
X33463437Y-77283750D02*
X35982187Y-77283750D01*
X41013437Y-70452500D02*
X43283437Y-70452500D01*
X38963437Y-72502500D02*
X41013437Y-70452500D01*
X44063437Y-69272500D02*
X44088437Y-69297500D01*
X44063437Y-66949625D02*
X44063437Y-69272500D01*
X35982187Y-77283750D02*
X38963437Y-74302500D01*
X38963437Y-74302500D02*
X38963437Y-72502500D01*
%TO.N,/SC7_Q*%
X38113437Y-73702500D02*
X38113437Y-71702500D01*
X40313437Y-66999625D02*
X40313437Y-69272500D01*
X35182187Y-76633750D02*
X38113437Y-73702500D01*
X40338437Y-69477500D02*
X40338437Y-69297500D01*
X33463437Y-76633750D02*
X35182187Y-76633750D01*
X38113437Y-71702500D02*
X40338437Y-69477500D01*
X40313437Y-69272500D02*
X40338437Y-69297500D01*
%TO.N,/SC0_Q*%
X20838437Y-67280375D02*
X20838437Y-67530375D01*
X20838437Y-67530375D02*
X24413437Y-71105375D01*
X20813437Y-69627500D02*
X20813437Y-67305375D01*
X20813437Y-67305375D02*
X20838437Y-67280375D01*
X25194687Y-76633750D02*
X27738437Y-76633750D01*
X24413437Y-71105375D02*
X24413437Y-75852500D01*
X24413437Y-75852500D02*
X25194687Y-76633750D01*
%TO.N,/SD4_Q*%
X33463437Y-81183750D02*
X33463437Y-88602500D01*
X44063437Y-88849625D02*
X44063437Y-91174625D01*
X42413437Y-93002500D02*
X44063437Y-91352500D01*
X33463437Y-88602500D02*
X37863437Y-93002500D01*
X44063437Y-91352500D02*
X44063437Y-91174625D01*
X37863437Y-93002500D02*
X42413437Y-93002500D01*
%TO.N,/SD1_Q*%
X17913437Y-73452500D02*
X22463437Y-73452500D01*
X24244687Y-77283750D02*
X27738437Y-77283750D01*
X17088437Y-74580375D02*
X17088437Y-74277500D01*
X17088437Y-74277500D02*
X17913437Y-73452500D01*
X17113437Y-74605375D02*
X17088437Y-74580375D01*
X23413437Y-76452500D02*
X24244687Y-77283750D01*
X22463437Y-73452500D02*
X23413437Y-74402500D01*
X23413437Y-74402500D02*
X23413437Y-76452500D01*
X17113437Y-76927500D02*
X17113437Y-74605375D01*
%TO.N,/SC1_P*%
X22607941Y-48502500D02*
X19505441Y-45400000D01*
X19652500Y-45547059D02*
X19505441Y-45400000D01*
X19652500Y-47777500D02*
X19652500Y-45547059D01*
X25127500Y-48502500D02*
X22607941Y-48502500D01*
%TO.N,/SD6_Q*%
X42452187Y-78583750D02*
X44088437Y-76947500D01*
X44063437Y-74249625D02*
X44063437Y-76572500D01*
X44088437Y-76947500D02*
X44088437Y-76597500D01*
X44063437Y-76572500D02*
X44088437Y-76597500D01*
X33463437Y-78583750D02*
X42452187Y-78583750D01*
%TO.N,/SD7_P*%
X37652500Y-40371371D02*
X37652500Y-40240000D01*
X30852500Y-47852500D02*
X32752500Y-47852500D01*
X34352500Y-43052500D02*
X36052500Y-41352500D01*
X36052500Y-41352500D02*
X36671371Y-41352500D01*
X34352500Y-46252500D02*
X34352500Y-43052500D01*
X32752500Y-47852500D02*
X34352500Y-46252500D01*
X37752500Y-37865000D02*
X37752500Y-40140000D01*
X36671371Y-41352500D02*
X37652500Y-40371371D01*
X37752500Y-40140000D02*
X37652500Y-40240000D01*
%TO.N,/SD2_P*%
X19075000Y-51552500D02*
X18277500Y-52350000D01*
X18174559Y-52802941D02*
X18277500Y-52700000D01*
X18174559Y-55077500D02*
X18174559Y-52802941D01*
X21914509Y-49152500D02*
X19514509Y-51552500D01*
X18277500Y-52350000D02*
X18277500Y-52700000D01*
X25127500Y-49152500D02*
X21914509Y-49152500D01*
X19514509Y-51552500D02*
X19075000Y-51552500D01*
%TO.N,/SC1_Q*%
X20838437Y-75277500D02*
X20838437Y-74580375D01*
X20813437Y-76927500D02*
X20813437Y-74605375D01*
X27738437Y-77933750D02*
X23494687Y-77933750D01*
X23494687Y-77933750D02*
X20838437Y-75277500D01*
X20813437Y-74605375D02*
X20838437Y-74580375D01*
%TO.N,/SC2_P*%
X25127500Y-49802500D02*
X22202500Y-49802500D01*
X19527500Y-52477500D02*
X19527500Y-52700000D01*
X19674559Y-52847059D02*
X19527500Y-52700000D01*
X19674559Y-55077500D02*
X19674559Y-52847059D01*
X22202500Y-49802500D02*
X19527500Y-52477500D01*
%TO.N,+5V*%
D46*
X53715000Y-108500000D02*
X58615000Y-108500000D01*
D44*
X57012500Y-59250000D02*
X56500000Y-58737500D01*
D46*
X50015000Y-108500000D02*
X51215000Y-108500000D01*
X47550000Y-109650000D02*
X48700000Y-108500000D01*
D48*
X56165000Y-111000000D02*
X58640000Y-108525000D01*
D46*
X58640000Y-108525000D02*
X58640000Y-102160000D01*
X58615000Y-108500000D02*
X58640000Y-108525000D01*
D44*
X56500000Y-58737500D02*
X56500000Y-57100000D01*
D48*
X53715000Y-111000000D02*
X56165000Y-111000000D01*
D46*
X50015000Y-108500000D02*
X53715000Y-108500000D01*
D48*
X56115000Y-106000000D02*
X58640000Y-108525000D01*
D46*
X58640000Y-102160000D02*
X59000000Y-101800000D01*
D44*
X57025000Y-59262500D02*
X57012500Y-59250000D01*
D46*
X45315000Y-109650000D02*
X47550000Y-109650000D01*
X48700000Y-108500000D02*
X50015000Y-108500000D01*
D47*
X45315000Y-109650000D02*
X45315000Y-112000000D01*
D48*
X51215000Y-108500000D02*
X53715000Y-106000000D01*
D47*
X58615000Y-108550000D02*
X58640000Y-108525000D01*
D48*
X51215000Y-108500000D02*
X53715000Y-111000000D01*
D47*
X58615000Y-113600000D02*
X58615000Y-108550000D01*
D46*
X59000000Y-101800000D02*
X60915000Y-101800000D01*
D48*
X53715000Y-106000000D02*
X56115000Y-106000000D01*
D44*
X57025000Y-60290000D02*
X57025000Y-59262500D01*
%TO.N,/SDA_5V*%
X57000000Y-54290000D02*
X57000000Y-53637500D01*
X57287500Y-53350000D02*
X58537500Y-53350000D01*
X57000000Y-53637500D02*
X57287500Y-53350000D01*
%TO.N,/SCL_5V*%
X58487500Y-58050000D02*
X57187500Y-58050000D01*
X57187500Y-58050000D02*
X57000000Y-57862500D01*
X57000000Y-57862500D02*
X57000000Y-57100000D01*
%TO.N,/SC6_Q*%
X33463437Y-77933750D02*
X39352187Y-77933750D01*
X39352187Y-77933750D02*
X40338437Y-76947500D01*
X40338437Y-76947500D02*
X40338437Y-76597500D01*
X40363437Y-74249625D02*
X40363437Y-76572500D01*
X40363437Y-76572500D02*
X40338437Y-76597500D01*
%TO.N,/SC4_Q*%
X40313437Y-90824625D02*
X40313437Y-91174625D01*
X40263437Y-91124625D02*
X40313437Y-91174625D01*
X34260815Y-80533750D02*
X34713437Y-80986372D01*
X34713437Y-80986372D02*
X34713437Y-85224625D01*
X40263437Y-88849625D02*
X40263437Y-91124625D01*
X34713437Y-85224625D02*
X40313437Y-90824625D01*
X33463437Y-80533750D02*
X34260815Y-80533750D01*
%TO.N,/SC2_Q*%
X20838437Y-81749004D02*
X20838437Y-81880375D01*
X23353691Y-79233750D02*
X20838437Y-81749004D01*
X27738437Y-79233750D02*
X23353691Y-79233750D01*
X20813437Y-84227500D02*
X20813437Y-81905375D01*
X20813437Y-81905375D02*
X20838437Y-81880375D01*
%TO.N,/SC7_P*%
X33652500Y-42652500D02*
X36065000Y-40240000D01*
X33652500Y-45958750D02*
X33652500Y-42652500D01*
X32408750Y-47202500D02*
X33652500Y-45958750D01*
X36252500Y-40090000D02*
X36402500Y-40240000D01*
X30852500Y-47202500D02*
X32408750Y-47202500D01*
X36065000Y-40240000D02*
X36402500Y-40240000D01*
X36252500Y-37865000D02*
X36252500Y-40090000D01*
%TO.N,Net-(Q8-Pad1)*%
D47*
X76002500Y-102737500D02*
X73412500Y-102737500D01*
X73412500Y-102737500D02*
X73400000Y-102750000D01*
X76002500Y-102737500D02*
X76002500Y-106800000D01*
%TO.N,/SC5_P*%
D44*
X31809606Y-49802500D02*
X36402500Y-54395394D01*
X30852500Y-49802500D02*
X31809606Y-49802500D01*
X36252500Y-54652500D02*
X36402500Y-54802500D01*
X36402500Y-54395394D02*
X36402500Y-54802500D01*
X36252500Y-52427500D02*
X36252500Y-54652500D01*
%TO.N,/SD0_P*%
X18255441Y-37750000D02*
X18255441Y-38100000D01*
X18955441Y-37050000D02*
X18255441Y-37750000D01*
X25127500Y-46552500D02*
X23852500Y-46552500D01*
X23152500Y-38752500D02*
X21450000Y-37050000D01*
X23852500Y-46552500D02*
X23152500Y-45852500D01*
X23152500Y-45852500D02*
X23152500Y-38752500D01*
X18174559Y-40477500D02*
X18174559Y-38180882D01*
X18174559Y-38180882D02*
X18255441Y-38100000D01*
X21450000Y-37050000D02*
X18955441Y-37050000D01*
%TO.N,+9V*%
D48*
X79400000Y-99300000D02*
X80400000Y-98300000D01*
D47*
X75940000Y-100850000D02*
X76002500Y-100912500D01*
D48*
X79400000Y-99300000D02*
X78400000Y-98300000D01*
D47*
X73400000Y-100850000D02*
X75940000Y-100850000D01*
X79400000Y-101597500D02*
X79402500Y-101600000D01*
D46*
X78715000Y-100912500D02*
X76002500Y-100912500D01*
D47*
X79400000Y-99400000D02*
X79400000Y-99300000D01*
D48*
X79400000Y-99400000D02*
X79400000Y-101597500D01*
D46*
X79402500Y-101600000D02*
X78715000Y-100912500D01*
%TO.N,Net-(D3-K)*%
X64940000Y-106245000D02*
X64940000Y-101825000D01*
X67350000Y-106650000D02*
X67350000Y-107575000D01*
X64940000Y-101825000D02*
X64915000Y-101800000D01*
X66945000Y-106245000D02*
X67350000Y-106650000D01*
X64940000Y-106245000D02*
X66945000Y-106245000D01*
D47*
X70890000Y-101800000D02*
X64915000Y-101800000D01*
%TO.N,Net-(MUX2-~{RESET})*%
D44*
X24902500Y-42127500D02*
X23902500Y-43127500D01*
X24171544Y-45902500D02*
X25127500Y-45902500D01*
X23902500Y-45633456D02*
X24171544Y-45902500D01*
X23902500Y-43127500D02*
X23902500Y-45633456D01*
%TO.N,/PIEZO31-_2*%
D47*
X87010000Y-33770000D02*
X87000000Y-33780000D01*
%TO.N,/PIEZO22-_2*%
D45*
X71690000Y-33770000D02*
X71700000Y-33780000D01*
%TO.N,/PIEZO22+_2*%
X71690000Y-31230000D02*
X71700000Y-31240000D01*
%TO.N,/PIEZO21+_2*%
X71690000Y-28690000D02*
X71700000Y-28700000D01*
%TO.N,/PIEZO21-_2*%
X71690000Y-26150000D02*
X71700000Y-26160000D01*
%TO.N,/PIEZO12-_2*%
X71690000Y-23610000D02*
X71700000Y-23620000D01*
%TO.N,/PIEZO12+_2*%
X71690000Y-21070000D02*
X71700000Y-21080000D01*
%TO.N,/PIEZO11+_2*%
X71690000Y-18530000D02*
X71700000Y-18540000D01*
%TO.N,/PIEZO11-_2*%
X71690000Y-15990000D02*
X71700000Y-16000000D01*
%TO.N,/SC0_P*%
D44*
X21400000Y-38100000D02*
X19505441Y-38100000D01*
X19674559Y-40477500D02*
X19674559Y-38269118D01*
X22452500Y-39152500D02*
X21400000Y-38100000D01*
X23602500Y-47202500D02*
X22452500Y-46052500D01*
X19674559Y-38269118D02*
X19505441Y-38100000D01*
X22452500Y-46052500D02*
X22452500Y-39152500D01*
X25127500Y-47202500D02*
X23602500Y-47202500D01*
%TO.N,/SD4_P*%
X30852500Y-51752500D02*
X30852500Y-57933871D01*
X30852500Y-57933871D02*
X36071129Y-63152500D01*
X37752500Y-59727500D02*
X37752500Y-62002500D01*
X36852500Y-63152500D02*
X37652500Y-62352500D01*
X36071129Y-63152500D02*
X36852500Y-63152500D01*
X37652500Y-62352500D02*
X37652500Y-62102500D01*
X37752500Y-62002500D02*
X37652500Y-62102500D01*
%TO.N,/SC4_P*%
X32052500Y-57752500D02*
X36402500Y-62102500D01*
X31649878Y-51102500D02*
X32052500Y-51505122D01*
X32052500Y-51505122D02*
X32052500Y-57752500D01*
X36252500Y-61952500D02*
X36402500Y-62102500D01*
X36252500Y-59727500D02*
X36252500Y-61952500D01*
X30852500Y-51102500D02*
X31649878Y-51102500D01*
%TO.N,/SD5_P*%
X35952500Y-55852500D02*
X37152500Y-55852500D01*
X32752500Y-52652500D02*
X35952500Y-55852500D01*
X31752500Y-50452500D02*
X32752500Y-51452500D01*
X32752500Y-51452500D02*
X32752500Y-52652500D01*
X30852500Y-50452500D02*
X31752500Y-50452500D01*
X37752500Y-54702500D02*
X37652500Y-54802500D01*
X37152500Y-55852500D02*
X37652500Y-55352500D01*
X37652500Y-55352500D02*
X37652500Y-54802500D01*
X37752500Y-52427500D02*
X37752500Y-54702500D01*
%TO.N,/SCL_3.3V*%
X31747500Y-45902500D02*
X30852500Y-45902500D01*
X32950000Y-43850000D02*
X32950000Y-44700000D01*
X55500000Y-57900000D02*
X55500000Y-57100000D01*
X32950000Y-44700000D02*
X31747500Y-45902500D01*
X55350000Y-58050000D02*
X55500000Y-57900000D01*
X35950000Y-73800000D02*
X35950000Y-73550000D01*
X54100000Y-58050000D02*
X55350000Y-58050000D01*
X33463437Y-75333750D02*
X34416250Y-75333750D01*
X34416250Y-75333750D02*
X35950000Y-73800000D01*
%TO.N,/SDA_3.3V*%
X55500000Y-53650000D02*
X55150000Y-53300000D01*
X33463437Y-74683750D02*
X34216250Y-74683750D01*
X32150000Y-44692499D02*
X31589999Y-45252500D01*
X35050000Y-73850000D02*
X35050000Y-73550000D01*
X34216250Y-74683750D02*
X35050000Y-73850000D01*
X31589999Y-45252500D02*
X30852500Y-45252500D01*
X32150000Y-43850000D02*
X32150000Y-44692499D01*
X55500000Y-54290000D02*
X55500000Y-53650000D01*
X55150000Y-53300000D02*
X54100000Y-53300000D01*
%TO.N,/SD0_Q*%
X22513437Y-66102500D02*
X17913437Y-66102500D01*
X17913437Y-66102500D02*
X17088437Y-66927500D01*
X17113437Y-67305375D02*
X17088437Y-67280375D01*
X25463437Y-69052500D02*
X22513437Y-66102500D01*
X17088437Y-66927500D02*
X17088437Y-67280375D01*
X17113437Y-69627500D02*
X17113437Y-67305375D01*
X27738437Y-75983750D02*
X26194687Y-75983750D01*
X26194687Y-75983750D02*
X25463437Y-75252500D01*
X25463437Y-75252500D02*
X25463437Y-69052500D01*
%TO.N,Net-(D1-A)*%
D48*
X79400000Y-107700000D02*
X79400000Y-105602500D01*
D49*
X84002500Y-105600000D02*
X79402500Y-105600000D01*
D47*
X78500000Y-108800000D02*
X78500000Y-108600000D01*
X79400000Y-105602500D02*
X79402500Y-105600000D01*
D48*
X80300000Y-108600000D02*
X79400000Y-107700000D01*
X78500000Y-108600000D02*
X79400000Y-107700000D01*
D47*
X80300000Y-108800000D02*
X80300000Y-108600000D01*
%TO.N,/SD3_Q*%
D44*
X17088437Y-88827500D02*
X17088437Y-89180375D01*
X17113437Y-91505375D02*
X17113437Y-89205375D01*
X20363437Y-88002500D02*
X17913437Y-88002500D01*
X25513437Y-82852500D02*
X20363437Y-88002500D01*
X26482187Y-79883750D02*
X25513437Y-80852500D01*
X27738437Y-79883750D02*
X26482187Y-79883750D01*
X17113437Y-89205375D02*
X17088437Y-89180375D01*
X17913437Y-88002500D02*
X17088437Y-88827500D01*
X25513437Y-80852500D02*
X25513437Y-82852500D01*
%TO.N,/SC3_Q*%
X26363437Y-83402500D02*
X20838437Y-88927500D01*
X27738437Y-80533750D02*
X26941059Y-80533750D01*
X26941059Y-80533750D02*
X26363437Y-81111372D01*
X20838437Y-88927500D02*
X20838437Y-89180375D01*
X20838437Y-91505375D02*
X20838437Y-89180375D01*
X26363437Y-81111372D02*
X26363437Y-83402500D01*
%TO.N,/SC5_Q*%
X40338437Y-83547500D02*
X40338437Y-83897500D01*
X33463437Y-79233750D02*
X36024687Y-79233750D01*
X36024687Y-79233750D02*
X40338437Y-83547500D01*
X40363437Y-83872500D02*
X40338437Y-83897500D01*
X40363437Y-81549625D02*
X40363437Y-83872500D01*
%TO.N,Net-(MUX1-~{RESET})*%
X26600937Y-75090000D02*
X26844687Y-75333750D01*
X27463437Y-71577500D02*
X26600937Y-72440000D01*
X26600937Y-72440000D02*
X26600937Y-75090000D01*
X26844687Y-75333750D02*
X27738437Y-75333750D01*
%TO.N,Net-(U3-OE)*%
X54250000Y-56525000D02*
X54675000Y-56100000D01*
X55700000Y-56100000D02*
X56000000Y-56400000D01*
X54675000Y-56100000D02*
X55700000Y-56100000D01*
X56000000Y-56400000D02*
X56000000Y-57100000D01*
%TO.N,/SD5_Q*%
X44063437Y-83872500D02*
X44088437Y-83897500D01*
X33463437Y-79883750D02*
X34594687Y-79883750D01*
X34594687Y-79883750D02*
X35463437Y-80752500D01*
X44088437Y-84177500D02*
X44088437Y-83897500D01*
X43213437Y-85052500D02*
X44088437Y-84177500D01*
X35463437Y-81802500D02*
X38713437Y-85052500D01*
X44063437Y-81549625D02*
X44063437Y-83872500D01*
X38713437Y-85052500D02*
X43213437Y-85052500D01*
X35463437Y-80752500D02*
X35463437Y-81802500D01*
%TO.N,/CS*%
X28850000Y-18500000D02*
X31400000Y-15950000D01*
X31400000Y-15950000D02*
X35610000Y-15950000D01*
%TO.N,/MOSI*%
X28850000Y-21040000D02*
X31400000Y-18490000D01*
X31400000Y-18490000D02*
X35610000Y-18490000D01*
%TO.N,/MISO*%
X28850000Y-26120000D02*
X33940000Y-21030000D01*
X33940000Y-21030000D02*
X35610000Y-21030000D01*
%TD*%
%TA.AperFunction,Conductor*%
%TO.N,Net-(D1-A)*%
G36*
X81695539Y-104419685D02*
G01*
X81741294Y-104472489D01*
X81752500Y-104524000D01*
X81752500Y-105350000D01*
X83000000Y-105350000D01*
X83000000Y-105850000D01*
X81752500Y-105850000D01*
X81752500Y-107397844D01*
X81758901Y-107457372D01*
X81758903Y-107457379D01*
X81809145Y-107592086D01*
X81809149Y-107592093D01*
X81895309Y-107707187D01*
X81895312Y-107707190D01*
X82010406Y-107793350D01*
X82010413Y-107793354D01*
X82145120Y-107843596D01*
X82145127Y-107843598D01*
X82204655Y-107849999D01*
X82204672Y-107850000D01*
X82876000Y-107850000D01*
X82943039Y-107869685D01*
X82988794Y-107922489D01*
X83000000Y-107974000D01*
X83000000Y-112991874D01*
X82998939Y-113008060D01*
X82985093Y-113113224D01*
X82976715Y-113144491D01*
X82939259Y-113234918D01*
X82923074Y-113262951D01*
X82863491Y-113340601D01*
X82840601Y-113363491D01*
X82762951Y-113423074D01*
X82734918Y-113439259D01*
X82644491Y-113476715D01*
X82613224Y-113485093D01*
X82519398Y-113497446D01*
X82508058Y-113498939D01*
X82491874Y-113500000D01*
X78208126Y-113500000D01*
X78191941Y-113498939D01*
X78178917Y-113497224D01*
X78086775Y-113485093D01*
X78055508Y-113476715D01*
X77965081Y-113439259D01*
X77937048Y-113423074D01*
X77859398Y-113363491D01*
X77836508Y-113340601D01*
X77776925Y-113262951D01*
X77760740Y-113234918D01*
X77723284Y-113144491D01*
X77714906Y-113113223D01*
X77701061Y-113008059D01*
X77700000Y-112991874D01*
X77700000Y-106649986D01*
X78002501Y-106649986D01*
X78012994Y-106752697D01*
X78068141Y-106919119D01*
X78068143Y-106919124D01*
X78160184Y-107068345D01*
X78284154Y-107192315D01*
X78433375Y-107284356D01*
X78433380Y-107284358D01*
X78599802Y-107339505D01*
X78599809Y-107339506D01*
X78702519Y-107349999D01*
X79152499Y-107349999D01*
X79652500Y-107349999D01*
X80102472Y-107349999D01*
X80102486Y-107349998D01*
X80205197Y-107339505D01*
X80371619Y-107284358D01*
X80371624Y-107284356D01*
X80520845Y-107192315D01*
X80644815Y-107068345D01*
X80736856Y-106919124D01*
X80736858Y-106919119D01*
X80792005Y-106752697D01*
X80792006Y-106752690D01*
X80802499Y-106649986D01*
X80802500Y-106649973D01*
X80802500Y-105850000D01*
X79652500Y-105850000D01*
X79652500Y-107349999D01*
X79152499Y-107349999D01*
X79152500Y-107349998D01*
X79152500Y-105850000D01*
X78002501Y-105850000D01*
X78002501Y-106649986D01*
X77700000Y-106649986D01*
X77700000Y-104908125D01*
X77701061Y-104891940D01*
X77714906Y-104786776D01*
X77723284Y-104755508D01*
X77760740Y-104665081D01*
X77776921Y-104637053D01*
X77780127Y-104632875D01*
X77836552Y-104591676D01*
X77906298Y-104587521D01*
X77967219Y-104621734D01*
X77999971Y-104683451D01*
X78002500Y-104708365D01*
X78002500Y-105350000D01*
X80802499Y-105350000D01*
X80802499Y-104550028D01*
X80802498Y-104550015D01*
X80801128Y-104536603D01*
X80813897Y-104467910D01*
X80861777Y-104417025D01*
X80924486Y-104400000D01*
X81628500Y-104400000D01*
X81695539Y-104419685D01*
G37*
%TD.AperFunction*%
%TD*%
%TA.AperFunction,Conductor*%
%TO.N,+5V*%
G36*
X61608403Y-100100264D02*
G01*
X61616533Y-100100797D01*
X61624574Y-100101589D01*
X61717673Y-100113846D01*
X61733565Y-100117007D01*
X61749145Y-100121181D01*
X61764495Y-100126392D01*
X61805714Y-100143465D01*
X61839069Y-100157282D01*
X61891709Y-100198649D01*
X61893494Y-100201090D01*
X61917176Y-100266824D01*
X61901561Y-100334926D01*
X61851620Y-100383767D01*
X61850119Y-100384564D01*
X61848390Y-100385483D01*
X61790174Y-100400000D01*
X61165000Y-100400000D01*
X61165000Y-103199999D01*
X61891336Y-103199999D01*
X61897362Y-103201768D01*
X61926267Y-103205021D01*
X61938236Y-103208535D01*
X61953238Y-103218175D01*
X61958375Y-103219684D01*
X61961879Y-103223728D01*
X61997015Y-103246307D01*
X62026042Y-103309862D01*
X62017582Y-103375645D01*
X62013734Y-103384781D01*
X61997832Y-103412137D01*
X61982363Y-103432296D01*
X61982354Y-103432308D01*
X61980921Y-103434175D01*
X61970236Y-103446356D01*
X61958850Y-103457742D01*
X61946655Y-103468437D01*
X61881898Y-103518126D01*
X61868412Y-103527137D01*
X61854457Y-103535194D01*
X61839909Y-103542368D01*
X61764500Y-103573603D01*
X61749147Y-103578815D01*
X61733576Y-103582988D01*
X61717663Y-103586154D01*
X61631898Y-103597446D01*
X61630560Y-103597622D01*
X61624563Y-103598411D01*
X61616515Y-103599204D01*
X61615984Y-103599238D01*
X61608419Y-103599734D01*
X61600319Y-103600000D01*
X59412500Y-103600000D01*
X59412500Y-104983170D01*
X59407475Y-105018114D01*
X59403070Y-105033112D01*
X59365327Y-105091855D01*
X59363958Y-105093042D01*
X59309097Y-105120518D01*
X59301539Y-105122163D01*
X59275168Y-105125000D01*
X58890000Y-105125000D01*
X58890000Y-111924999D01*
X58890623Y-111925622D01*
X58920602Y-111934425D01*
X58979381Y-111972199D01*
X58979385Y-111972204D01*
X58980572Y-111973574D01*
X59008018Y-112028401D01*
X59009663Y-112035959D01*
X59012500Y-112062330D01*
X59012500Y-112233170D01*
X59007475Y-112268114D01*
X59003070Y-112283112D01*
X58965327Y-112341855D01*
X58963958Y-112343042D01*
X58909097Y-112370518D01*
X58901539Y-112372163D01*
X58875168Y-112375000D01*
X58865000Y-112375000D01*
X58865000Y-113458170D01*
X58859975Y-113493114D01*
X58855570Y-113508112D01*
X58817827Y-113566855D01*
X58816458Y-113568042D01*
X58761597Y-113595518D01*
X58754039Y-113597163D01*
X58727668Y-113600000D01*
X58615000Y-113600000D01*
X58615000Y-113708170D01*
X58609975Y-113743114D01*
X58605570Y-113758112D01*
X58567827Y-113816855D01*
X58566458Y-113818042D01*
X58511597Y-113845518D01*
X58504039Y-113847163D01*
X58477668Y-113850000D01*
X57615001Y-113850000D01*
X57615001Y-114124995D01*
X57625493Y-114227694D01*
X57625493Y-114227695D01*
X57625494Y-114227697D01*
X57631059Y-114244491D01*
X57680638Y-114394113D01*
X57680639Y-114394114D01*
X57680644Y-114394126D01*
X57681633Y-114395729D01*
X57682302Y-114397270D01*
X57682590Y-114397815D01*
X57682548Y-114397836D01*
X57695699Y-114428104D01*
X57697355Y-114434154D01*
X57699362Y-114441490D01*
X57698065Y-114511348D01*
X57659304Y-114569334D01*
X57658791Y-114569763D01*
X57604490Y-114596043D01*
X57601839Y-114596594D01*
X57597946Y-114597403D01*
X57572704Y-114600000D01*
X50624679Y-114600000D01*
X50616573Y-114599734D01*
X50608496Y-114599204D01*
X50600431Y-114598410D01*
X50591421Y-114597224D01*
X50591418Y-114597224D01*
X50507335Y-114586154D01*
X50491422Y-114582988D01*
X50475851Y-114578815D01*
X50460498Y-114573603D01*
X50385089Y-114542368D01*
X50370541Y-114535194D01*
X50356586Y-114527137D01*
X50343100Y-114518126D01*
X50278344Y-114468437D01*
X50266149Y-114457742D01*
X50254756Y-114446349D01*
X50244061Y-114434154D01*
X50194372Y-114369398D01*
X50185361Y-114355912D01*
X50177304Y-114341957D01*
X50170130Y-114327410D01*
X50138894Y-114252000D01*
X50133681Y-114236643D01*
X50131284Y-114227697D01*
X50129507Y-114221065D01*
X50126346Y-114205173D01*
X50114089Y-114112074D01*
X50113296Y-114104030D01*
X50112764Y-114095905D01*
X50112500Y-114087820D01*
X50112500Y-113075007D01*
X57615000Y-113075007D01*
X57615000Y-113075013D01*
X57615000Y-113350000D01*
X58365000Y-113350000D01*
X58365000Y-112375000D01*
X58364999Y-112374999D01*
X58315048Y-112374999D01*
X58315021Y-112375000D01*
X58314983Y-112375003D01*
X58212308Y-112385493D01*
X58212300Y-112385494D01*
X58045887Y-112440638D01*
X58045879Y-112440641D01*
X58045877Y-112440642D01*
X58045875Y-112440643D01*
X57946394Y-112502003D01*
X57896652Y-112532685D01*
X57772685Y-112656652D01*
X57680641Y-112805879D01*
X57680638Y-112805888D01*
X57625494Y-112972299D01*
X57625493Y-112972304D01*
X57615000Y-113075007D01*
X50112500Y-113075007D01*
X50112500Y-111224997D01*
X54940001Y-111224997D01*
X54950494Y-111327699D01*
X55005640Y-111494120D01*
X55005642Y-111494125D01*
X55097683Y-111643346D01*
X55221653Y-111767316D01*
X55370874Y-111859357D01*
X55370879Y-111859359D01*
X55537301Y-111914505D01*
X55640017Y-111924999D01*
X58389999Y-111924999D01*
X58390000Y-111924998D01*
X58390000Y-108775000D01*
X54940001Y-108775000D01*
X54940001Y-111224997D01*
X50112500Y-111224997D01*
X50112500Y-110600000D01*
X49612500Y-110600000D01*
X46687273Y-110600000D01*
X46652334Y-110594976D01*
X46639016Y-110591065D01*
X46580239Y-110553289D01*
X46551218Y-110489740D01*
X46549921Y-110480721D01*
X46552322Y-110433150D01*
X46562101Y-110393830D01*
X46565000Y-110351096D01*
X46565000Y-109900000D01*
X45565000Y-109900000D01*
X45565000Y-111858170D01*
X45563400Y-111863617D01*
X45564510Y-111869188D01*
X45559975Y-111893114D01*
X45555570Y-111908112D01*
X45545929Y-111923116D01*
X45545315Y-111925209D01*
X45543668Y-111926636D01*
X45517827Y-111966855D01*
X45516458Y-111968042D01*
X45461597Y-111995518D01*
X45454039Y-111997163D01*
X45427668Y-112000000D01*
X45206830Y-112000000D01*
X45171889Y-111994975D01*
X45156890Y-111990570D01*
X45144648Y-111982704D01*
X45130501Y-111979366D01*
X45115880Y-111964221D01*
X45098144Y-111952827D01*
X45096957Y-111951458D01*
X45089844Y-111937255D01*
X45081971Y-111929100D01*
X45079467Y-111916532D01*
X45069477Y-111896583D01*
X45067832Y-111889021D01*
X45065000Y-111862668D01*
X45065000Y-109791829D01*
X45070023Y-109756893D01*
X45074427Y-109741895D01*
X45112172Y-109683144D01*
X45113541Y-109681957D01*
X45168420Y-109654477D01*
X45175979Y-109652833D01*
X45202332Y-109650000D01*
X45315000Y-109650000D01*
X45315000Y-109549995D01*
X48615001Y-109549995D01*
X48625493Y-109652694D01*
X48625493Y-109652695D01*
X48625494Y-109652697D01*
X48680641Y-109819119D01*
X48680643Y-109819124D01*
X48772684Y-109968345D01*
X48896654Y-110092315D01*
X49045875Y-110184356D01*
X49045880Y-110184358D01*
X49212299Y-110239504D01*
X49212300Y-110239504D01*
X49212302Y-110239505D01*
X49212309Y-110239506D01*
X49315019Y-110249999D01*
X49764999Y-110249999D01*
X50265000Y-110249999D01*
X50714960Y-110249999D01*
X50714972Y-110249999D01*
X50714986Y-110249998D01*
X50817697Y-110239505D01*
X50984119Y-110184358D01*
X50984124Y-110184356D01*
X51133345Y-110092315D01*
X51257315Y-109968345D01*
X51349356Y-109819124D01*
X51349358Y-109819119D01*
X51404505Y-109652697D01*
X51404506Y-109652690D01*
X51414999Y-109549986D01*
X51415000Y-109549973D01*
X51415000Y-108750000D01*
X50265000Y-108750000D01*
X50265000Y-110249999D01*
X49764999Y-110249999D01*
X49765000Y-110249998D01*
X49765000Y-108750000D01*
X48615001Y-108750000D01*
X48615001Y-109549995D01*
X45315000Y-109549995D01*
X45315000Y-109541829D01*
X45320023Y-109506893D01*
X45324427Y-109491895D01*
X45362172Y-109433144D01*
X45363541Y-109431957D01*
X45418420Y-109404477D01*
X45425979Y-109402833D01*
X45452332Y-109400000D01*
X46565000Y-109400000D01*
X46565000Y-108948906D01*
X46565000Y-108948903D01*
X46562101Y-108906169D01*
X46553410Y-108871224D01*
X46549854Y-108836120D01*
X46550434Y-108822250D01*
X46572903Y-108756095D01*
X46627573Y-108712587D01*
X46627587Y-108712581D01*
X46636028Y-108709146D01*
X46682767Y-108700000D01*
X48312500Y-108700000D01*
X48312500Y-107812178D01*
X48312764Y-107804094D01*
X48313297Y-107795965D01*
X48314090Y-107787920D01*
X48326346Y-107694822D01*
X48329506Y-107678936D01*
X48333683Y-107663348D01*
X48338890Y-107648007D01*
X48370133Y-107572581D01*
X48377277Y-107558088D01*
X48378128Y-107556612D01*
X48412428Y-107518416D01*
X48416173Y-107515682D01*
X48481926Y-107492057D01*
X48550015Y-107507731D01*
X48598811Y-107557711D01*
X48600531Y-107560952D01*
X48615000Y-107619080D01*
X48615000Y-108250000D01*
X51414999Y-108250000D01*
X51414999Y-107450023D01*
X51414908Y-107447658D01*
X51414999Y-107447654D01*
X51414999Y-107447648D01*
X51415168Y-107447648D01*
X51415319Y-107447642D01*
X51416836Y-107419344D01*
X51419576Y-107404604D01*
X51451181Y-107342291D01*
X51509000Y-107307597D01*
X51521033Y-107304330D01*
X51553519Y-107300000D01*
X51712500Y-107300000D01*
X51712500Y-105825005D01*
X54940000Y-105825005D01*
X54940000Y-105825011D01*
X54940000Y-108275000D01*
X58390000Y-108275000D01*
X58390000Y-105125000D01*
X55640035Y-105125000D01*
X55640026Y-105125000D01*
X55640010Y-105125001D01*
X55640000Y-105125001D01*
X55640000Y-105125002D01*
X55537298Y-105135494D01*
X55370886Y-105190637D01*
X55370878Y-105190640D01*
X55370876Y-105190641D01*
X55370874Y-105190642D01*
X55271393Y-105252002D01*
X55221651Y-105282684D01*
X55097684Y-105406651D01*
X55005640Y-105555878D01*
X55005633Y-105555896D01*
X54950493Y-105722302D01*
X54940000Y-105825005D01*
X51712500Y-105825005D01*
X51712500Y-102499995D01*
X59165001Y-102499995D01*
X59175493Y-102602694D01*
X59175493Y-102602695D01*
X59175494Y-102602697D01*
X59230641Y-102769119D01*
X59230643Y-102769124D01*
X59322684Y-102918345D01*
X59446654Y-103042315D01*
X59595875Y-103134356D01*
X59595880Y-103134358D01*
X59762299Y-103189504D01*
X59762300Y-103189504D01*
X59762302Y-103189505D01*
X59762309Y-103189506D01*
X59865019Y-103199999D01*
X60664999Y-103199999D01*
X60665000Y-103199998D01*
X60665000Y-102050000D01*
X59165001Y-102050000D01*
X59165001Y-102499995D01*
X51712500Y-102499995D01*
X51712500Y-101100007D01*
X59165000Y-101100007D01*
X59165000Y-101100013D01*
X59165000Y-101550000D01*
X60665000Y-101550000D01*
X60665000Y-100400000D01*
X59865037Y-100400000D01*
X59865028Y-100400000D01*
X59865012Y-100400001D01*
X59865002Y-100400001D01*
X59865002Y-100400002D01*
X59762304Y-100410493D01*
X59762302Y-100410494D01*
X59595887Y-100465638D01*
X59595879Y-100465641D01*
X59595877Y-100465642D01*
X59595875Y-100465643D01*
X59548546Y-100494836D01*
X59446652Y-100557685D01*
X59322685Y-100681652D01*
X59230641Y-100830879D01*
X59230638Y-100830888D01*
X59175494Y-100997299D01*
X59175493Y-100997304D01*
X59165000Y-101100007D01*
X51712500Y-101100007D01*
X51712500Y-100612178D01*
X51712764Y-100604094D01*
X51713297Y-100595965D01*
X51714090Y-100587920D01*
X51726346Y-100494822D01*
X51729505Y-100478939D01*
X51733684Y-100463343D01*
X51738889Y-100448011D01*
X51770138Y-100372565D01*
X51777296Y-100358052D01*
X51785366Y-100344075D01*
X51794362Y-100330613D01*
X51844072Y-100265830D01*
X51854751Y-100253653D01*
X51866153Y-100242251D01*
X51878330Y-100231572D01*
X51943113Y-100181862D01*
X51956575Y-100172866D01*
X51970552Y-100164796D01*
X51985066Y-100157638D01*
X52060512Y-100126387D01*
X52075852Y-100121181D01*
X52091431Y-100117007D01*
X52107321Y-100113846D01*
X52200427Y-100101589D01*
X52208466Y-100100797D01*
X52216595Y-100100264D01*
X52224679Y-100100000D01*
X61600321Y-100100000D01*
X61608403Y-100100264D01*
G37*
%TD.AperFunction*%
%TD*%
%TA.AperFunction,Conductor*%
%TO.N,+9V*%
G36*
X82508059Y-97101061D02*
G01*
X82613223Y-97114906D01*
X82644491Y-97123284D01*
X82734918Y-97160740D01*
X82762952Y-97176925D01*
X82840602Y-97236509D01*
X82863491Y-97259398D01*
X82923074Y-97337048D01*
X82939259Y-97365081D01*
X82976715Y-97455508D01*
X82985093Y-97486775D01*
X82998939Y-97591939D01*
X83000000Y-97608125D01*
X83000000Y-102291874D01*
X82998939Y-102308060D01*
X82985093Y-102413224D01*
X82976715Y-102444491D01*
X82939259Y-102534918D01*
X82923074Y-102562951D01*
X82863491Y-102640601D01*
X82840601Y-102663491D01*
X82762951Y-102723074D01*
X82734918Y-102739259D01*
X82644491Y-102776715D01*
X82613224Y-102785093D01*
X82519398Y-102797446D01*
X82508058Y-102798939D01*
X82491874Y-102800000D01*
X80924487Y-102800000D01*
X80857448Y-102780315D01*
X80811693Y-102727511D01*
X80801129Y-102663395D01*
X80802499Y-102649981D01*
X80802500Y-102649973D01*
X80802500Y-101850000D01*
X78002501Y-101850000D01*
X78002501Y-102491635D01*
X77982816Y-102558674D01*
X77930012Y-102604429D01*
X77860854Y-102614373D01*
X77797298Y-102585348D01*
X77780128Y-102567125D01*
X77776928Y-102562955D01*
X77760740Y-102534918D01*
X77723284Y-102444491D01*
X77714906Y-102413223D01*
X77701061Y-102308059D01*
X77700000Y-102291874D01*
X77700000Y-100900000D01*
X77326499Y-100900000D01*
X77319064Y-100897817D01*
X77311418Y-100899080D01*
X77286006Y-100888110D01*
X77259460Y-100880315D01*
X77254386Y-100874459D01*
X77247271Y-100871388D01*
X77231824Y-100848422D01*
X77213705Y-100827511D01*
X77211618Y-100818378D01*
X77208277Y-100813411D01*
X77203676Y-100783623D01*
X77202526Y-100778589D01*
X77197845Y-100554470D01*
X77197390Y-100550013D01*
X78002500Y-100550013D01*
X78002500Y-101350000D01*
X79152500Y-101350000D01*
X79652500Y-101350000D01*
X80802499Y-101350000D01*
X80802499Y-100550028D01*
X80802498Y-100550013D01*
X80792005Y-100447302D01*
X80736858Y-100280880D01*
X80736856Y-100280875D01*
X80644815Y-100131654D01*
X80520845Y-100007684D01*
X80371624Y-99915643D01*
X80371619Y-99915641D01*
X80205197Y-99860494D01*
X80205190Y-99860493D01*
X80102486Y-99850000D01*
X79652500Y-99850000D01*
X79652500Y-101350000D01*
X79152500Y-101350000D01*
X79152500Y-99850000D01*
X78702528Y-99850000D01*
X78702512Y-99850001D01*
X78599802Y-99860494D01*
X78433380Y-99915641D01*
X78433375Y-99915643D01*
X78284154Y-100007684D01*
X78160184Y-100131654D01*
X78068143Y-100280875D01*
X78068141Y-100280880D01*
X78012994Y-100447302D01*
X78012993Y-100447309D01*
X78002500Y-100550013D01*
X77197390Y-100550013D01*
X77192006Y-100497303D01*
X77136858Y-100330880D01*
X77136856Y-100330875D01*
X77044815Y-100181654D01*
X76920845Y-100057684D01*
X76771624Y-99965643D01*
X76771619Y-99965641D01*
X76605197Y-99910494D01*
X76605190Y-99910493D01*
X76502486Y-99900000D01*
X76252500Y-99900000D01*
X76252500Y-100788500D01*
X76232815Y-100855539D01*
X76181504Y-100900000D01*
X75833930Y-100900000D01*
X75809461Y-100892815D01*
X75763706Y-100840011D01*
X75752500Y-100788500D01*
X75752500Y-99900000D01*
X75502529Y-99900000D01*
X75502512Y-99900001D01*
X75399802Y-99910494D01*
X75233380Y-99965641D01*
X75233375Y-99965643D01*
X75084154Y-100057684D01*
X74960184Y-100181654D01*
X74868143Y-100330875D01*
X74868141Y-100330880D01*
X74812994Y-100497302D01*
X74812993Y-100497309D01*
X74802500Y-100600013D01*
X74802500Y-100776000D01*
X74782815Y-100843039D01*
X74730011Y-100888794D01*
X74678500Y-100900000D01*
X74635000Y-100900000D01*
X73600000Y-100900000D01*
X73470590Y-100882963D01*
X73400000Y-100853723D01*
X73400000Y-100850000D01*
X73391010Y-100850000D01*
X73350000Y-100833013D01*
X73246447Y-100753553D01*
X73166987Y-100650000D01*
X73150000Y-100608989D01*
X73150000Y-100600000D01*
X73650000Y-100600000D01*
X74505000Y-100600000D01*
X74505000Y-100591150D01*
X74504999Y-100591136D01*
X74490231Y-100478971D01*
X74490230Y-100478967D01*
X74432421Y-100339401D01*
X74340452Y-100219547D01*
X74220598Y-100127578D01*
X74081032Y-100069769D01*
X74081028Y-100069768D01*
X73968863Y-100055000D01*
X73650000Y-100055000D01*
X73650000Y-100600000D01*
X73150000Y-100600000D01*
X73150000Y-100055000D01*
X73136319Y-100041319D01*
X73102834Y-99979996D01*
X73100000Y-99953638D01*
X73100000Y-97608125D01*
X73101061Y-97591940D01*
X73114906Y-97486776D01*
X73123284Y-97455508D01*
X73160740Y-97365081D01*
X73176923Y-97337050D01*
X73236513Y-97259392D01*
X73259392Y-97236513D01*
X73337050Y-97176923D01*
X73365079Y-97160740D01*
X73455509Y-97123283D01*
X73486775Y-97114906D01*
X73591941Y-97101061D01*
X73608126Y-97100000D01*
X82491874Y-97100000D01*
X82508059Y-97101061D01*
G37*
%TD.AperFunction*%
%TD*%
%TA.AperFunction,Conductor*%
%TO.N,Net-(D3-K)*%
G36*
X71008059Y-100001061D02*
G01*
X71113223Y-100014906D01*
X71144491Y-100023284D01*
X71234918Y-100060740D01*
X71262952Y-100076925D01*
X71340602Y-100136509D01*
X71363491Y-100159398D01*
X71423074Y-100237048D01*
X71439259Y-100265081D01*
X71476715Y-100355508D01*
X71485093Y-100386775D01*
X71498939Y-100491939D01*
X71500000Y-100508125D01*
X71500000Y-100881000D01*
X71480315Y-100948039D01*
X71427511Y-100993794D01*
X71376000Y-101005000D01*
X71140000Y-101005000D01*
X71140000Y-102595000D01*
X71376000Y-102595000D01*
X71443039Y-102614685D01*
X71488794Y-102667489D01*
X71500000Y-102719000D01*
X71500000Y-103091874D01*
X71498939Y-103108060D01*
X71485093Y-103213224D01*
X71476715Y-103244491D01*
X71439259Y-103334918D01*
X71423074Y-103362951D01*
X71363491Y-103440601D01*
X71340601Y-103463491D01*
X71262951Y-103523074D01*
X71234918Y-103539259D01*
X71144491Y-103576715D01*
X71113224Y-103585093D01*
X71019398Y-103597446D01*
X71008058Y-103598939D01*
X70991874Y-103600000D01*
X68100000Y-103600000D01*
X68100000Y-106191874D01*
X68098939Y-106208060D01*
X68085093Y-106313224D01*
X68076715Y-106344491D01*
X68039259Y-106434918D01*
X68023074Y-106462951D01*
X67963491Y-106540601D01*
X67940601Y-106563491D01*
X67862951Y-106623074D01*
X67834918Y-106639259D01*
X67744491Y-106676715D01*
X67713224Y-106685093D01*
X67619398Y-106697446D01*
X67608058Y-106698939D01*
X67591874Y-106700000D01*
X66664000Y-106700000D01*
X66596961Y-106680315D01*
X66551206Y-106627511D01*
X66540000Y-106576000D01*
X66540000Y-106495000D01*
X65501517Y-106495000D01*
X65466987Y-106450000D01*
X65417037Y-106329410D01*
X65400000Y-106200000D01*
X65400000Y-105995000D01*
X66539999Y-105995000D01*
X66539999Y-105845028D01*
X66539998Y-105845013D01*
X66529505Y-105742302D01*
X66474358Y-105575880D01*
X66474356Y-105575875D01*
X66382315Y-105426654D01*
X66258345Y-105302684D01*
X66109124Y-105210643D01*
X66109119Y-105210641D01*
X65942697Y-105155494D01*
X65942690Y-105155493D01*
X65839986Y-105145000D01*
X65524000Y-105145000D01*
X65456961Y-105125315D01*
X65411206Y-105072511D01*
X65400000Y-105021000D01*
X65400000Y-103323999D01*
X65419685Y-103256960D01*
X65472489Y-103211205D01*
X65524000Y-103199999D01*
X65964972Y-103199999D01*
X65964986Y-103199998D01*
X66067697Y-103189505D01*
X66234119Y-103134358D01*
X66234124Y-103134356D01*
X66383345Y-103042315D01*
X66507315Y-102918345D01*
X66599356Y-102769124D01*
X66599358Y-102769119D01*
X66654505Y-102602697D01*
X66654506Y-102602690D01*
X66664999Y-102499986D01*
X66665000Y-102499973D01*
X66665000Y-102058863D01*
X69785000Y-102058863D01*
X69799768Y-102171028D01*
X69799769Y-102171032D01*
X69857578Y-102310598D01*
X69949547Y-102430452D01*
X70069401Y-102522421D01*
X70208967Y-102580230D01*
X70208971Y-102580231D01*
X70321136Y-102594999D01*
X70321151Y-102595000D01*
X70640000Y-102595000D01*
X70640000Y-102050000D01*
X69785000Y-102050000D01*
X69785000Y-102058863D01*
X66665000Y-102058863D01*
X66665000Y-102050000D01*
X65400000Y-102050000D01*
X65400000Y-101550000D01*
X66664999Y-101550000D01*
X66664999Y-101541136D01*
X69785000Y-101541136D01*
X69785000Y-101550000D01*
X70640000Y-101550000D01*
X70640000Y-101005000D01*
X70321136Y-101005000D01*
X70208971Y-101019768D01*
X70208967Y-101019769D01*
X70069401Y-101077578D01*
X69949547Y-101169547D01*
X69857578Y-101289401D01*
X69799769Y-101428967D01*
X69799768Y-101428971D01*
X69785000Y-101541136D01*
X66664999Y-101541136D01*
X66664999Y-101100028D01*
X66664998Y-101100013D01*
X66654505Y-100997302D01*
X66599358Y-100830880D01*
X66599356Y-100830875D01*
X66507315Y-100681654D01*
X66383345Y-100557684D01*
X66234124Y-100465643D01*
X66234119Y-100465641D01*
X66067697Y-100410494D01*
X66067682Y-100410491D01*
X66061061Y-100409815D01*
X65996370Y-100383417D01*
X65956221Y-100326235D01*
X65953360Y-100256424D01*
X65963183Y-100230164D01*
X65977026Y-100202995D01*
X65999827Y-100171611D01*
X66071611Y-100099827D01*
X66102993Y-100077027D01*
X66193445Y-100030939D01*
X66230338Y-100018952D01*
X66340359Y-100001526D01*
X66359757Y-100000000D01*
X70991874Y-100000000D01*
X71008059Y-100001061D01*
G37*
%TD.AperFunction*%
%TD*%
%TA.AperFunction,Conductor*%
%TO.N,+3.3V*%
G36*
X50420559Y-98401061D02*
G01*
X50525723Y-98414906D01*
X50556991Y-98423284D01*
X50647418Y-98460740D01*
X50675452Y-98476925D01*
X50753102Y-98536509D01*
X50775991Y-98559398D01*
X50835574Y-98637048D01*
X50851759Y-98665081D01*
X50889215Y-98755508D01*
X50897593Y-98786775D01*
X50911439Y-98891939D01*
X50912500Y-98908125D01*
X50912500Y-102632865D01*
X50892815Y-102699904D01*
X50840011Y-102745659D01*
X50775898Y-102756223D01*
X50714988Y-102750000D01*
X50265000Y-102750000D01*
X50265000Y-104376000D01*
X50245315Y-104443039D01*
X50192511Y-104488794D01*
X50141000Y-104500000D01*
X50015000Y-104500000D01*
X50015000Y-104626000D01*
X49995315Y-104693039D01*
X49942511Y-104738794D01*
X49891000Y-104750000D01*
X48615001Y-104750000D01*
X48615001Y-105391635D01*
X48595316Y-105458674D01*
X48542512Y-105504429D01*
X48473354Y-105514373D01*
X48409798Y-105485348D01*
X48392628Y-105467125D01*
X48389428Y-105462955D01*
X48373240Y-105434918D01*
X48335784Y-105344491D01*
X48327406Y-105313223D01*
X48313561Y-105208059D01*
X48312500Y-105191874D01*
X48312500Y-104300000D01*
X47812500Y-104300000D01*
X45490827Y-104300000D01*
X45423788Y-104280315D01*
X45378033Y-104227511D01*
X45368089Y-104158353D01*
X45371611Y-104141888D01*
X45404391Y-104027325D01*
X45414999Y-103908000D01*
X45415000Y-103907998D01*
X45415000Y-103600000D01*
X40615000Y-103600000D01*
X40615000Y-103908000D01*
X40625608Y-104027325D01*
X40658389Y-104141888D01*
X40657906Y-104211756D01*
X40619726Y-104270272D01*
X40555972Y-104298857D01*
X40539173Y-104300000D01*
X39920626Y-104300000D01*
X39904441Y-104298939D01*
X39891417Y-104297224D01*
X39799275Y-104285093D01*
X39768008Y-104276715D01*
X39677581Y-104239259D01*
X39649548Y-104223074D01*
X39571898Y-104163491D01*
X39549008Y-104140601D01*
X39489425Y-104062951D01*
X39473240Y-104034918D01*
X39435784Y-103944491D01*
X39427406Y-103913223D01*
X39413561Y-103808059D01*
X39412500Y-103791874D01*
X39412500Y-103450013D01*
X48615000Y-103450013D01*
X48615000Y-104250000D01*
X49765000Y-104250000D01*
X49765000Y-102750000D01*
X49315028Y-102750000D01*
X49315012Y-102750001D01*
X49212302Y-102760494D01*
X49045880Y-102815641D01*
X49045875Y-102815643D01*
X48896654Y-102907684D01*
X48772684Y-103031654D01*
X48680643Y-103180875D01*
X48680641Y-103180880D01*
X48625494Y-103347302D01*
X48625493Y-103347309D01*
X48615000Y-103450013D01*
X39412500Y-103450013D01*
X39412500Y-102791999D01*
X40615000Y-102791999D01*
X40615000Y-103100000D01*
X42765000Y-103100000D01*
X43265000Y-103100000D01*
X45415000Y-103100000D01*
X45415000Y-102792002D01*
X45414999Y-102791999D01*
X45404391Y-102672674D01*
X45404390Y-102672671D01*
X45348442Y-102477138D01*
X45254278Y-102296870D01*
X45125753Y-102139246D01*
X44968129Y-102010721D01*
X44787861Y-101916557D01*
X44592328Y-101860609D01*
X44592325Y-101860608D01*
X44473000Y-101850000D01*
X43265000Y-101850000D01*
X43265000Y-103100000D01*
X42765000Y-103100000D01*
X42765000Y-101850000D01*
X41556999Y-101850000D01*
X41437674Y-101860608D01*
X41437671Y-101860609D01*
X41242138Y-101916557D01*
X41061870Y-102010721D01*
X40904246Y-102139246D01*
X40775721Y-102296870D01*
X40681557Y-102477138D01*
X40625609Y-102672671D01*
X40625608Y-102672674D01*
X40615000Y-102791999D01*
X39412500Y-102791999D01*
X39412500Y-98908125D01*
X39413561Y-98891940D01*
X39427406Y-98786776D01*
X39435784Y-98755508D01*
X39473240Y-98665081D01*
X39489423Y-98637050D01*
X39549013Y-98559392D01*
X39571892Y-98536513D01*
X39649550Y-98476923D01*
X39677579Y-98460740D01*
X39768009Y-98423283D01*
X39799275Y-98414906D01*
X39904441Y-98401061D01*
X39920626Y-98400000D01*
X50404374Y-98400000D01*
X50420559Y-98401061D01*
G37*
%TD.AperFunction*%
%TD*%
%TA.AperFunction,Conductor*%
%TO.N,GNDREF*%
G36*
X39355539Y-106519685D02*
G01*
X39401294Y-106572489D01*
X39412500Y-106624000D01*
X39412500Y-108700000D01*
X39448353Y-108735853D01*
X39481838Y-108797176D01*
X39481007Y-108853460D01*
X39467897Y-108906173D01*
X39465000Y-108948903D01*
X39465000Y-109400000D01*
X40591000Y-109400000D01*
X40658039Y-109419685D01*
X40703794Y-109472489D01*
X40715000Y-109524000D01*
X40715000Y-109776000D01*
X40695315Y-109843039D01*
X40642511Y-109888794D01*
X40591000Y-109900000D01*
X39465000Y-109900000D01*
X39465000Y-110351096D01*
X39467897Y-110393824D01*
X39513831Y-110578523D01*
X39598390Y-110749022D01*
X39598392Y-110749025D01*
X39717632Y-110897366D01*
X39717633Y-110897367D01*
X39865974Y-111016607D01*
X39865977Y-111016609D01*
X40036476Y-111101168D01*
X40036478Y-111101169D01*
X40071844Y-111109964D01*
X40132151Y-111145246D01*
X40163811Y-111207531D01*
X40159625Y-111269302D01*
X40125495Y-111372299D01*
X40125493Y-111372309D01*
X40115000Y-111475013D01*
X40115000Y-111750000D01*
X40991000Y-111750000D01*
X41058039Y-111769685D01*
X41103794Y-111822489D01*
X41115000Y-111874000D01*
X41115000Y-112000000D01*
X41241000Y-112000000D01*
X41308039Y-112019685D01*
X41353794Y-112072489D01*
X41365000Y-112124000D01*
X41365000Y-113224999D01*
X41375707Y-113235706D01*
X41409192Y-113297029D01*
X41412026Y-113323399D01*
X41411721Y-116375512D01*
X41392030Y-116442550D01*
X41339221Y-116488300D01*
X41287721Y-116499500D01*
X34836500Y-116499500D01*
X34769461Y-116479815D01*
X34723706Y-116427011D01*
X34712500Y-116375500D01*
X34712500Y-112524986D01*
X40115001Y-112524986D01*
X40125494Y-112627697D01*
X40180641Y-112794119D01*
X40180643Y-112794124D01*
X40272684Y-112943345D01*
X40396654Y-113067315D01*
X40545875Y-113159356D01*
X40545880Y-113159358D01*
X40712302Y-113214505D01*
X40712309Y-113214506D01*
X40815019Y-113224999D01*
X40864999Y-113224998D01*
X40865000Y-113224998D01*
X40865000Y-112250000D01*
X40115001Y-112250000D01*
X40115001Y-112524986D01*
X34712500Y-112524986D01*
X34712500Y-106624000D01*
X34732185Y-106556961D01*
X34784989Y-106511206D01*
X34836500Y-106500000D01*
X39288500Y-106500000D01*
X39355539Y-106519685D01*
G37*
%TD.AperFunction*%
%TD*%
%TA.AperFunction,Conductor*%
%TO.N,GNDREF*%
G36*
X67608059Y-110401061D02*
G01*
X67713223Y-110414906D01*
X67744491Y-110423284D01*
X67834918Y-110460740D01*
X67862952Y-110476925D01*
X67940602Y-110536509D01*
X67963491Y-110559398D01*
X68023074Y-110637048D01*
X68039259Y-110665081D01*
X68076715Y-110755508D01*
X68085093Y-110786775D01*
X68098939Y-110891939D01*
X68100000Y-110908125D01*
X68100000Y-112000000D01*
X68100000Y-113600000D01*
X71104374Y-113600000D01*
X71120559Y-113601061D01*
X71225723Y-113614906D01*
X71256991Y-113623284D01*
X71347418Y-113660740D01*
X71375452Y-113676925D01*
X71453102Y-113736509D01*
X71475991Y-113759398D01*
X71535574Y-113837048D01*
X71551759Y-113865081D01*
X71589215Y-113955508D01*
X71597593Y-113986775D01*
X71611439Y-114091939D01*
X71612500Y-114108125D01*
X71612500Y-116375500D01*
X71592815Y-116442539D01*
X71540011Y-116488294D01*
X71488500Y-116499500D01*
X60236500Y-116499500D01*
X60169461Y-116479815D01*
X60123706Y-116427011D01*
X60112500Y-116375500D01*
X60112500Y-114948999D01*
X60132185Y-114881960D01*
X60184989Y-114836205D01*
X60236498Y-114824999D01*
X60765000Y-114824999D01*
X60814972Y-114824999D01*
X60814986Y-114824998D01*
X60917697Y-114814505D01*
X61084119Y-114759358D01*
X61084124Y-114759356D01*
X61233345Y-114667315D01*
X61357315Y-114543345D01*
X61449356Y-114394124D01*
X61449358Y-114394119D01*
X61504505Y-114227697D01*
X61504506Y-114227690D01*
X61514999Y-114124986D01*
X61515000Y-114124973D01*
X61515000Y-113850000D01*
X60765000Y-113850000D01*
X60765000Y-114824999D01*
X60236498Y-114824999D01*
X60264999Y-114824998D01*
X60265000Y-114824998D01*
X60265000Y-113350000D01*
X60765000Y-113350000D01*
X61514999Y-113350000D01*
X61514999Y-113075028D01*
X61514998Y-113075013D01*
X61504505Y-112972302D01*
X61449358Y-112805880D01*
X61449356Y-112805875D01*
X61357315Y-112656654D01*
X61233345Y-112532684D01*
X61084124Y-112440643D01*
X61084119Y-112440641D01*
X60917697Y-112385494D01*
X60917690Y-112385493D01*
X60814986Y-112375000D01*
X60765000Y-112375000D01*
X60765000Y-113350000D01*
X60265000Y-113350000D01*
X60265000Y-112375000D01*
X60239237Y-112349238D01*
X60205752Y-112287915D01*
X60210736Y-112218223D01*
X60210736Y-112218222D01*
X60210738Y-112218219D01*
X60228539Y-112186073D01*
X60249013Y-112159392D01*
X60271892Y-112136513D01*
X60349550Y-112076923D01*
X60377579Y-112060740D01*
X60468009Y-112023283D01*
X60499275Y-112014906D01*
X60604441Y-112001061D01*
X60620626Y-112000000D01*
X64500000Y-112000000D01*
X64512054Y-111987945D01*
X64519685Y-111961960D01*
X64572489Y-111916205D01*
X64624000Y-111904999D01*
X64690000Y-111904999D01*
X65190000Y-111904999D01*
X65839972Y-111904999D01*
X65839986Y-111904998D01*
X65942697Y-111894505D01*
X66109119Y-111839358D01*
X66109124Y-111839356D01*
X66258345Y-111747315D01*
X66382315Y-111623345D01*
X66474356Y-111474124D01*
X66474358Y-111474119D01*
X66529505Y-111307697D01*
X66529506Y-111307690D01*
X66539999Y-111204986D01*
X66540000Y-111204973D01*
X66540000Y-111055000D01*
X65190000Y-111055000D01*
X65190000Y-111904999D01*
X64690000Y-111904999D01*
X64690000Y-110929000D01*
X64709685Y-110861961D01*
X64762489Y-110816206D01*
X64814000Y-110805000D01*
X64940000Y-110805000D01*
X64940000Y-110679000D01*
X64959685Y-110611961D01*
X65012489Y-110566206D01*
X65064000Y-110555000D01*
X66539999Y-110555000D01*
X66539999Y-110524000D01*
X66559684Y-110456961D01*
X66612488Y-110411206D01*
X66663999Y-110400000D01*
X67591874Y-110400000D01*
X67608059Y-110401061D01*
G37*
%TD.AperFunction*%
%TD*%
M02*
