%TF.GenerationSoftware,KiCad,Pcbnew,10.0.5*%
%TF.CreationDate,2026-08-05T13:38:04+02:00*%
%TF.ProjectId,Simplyfied_Global_Resist_Electronics,53696d70-6c79-4666-9965-645f476c6f62,rev?*%
%TF.SameCoordinates,Original*%
%TF.FileFunction,Legend,Bot*%
%TF.FilePolarity,Positive*%
%FSLAX46Y46*%
G04 Gerber Fmt 4.6, Leading zero omitted, Abs format (unit mm)*
G04 Created by KiCad (PCBNEW 10.0.5) date 2026-08-05 13:38:04*
%MOMM*%
%LPD*%
G01*
G04 APERTURE LIST*
%ADD10C,0.250000*%
G04 APERTURE END LIST*
D10*
G36*
X52814055Y-88176694D02*
G01*
X52877462Y-88303508D01*
X52877462Y-88720683D01*
X52829970Y-88815667D01*
X52347573Y-88815667D01*
X52352361Y-88806092D01*
X52361118Y-88783207D01*
X52361436Y-88778725D01*
X52363155Y-88774577D01*
X52365557Y-88750191D01*
X52365557Y-88303508D01*
X52428964Y-88176693D01*
X52555779Y-88113286D01*
X52687238Y-88113286D01*
X52814055Y-88176694D01*
G37*
G36*
X52042843Y-83577571D02*
G01*
X51984351Y-83577571D01*
X51857535Y-83514163D01*
X51794128Y-83387348D01*
X51794128Y-83065412D01*
X51857535Y-82938597D01*
X51984351Y-82875190D01*
X52183319Y-82875190D01*
X52042843Y-83577571D01*
G37*
G36*
X52737940Y-78471969D02*
G01*
X52804493Y-78538521D01*
X52877462Y-78684459D01*
X52877462Y-79006396D01*
X52829970Y-79101380D01*
X51841620Y-79101380D01*
X51794128Y-79006395D01*
X51794128Y-78684459D01*
X51867098Y-78538518D01*
X51933647Y-78471970D01*
X52079589Y-78398999D01*
X52592001Y-78398999D01*
X52737940Y-78471969D01*
G37*
G36*
X49518052Y-75233875D02*
G01*
X49584605Y-75300427D01*
X49657574Y-75446365D01*
X49657574Y-75768302D01*
X49610082Y-75863286D01*
X48621732Y-75863286D01*
X48574240Y-75768301D01*
X48574240Y-75446365D01*
X48647210Y-75300424D01*
X48713759Y-75233876D01*
X48859701Y-75160905D01*
X49372113Y-75160905D01*
X49518052Y-75233875D01*
G37*
G36*
X49594167Y-72176694D02*
G01*
X49657574Y-72303508D01*
X49657574Y-72720683D01*
X49610082Y-72815667D01*
X49127685Y-72815667D01*
X49132473Y-72806092D01*
X49141230Y-72783207D01*
X49141548Y-72778725D01*
X49143267Y-72774577D01*
X49145669Y-72750191D01*
X49145669Y-72303508D01*
X49209076Y-72176693D01*
X49335891Y-72113286D01*
X49467350Y-72113286D01*
X49594167Y-72176694D01*
G37*
G36*
X52737940Y-71710064D02*
G01*
X52804493Y-71776616D01*
X52877462Y-71922554D01*
X52877462Y-72149253D01*
X52804493Y-72295190D01*
X52737940Y-72361742D01*
X52592001Y-72434713D01*
X52079589Y-72434713D01*
X51933647Y-72361742D01*
X51867098Y-72295193D01*
X51794128Y-72149252D01*
X51794128Y-71922554D01*
X51867098Y-71776613D01*
X51933647Y-71710065D01*
X52079589Y-71637094D01*
X52592001Y-71637094D01*
X52737940Y-71710064D01*
G37*
G36*
X49518052Y-70376732D02*
G01*
X49584605Y-70443284D01*
X49657574Y-70589222D01*
X49657574Y-70815921D01*
X49584605Y-70961858D01*
X49518052Y-71028410D01*
X49372113Y-71101381D01*
X48859701Y-71101381D01*
X48713759Y-71028410D01*
X48647210Y-70961861D01*
X48574240Y-70815920D01*
X48574240Y-70589222D01*
X48647210Y-70443281D01*
X48713759Y-70376733D01*
X48859701Y-70303762D01*
X49372113Y-70303762D01*
X49518052Y-70376732D01*
G37*
G36*
X52877462Y-69387348D02*
G01*
X52804493Y-69533285D01*
X52737940Y-69599837D01*
X52592001Y-69672808D01*
X52365303Y-69672808D01*
X52219363Y-69599838D01*
X52159334Y-69539809D01*
X52079843Y-69301335D01*
X52079843Y-68779951D01*
X52877462Y-68779951D01*
X52877462Y-69387348D01*
G37*
G36*
X51829843Y-69292109D02*
G01*
X51756872Y-69438049D01*
X51690322Y-69504599D01*
X51544382Y-69577570D01*
X51412922Y-69577570D01*
X51266982Y-69504600D01*
X51200432Y-69438050D01*
X51127462Y-69292109D01*
X51127462Y-68779951D01*
X51829843Y-68779951D01*
X51829843Y-69292109D01*
G37*
G36*
X49657574Y-69006397D02*
G01*
X49584605Y-69152334D01*
X49518052Y-69218886D01*
X49372113Y-69291857D01*
X49145415Y-69291857D01*
X48999475Y-69218887D01*
X48939446Y-69158858D01*
X48859955Y-68920384D01*
X48859955Y-68399000D01*
X49657574Y-68399000D01*
X49657574Y-69006397D01*
G37*
G36*
X48609955Y-68911158D02*
G01*
X48536984Y-69057098D01*
X48470434Y-69123648D01*
X48324494Y-69196619D01*
X48193034Y-69196619D01*
X48047094Y-69123649D01*
X47980544Y-69057099D01*
X47907574Y-68911158D01*
X47907574Y-68399000D01*
X48609955Y-68399000D01*
X48609955Y-68911158D01*
G37*
G36*
X49518052Y-63233874D02*
G01*
X49584605Y-63300426D01*
X49657574Y-63446364D01*
X49657574Y-63673063D01*
X49584605Y-63819000D01*
X49518052Y-63885552D01*
X49372113Y-63958523D01*
X48859701Y-63958523D01*
X48713759Y-63885552D01*
X48647210Y-63819003D01*
X48574240Y-63673062D01*
X48574240Y-63446364D01*
X48647210Y-63300423D01*
X48713759Y-63233875D01*
X48859701Y-63160904D01*
X49372113Y-63160904D01*
X49518052Y-63233874D01*
G37*
G36*
X49594167Y-59319550D02*
G01*
X49657574Y-59446364D01*
X49657574Y-59863539D01*
X49610082Y-59958523D01*
X49127685Y-59958523D01*
X49132473Y-59948948D01*
X49141230Y-59926063D01*
X49141548Y-59921581D01*
X49143267Y-59917433D01*
X49145669Y-59893047D01*
X49145669Y-59446364D01*
X49209076Y-59319549D01*
X49335891Y-59256142D01*
X49467350Y-59256142D01*
X49594167Y-59319550D01*
G37*
G36*
X52737940Y-58471968D02*
G01*
X52804493Y-58538520D01*
X52877462Y-58684458D01*
X52877462Y-58911157D01*
X52804493Y-59057094D01*
X52737940Y-59123646D01*
X52592001Y-59196617D01*
X52079589Y-59196617D01*
X51933647Y-59123646D01*
X51867098Y-59057097D01*
X51794128Y-58911156D01*
X51794128Y-58684458D01*
X51867098Y-58538517D01*
X51933647Y-58471969D01*
X52079589Y-58398998D01*
X52592001Y-58398998D01*
X52737940Y-58471968D01*
G37*
G36*
X55525921Y-58671998D02*
G01*
X54617633Y-58369236D01*
X55525921Y-58066473D01*
X55525921Y-58671998D01*
G37*
G36*
X52877462Y-56779696D02*
G01*
X52877462Y-57101633D01*
X52804493Y-57247570D01*
X52737940Y-57314122D01*
X52592001Y-57387093D01*
X52079589Y-57387093D01*
X51933647Y-57314122D01*
X51867098Y-57247573D01*
X51794128Y-57101632D01*
X51794128Y-56779696D01*
X51841620Y-56684712D01*
X52829970Y-56684712D01*
X52877462Y-56779696D01*
G37*
G36*
X52814055Y-54843358D02*
G01*
X52877462Y-54970172D01*
X52877462Y-55387347D01*
X52829970Y-55482331D01*
X52347573Y-55482331D01*
X52352361Y-55472756D01*
X52361118Y-55449871D01*
X52361436Y-55445389D01*
X52363155Y-55441241D01*
X52365557Y-55416855D01*
X52365557Y-54970172D01*
X52428964Y-54843357D01*
X52555779Y-54779950D01*
X52687238Y-54779950D01*
X52814055Y-54843358D01*
G37*
G36*
X49594167Y-54652883D02*
G01*
X49657574Y-54779697D01*
X49657574Y-55196872D01*
X49610082Y-55291856D01*
X49127685Y-55291856D01*
X49132473Y-55282281D01*
X49141230Y-55259396D01*
X49141548Y-55254914D01*
X49143267Y-55250766D01*
X49145669Y-55226380D01*
X49145669Y-54779697D01*
X49209076Y-54652882D01*
X49335891Y-54589475D01*
X49467350Y-54589475D01*
X49594167Y-54652883D01*
G37*
G36*
X59017657Y-53249081D02*
G01*
X59177716Y-53329111D01*
X59244269Y-53395663D01*
X59317238Y-53541601D01*
X59317238Y-53673062D01*
X59244269Y-53818999D01*
X59177716Y-53885551D01*
X59017657Y-53965581D01*
X58664944Y-54053760D01*
X58219531Y-54053760D01*
X57866817Y-53965581D01*
X57706758Y-53885552D01*
X57640208Y-53819002D01*
X57567238Y-53673061D01*
X57567238Y-53541601D01*
X57640208Y-53395660D01*
X57706758Y-53329111D01*
X57866817Y-53249081D01*
X58219531Y-53160903D01*
X58664944Y-53160903D01*
X59017657Y-53249081D01*
G37*
G36*
X49657574Y-48113029D02*
G01*
X49657574Y-48434966D01*
X49584605Y-48580903D01*
X49518052Y-48647455D01*
X49372113Y-48720426D01*
X48859701Y-48720426D01*
X48713759Y-48647455D01*
X48647210Y-48580906D01*
X48574240Y-48434965D01*
X48574240Y-48113029D01*
X48621732Y-48018045D01*
X49610082Y-48018045D01*
X49657574Y-48113029D01*
G37*
G36*
X55195926Y-47043397D02*
G01*
X55262475Y-47109946D01*
X55335445Y-47255886D01*
X55335445Y-47577823D01*
X55262475Y-47723763D01*
X55195926Y-47790311D01*
X55049983Y-47863283D01*
X54632810Y-47863283D01*
X54486870Y-47790313D01*
X54420320Y-47723763D01*
X54347350Y-47577822D01*
X54347350Y-47255886D01*
X54420320Y-47109945D01*
X54486870Y-47043396D01*
X54632810Y-46970426D01*
X55049983Y-46970426D01*
X55195926Y-47043397D01*
G37*
G36*
X52042843Y-46625187D02*
G01*
X51984351Y-46625187D01*
X51857535Y-46561779D01*
X51794128Y-46434964D01*
X51794128Y-46113028D01*
X51857535Y-45986213D01*
X51984351Y-45922806D01*
X52183319Y-45922806D01*
X52042843Y-46625187D01*
G37*
G36*
X59177716Y-44281491D02*
G01*
X59244269Y-44348043D01*
X59317238Y-44493981D01*
X59317238Y-44720680D01*
X59244269Y-44866617D01*
X59177716Y-44933169D01*
X59031777Y-45006140D01*
X58519365Y-45006140D01*
X58373423Y-44933169D01*
X58306874Y-44866620D01*
X58233904Y-44720679D01*
X58233904Y-44493981D01*
X58306874Y-44348040D01*
X58373423Y-44281492D01*
X58519365Y-44208521D01*
X59031777Y-44208521D01*
X59177716Y-44281491D01*
G37*
G36*
X52814055Y-40843357D02*
G01*
X52877462Y-40970171D01*
X52877462Y-41387346D01*
X52829970Y-41482330D01*
X52347573Y-41482330D01*
X52352361Y-41472755D01*
X52361118Y-41449870D01*
X52361436Y-41445388D01*
X52363155Y-41441240D01*
X52365557Y-41416854D01*
X52365557Y-40970171D01*
X52428964Y-40843356D01*
X52555779Y-40779949D01*
X52687238Y-40779949D01*
X52814055Y-40843357D01*
G37*
G36*
X49518052Y-40376729D02*
G01*
X49584605Y-40443281D01*
X49657574Y-40589219D01*
X49657574Y-40815918D01*
X49584605Y-40961855D01*
X49518052Y-41028407D01*
X49372113Y-41101378D01*
X48859701Y-41101378D01*
X48713759Y-41028407D01*
X48647210Y-40961858D01*
X48574240Y-40815917D01*
X48574240Y-40589219D01*
X48647210Y-40443278D01*
X48713759Y-40376730D01*
X48859701Y-40303759D01*
X49372113Y-40303759D01*
X49518052Y-40376729D01*
G37*
G36*
X56097350Y-39922552D02*
G01*
X56097350Y-40244489D01*
X56024381Y-40390426D01*
X55957828Y-40456978D01*
X55811889Y-40529949D01*
X55299477Y-40529949D01*
X55153535Y-40456978D01*
X55086986Y-40390429D01*
X55014016Y-40244488D01*
X55014016Y-39922552D01*
X55061508Y-39827568D01*
X56049858Y-39827568D01*
X56097350Y-39922552D01*
G37*
G36*
X58482619Y-39387092D02*
G01*
X58424127Y-39387092D01*
X58297311Y-39323684D01*
X58233904Y-39196869D01*
X58233904Y-38874933D01*
X58297311Y-38748118D01*
X58424127Y-38684711D01*
X58623095Y-38684711D01*
X58482619Y-39387092D01*
G37*
G36*
X59789460Y-93763895D02*
G01*
X47435352Y-93763895D01*
X47435352Y-92630567D01*
X50879864Y-92630567D01*
X50879864Y-92679339D01*
X50898528Y-92724399D01*
X50933016Y-92758887D01*
X50978076Y-92777551D01*
X51002462Y-92779953D01*
X52129256Y-92779953D01*
X51580740Y-93328470D01*
X51565195Y-93347412D01*
X51546530Y-93392471D01*
X51546530Y-93441245D01*
X51565195Y-93486304D01*
X51599682Y-93520791D01*
X51644741Y-93539456D01*
X51693515Y-93539456D01*
X51738574Y-93520791D01*
X51757516Y-93505246D01*
X52252286Y-93010476D01*
X52927462Y-93516858D01*
X52948412Y-93529568D01*
X52995658Y-93541673D01*
X53043941Y-93534775D01*
X53085908Y-93509925D01*
X53115172Y-93470908D01*
X53127276Y-93423661D01*
X53120379Y-93375378D01*
X53095529Y-93333411D01*
X53077462Y-93316858D01*
X52430858Y-92831904D01*
X52482810Y-92779953D01*
X53002462Y-92779953D01*
X53026848Y-92777551D01*
X53071908Y-92758887D01*
X53106396Y-92724399D01*
X53125060Y-92679339D01*
X53125060Y-92630567D01*
X53106396Y-92585507D01*
X53071908Y-92551019D01*
X53026848Y-92532355D01*
X53002462Y-92529953D01*
X51002462Y-92529953D01*
X50978076Y-92532355D01*
X50933016Y-92551019D01*
X50898528Y-92585507D01*
X50879864Y-92630567D01*
X47435352Y-92630567D01*
X47435352Y-91678186D01*
X50879864Y-91678186D01*
X50879864Y-91726958D01*
X50898528Y-91772018D01*
X50898533Y-91772023D01*
X50914074Y-91790960D01*
X51009312Y-91886198D01*
X51028254Y-91901743D01*
X51073313Y-91920408D01*
X51122087Y-91920408D01*
X51167146Y-91901743D01*
X51186088Y-91886198D01*
X51281326Y-91790960D01*
X51296866Y-91772023D01*
X51296872Y-91772018D01*
X51315536Y-91726958D01*
X51315536Y-91678186D01*
X51546530Y-91678186D01*
X51546530Y-91726958D01*
X51565194Y-91772018D01*
X51599682Y-91806506D01*
X51644742Y-91825170D01*
X51669128Y-91827572D01*
X53002462Y-91827572D01*
X53026848Y-91825170D01*
X53071908Y-91806506D01*
X53106396Y-91772018D01*
X53125060Y-91726958D01*
X53125060Y-91678186D01*
X53106396Y-91633126D01*
X53071908Y-91598638D01*
X53026848Y-91579974D01*
X53002462Y-91577572D01*
X51669128Y-91577572D01*
X51644742Y-91579974D01*
X51599682Y-91598638D01*
X51565194Y-91633126D01*
X51546530Y-91678186D01*
X51315536Y-91678186D01*
X51296872Y-91633126D01*
X51296866Y-91633120D01*
X51281326Y-91614184D01*
X51186088Y-91518946D01*
X51167146Y-91503401D01*
X51122087Y-91484736D01*
X51073313Y-91484736D01*
X51028254Y-91503401D01*
X51009312Y-91518946D01*
X50914074Y-91614184D01*
X50898533Y-91633120D01*
X50898528Y-91633126D01*
X50879864Y-91678186D01*
X47435352Y-91678186D01*
X47435352Y-90178762D01*
X51544128Y-90178762D01*
X51544128Y-90464477D01*
X51546530Y-90488863D01*
X51548248Y-90493011D01*
X51548567Y-90497493D01*
X51557325Y-90520379D01*
X51652563Y-90710855D01*
X51655129Y-90714931D01*
X51655771Y-90716857D01*
X51657850Y-90719255D01*
X51665617Y-90731592D01*
X51677457Y-90741861D01*
X51687727Y-90753702D01*
X51700064Y-90761468D01*
X51702462Y-90763548D01*
X51704386Y-90764189D01*
X51708465Y-90766757D01*
X51898942Y-90861995D01*
X51921828Y-90870752D01*
X51926307Y-90871070D01*
X51930457Y-90872789D01*
X51954843Y-90875191D01*
X53002462Y-90875191D01*
X53026848Y-90872789D01*
X53071908Y-90854125D01*
X53106396Y-90819637D01*
X53125060Y-90774577D01*
X53125060Y-90725805D01*
X53106396Y-90680745D01*
X53071908Y-90646257D01*
X53026848Y-90627593D01*
X53002462Y-90625191D01*
X51984351Y-90625191D01*
X51857535Y-90561783D01*
X51794128Y-90434968D01*
X51794128Y-90208270D01*
X51867098Y-90062329D01*
X51911380Y-90018048D01*
X53002462Y-90018048D01*
X53026848Y-90015646D01*
X53071908Y-89996982D01*
X53106396Y-89962494D01*
X53125060Y-89917434D01*
X53125060Y-89868662D01*
X53106396Y-89823602D01*
X53071908Y-89789114D01*
X53026848Y-89770450D01*
X53002462Y-89768048D01*
X51669128Y-89768048D01*
X51644742Y-89770450D01*
X51599682Y-89789114D01*
X51565194Y-89823602D01*
X51546530Y-89868662D01*
X51546530Y-89917434D01*
X51565194Y-89962494D01*
X51599682Y-89996982D01*
X51616732Y-90004044D01*
X51557325Y-90122860D01*
X51548567Y-90145746D01*
X51548248Y-90150227D01*
X51546530Y-90154376D01*
X51544128Y-90178762D01*
X47435352Y-90178762D01*
X47435352Y-88274000D01*
X51544128Y-88274000D01*
X51544128Y-88654953D01*
X51546530Y-88679339D01*
X51548248Y-88683487D01*
X51548567Y-88687969D01*
X51557325Y-88710855D01*
X51652563Y-88901331D01*
X51655129Y-88905407D01*
X51655771Y-88907333D01*
X51657850Y-88909731D01*
X51665617Y-88922068D01*
X51677457Y-88932337D01*
X51687727Y-88944178D01*
X51700064Y-88951944D01*
X51702462Y-88954024D01*
X51704386Y-88954665D01*
X51708465Y-88957233D01*
X51898942Y-89052471D01*
X51921828Y-89061228D01*
X51926307Y-89061546D01*
X51930457Y-89063265D01*
X51954843Y-89065667D01*
X53002462Y-89065667D01*
X53026848Y-89063265D01*
X53071908Y-89044601D01*
X53106396Y-89010113D01*
X53125060Y-88965053D01*
X53125060Y-88916281D01*
X53106396Y-88871221D01*
X53089932Y-88854757D01*
X53114266Y-88806092D01*
X53123023Y-88783207D01*
X53123341Y-88778725D01*
X53125060Y-88774577D01*
X53127462Y-88750191D01*
X53127462Y-88274000D01*
X53125060Y-88249614D01*
X53123341Y-88245465D01*
X53123023Y-88240984D01*
X53114266Y-88218099D01*
X53019027Y-88027622D01*
X53016460Y-88023545D01*
X53015819Y-88021620D01*
X53013739Y-88019221D01*
X53005973Y-88006885D01*
X52994132Y-87996615D01*
X52983863Y-87984775D01*
X52971526Y-87977008D01*
X52969128Y-87974929D01*
X52967202Y-87974287D01*
X52963126Y-87971721D01*
X52772648Y-87876482D01*
X52749763Y-87867725D01*
X52745281Y-87867406D01*
X52741133Y-87865688D01*
X52716747Y-87863286D01*
X52526271Y-87863286D01*
X52501885Y-87865688D01*
X52497736Y-87867406D01*
X52493255Y-87867725D01*
X52470370Y-87876482D01*
X52279893Y-87971721D01*
X52275816Y-87974287D01*
X52273891Y-87974929D01*
X52271492Y-87977008D01*
X52259156Y-87984775D01*
X52248886Y-87996615D01*
X52237046Y-88006885D01*
X52229279Y-88019221D01*
X52227200Y-88021620D01*
X52226558Y-88023545D01*
X52223992Y-88027622D01*
X52128754Y-88218098D01*
X52119996Y-88240984D01*
X52119677Y-88245465D01*
X52117959Y-88249614D01*
X52115557Y-88274000D01*
X52115557Y-88720683D01*
X52068065Y-88815667D01*
X51984351Y-88815667D01*
X51857535Y-88752259D01*
X51794128Y-88625444D01*
X51794128Y-88303508D01*
X51876170Y-88139425D01*
X51884927Y-88116540D01*
X51888385Y-88067890D01*
X51872961Y-88021619D01*
X51841005Y-87984774D01*
X51797382Y-87962963D01*
X51748732Y-87959505D01*
X51702462Y-87974929D01*
X51665617Y-88006885D01*
X51652563Y-88027622D01*
X51557325Y-88218098D01*
X51548567Y-88240984D01*
X51548248Y-88245465D01*
X51546530Y-88249614D01*
X51544128Y-88274000D01*
X47435352Y-88274000D01*
X47435352Y-86249614D01*
X50879864Y-86249614D01*
X50879864Y-86298386D01*
X50898528Y-86343446D01*
X50933016Y-86377934D01*
X50978076Y-86396598D01*
X51002462Y-86399000D01*
X51609731Y-86399000D01*
X51557325Y-86503812D01*
X51548567Y-86526698D01*
X51548248Y-86531179D01*
X51546530Y-86535328D01*
X51544128Y-86559714D01*
X51544128Y-86845429D01*
X51546530Y-86869815D01*
X51548248Y-86873963D01*
X51548567Y-86878445D01*
X51557325Y-86901331D01*
X51652563Y-87091807D01*
X51655129Y-87095883D01*
X51655771Y-87097809D01*
X51657850Y-87100207D01*
X51665617Y-87112544D01*
X51677457Y-87122813D01*
X51687727Y-87134654D01*
X51700064Y-87142420D01*
X51702462Y-87144500D01*
X51704386Y-87145141D01*
X51708465Y-87147709D01*
X51898942Y-87242947D01*
X51921828Y-87251704D01*
X51926307Y-87252022D01*
X51930457Y-87253741D01*
X51954843Y-87256143D01*
X53002462Y-87256143D01*
X53026848Y-87253741D01*
X53071908Y-87235077D01*
X53106396Y-87200589D01*
X53125060Y-87155529D01*
X53125060Y-87106757D01*
X53106396Y-87061697D01*
X53071908Y-87027209D01*
X53026848Y-87008545D01*
X53002462Y-87006143D01*
X51984351Y-87006143D01*
X51857535Y-86942735D01*
X51794128Y-86815920D01*
X51794128Y-86589222D01*
X51867098Y-86443281D01*
X51911380Y-86399000D01*
X53002462Y-86399000D01*
X53026848Y-86396598D01*
X53071908Y-86377934D01*
X53106396Y-86343446D01*
X53125060Y-86298386D01*
X53125060Y-86249614D01*
X53106396Y-86204554D01*
X53071908Y-86170066D01*
X53026848Y-86151402D01*
X53002462Y-86149000D01*
X51002462Y-86149000D01*
X50978076Y-86151402D01*
X50933016Y-86170066D01*
X50898528Y-86204554D01*
X50879864Y-86249614D01*
X47435352Y-86249614D01*
X47435352Y-84845428D01*
X51544128Y-84845428D01*
X51544128Y-85226381D01*
X51546530Y-85250767D01*
X51548248Y-85254915D01*
X51548567Y-85259397D01*
X51557325Y-85282283D01*
X51652563Y-85472759D01*
X51665617Y-85493496D01*
X51702462Y-85525452D01*
X51748732Y-85540876D01*
X51797382Y-85537418D01*
X51841005Y-85515607D01*
X51872961Y-85478762D01*
X51888385Y-85432491D01*
X51884927Y-85383841D01*
X51876170Y-85360956D01*
X51794128Y-85196872D01*
X51794128Y-84874936D01*
X51867098Y-84728995D01*
X51933647Y-84662447D01*
X52079589Y-84589476D01*
X52592001Y-84589476D01*
X52737940Y-84662446D01*
X52804493Y-84728998D01*
X52877462Y-84874936D01*
X52877462Y-85196873D01*
X52795421Y-85360955D01*
X52786663Y-85383841D01*
X52783205Y-85432491D01*
X52798629Y-85478761D01*
X52830585Y-85515606D01*
X52874208Y-85537418D01*
X52922858Y-85540876D01*
X52969128Y-85525452D01*
X53005973Y-85493496D01*
X53019027Y-85472759D01*
X53114266Y-85282282D01*
X53123023Y-85259397D01*
X53123341Y-85254915D01*
X53125060Y-85250767D01*
X53127462Y-85226381D01*
X53127462Y-84845428D01*
X53125060Y-84821042D01*
X53123341Y-84816893D01*
X53123023Y-84812412D01*
X53114266Y-84789527D01*
X53019027Y-84599050D01*
X53012420Y-84588555D01*
X53011157Y-84585505D01*
X53008338Y-84582070D01*
X53005973Y-84578313D01*
X53003481Y-84576151D01*
X52995612Y-84566563D01*
X52900373Y-84471325D01*
X52890784Y-84463456D01*
X52888624Y-84460965D01*
X52884867Y-84458600D01*
X52881431Y-84455780D01*
X52878379Y-84454516D01*
X52867887Y-84447911D01*
X52677411Y-84352673D01*
X52654525Y-84343915D01*
X52650043Y-84343596D01*
X52645895Y-84341878D01*
X52621509Y-84339476D01*
X52050081Y-84339476D01*
X52025695Y-84341878D01*
X52021545Y-84343596D01*
X52017066Y-84343915D01*
X51994180Y-84352672D01*
X51803703Y-84447910D01*
X51793204Y-84454519D01*
X51790158Y-84455781D01*
X51786726Y-84458596D01*
X51782965Y-84460965D01*
X51780801Y-84463459D01*
X51771216Y-84471326D01*
X51675978Y-84566564D01*
X51668111Y-84576149D01*
X51665617Y-84578313D01*
X51663249Y-84582074D01*
X51660433Y-84585506D01*
X51659170Y-84588553D01*
X51652563Y-84599050D01*
X51557325Y-84789526D01*
X51548567Y-84812412D01*
X51548248Y-84816893D01*
X51546530Y-84821042D01*
X51544128Y-84845428D01*
X47435352Y-84845428D01*
X47435352Y-83035904D01*
X51544128Y-83035904D01*
X51544128Y-83416857D01*
X51546530Y-83441243D01*
X51548248Y-83445391D01*
X51548567Y-83449873D01*
X51557325Y-83472759D01*
X51652563Y-83663235D01*
X51655129Y-83667311D01*
X51655771Y-83669237D01*
X51657850Y-83671635D01*
X51665617Y-83683972D01*
X51677457Y-83694241D01*
X51687727Y-83706082D01*
X51700064Y-83713848D01*
X51702462Y-83715928D01*
X51704386Y-83716569D01*
X51708465Y-83719137D01*
X51898942Y-83814375D01*
X51921828Y-83823132D01*
X51926307Y-83823450D01*
X51930457Y-83825169D01*
X51954843Y-83827571D01*
X52145188Y-83827571D01*
X52145319Y-83827571D01*
X52169705Y-83825169D01*
X52181019Y-83820482D01*
X52193033Y-83818106D01*
X52203330Y-83811241D01*
X52214765Y-83806505D01*
X52223424Y-83797845D01*
X52233615Y-83791052D01*
X52240502Y-83780767D01*
X52249253Y-83772017D01*
X52253939Y-83760702D01*
X52260754Y-83750527D01*
X52267892Y-83727085D01*
X52438271Y-82875190D01*
X52687238Y-82875190D01*
X52814055Y-82938598D01*
X52877462Y-83065412D01*
X52877462Y-83387349D01*
X52795421Y-83551431D01*
X52786663Y-83574317D01*
X52783205Y-83622967D01*
X52798629Y-83669237D01*
X52830585Y-83706082D01*
X52874208Y-83727894D01*
X52922858Y-83731352D01*
X52969128Y-83715928D01*
X53005973Y-83683972D01*
X53019027Y-83663235D01*
X53114266Y-83472758D01*
X53123023Y-83449873D01*
X53123341Y-83445391D01*
X53125060Y-83441243D01*
X53127462Y-83416857D01*
X53127462Y-83035904D01*
X53125060Y-83011518D01*
X53123341Y-83007369D01*
X53123023Y-83002888D01*
X53114266Y-82980003D01*
X53019027Y-82789526D01*
X53016460Y-82785449D01*
X53015819Y-82783524D01*
X53013739Y-82781125D01*
X53005973Y-82768789D01*
X52994132Y-82758519D01*
X52983863Y-82746679D01*
X52971526Y-82738912D01*
X52969128Y-82736833D01*
X52967202Y-82736191D01*
X52963126Y-82733625D01*
X52772648Y-82638386D01*
X52749763Y-82629629D01*
X52745281Y-82629310D01*
X52741133Y-82627592D01*
X52716747Y-82625190D01*
X51954843Y-82625190D01*
X51930457Y-82627592D01*
X51926307Y-82629310D01*
X51921828Y-82629629D01*
X51898942Y-82638386D01*
X51708465Y-82733624D01*
X51704386Y-82736191D01*
X51702462Y-82736833D01*
X51700064Y-82738912D01*
X51687727Y-82746679D01*
X51677457Y-82758519D01*
X51665617Y-82768789D01*
X51657850Y-82781125D01*
X51655771Y-82783524D01*
X51655129Y-82785449D01*
X51652563Y-82789526D01*
X51557325Y-82980002D01*
X51548567Y-83002888D01*
X51548248Y-83007369D01*
X51546530Y-83011518D01*
X51544128Y-83035904D01*
X47435352Y-83035904D01*
X47435352Y-80464475D01*
X51544128Y-80464475D01*
X51544128Y-80750190D01*
X51546530Y-80774576D01*
X51548248Y-80778724D01*
X51548567Y-80783206D01*
X51557325Y-80806092D01*
X51652563Y-80996568D01*
X51655129Y-81000644D01*
X51655771Y-81002570D01*
X51657850Y-81004968D01*
X51665617Y-81017305D01*
X51677457Y-81027574D01*
X51684681Y-81035904D01*
X51677457Y-81044233D01*
X51665617Y-81054503D01*
X51657850Y-81066839D01*
X51655771Y-81069238D01*
X51655129Y-81071163D01*
X51652563Y-81075240D01*
X51557325Y-81265716D01*
X51548567Y-81288602D01*
X51548248Y-81293083D01*
X51546530Y-81297232D01*
X51544128Y-81321618D01*
X51544128Y-81607332D01*
X51546530Y-81631718D01*
X51548248Y-81635866D01*
X51548567Y-81640348D01*
X51557324Y-81663233D01*
X51652563Y-81853711D01*
X51655129Y-81857787D01*
X51655771Y-81859713D01*
X51657850Y-81862111D01*
X51665617Y-81874448D01*
X51677457Y-81884717D01*
X51687727Y-81896558D01*
X51700064Y-81904324D01*
X51702462Y-81906404D01*
X51704386Y-81907045D01*
X51708465Y-81909613D01*
X51898942Y-82004851D01*
X51921828Y-82013608D01*
X51926307Y-82013926D01*
X51930457Y-82015645D01*
X51954843Y-82018047D01*
X53002462Y-82018047D01*
X53026848Y-82015645D01*
X53071908Y-81996981D01*
X53106396Y-81962493D01*
X53125060Y-81917433D01*
X53125060Y-81868661D01*
X53106396Y-81823601D01*
X53071908Y-81789113D01*
X53026848Y-81770449D01*
X53002462Y-81768047D01*
X51984351Y-81768047D01*
X51857535Y-81704639D01*
X51794128Y-81577823D01*
X51794128Y-81351126D01*
X51857535Y-81224311D01*
X51984351Y-81160904D01*
X53002462Y-81160904D01*
X53026848Y-81158502D01*
X53071908Y-81139838D01*
X53106396Y-81105350D01*
X53125060Y-81060290D01*
X53125060Y-81011518D01*
X53106396Y-80966458D01*
X53071908Y-80931970D01*
X53026848Y-80913306D01*
X53002462Y-80910904D01*
X51984351Y-80910904D01*
X51857535Y-80847496D01*
X51794128Y-80720681D01*
X51794128Y-80493983D01*
X51867098Y-80348042D01*
X51911380Y-80303761D01*
X53002462Y-80303761D01*
X53026848Y-80301359D01*
X53071908Y-80282695D01*
X53106396Y-80248207D01*
X53125060Y-80203147D01*
X53125060Y-80154375D01*
X53106396Y-80109315D01*
X53071908Y-80074827D01*
X53026848Y-80056163D01*
X53002462Y-80053761D01*
X51669128Y-80053761D01*
X51644742Y-80056163D01*
X51599682Y-80074827D01*
X51565194Y-80109315D01*
X51546530Y-80154375D01*
X51546530Y-80203147D01*
X51565194Y-80248207D01*
X51599682Y-80282695D01*
X51616732Y-80289757D01*
X51557325Y-80408573D01*
X51548567Y-80431459D01*
X51548248Y-80435940D01*
X51546530Y-80440089D01*
X51544128Y-80464475D01*
X47435352Y-80464475D01*
X47435352Y-79201994D01*
X50879864Y-79201994D01*
X50879864Y-79250766D01*
X50898528Y-79295826D01*
X50933016Y-79330314D01*
X50978076Y-79348978D01*
X51002462Y-79351380D01*
X53002462Y-79351380D01*
X53026848Y-79348978D01*
X53071908Y-79330314D01*
X53106396Y-79295826D01*
X53125060Y-79250766D01*
X53125060Y-79201994D01*
X53106396Y-79156934D01*
X53089932Y-79140470D01*
X53114266Y-79091805D01*
X53123023Y-79068920D01*
X53123341Y-79064438D01*
X53125060Y-79060290D01*
X53127462Y-79035904D01*
X53127462Y-78654951D01*
X53125060Y-78630565D01*
X53123341Y-78626416D01*
X53123023Y-78621935D01*
X53114266Y-78599050D01*
X53019027Y-78408573D01*
X53012420Y-78398078D01*
X53011157Y-78395028D01*
X53008338Y-78391593D01*
X53005973Y-78387836D01*
X53003481Y-78385674D01*
X52995612Y-78376086D01*
X52900373Y-78280848D01*
X52890784Y-78272979D01*
X52888624Y-78270488D01*
X52884867Y-78268123D01*
X52881431Y-78265303D01*
X52878379Y-78264039D01*
X52867887Y-78257434D01*
X52677411Y-78162196D01*
X52654525Y-78153438D01*
X52650043Y-78153119D01*
X52645895Y-78151401D01*
X52621509Y-78148999D01*
X52050081Y-78148999D01*
X52025695Y-78151401D01*
X52021545Y-78153119D01*
X52017066Y-78153438D01*
X51994180Y-78162195D01*
X51803703Y-78257433D01*
X51793204Y-78264042D01*
X51790158Y-78265304D01*
X51786726Y-78268119D01*
X51782965Y-78270488D01*
X51780801Y-78272982D01*
X51771216Y-78280849D01*
X51675978Y-78376087D01*
X51668111Y-78385672D01*
X51665617Y-78387836D01*
X51663249Y-78391597D01*
X51660433Y-78395029D01*
X51659170Y-78398076D01*
X51652563Y-78408573D01*
X51557325Y-78599049D01*
X51548567Y-78621935D01*
X51548248Y-78626416D01*
X51546530Y-78630565D01*
X51544128Y-78654951D01*
X51544128Y-79035904D01*
X51546530Y-79060290D01*
X51548248Y-79064438D01*
X51548567Y-79068920D01*
X51557325Y-79091806D01*
X51562112Y-79101380D01*
X51002462Y-79101380D01*
X50978076Y-79103782D01*
X50933016Y-79122446D01*
X50898528Y-79156934D01*
X50879864Y-79201994D01*
X47435352Y-79201994D01*
X47435352Y-77392470D01*
X50879864Y-77392470D01*
X50879864Y-77441242D01*
X50898528Y-77486302D01*
X50898533Y-77486307D01*
X50914074Y-77505244D01*
X51009312Y-77600482D01*
X51028254Y-77616027D01*
X51073313Y-77634692D01*
X51122087Y-77634692D01*
X51167146Y-77616027D01*
X51186088Y-77600482D01*
X51281326Y-77505244D01*
X51296866Y-77486307D01*
X51296872Y-77486302D01*
X51315536Y-77441242D01*
X51315536Y-77392470D01*
X51546530Y-77392470D01*
X51546530Y-77441242D01*
X51565194Y-77486302D01*
X51599682Y-77520790D01*
X51644742Y-77539454D01*
X51669128Y-77541856D01*
X53002462Y-77541856D01*
X53026848Y-77539454D01*
X53071908Y-77520790D01*
X53106396Y-77486302D01*
X53125060Y-77441242D01*
X53125060Y-77392470D01*
X53106396Y-77347410D01*
X53071908Y-77312922D01*
X53026848Y-77294258D01*
X53002462Y-77291856D01*
X51669128Y-77291856D01*
X51644742Y-77294258D01*
X51599682Y-77312922D01*
X51565194Y-77347410D01*
X51546530Y-77392470D01*
X51315536Y-77392470D01*
X51296872Y-77347410D01*
X51296866Y-77347404D01*
X51281326Y-77328468D01*
X51186088Y-77233230D01*
X51167146Y-77217685D01*
X51122087Y-77199020D01*
X51073313Y-77199020D01*
X51028254Y-77217685D01*
X51009312Y-77233230D01*
X50914074Y-77328468D01*
X50898533Y-77347404D01*
X50898528Y-77347410D01*
X50879864Y-77392470D01*
X47435352Y-77392470D01*
X47435352Y-75963900D01*
X47659976Y-75963900D01*
X47659976Y-76012672D01*
X47678640Y-76057732D01*
X47713128Y-76092220D01*
X47758188Y-76110884D01*
X47782574Y-76113286D01*
X49782574Y-76113286D01*
X49806960Y-76110884D01*
X49852020Y-76092220D01*
X49886508Y-76057732D01*
X49905172Y-76012672D01*
X49905172Y-75963900D01*
X49886508Y-75918840D01*
X49870044Y-75902376D01*
X49894378Y-75853711D01*
X49903135Y-75830826D01*
X49903453Y-75826344D01*
X49905172Y-75822196D01*
X49907574Y-75797810D01*
X49907574Y-75582946D01*
X51546530Y-75582946D01*
X51546530Y-75631718D01*
X51565194Y-75676778D01*
X51599682Y-75711266D01*
X51644742Y-75729930D01*
X51669128Y-75732332D01*
X52687238Y-75732332D01*
X52814055Y-75795740D01*
X52877462Y-75922554D01*
X52877462Y-76149253D01*
X52804493Y-76295190D01*
X52760208Y-76339475D01*
X51669128Y-76339475D01*
X51644742Y-76341877D01*
X51599682Y-76360541D01*
X51565194Y-76395029D01*
X51546530Y-76440089D01*
X51546530Y-76488861D01*
X51565194Y-76533921D01*
X51599682Y-76568409D01*
X51644742Y-76587073D01*
X51669128Y-76589475D01*
X53002462Y-76589475D01*
X53026848Y-76587073D01*
X53071908Y-76568409D01*
X53106396Y-76533921D01*
X53125060Y-76488861D01*
X53125060Y-76440089D01*
X53106396Y-76395029D01*
X53071908Y-76360541D01*
X53054857Y-76353478D01*
X53114266Y-76234662D01*
X53123023Y-76211777D01*
X53123341Y-76207295D01*
X53125060Y-76203147D01*
X53127462Y-76178761D01*
X53127462Y-75893046D01*
X53125060Y-75868660D01*
X53123341Y-75864511D01*
X53123023Y-75860030D01*
X53114266Y-75837145D01*
X53019027Y-75646668D01*
X53016460Y-75642591D01*
X53015819Y-75640666D01*
X53013739Y-75638267D01*
X53005973Y-75625931D01*
X52994132Y-75615661D01*
X52983863Y-75603821D01*
X52971526Y-75596054D01*
X52969128Y-75593975D01*
X52967202Y-75593333D01*
X52963126Y-75590767D01*
X52772648Y-75495528D01*
X52749763Y-75486771D01*
X52745281Y-75486452D01*
X52741133Y-75484734D01*
X52716747Y-75482332D01*
X51669128Y-75482332D01*
X51644742Y-75484734D01*
X51599682Y-75503398D01*
X51565194Y-75537886D01*
X51546530Y-75582946D01*
X49907574Y-75582946D01*
X49907574Y-75416857D01*
X49905172Y-75392471D01*
X49903453Y-75388322D01*
X49903135Y-75383841D01*
X49894378Y-75360956D01*
X49799139Y-75170479D01*
X49792532Y-75159984D01*
X49791269Y-75156934D01*
X49788450Y-75153499D01*
X49786085Y-75149742D01*
X49783593Y-75147580D01*
X49775724Y-75137992D01*
X49680485Y-75042754D01*
X49670896Y-75034885D01*
X49668736Y-75032394D01*
X49664979Y-75030029D01*
X49661543Y-75027209D01*
X49658491Y-75025945D01*
X49647999Y-75019340D01*
X49457523Y-74924102D01*
X49434637Y-74915344D01*
X49430155Y-74915025D01*
X49426007Y-74913307D01*
X49401621Y-74910905D01*
X48830193Y-74910905D01*
X48805807Y-74913307D01*
X48801657Y-74915025D01*
X48797178Y-74915344D01*
X48774292Y-74924101D01*
X48583815Y-75019339D01*
X48573316Y-75025948D01*
X48570270Y-75027210D01*
X48566838Y-75030025D01*
X48563077Y-75032394D01*
X48560913Y-75034888D01*
X48551328Y-75042755D01*
X48456090Y-75137993D01*
X48448223Y-75147578D01*
X48445729Y-75149742D01*
X48443361Y-75153503D01*
X48440545Y-75156935D01*
X48439282Y-75159982D01*
X48432675Y-75170479D01*
X48337437Y-75360955D01*
X48328679Y-75383841D01*
X48328360Y-75388322D01*
X48326642Y-75392471D01*
X48324240Y-75416857D01*
X48324240Y-75797810D01*
X48326642Y-75822196D01*
X48328360Y-75826344D01*
X48328679Y-75830826D01*
X48337437Y-75853712D01*
X48342224Y-75863286D01*
X47782574Y-75863286D01*
X47758188Y-75865688D01*
X47713128Y-75884352D01*
X47678640Y-75918840D01*
X47659976Y-75963900D01*
X47435352Y-75963900D01*
X47435352Y-74274000D01*
X48324240Y-74274000D01*
X48324240Y-74464477D01*
X48326642Y-74488863D01*
X48345306Y-74533923D01*
X48379794Y-74568411D01*
X48424854Y-74587075D01*
X48473626Y-74587075D01*
X48518686Y-74568411D01*
X48551770Y-74535327D01*
X50879864Y-74535327D01*
X50879864Y-74584099D01*
X50898528Y-74629159D01*
X50933016Y-74663647D01*
X50978076Y-74682311D01*
X51002462Y-74684713D01*
X52687238Y-74684713D01*
X52814055Y-74748121D01*
X52890659Y-74901329D01*
X52903713Y-74922066D01*
X52940558Y-74954022D01*
X52986828Y-74969446D01*
X53035478Y-74965988D01*
X53079101Y-74944177D01*
X53111057Y-74907332D01*
X53126481Y-74861061D01*
X53123023Y-74812411D01*
X53114266Y-74789526D01*
X53019027Y-74599049D01*
X53016460Y-74594972D01*
X53015819Y-74593047D01*
X53013739Y-74590648D01*
X53005973Y-74578312D01*
X52994132Y-74568042D01*
X52983863Y-74556202D01*
X52971526Y-74548435D01*
X52969128Y-74546356D01*
X52967202Y-74545714D01*
X52963126Y-74543148D01*
X52772648Y-74447909D01*
X52749763Y-74439152D01*
X52745281Y-74438833D01*
X52741133Y-74437115D01*
X52716747Y-74434713D01*
X51002462Y-74434713D01*
X50978076Y-74437115D01*
X50933016Y-74455779D01*
X50898528Y-74490267D01*
X50879864Y-74535327D01*
X48551770Y-74535327D01*
X48553174Y-74533923D01*
X48571838Y-74488863D01*
X48574240Y-74464477D01*
X48574240Y-74303508D01*
X48647210Y-74157567D01*
X48713759Y-74091019D01*
X48859701Y-74018048D01*
X49782574Y-74018048D01*
X49806960Y-74015646D01*
X49852020Y-73996982D01*
X49886508Y-73962494D01*
X49905172Y-73917434D01*
X49905172Y-73868662D01*
X49886508Y-73823602D01*
X49852020Y-73789114D01*
X49806960Y-73770450D01*
X49782574Y-73768048D01*
X48449240Y-73768048D01*
X48424854Y-73770450D01*
X48379794Y-73789114D01*
X48345306Y-73823602D01*
X48326642Y-73868662D01*
X48326642Y-73917434D01*
X48345306Y-73962494D01*
X48379794Y-73996982D01*
X48424854Y-74015646D01*
X48439305Y-74017069D01*
X48439282Y-74017125D01*
X48432675Y-74027622D01*
X48337437Y-74218098D01*
X48328679Y-74240984D01*
X48328360Y-74245465D01*
X48326642Y-74249614D01*
X48324240Y-74274000D01*
X47435352Y-74274000D01*
X47435352Y-73702570D01*
X50877462Y-73702570D01*
X50877462Y-73893046D01*
X50879864Y-73917432D01*
X50898528Y-73962492D01*
X50933016Y-73996980D01*
X50978076Y-74015644D01*
X51026848Y-74015644D01*
X51071908Y-73996980D01*
X51106396Y-73962492D01*
X51125060Y-73917432D01*
X51127462Y-73893046D01*
X51127462Y-73732078D01*
X51190869Y-73605263D01*
X51317684Y-73541856D01*
X51544128Y-73541856D01*
X51544128Y-73893046D01*
X51546530Y-73917432D01*
X51565194Y-73962492D01*
X51599682Y-73996980D01*
X51644742Y-74015644D01*
X51693514Y-74015644D01*
X51738574Y-73996980D01*
X51773062Y-73962492D01*
X51791726Y-73917432D01*
X51794128Y-73893046D01*
X51794128Y-73541856D01*
X53002462Y-73541856D01*
X53026848Y-73539454D01*
X53071908Y-73520790D01*
X53106396Y-73486302D01*
X53125060Y-73441242D01*
X53125060Y-73392470D01*
X53106396Y-73347410D01*
X53071908Y-73312922D01*
X53026848Y-73294258D01*
X53002462Y-73291856D01*
X51794128Y-73291856D01*
X51794128Y-73131142D01*
X51791726Y-73106756D01*
X51773062Y-73061696D01*
X51738574Y-73027208D01*
X51693514Y-73008544D01*
X51644742Y-73008544D01*
X51599682Y-73027208D01*
X51565194Y-73061696D01*
X51546530Y-73106756D01*
X51544128Y-73131142D01*
X51544128Y-73291856D01*
X51288176Y-73291856D01*
X51263790Y-73294258D01*
X51259641Y-73295976D01*
X51255160Y-73296295D01*
X51232275Y-73305052D01*
X51041798Y-73400291D01*
X51037721Y-73402857D01*
X51035796Y-73403499D01*
X51033397Y-73405578D01*
X51021061Y-73413345D01*
X51010791Y-73425185D01*
X50998951Y-73435455D01*
X50991184Y-73447791D01*
X50989105Y-73450190D01*
X50988463Y-73452115D01*
X50985897Y-73456192D01*
X50890659Y-73646668D01*
X50881901Y-73669554D01*
X50881582Y-73674035D01*
X50879864Y-73678184D01*
X50877462Y-73702570D01*
X47435352Y-73702570D01*
X47435352Y-72274000D01*
X48324240Y-72274000D01*
X48324240Y-72654953D01*
X48326642Y-72679339D01*
X48328360Y-72683487D01*
X48328679Y-72687969D01*
X48337437Y-72710855D01*
X48432675Y-72901331D01*
X48435241Y-72905407D01*
X48435883Y-72907333D01*
X48437962Y-72909731D01*
X48445729Y-72922068D01*
X48457569Y-72932337D01*
X48467839Y-72944178D01*
X48480176Y-72951944D01*
X48482574Y-72954024D01*
X48484498Y-72954665D01*
X48488577Y-72957233D01*
X48679054Y-73052471D01*
X48701940Y-73061228D01*
X48706419Y-73061546D01*
X48710569Y-73063265D01*
X48734955Y-73065667D01*
X49782574Y-73065667D01*
X49806960Y-73063265D01*
X49852020Y-73044601D01*
X49886508Y-73010113D01*
X49905172Y-72965053D01*
X49905172Y-72916281D01*
X49886508Y-72871221D01*
X49870044Y-72854757D01*
X49894378Y-72806092D01*
X49903135Y-72783207D01*
X49903453Y-72778725D01*
X49905172Y-72774577D01*
X49907574Y-72750191D01*
X49907574Y-72274000D01*
X49905172Y-72249614D01*
X49903453Y-72245465D01*
X49903135Y-72240984D01*
X49894378Y-72218099D01*
X49799139Y-72027622D01*
X49796572Y-72023545D01*
X49795931Y-72021620D01*
X49793851Y-72019221D01*
X49786085Y-72006885D01*
X49774244Y-71996615D01*
X49763975Y-71984775D01*
X49751638Y-71977008D01*
X49749240Y-71974929D01*
X49747314Y-71974287D01*
X49743238Y-71971721D01*
X49585888Y-71893046D01*
X51544128Y-71893046D01*
X51544128Y-72178761D01*
X51546530Y-72203147D01*
X51548248Y-72207295D01*
X51548567Y-72211777D01*
X51557325Y-72234663D01*
X51652563Y-72425139D01*
X51659170Y-72435635D01*
X51660433Y-72438683D01*
X51663249Y-72442114D01*
X51665617Y-72445876D01*
X51668111Y-72448039D01*
X51675978Y-72457625D01*
X51771216Y-72552863D01*
X51780801Y-72560729D01*
X51782965Y-72563224D01*
X51786726Y-72565592D01*
X51790158Y-72568408D01*
X51793204Y-72569669D01*
X51803703Y-72576279D01*
X51994180Y-72671517D01*
X52017066Y-72680274D01*
X52021545Y-72680592D01*
X52025695Y-72682311D01*
X52050081Y-72684713D01*
X52621509Y-72684713D01*
X52645895Y-72682311D01*
X52650043Y-72680592D01*
X52654525Y-72680274D01*
X52677411Y-72671516D01*
X52867887Y-72576278D01*
X52878379Y-72569672D01*
X52881431Y-72568409D01*
X52884867Y-72565588D01*
X52888624Y-72563224D01*
X52890784Y-72560732D01*
X52900373Y-72552864D01*
X52995612Y-72457626D01*
X53003481Y-72448037D01*
X53005973Y-72445876D01*
X53008338Y-72442118D01*
X53011157Y-72438684D01*
X53012420Y-72435633D01*
X53019027Y-72425139D01*
X53114266Y-72234662D01*
X53123023Y-72211777D01*
X53123341Y-72207295D01*
X53125060Y-72203147D01*
X53127462Y-72178761D01*
X53127462Y-71893046D01*
X53125060Y-71868660D01*
X53123341Y-71864511D01*
X53123023Y-71860030D01*
X53114266Y-71837145D01*
X53019027Y-71646668D01*
X53012420Y-71636173D01*
X53011157Y-71633123D01*
X53008338Y-71629688D01*
X53005973Y-71625931D01*
X53003481Y-71623769D01*
X52995612Y-71614181D01*
X52900373Y-71518943D01*
X52890784Y-71511074D01*
X52888624Y-71508583D01*
X52884867Y-71506218D01*
X52881431Y-71503398D01*
X52878379Y-71502134D01*
X52867887Y-71495529D01*
X52677411Y-71400291D01*
X52654525Y-71391533D01*
X52650043Y-71391214D01*
X52645895Y-71389496D01*
X52621509Y-71387094D01*
X52050081Y-71387094D01*
X52025695Y-71389496D01*
X52021545Y-71391214D01*
X52017066Y-71391533D01*
X51994180Y-71400290D01*
X51803703Y-71495528D01*
X51793204Y-71502137D01*
X51790158Y-71503399D01*
X51786726Y-71506214D01*
X51782965Y-71508583D01*
X51780801Y-71511077D01*
X51771216Y-71518944D01*
X51675978Y-71614182D01*
X51668111Y-71623767D01*
X51665617Y-71625931D01*
X51663249Y-71629692D01*
X51660433Y-71633124D01*
X51659170Y-71636171D01*
X51652563Y-71646668D01*
X51557325Y-71837144D01*
X51548567Y-71860030D01*
X51548248Y-71864511D01*
X51546530Y-71868660D01*
X51544128Y-71893046D01*
X49585888Y-71893046D01*
X49552760Y-71876482D01*
X49529875Y-71867725D01*
X49525393Y-71867406D01*
X49521245Y-71865688D01*
X49496859Y-71863286D01*
X49306383Y-71863286D01*
X49281997Y-71865688D01*
X49277848Y-71867406D01*
X49273367Y-71867725D01*
X49250482Y-71876482D01*
X49060005Y-71971721D01*
X49055928Y-71974287D01*
X49054003Y-71974929D01*
X49051604Y-71977008D01*
X49039268Y-71984775D01*
X49028998Y-71996615D01*
X49017158Y-72006885D01*
X49009391Y-72019221D01*
X49007312Y-72021620D01*
X49006670Y-72023545D01*
X49004104Y-72027622D01*
X48908866Y-72218098D01*
X48900108Y-72240984D01*
X48899789Y-72245465D01*
X48898071Y-72249614D01*
X48895669Y-72274000D01*
X48895669Y-72720683D01*
X48848177Y-72815667D01*
X48764463Y-72815667D01*
X48637647Y-72752259D01*
X48574240Y-72625444D01*
X48574240Y-72303508D01*
X48656282Y-72139425D01*
X48665039Y-72116540D01*
X48668497Y-72067890D01*
X48653073Y-72021619D01*
X48621117Y-71984774D01*
X48577494Y-71962963D01*
X48528844Y-71959505D01*
X48482574Y-71974929D01*
X48445729Y-72006885D01*
X48432675Y-72027622D01*
X48337437Y-72218098D01*
X48328679Y-72240984D01*
X48328360Y-72245465D01*
X48326642Y-72249614D01*
X48324240Y-72274000D01*
X47435352Y-72274000D01*
X47435352Y-70559714D01*
X48324240Y-70559714D01*
X48324240Y-70845429D01*
X48326642Y-70869815D01*
X48328360Y-70873963D01*
X48328679Y-70878445D01*
X48337437Y-70901331D01*
X48432675Y-71091807D01*
X48439282Y-71102303D01*
X48440545Y-71105351D01*
X48443361Y-71108782D01*
X48445729Y-71112544D01*
X48448223Y-71114707D01*
X48456090Y-71124293D01*
X48551328Y-71219531D01*
X48560913Y-71227397D01*
X48563077Y-71229892D01*
X48566838Y-71232260D01*
X48570270Y-71235076D01*
X48573316Y-71236337D01*
X48583815Y-71242947D01*
X48774292Y-71338185D01*
X48797178Y-71346942D01*
X48801657Y-71347260D01*
X48805807Y-71348979D01*
X48830193Y-71351381D01*
X49401621Y-71351381D01*
X49426007Y-71348979D01*
X49430155Y-71347260D01*
X49434637Y-71346942D01*
X49457523Y-71338184D01*
X49647999Y-71242946D01*
X49658491Y-71236340D01*
X49661543Y-71235077D01*
X49664979Y-71232256D01*
X49668736Y-71229892D01*
X49670896Y-71227400D01*
X49680485Y-71219532D01*
X49775724Y-71124294D01*
X49783593Y-71114705D01*
X49786085Y-71112544D01*
X49788450Y-71108786D01*
X49791269Y-71105352D01*
X49792532Y-71102301D01*
X49799139Y-71091807D01*
X49894378Y-70901330D01*
X49903135Y-70878445D01*
X49903453Y-70873963D01*
X49905172Y-70869815D01*
X49907574Y-70845429D01*
X49907574Y-70630564D01*
X50879864Y-70630564D01*
X50879864Y-70679338D01*
X50880446Y-70680743D01*
X50898528Y-70724397D01*
X50898533Y-70724402D01*
X50914074Y-70743339D01*
X51009312Y-70838577D01*
X51028254Y-70854122D01*
X51073313Y-70872787D01*
X51122087Y-70872787D01*
X51167146Y-70854122D01*
X51186088Y-70838577D01*
X51281326Y-70743339D01*
X51296866Y-70724402D01*
X51296872Y-70724397D01*
X51314954Y-70680743D01*
X51315536Y-70679338D01*
X51315536Y-70630565D01*
X51546530Y-70630565D01*
X51546530Y-70679337D01*
X51565194Y-70724397D01*
X51599682Y-70758885D01*
X51644742Y-70777549D01*
X51669128Y-70779951D01*
X53002462Y-70779951D01*
X53026848Y-70777549D01*
X53071908Y-70758885D01*
X53106396Y-70724397D01*
X53125060Y-70679337D01*
X53125060Y-70630565D01*
X53106396Y-70585505D01*
X53071908Y-70551017D01*
X53026848Y-70532353D01*
X53002462Y-70529951D01*
X51669128Y-70529951D01*
X51644742Y-70532353D01*
X51599682Y-70551017D01*
X51565194Y-70585505D01*
X51546530Y-70630565D01*
X51315536Y-70630565D01*
X51315536Y-70630564D01*
X51309344Y-70615616D01*
X51296872Y-70585505D01*
X51296866Y-70585499D01*
X51281326Y-70566563D01*
X51186088Y-70471325D01*
X51167146Y-70455780D01*
X51122087Y-70437115D01*
X51073313Y-70437115D01*
X51028254Y-70455780D01*
X51009312Y-70471325D01*
X50914074Y-70566563D01*
X50898533Y-70585499D01*
X50898528Y-70585505D01*
X50886056Y-70615616D01*
X50879864Y-70630564D01*
X49907574Y-70630564D01*
X49907574Y-70559714D01*
X49905172Y-70535328D01*
X49903453Y-70531179D01*
X49903135Y-70526698D01*
X49894378Y-70503813D01*
X49799139Y-70313336D01*
X49792532Y-70302841D01*
X49791269Y-70299791D01*
X49788450Y-70296356D01*
X49786085Y-70292599D01*
X49783593Y-70290437D01*
X49775724Y-70280849D01*
X49680485Y-70185611D01*
X49670896Y-70177742D01*
X49668736Y-70175251D01*
X49664979Y-70172886D01*
X49661543Y-70170066D01*
X49658491Y-70168802D01*
X49647999Y-70162197D01*
X49457523Y-70066959D01*
X49434637Y-70058201D01*
X49430155Y-70057882D01*
X49426007Y-70056164D01*
X49401621Y-70053762D01*
X48830193Y-70053762D01*
X48805807Y-70056164D01*
X48801657Y-70057882D01*
X48797178Y-70058201D01*
X48774292Y-70066958D01*
X48583815Y-70162196D01*
X48573316Y-70168805D01*
X48570270Y-70170067D01*
X48566838Y-70172882D01*
X48563077Y-70175251D01*
X48560913Y-70177745D01*
X48551328Y-70185612D01*
X48456090Y-70280850D01*
X48448223Y-70290435D01*
X48445729Y-70292599D01*
X48443361Y-70296360D01*
X48440545Y-70299792D01*
X48439282Y-70302839D01*
X48432675Y-70313336D01*
X48337437Y-70503812D01*
X48328679Y-70526698D01*
X48328360Y-70531179D01*
X48326642Y-70535328D01*
X48324240Y-70559714D01*
X47435352Y-70559714D01*
X47435352Y-68274000D01*
X47657574Y-68274000D01*
X47657574Y-68940667D01*
X47659976Y-68965053D01*
X47661694Y-68969201D01*
X47662013Y-68973683D01*
X47670771Y-68996569D01*
X47766009Y-69187045D01*
X47772616Y-69197541D01*
X47773879Y-69200589D01*
X47776695Y-69204020D01*
X47779063Y-69207782D01*
X47781557Y-69209945D01*
X47789424Y-69219531D01*
X47884662Y-69314769D01*
X47894247Y-69322635D01*
X47896411Y-69325130D01*
X47900172Y-69327497D01*
X47903604Y-69330314D01*
X47906651Y-69331576D01*
X47917148Y-69338184D01*
X48107625Y-69433423D01*
X48130510Y-69442180D01*
X48134991Y-69442498D01*
X48139140Y-69444217D01*
X48163526Y-69446619D01*
X48354002Y-69446619D01*
X48378388Y-69444217D01*
X48382536Y-69442498D01*
X48387018Y-69442180D01*
X48409904Y-69433422D01*
X48600380Y-69338184D01*
X48610876Y-69331576D01*
X48613924Y-69330314D01*
X48617355Y-69327497D01*
X48621117Y-69325130D01*
X48623280Y-69322635D01*
X48632866Y-69314769D01*
X48704137Y-69243497D01*
X48711608Y-69265909D01*
X48721598Y-69288284D01*
X48724541Y-69291677D01*
X48726260Y-69295827D01*
X48741805Y-69314769D01*
X48837043Y-69410007D01*
X48846628Y-69417873D01*
X48848792Y-69420368D01*
X48852553Y-69422735D01*
X48855985Y-69425552D01*
X48859032Y-69426814D01*
X48869529Y-69433422D01*
X49060006Y-69528661D01*
X49082891Y-69537418D01*
X49087372Y-69537736D01*
X49091521Y-69539455D01*
X49115907Y-69541857D01*
X49401621Y-69541857D01*
X49426007Y-69539455D01*
X49430155Y-69537736D01*
X49434637Y-69537418D01*
X49457523Y-69528660D01*
X49647999Y-69433422D01*
X49658491Y-69426816D01*
X49661543Y-69425553D01*
X49664979Y-69422732D01*
X49668736Y-69420368D01*
X49670896Y-69417876D01*
X49680485Y-69410008D01*
X49775724Y-69314770D01*
X49783593Y-69305181D01*
X49786085Y-69303020D01*
X49788450Y-69299262D01*
X49791269Y-69295828D01*
X49792532Y-69292777D01*
X49799139Y-69282283D01*
X49894378Y-69091806D01*
X49903135Y-69068921D01*
X49903453Y-69064439D01*
X49905172Y-69060291D01*
X49907574Y-69035905D01*
X49907574Y-68654951D01*
X50877462Y-68654951D01*
X50877462Y-69321618D01*
X50879864Y-69346004D01*
X50881582Y-69350152D01*
X50881901Y-69354634D01*
X50890659Y-69377520D01*
X50985897Y-69567996D01*
X50992504Y-69578492D01*
X50993767Y-69581540D01*
X50996583Y-69584971D01*
X50998951Y-69588733D01*
X51001445Y-69590896D01*
X51009312Y-69600482D01*
X51104550Y-69695720D01*
X51114135Y-69703586D01*
X51116299Y-69706081D01*
X51120060Y-69708448D01*
X51123492Y-69711265D01*
X51126539Y-69712527D01*
X51137036Y-69719135D01*
X51327513Y-69814374D01*
X51350398Y-69823131D01*
X51354879Y-69823449D01*
X51359028Y-69825168D01*
X51383414Y-69827570D01*
X51573890Y-69827570D01*
X51598276Y-69825168D01*
X51602424Y-69823449D01*
X51606906Y-69823131D01*
X51629792Y-69814373D01*
X51820268Y-69719135D01*
X51830764Y-69712527D01*
X51833812Y-69711265D01*
X51837243Y-69708448D01*
X51841005Y-69706081D01*
X51843168Y-69703586D01*
X51852754Y-69695720D01*
X51924025Y-69624448D01*
X51931496Y-69646860D01*
X51941486Y-69669235D01*
X51944429Y-69672628D01*
X51946148Y-69676778D01*
X51961693Y-69695720D01*
X52056931Y-69790958D01*
X52066516Y-69798824D01*
X52068680Y-69801319D01*
X52072441Y-69803686D01*
X52075873Y-69806503D01*
X52078920Y-69807765D01*
X52089417Y-69814373D01*
X52279894Y-69909612D01*
X52302779Y-69918369D01*
X52307260Y-69918687D01*
X52311409Y-69920406D01*
X52335795Y-69922808D01*
X52621509Y-69922808D01*
X52645895Y-69920406D01*
X52650043Y-69918687D01*
X52654525Y-69918369D01*
X52677411Y-69909611D01*
X52867887Y-69814373D01*
X52878379Y-69807767D01*
X52881431Y-69806504D01*
X52884867Y-69803683D01*
X52888624Y-69801319D01*
X52890784Y-69798827D01*
X52900373Y-69790959D01*
X52995612Y-69695721D01*
X53003481Y-69686132D01*
X53005973Y-69683971D01*
X53008338Y-69680213D01*
X53011157Y-69676779D01*
X53012420Y-69673728D01*
X53019027Y-69663234D01*
X53114266Y-69472757D01*
X53123023Y-69449872D01*
X53123341Y-69445390D01*
X53125060Y-69441242D01*
X53127462Y-69416856D01*
X53127462Y-68654951D01*
X53125060Y-68630565D01*
X53106396Y-68585505D01*
X53071908Y-68551017D01*
X53026848Y-68532353D01*
X53002462Y-68529951D01*
X51002462Y-68529951D01*
X50978076Y-68532353D01*
X50933016Y-68551017D01*
X50898528Y-68585505D01*
X50879864Y-68630565D01*
X50877462Y-68654951D01*
X49907574Y-68654951D01*
X49907574Y-68274000D01*
X49905172Y-68249614D01*
X49886508Y-68204554D01*
X49852020Y-68170066D01*
X49806960Y-68151402D01*
X49782574Y-68149000D01*
X47782574Y-68149000D01*
X47758188Y-68151402D01*
X47713128Y-68170066D01*
X47678640Y-68204554D01*
X47659976Y-68249614D01*
X47657574Y-68274000D01*
X47435352Y-68274000D01*
X47435352Y-66273998D01*
X51544128Y-66273998D01*
X51544128Y-66464475D01*
X51546530Y-66488861D01*
X51565194Y-66533921D01*
X51599682Y-66568409D01*
X51644742Y-66587073D01*
X51693514Y-66587073D01*
X51738574Y-66568409D01*
X51773062Y-66533921D01*
X51791726Y-66488861D01*
X51794128Y-66464475D01*
X51794128Y-66303506D01*
X51867098Y-66157565D01*
X51933647Y-66091017D01*
X52079589Y-66018046D01*
X53002462Y-66018046D01*
X53026848Y-66015644D01*
X53071908Y-65996980D01*
X53106396Y-65962492D01*
X53125060Y-65917432D01*
X53125060Y-65868660D01*
X53106396Y-65823600D01*
X53071908Y-65789112D01*
X53026848Y-65770448D01*
X53002462Y-65768046D01*
X51669128Y-65768046D01*
X51644742Y-65770448D01*
X51599682Y-65789112D01*
X51565194Y-65823600D01*
X51546530Y-65868660D01*
X51546530Y-65917432D01*
X51565194Y-65962492D01*
X51599682Y-65996980D01*
X51644742Y-66015644D01*
X51659193Y-66017067D01*
X51659170Y-66017123D01*
X51652563Y-66027620D01*
X51557325Y-66218096D01*
X51548567Y-66240982D01*
X51548248Y-66245463D01*
X51546530Y-66249612D01*
X51544128Y-66273998D01*
X47435352Y-66273998D01*
X47435352Y-65226380D01*
X48324240Y-65226380D01*
X48324240Y-65512095D01*
X48326642Y-65536481D01*
X48328360Y-65540629D01*
X48328679Y-65545111D01*
X48337437Y-65567997D01*
X48432675Y-65758473D01*
X48435241Y-65762549D01*
X48435883Y-65764475D01*
X48437962Y-65766873D01*
X48445729Y-65779210D01*
X48457569Y-65789479D01*
X48467839Y-65801320D01*
X48480176Y-65809086D01*
X48482574Y-65811166D01*
X48484498Y-65811807D01*
X48488577Y-65814375D01*
X48679054Y-65909613D01*
X48701940Y-65918370D01*
X48706419Y-65918688D01*
X48710569Y-65920407D01*
X48734955Y-65922809D01*
X49782574Y-65922809D01*
X49806960Y-65920407D01*
X49852020Y-65901743D01*
X49886508Y-65867255D01*
X49905172Y-65822195D01*
X49905172Y-65773423D01*
X49886508Y-65728363D01*
X49852020Y-65693875D01*
X49806960Y-65675211D01*
X49782574Y-65672809D01*
X48764463Y-65672809D01*
X48637647Y-65609401D01*
X48574240Y-65482586D01*
X48574240Y-65255888D01*
X48647210Y-65109947D01*
X48691492Y-65065666D01*
X49782574Y-65065666D01*
X49806960Y-65063264D01*
X49852020Y-65044600D01*
X49886508Y-65010112D01*
X49905172Y-64965052D01*
X49905172Y-64916280D01*
X49905171Y-64916278D01*
X50879864Y-64916278D01*
X50879864Y-64965052D01*
X50881684Y-64969446D01*
X50898528Y-65010111D01*
X50898533Y-65010116D01*
X50914074Y-65029053D01*
X51009312Y-65124291D01*
X51028254Y-65139836D01*
X51073313Y-65158501D01*
X51122087Y-65158501D01*
X51167146Y-65139836D01*
X51186088Y-65124291D01*
X51281326Y-65029053D01*
X51296866Y-65010116D01*
X51296872Y-65010111D01*
X51313716Y-64969446D01*
X51315536Y-64965052D01*
X51315536Y-64916278D01*
X51309344Y-64901329D01*
X51296872Y-64871219D01*
X51296866Y-64871213D01*
X51281326Y-64852277D01*
X51186088Y-64757039D01*
X51167146Y-64741494D01*
X51122087Y-64722829D01*
X51073313Y-64722829D01*
X51028254Y-64741494D01*
X51009312Y-64757039D01*
X50914074Y-64852277D01*
X50898533Y-64871213D01*
X50898528Y-64871219D01*
X50886056Y-64901329D01*
X50879864Y-64916278D01*
X49905171Y-64916278D01*
X49886508Y-64871220D01*
X49852020Y-64836732D01*
X49806960Y-64818068D01*
X49782574Y-64815666D01*
X48449240Y-64815666D01*
X48424854Y-64818068D01*
X48379794Y-64836732D01*
X48345306Y-64871220D01*
X48326642Y-64916280D01*
X48326642Y-64965052D01*
X48345306Y-65010112D01*
X48379794Y-65044600D01*
X48396844Y-65051662D01*
X48337437Y-65170478D01*
X48328679Y-65193364D01*
X48328360Y-65197845D01*
X48326642Y-65201994D01*
X48324240Y-65226380D01*
X47435352Y-65226380D01*
X47435352Y-63416856D01*
X48324240Y-63416856D01*
X48324240Y-63702571D01*
X48326642Y-63726957D01*
X48328360Y-63731105D01*
X48328679Y-63735587D01*
X48337437Y-63758473D01*
X48432675Y-63948949D01*
X48439282Y-63959445D01*
X48440545Y-63962493D01*
X48443361Y-63965924D01*
X48445729Y-63969686D01*
X48448223Y-63971849D01*
X48456090Y-63981435D01*
X48551328Y-64076673D01*
X48560913Y-64084539D01*
X48563077Y-64087034D01*
X48566838Y-64089402D01*
X48570270Y-64092218D01*
X48573316Y-64093479D01*
X48583815Y-64100089D01*
X48774292Y-64195327D01*
X48797178Y-64204084D01*
X48801657Y-64204402D01*
X48805807Y-64206121D01*
X48830193Y-64208523D01*
X49401621Y-64208523D01*
X49426007Y-64206121D01*
X49430155Y-64204402D01*
X49434637Y-64204084D01*
X49457523Y-64195326D01*
X49539429Y-64154373D01*
X50879864Y-64154373D01*
X50879864Y-64203147D01*
X50885330Y-64216344D01*
X50898528Y-64248206D01*
X50898533Y-64248211D01*
X50914074Y-64267148D01*
X51009312Y-64362386D01*
X51028254Y-64377931D01*
X51073313Y-64396596D01*
X51122087Y-64396596D01*
X51167146Y-64377931D01*
X51186088Y-64362386D01*
X51281326Y-64267148D01*
X51296866Y-64248211D01*
X51296872Y-64248206D01*
X51310069Y-64216344D01*
X51315536Y-64203147D01*
X51315536Y-64154373D01*
X51310069Y-64141175D01*
X51296872Y-64109314D01*
X51296866Y-64109308D01*
X51281326Y-64090372D01*
X51250090Y-64059136D01*
X51546530Y-64059136D01*
X51546530Y-64107908D01*
X51565194Y-64152968D01*
X51599682Y-64187456D01*
X51644742Y-64206120D01*
X51669128Y-64208522D01*
X52687238Y-64208522D01*
X52814055Y-64271930D01*
X52877462Y-64398744D01*
X52877462Y-64625443D01*
X52804493Y-64771380D01*
X52760208Y-64815665D01*
X51669128Y-64815665D01*
X51644742Y-64818067D01*
X51599682Y-64836731D01*
X51565194Y-64871219D01*
X51546530Y-64916279D01*
X51546530Y-64965051D01*
X51565194Y-65010111D01*
X51599682Y-65044599D01*
X51644742Y-65063263D01*
X51669128Y-65065665D01*
X53002462Y-65065665D01*
X53026848Y-65063263D01*
X53071908Y-65044599D01*
X53106396Y-65010111D01*
X53125060Y-64965051D01*
X53125060Y-64916279D01*
X53106396Y-64871219D01*
X53071908Y-64836731D01*
X53054857Y-64829668D01*
X53114266Y-64710852D01*
X53123023Y-64687967D01*
X53123341Y-64683485D01*
X53125060Y-64679337D01*
X53127462Y-64654951D01*
X53127462Y-64369236D01*
X53125060Y-64344850D01*
X53123341Y-64340701D01*
X53123023Y-64336220D01*
X53114266Y-64313335D01*
X53019027Y-64122858D01*
X53016460Y-64118781D01*
X53015819Y-64116856D01*
X53013739Y-64114457D01*
X53005973Y-64102121D01*
X52994132Y-64091851D01*
X52983863Y-64080011D01*
X52971526Y-64072244D01*
X52969128Y-64070165D01*
X52967202Y-64069523D01*
X52963126Y-64066957D01*
X52772648Y-63971718D01*
X52749763Y-63962961D01*
X52745281Y-63962642D01*
X52741133Y-63960924D01*
X52716747Y-63958522D01*
X51669128Y-63958522D01*
X51644742Y-63960924D01*
X51599682Y-63979588D01*
X51565194Y-64014076D01*
X51546530Y-64059136D01*
X51250090Y-64059136D01*
X51186088Y-63995134D01*
X51167146Y-63979589D01*
X51122087Y-63960924D01*
X51073313Y-63960924D01*
X51028254Y-63979589D01*
X51009312Y-63995134D01*
X50914074Y-64090372D01*
X50898533Y-64109308D01*
X50898528Y-64109314D01*
X50885330Y-64141175D01*
X50879864Y-64154373D01*
X49539429Y-64154373D01*
X49647999Y-64100088D01*
X49658491Y-64093482D01*
X49661543Y-64092219D01*
X49664979Y-64089398D01*
X49668736Y-64087034D01*
X49670896Y-64084542D01*
X49680485Y-64076674D01*
X49775724Y-63981436D01*
X49783593Y-63971847D01*
X49786085Y-63969686D01*
X49788450Y-63965928D01*
X49791269Y-63962494D01*
X49792532Y-63959443D01*
X49799139Y-63948949D01*
X49894378Y-63758472D01*
X49903135Y-63735587D01*
X49903453Y-63731105D01*
X49905172Y-63726957D01*
X49907574Y-63702571D01*
X49907574Y-63416856D01*
X49905172Y-63392470D01*
X49903453Y-63388321D01*
X49903135Y-63383840D01*
X49894378Y-63360955D01*
X49827090Y-63226379D01*
X50877462Y-63226379D01*
X50877462Y-63416855D01*
X50879864Y-63441241D01*
X50898528Y-63486301D01*
X50933016Y-63520789D01*
X50978076Y-63539453D01*
X51026848Y-63539453D01*
X51071908Y-63520789D01*
X51106396Y-63486301D01*
X51125060Y-63441241D01*
X51127462Y-63416855D01*
X51127462Y-63255887D01*
X51190869Y-63129072D01*
X51317684Y-63065665D01*
X51544128Y-63065665D01*
X51544128Y-63416855D01*
X51546530Y-63441241D01*
X51565194Y-63486301D01*
X51599682Y-63520789D01*
X51644742Y-63539453D01*
X51693514Y-63539453D01*
X51738574Y-63520789D01*
X51773062Y-63486301D01*
X51791726Y-63441241D01*
X51794128Y-63416855D01*
X51794128Y-63065665D01*
X53002462Y-63065665D01*
X53026848Y-63063263D01*
X53071908Y-63044599D01*
X53106396Y-63010111D01*
X53125060Y-62965051D01*
X53125060Y-62916279D01*
X53106396Y-62871219D01*
X53071908Y-62836731D01*
X53026848Y-62818067D01*
X53002462Y-62815665D01*
X51794128Y-62815665D01*
X51794128Y-62654951D01*
X51791726Y-62630565D01*
X51773062Y-62585505D01*
X51738574Y-62551017D01*
X51693514Y-62532353D01*
X51644742Y-62532353D01*
X51599682Y-62551017D01*
X51565194Y-62585505D01*
X51546530Y-62630565D01*
X51544128Y-62654951D01*
X51544128Y-62815665D01*
X51288176Y-62815665D01*
X51263790Y-62818067D01*
X51259641Y-62819785D01*
X51255160Y-62820104D01*
X51232275Y-62828861D01*
X51041798Y-62924100D01*
X51037721Y-62926666D01*
X51035796Y-62927308D01*
X51033397Y-62929387D01*
X51021061Y-62937154D01*
X51010791Y-62948994D01*
X50998951Y-62959264D01*
X50991184Y-62971600D01*
X50989105Y-62973999D01*
X50988463Y-62975924D01*
X50985897Y-62980001D01*
X50890659Y-63170477D01*
X50881901Y-63193363D01*
X50881582Y-63197844D01*
X50879864Y-63201993D01*
X50877462Y-63226379D01*
X49827090Y-63226379D01*
X49799139Y-63170478D01*
X49792532Y-63159983D01*
X49791269Y-63156933D01*
X49788450Y-63153498D01*
X49786085Y-63149741D01*
X49783593Y-63147579D01*
X49775724Y-63137991D01*
X49680485Y-63042753D01*
X49670896Y-63034884D01*
X49668736Y-63032393D01*
X49664979Y-63030028D01*
X49661543Y-63027208D01*
X49658491Y-63025944D01*
X49647999Y-63019339D01*
X49457523Y-62924101D01*
X49434637Y-62915343D01*
X49430155Y-62915024D01*
X49426007Y-62913306D01*
X49401621Y-62910904D01*
X48830193Y-62910904D01*
X48805807Y-62913306D01*
X48801657Y-62915024D01*
X48797178Y-62915343D01*
X48774292Y-62924100D01*
X48583815Y-63019338D01*
X48573316Y-63025947D01*
X48570270Y-63027209D01*
X48566838Y-63030024D01*
X48563077Y-63032393D01*
X48560913Y-63034887D01*
X48551328Y-63042754D01*
X48456090Y-63137992D01*
X48448223Y-63147577D01*
X48445729Y-63149741D01*
X48443361Y-63153502D01*
X48440545Y-63156934D01*
X48439282Y-63159981D01*
X48432675Y-63170478D01*
X48337437Y-63360954D01*
X48328679Y-63383840D01*
X48328360Y-63388321D01*
X48326642Y-63392470D01*
X48324240Y-63416856D01*
X47435352Y-63416856D01*
X47435352Y-62154375D01*
X47659976Y-62154375D01*
X47659976Y-62203147D01*
X47678640Y-62248207D01*
X47678645Y-62248212D01*
X47694186Y-62267149D01*
X47789424Y-62362387D01*
X47808366Y-62377932D01*
X47853425Y-62396597D01*
X47902199Y-62396597D01*
X47947258Y-62377932D01*
X47966200Y-62362387D01*
X48061438Y-62267149D01*
X48076978Y-62248212D01*
X48076984Y-62248207D01*
X48095648Y-62203147D01*
X48095648Y-62154375D01*
X48326642Y-62154375D01*
X48326642Y-62203147D01*
X48345306Y-62248207D01*
X48379794Y-62282695D01*
X48424854Y-62301359D01*
X48449240Y-62303761D01*
X49782574Y-62303761D01*
X49806960Y-62301359D01*
X49852020Y-62282695D01*
X49886508Y-62248207D01*
X49905172Y-62203147D01*
X49905172Y-62154375D01*
X49886508Y-62109315D01*
X49852020Y-62074827D01*
X49806960Y-62056163D01*
X49782574Y-62053761D01*
X48449240Y-62053761D01*
X48424854Y-62056163D01*
X48379794Y-62074827D01*
X48345306Y-62109315D01*
X48326642Y-62154375D01*
X48095648Y-62154375D01*
X48076984Y-62109315D01*
X48076978Y-62109309D01*
X48061438Y-62090373D01*
X47966200Y-61995135D01*
X47947258Y-61979590D01*
X47902199Y-61960925D01*
X47853425Y-61960925D01*
X47808366Y-61979590D01*
X47789424Y-61995135D01*
X47694186Y-62090373D01*
X47678645Y-62109309D01*
X47678640Y-62109315D01*
X47659976Y-62154375D01*
X47435352Y-62154375D01*
X47435352Y-61011518D01*
X47659976Y-61011518D01*
X47659976Y-61060290D01*
X47678640Y-61105350D01*
X47713128Y-61139838D01*
X47758188Y-61158502D01*
X47782574Y-61160904D01*
X48324240Y-61160904D01*
X48324240Y-61512094D01*
X48326642Y-61536480D01*
X48345306Y-61581540D01*
X48379794Y-61616028D01*
X48424854Y-61634692D01*
X48473626Y-61634692D01*
X48518686Y-61616028D01*
X48553174Y-61581540D01*
X48571838Y-61536480D01*
X48574240Y-61512094D01*
X48574240Y-61160904D01*
X49467350Y-61160904D01*
X49594167Y-61224312D01*
X49657574Y-61351126D01*
X49657574Y-61512094D01*
X49659976Y-61536480D01*
X49678640Y-61581540D01*
X49713128Y-61616028D01*
X49758188Y-61634692D01*
X49806960Y-61634692D01*
X49852020Y-61616028D01*
X49886508Y-61581540D01*
X49905172Y-61536480D01*
X49907574Y-61512094D01*
X49907574Y-61321618D01*
X49905172Y-61297232D01*
X49903453Y-61293083D01*
X49903135Y-61288602D01*
X49894378Y-61265717D01*
X49799139Y-61075240D01*
X49796572Y-61071163D01*
X49795931Y-61069238D01*
X49793851Y-61066839D01*
X49786085Y-61054503D01*
X49774244Y-61044233D01*
X49763975Y-61032393D01*
X49751638Y-61024626D01*
X49749240Y-61022547D01*
X49747314Y-61021905D01*
X49743238Y-61019339D01*
X49552760Y-60924100D01*
X49529875Y-60915343D01*
X49525393Y-60915024D01*
X49521245Y-60913306D01*
X49496859Y-60910904D01*
X48574240Y-60910904D01*
X48574240Y-60750190D01*
X48571838Y-60725804D01*
X48553174Y-60680744D01*
X48518686Y-60646256D01*
X48473626Y-60627592D01*
X48424854Y-60627592D01*
X48379794Y-60646256D01*
X48345306Y-60680744D01*
X48326642Y-60725804D01*
X48324240Y-60750190D01*
X48324240Y-60910904D01*
X47782574Y-60910904D01*
X47758188Y-60913306D01*
X47713128Y-60931970D01*
X47678640Y-60966458D01*
X47659976Y-61011518D01*
X47435352Y-61011518D01*
X47435352Y-60559712D01*
X51544128Y-60559712D01*
X51544128Y-60750189D01*
X51546530Y-60774575D01*
X51565194Y-60819635D01*
X51599682Y-60854123D01*
X51644742Y-60872787D01*
X51693514Y-60872787D01*
X51738574Y-60854123D01*
X51773062Y-60819635D01*
X51791726Y-60774575D01*
X51794128Y-60750189D01*
X51794128Y-60589220D01*
X51867098Y-60443279D01*
X51933647Y-60376731D01*
X52079589Y-60303760D01*
X53002462Y-60303760D01*
X53026848Y-60301358D01*
X53071908Y-60282694D01*
X53106396Y-60248206D01*
X53125060Y-60203146D01*
X53125060Y-60154374D01*
X53106396Y-60109314D01*
X53071908Y-60074826D01*
X53026848Y-60056162D01*
X53002462Y-60053760D01*
X51669128Y-60053760D01*
X51644742Y-60056162D01*
X51599682Y-60074826D01*
X51565194Y-60109314D01*
X51546530Y-60154374D01*
X51546530Y-60203146D01*
X51565194Y-60248206D01*
X51599682Y-60282694D01*
X51644742Y-60301358D01*
X51659193Y-60302781D01*
X51659170Y-60302837D01*
X51652563Y-60313334D01*
X51557325Y-60503810D01*
X51548567Y-60526696D01*
X51548248Y-60531177D01*
X51546530Y-60535326D01*
X51544128Y-60559712D01*
X47435352Y-60559712D01*
X47435352Y-59416856D01*
X48324240Y-59416856D01*
X48324240Y-59797809D01*
X48326642Y-59822195D01*
X48328360Y-59826343D01*
X48328679Y-59830825D01*
X48337437Y-59853711D01*
X48432675Y-60044187D01*
X48435241Y-60048263D01*
X48435883Y-60050189D01*
X48437962Y-60052587D01*
X48445729Y-60064924D01*
X48457569Y-60075193D01*
X48467839Y-60087034D01*
X48480176Y-60094800D01*
X48482574Y-60096880D01*
X48484498Y-60097521D01*
X48488577Y-60100089D01*
X48679054Y-60195327D01*
X48701940Y-60204084D01*
X48706419Y-60204402D01*
X48710569Y-60206121D01*
X48734955Y-60208523D01*
X49782574Y-60208523D01*
X49806960Y-60206121D01*
X49852020Y-60187457D01*
X49886508Y-60152969D01*
X49905172Y-60107909D01*
X49905172Y-60059137D01*
X49886508Y-60014077D01*
X49870044Y-59997613D01*
X49894378Y-59948948D01*
X49903135Y-59926063D01*
X49903453Y-59921581D01*
X49905172Y-59917433D01*
X49907574Y-59893047D01*
X49907574Y-59416856D01*
X49905172Y-59392470D01*
X49903453Y-59388321D01*
X49903135Y-59383840D01*
X49894378Y-59360955D01*
X49799139Y-59170478D01*
X49796572Y-59166401D01*
X49795931Y-59164476D01*
X49793851Y-59162077D01*
X49786085Y-59149741D01*
X49774244Y-59139471D01*
X49763975Y-59127631D01*
X49751638Y-59119864D01*
X49749240Y-59117785D01*
X49747314Y-59117143D01*
X49743238Y-59114577D01*
X49552760Y-59019338D01*
X49529875Y-59010581D01*
X49525393Y-59010262D01*
X49521245Y-59008544D01*
X49496859Y-59006142D01*
X49306383Y-59006142D01*
X49281997Y-59008544D01*
X49277848Y-59010262D01*
X49273367Y-59010581D01*
X49250482Y-59019338D01*
X49060005Y-59114577D01*
X49055928Y-59117143D01*
X49054003Y-59117785D01*
X49051604Y-59119864D01*
X49039268Y-59127631D01*
X49028998Y-59139471D01*
X49017158Y-59149741D01*
X49009391Y-59162077D01*
X49007312Y-59164476D01*
X49006670Y-59166401D01*
X49004104Y-59170478D01*
X48908866Y-59360954D01*
X48900108Y-59383840D01*
X48899789Y-59388321D01*
X48898071Y-59392470D01*
X48895669Y-59416856D01*
X48895669Y-59863539D01*
X48848177Y-59958523D01*
X48764463Y-59958523D01*
X48637647Y-59895115D01*
X48574240Y-59768300D01*
X48574240Y-59446364D01*
X48656282Y-59282281D01*
X48665039Y-59259396D01*
X48668497Y-59210746D01*
X48653073Y-59164475D01*
X48621117Y-59127630D01*
X48577494Y-59105819D01*
X48528844Y-59102361D01*
X48482574Y-59117785D01*
X48445729Y-59149741D01*
X48432675Y-59170478D01*
X48337437Y-59360954D01*
X48328679Y-59383840D01*
X48328360Y-59388321D01*
X48326642Y-59392470D01*
X48324240Y-59416856D01*
X47435352Y-59416856D01*
X47435352Y-58654950D01*
X51544128Y-58654950D01*
X51544128Y-58940665D01*
X51546530Y-58965051D01*
X51548248Y-58969199D01*
X51548567Y-58973681D01*
X51557325Y-58996567D01*
X51652563Y-59187043D01*
X51659170Y-59197539D01*
X51660433Y-59200587D01*
X51663249Y-59204018D01*
X51665617Y-59207780D01*
X51668111Y-59209943D01*
X51675978Y-59219529D01*
X51771216Y-59314767D01*
X51780801Y-59322633D01*
X51782965Y-59325128D01*
X51786726Y-59327496D01*
X51790158Y-59330312D01*
X51793204Y-59331573D01*
X51803703Y-59338183D01*
X51994180Y-59433421D01*
X52017066Y-59442178D01*
X52021545Y-59442496D01*
X52025695Y-59444215D01*
X52050081Y-59446617D01*
X52621509Y-59446617D01*
X52645895Y-59444215D01*
X52650043Y-59442496D01*
X52654525Y-59442178D01*
X52677411Y-59433420D01*
X52867887Y-59338182D01*
X52878379Y-59331576D01*
X52881431Y-59330313D01*
X52884867Y-59327492D01*
X52888624Y-59325128D01*
X52890784Y-59322636D01*
X52900373Y-59314768D01*
X52995612Y-59219530D01*
X53003481Y-59209941D01*
X53005973Y-59207780D01*
X53008338Y-59204022D01*
X53011157Y-59200588D01*
X53012420Y-59197537D01*
X53019027Y-59187043D01*
X53114266Y-58996566D01*
X53123023Y-58973681D01*
X53123341Y-58969199D01*
X53125060Y-58965051D01*
X53127462Y-58940665D01*
X53127462Y-58654950D01*
X53125060Y-58630564D01*
X53123341Y-58626415D01*
X53123023Y-58621934D01*
X53114266Y-58599049D01*
X53019027Y-58408572D01*
X53012420Y-58398077D01*
X53011157Y-58395027D01*
X53008338Y-58391592D01*
X53005973Y-58387835D01*
X53003481Y-58385673D01*
X52995612Y-58376085D01*
X52973129Y-58353602D01*
X54098332Y-58353602D01*
X54099442Y-58369236D01*
X54098332Y-58384870D01*
X54101155Y-58393341D01*
X54101789Y-58402251D01*
X54108799Y-58416271D01*
X54113755Y-58431139D01*
X54119605Y-58437885D01*
X54123601Y-58445876D01*
X54135441Y-58456144D01*
X54145710Y-58467985D01*
X54153700Y-58471980D01*
X54160447Y-58477831D01*
X54182822Y-58487821D01*
X56182821Y-59154488D01*
X56206715Y-59159921D01*
X56255365Y-59156464D01*
X56298989Y-59134652D01*
X56330945Y-59097806D01*
X56346368Y-59051537D01*
X56342911Y-59002888D01*
X56321099Y-58959263D01*
X56284253Y-58927308D01*
X56261878Y-58917318D01*
X55775921Y-58755332D01*
X55775921Y-57983140D01*
X56261879Y-57821155D01*
X56284254Y-57811165D01*
X56321099Y-57779210D01*
X56342911Y-57735585D01*
X56346368Y-57686936D01*
X56330945Y-57640667D01*
X56298990Y-57603821D01*
X56255366Y-57582009D01*
X56206716Y-57578552D01*
X56182822Y-57583985D01*
X54182822Y-58250651D01*
X54160447Y-58260641D01*
X54153700Y-58266491D01*
X54145710Y-58270487D01*
X54135441Y-58282327D01*
X54123601Y-58292596D01*
X54119605Y-58300586D01*
X54113755Y-58307333D01*
X54108799Y-58322200D01*
X54101789Y-58336221D01*
X54101155Y-58345130D01*
X54098332Y-58353602D01*
X52973129Y-58353602D01*
X52900373Y-58280847D01*
X52890784Y-58272978D01*
X52888624Y-58270487D01*
X52884867Y-58268122D01*
X52881431Y-58265302D01*
X52878379Y-58264038D01*
X52867887Y-58257433D01*
X52677411Y-58162195D01*
X52654525Y-58153437D01*
X52650043Y-58153118D01*
X52645895Y-58151400D01*
X52621509Y-58148998D01*
X52050081Y-58148998D01*
X52025695Y-58151400D01*
X52021545Y-58153118D01*
X52017066Y-58153437D01*
X51994180Y-58162194D01*
X51803703Y-58257432D01*
X51793204Y-58264041D01*
X51790158Y-58265303D01*
X51786726Y-58268118D01*
X51782965Y-58270487D01*
X51780801Y-58272981D01*
X51771216Y-58280848D01*
X51675978Y-58376086D01*
X51668111Y-58385671D01*
X51665617Y-58387835D01*
X51663249Y-58391596D01*
X51660433Y-58395028D01*
X51659170Y-58398075D01*
X51652563Y-58408572D01*
X51557325Y-58599048D01*
X51548567Y-58621934D01*
X51548248Y-58626415D01*
X51546530Y-58630564D01*
X51544128Y-58654950D01*
X47435352Y-58654950D01*
X47435352Y-57392470D01*
X48326642Y-57392470D01*
X48326642Y-57441242D01*
X48345306Y-57486302D01*
X48379794Y-57520790D01*
X48424854Y-57539454D01*
X48449240Y-57541856D01*
X49467350Y-57541856D01*
X49594167Y-57605264D01*
X49657574Y-57732078D01*
X49657574Y-57958777D01*
X49584605Y-58104714D01*
X49540320Y-58148999D01*
X48449240Y-58148999D01*
X48424854Y-58151401D01*
X48379794Y-58170065D01*
X48345306Y-58204553D01*
X48326642Y-58249613D01*
X48326642Y-58298385D01*
X48345306Y-58343445D01*
X48379794Y-58377933D01*
X48424854Y-58396597D01*
X48449240Y-58398999D01*
X49782574Y-58398999D01*
X49806960Y-58396597D01*
X49852020Y-58377933D01*
X49886508Y-58343445D01*
X49905172Y-58298385D01*
X49905172Y-58249613D01*
X49886508Y-58204553D01*
X49852020Y-58170065D01*
X49834969Y-58163002D01*
X49894378Y-58044186D01*
X49903135Y-58021301D01*
X49903453Y-58016819D01*
X49905172Y-58012671D01*
X49907574Y-57988285D01*
X49907574Y-57702570D01*
X49905172Y-57678184D01*
X49903453Y-57674035D01*
X49903135Y-57669554D01*
X49894378Y-57646669D01*
X49799139Y-57456192D01*
X49796572Y-57452115D01*
X49795931Y-57450190D01*
X49793851Y-57447791D01*
X49786085Y-57435455D01*
X49774244Y-57425185D01*
X49763975Y-57413345D01*
X49751638Y-57405578D01*
X49749240Y-57403499D01*
X49747314Y-57402857D01*
X49743238Y-57400291D01*
X49552760Y-57305052D01*
X49529875Y-57296295D01*
X49525393Y-57295976D01*
X49521245Y-57294258D01*
X49496859Y-57291856D01*
X48449240Y-57291856D01*
X48424854Y-57294258D01*
X48379794Y-57312922D01*
X48345306Y-57347410D01*
X48326642Y-57392470D01*
X47435352Y-57392470D01*
X47435352Y-56344851D01*
X47659976Y-56344851D01*
X47659976Y-56393623D01*
X47678640Y-56438683D01*
X47713128Y-56473171D01*
X47758188Y-56491835D01*
X47782574Y-56494237D01*
X49467350Y-56494237D01*
X49594167Y-56557645D01*
X49670771Y-56710853D01*
X49683825Y-56731590D01*
X49720670Y-56763546D01*
X49766940Y-56778970D01*
X49815590Y-56775512D01*
X49859213Y-56753701D01*
X49891169Y-56716856D01*
X49906593Y-56670585D01*
X49903135Y-56621935D01*
X49894378Y-56599050D01*
X49862516Y-56535326D01*
X50879864Y-56535326D01*
X50879864Y-56584098D01*
X50898528Y-56629158D01*
X50933016Y-56663646D01*
X50978076Y-56682310D01*
X51002462Y-56684712D01*
X51562112Y-56684712D01*
X51557325Y-56694286D01*
X51548567Y-56717172D01*
X51548248Y-56721653D01*
X51546530Y-56725802D01*
X51544128Y-56750188D01*
X51544128Y-57131141D01*
X51546530Y-57155527D01*
X51548248Y-57159675D01*
X51548567Y-57164157D01*
X51557325Y-57187043D01*
X51652563Y-57377519D01*
X51659170Y-57388015D01*
X51660433Y-57391063D01*
X51663249Y-57394494D01*
X51665617Y-57398256D01*
X51668111Y-57400419D01*
X51675978Y-57410005D01*
X51771216Y-57505243D01*
X51780801Y-57513109D01*
X51782965Y-57515604D01*
X51786726Y-57517972D01*
X51790158Y-57520788D01*
X51793204Y-57522049D01*
X51803703Y-57528659D01*
X51994180Y-57623897D01*
X52017066Y-57632654D01*
X52021545Y-57632972D01*
X52025695Y-57634691D01*
X52050081Y-57637093D01*
X52621509Y-57637093D01*
X52645895Y-57634691D01*
X52650043Y-57632972D01*
X52654525Y-57632654D01*
X52677411Y-57623896D01*
X52867887Y-57528658D01*
X52878379Y-57522052D01*
X52881431Y-57520789D01*
X52884867Y-57517968D01*
X52888624Y-57515604D01*
X52890784Y-57513112D01*
X52900373Y-57505244D01*
X52995612Y-57410006D01*
X53003481Y-57400417D01*
X53005973Y-57398256D01*
X53008338Y-57394498D01*
X53011157Y-57391064D01*
X53012420Y-57388013D01*
X53019027Y-57377519D01*
X53114266Y-57187042D01*
X53123023Y-57164157D01*
X53123341Y-57159675D01*
X53125060Y-57155527D01*
X53127462Y-57131141D01*
X53127462Y-56750188D01*
X53125060Y-56725802D01*
X53123341Y-56721653D01*
X53123023Y-56717172D01*
X53114266Y-56694287D01*
X53089932Y-56645621D01*
X53106396Y-56629158D01*
X53125060Y-56584098D01*
X53125060Y-56535326D01*
X53106396Y-56490266D01*
X53071908Y-56455778D01*
X53026848Y-56437114D01*
X53002462Y-56434712D01*
X51002462Y-56434712D01*
X50978076Y-56437114D01*
X50933016Y-56455778D01*
X50898528Y-56490266D01*
X50879864Y-56535326D01*
X49862516Y-56535326D01*
X49799139Y-56408573D01*
X49796572Y-56404496D01*
X49795931Y-56402571D01*
X49793851Y-56400172D01*
X49786085Y-56387836D01*
X49774244Y-56377566D01*
X49763975Y-56365726D01*
X49751638Y-56357959D01*
X49749240Y-56355880D01*
X49747314Y-56355238D01*
X49743238Y-56352672D01*
X49585890Y-56273998D01*
X54097350Y-56273998D01*
X54097350Y-56750189D01*
X54099752Y-56774575D01*
X54101470Y-56778723D01*
X54101789Y-56783205D01*
X54110547Y-56806091D01*
X54205785Y-56996567D01*
X54212392Y-57007063D01*
X54213655Y-57010111D01*
X54216471Y-57013542D01*
X54218839Y-57017304D01*
X54221333Y-57019467D01*
X54229200Y-57029053D01*
X54324438Y-57124291D01*
X54334023Y-57132157D01*
X54336187Y-57134652D01*
X54339948Y-57137019D01*
X54343380Y-57139836D01*
X54346427Y-57141098D01*
X54356924Y-57147706D01*
X54547401Y-57242945D01*
X54570286Y-57251702D01*
X54574767Y-57252020D01*
X54578916Y-57253739D01*
X54603302Y-57256141D01*
X54793778Y-57256141D01*
X54806121Y-57254925D01*
X54809412Y-57255159D01*
X54813741Y-57254174D01*
X54818164Y-57253739D01*
X54821215Y-57252475D01*
X54833306Y-57249726D01*
X55119020Y-57154488D01*
X55141395Y-57144498D01*
X55144788Y-57141554D01*
X55148938Y-57139836D01*
X55167880Y-57124291D01*
X56097350Y-56194822D01*
X56097350Y-57131141D01*
X56099752Y-57155527D01*
X56118416Y-57200587D01*
X56152904Y-57235075D01*
X56197964Y-57253739D01*
X56246736Y-57253739D01*
X56291796Y-57235075D01*
X56326284Y-57200587D01*
X56344948Y-57155527D01*
X56347350Y-57131141D01*
X56347350Y-55893046D01*
X56344948Y-55868660D01*
X56343717Y-55865686D01*
X56326284Y-55823599D01*
X56291797Y-55789112D01*
X56246737Y-55770448D01*
X56197964Y-55770448D01*
X56152904Y-55789112D01*
X56133962Y-55804657D01*
X55011969Y-56926649D01*
X54773495Y-57006141D01*
X54632810Y-57006141D01*
X54486870Y-56933171D01*
X54420320Y-56866621D01*
X54347350Y-56720680D01*
X54347350Y-56303506D01*
X54420320Y-56157565D01*
X54501214Y-56076672D01*
X54516759Y-56057730D01*
X54535424Y-56012671D01*
X54535424Y-55963897D01*
X54516759Y-55918838D01*
X54482272Y-55884351D01*
X54437213Y-55865686D01*
X54388439Y-55865686D01*
X54343380Y-55884351D01*
X54324438Y-55899896D01*
X54229200Y-55995134D01*
X54221333Y-56004719D01*
X54218839Y-56006883D01*
X54216471Y-56010644D01*
X54213655Y-56014076D01*
X54212392Y-56017123D01*
X54205785Y-56027620D01*
X54110547Y-56218096D01*
X54101789Y-56240982D01*
X54101470Y-56245463D01*
X54099752Y-56249612D01*
X54097350Y-56273998D01*
X49585890Y-56273998D01*
X49552760Y-56257433D01*
X49529875Y-56248676D01*
X49525393Y-56248357D01*
X49521245Y-56246639D01*
X49496859Y-56244237D01*
X47782574Y-56244237D01*
X47758188Y-56246639D01*
X47713128Y-56265303D01*
X47678640Y-56299791D01*
X47659976Y-56344851D01*
X47435352Y-56344851D01*
X47435352Y-54750189D01*
X48324240Y-54750189D01*
X48324240Y-55131142D01*
X48326642Y-55155528D01*
X48328360Y-55159676D01*
X48328679Y-55164158D01*
X48337437Y-55187044D01*
X48432675Y-55377520D01*
X48435241Y-55381596D01*
X48435883Y-55383522D01*
X48437962Y-55385920D01*
X48445729Y-55398257D01*
X48457569Y-55408526D01*
X48467839Y-55420367D01*
X48480176Y-55428133D01*
X48482574Y-55430213D01*
X48484498Y-55430854D01*
X48488577Y-55433422D01*
X48679054Y-55528660D01*
X48701940Y-55537417D01*
X48706419Y-55537735D01*
X48710569Y-55539454D01*
X48734955Y-55541856D01*
X49782574Y-55541856D01*
X49806960Y-55539454D01*
X49852020Y-55520790D01*
X49886508Y-55486302D01*
X49905172Y-55441242D01*
X49905172Y-55392470D01*
X49886508Y-55347410D01*
X49870044Y-55330946D01*
X49894378Y-55282281D01*
X49903135Y-55259396D01*
X49903453Y-55254914D01*
X49905172Y-55250766D01*
X49907574Y-55226380D01*
X49907574Y-54940664D01*
X51544128Y-54940664D01*
X51544128Y-55321617D01*
X51546530Y-55346003D01*
X51548248Y-55350151D01*
X51548567Y-55354633D01*
X51557325Y-55377519D01*
X51652563Y-55567995D01*
X51655129Y-55572071D01*
X51655771Y-55573997D01*
X51657850Y-55576395D01*
X51665617Y-55588732D01*
X51677457Y-55599001D01*
X51687727Y-55610842D01*
X51700064Y-55618608D01*
X51702462Y-55620688D01*
X51704386Y-55621329D01*
X51708465Y-55623897D01*
X51898942Y-55719135D01*
X51921828Y-55727892D01*
X51926307Y-55728210D01*
X51930457Y-55729929D01*
X51954843Y-55732331D01*
X53002462Y-55732331D01*
X53026848Y-55729929D01*
X53071908Y-55711265D01*
X53106396Y-55676777D01*
X53125060Y-55631717D01*
X53125060Y-55582945D01*
X53106396Y-55537885D01*
X53089932Y-55521421D01*
X53114266Y-55472756D01*
X53123023Y-55449871D01*
X53123341Y-55445389D01*
X53125060Y-55441241D01*
X53127462Y-55416855D01*
X53127462Y-54940664D01*
X53125060Y-54916278D01*
X53123341Y-54912129D01*
X53123023Y-54907648D01*
X53114266Y-54884763D01*
X53019027Y-54694286D01*
X53016460Y-54690209D01*
X53015819Y-54688284D01*
X53013739Y-54685885D01*
X53005973Y-54673549D01*
X52994132Y-54663279D01*
X52983863Y-54651439D01*
X52971526Y-54643672D01*
X52969128Y-54641593D01*
X52967202Y-54640951D01*
X52963126Y-54638385D01*
X52772648Y-54543146D01*
X52749763Y-54534389D01*
X52745281Y-54534070D01*
X52741133Y-54532352D01*
X52716747Y-54529950D01*
X52526271Y-54529950D01*
X52501885Y-54532352D01*
X52497736Y-54534070D01*
X52493255Y-54534389D01*
X52470370Y-54543146D01*
X52279893Y-54638385D01*
X52275816Y-54640951D01*
X52273891Y-54641593D01*
X52271492Y-54643672D01*
X52259156Y-54651439D01*
X52248886Y-54663279D01*
X52237046Y-54673549D01*
X52229279Y-54685885D01*
X52227200Y-54688284D01*
X52226558Y-54690209D01*
X52223992Y-54694286D01*
X52128754Y-54884762D01*
X52119996Y-54907648D01*
X52119677Y-54912129D01*
X52117959Y-54916278D01*
X52115557Y-54940664D01*
X52115557Y-55387347D01*
X52068065Y-55482331D01*
X51984351Y-55482331D01*
X51857535Y-55418923D01*
X51794128Y-55292108D01*
X51794128Y-54970172D01*
X51876170Y-54806089D01*
X51884927Y-54783204D01*
X51888385Y-54734554D01*
X51872961Y-54688283D01*
X51841005Y-54651438D01*
X51797382Y-54629627D01*
X51748732Y-54626169D01*
X51702462Y-54641593D01*
X51665617Y-54673549D01*
X51652563Y-54694286D01*
X51557325Y-54884762D01*
X51548567Y-54907648D01*
X51548248Y-54912129D01*
X51546530Y-54916278D01*
X51544128Y-54940664D01*
X49907574Y-54940664D01*
X49907574Y-54750189D01*
X49905172Y-54725803D01*
X49903453Y-54721654D01*
X49903135Y-54717173D01*
X49894378Y-54694288D01*
X49799139Y-54503811D01*
X49796572Y-54499734D01*
X49795931Y-54497809D01*
X49793851Y-54495410D01*
X49786085Y-54483074D01*
X49774244Y-54472804D01*
X49763975Y-54460964D01*
X49751638Y-54453197D01*
X49749240Y-54451118D01*
X49747314Y-54450476D01*
X49743238Y-54447910D01*
X49552760Y-54352671D01*
X49529875Y-54343914D01*
X49525393Y-54343595D01*
X49521245Y-54341877D01*
X49496859Y-54339475D01*
X49306383Y-54339475D01*
X49281997Y-54341877D01*
X49277848Y-54343595D01*
X49273367Y-54343914D01*
X49250482Y-54352671D01*
X49060005Y-54447910D01*
X49055928Y-54450476D01*
X49054003Y-54451118D01*
X49051604Y-54453197D01*
X49039268Y-54460964D01*
X49028998Y-54472804D01*
X49017158Y-54483074D01*
X49009391Y-54495410D01*
X49007312Y-54497809D01*
X49006670Y-54499734D01*
X49004104Y-54503811D01*
X48908866Y-54694287D01*
X48900108Y-54717173D01*
X48899789Y-54721654D01*
X48898071Y-54725803D01*
X48895669Y-54750189D01*
X48895669Y-55196872D01*
X48848177Y-55291856D01*
X48764463Y-55291856D01*
X48637647Y-55228448D01*
X48574240Y-55101633D01*
X48574240Y-54779697D01*
X48656282Y-54615614D01*
X48665039Y-54592729D01*
X48668497Y-54544079D01*
X48653073Y-54497808D01*
X48621117Y-54460963D01*
X48577494Y-54439152D01*
X48528844Y-54435694D01*
X48482574Y-54451118D01*
X48445729Y-54483074D01*
X48432675Y-54503811D01*
X48337437Y-54694287D01*
X48328679Y-54717173D01*
X48328360Y-54721654D01*
X48326642Y-54725803D01*
X48324240Y-54750189D01*
X47435352Y-54750189D01*
X47435352Y-52827158D01*
X48325582Y-52827158D01*
X48328004Y-52875870D01*
X48348883Y-52919949D01*
X48385041Y-52952681D01*
X48407198Y-52963145D01*
X49410921Y-53321617D01*
X48407198Y-53680090D01*
X48385040Y-53690554D01*
X48348883Y-53723286D01*
X48328004Y-53767365D01*
X48325582Y-53816077D01*
X48341986Y-53862008D01*
X48374718Y-53898165D01*
X48418797Y-53919044D01*
X48467509Y-53921466D01*
X48491282Y-53915526D01*
X49824616Y-53439335D01*
X49846774Y-53428871D01*
X49851425Y-53424659D01*
X49857096Y-53421974D01*
X49869371Y-53408414D01*
X49882931Y-53396139D01*
X49885616Y-53390468D01*
X49889828Y-53385817D01*
X49895981Y-53368587D01*
X49903810Y-53352060D01*
X49904121Y-53345795D01*
X49906232Y-53339886D01*
X49905323Y-53321613D01*
X49906232Y-53303348D01*
X49904122Y-53297441D01*
X49903811Y-53291174D01*
X49895979Y-53274641D01*
X49889828Y-53257417D01*
X49885617Y-53252765D01*
X49882931Y-53247095D01*
X49869371Y-53234819D01*
X49857096Y-53221260D01*
X49851425Y-53218574D01*
X49846774Y-53214363D01*
X49824616Y-53203899D01*
X49552610Y-53106754D01*
X50879864Y-53106754D01*
X50879864Y-53155526D01*
X50898528Y-53200586D01*
X50933016Y-53235074D01*
X50978076Y-53253738D01*
X51002462Y-53256140D01*
X52877462Y-53256140D01*
X52877462Y-54083521D01*
X52879864Y-54107907D01*
X52898528Y-54152967D01*
X52933016Y-54187455D01*
X52978076Y-54206119D01*
X53026848Y-54206119D01*
X53071908Y-54187455D01*
X53106396Y-54152967D01*
X53125060Y-54107907D01*
X53127462Y-54083521D01*
X53127462Y-53131140D01*
X53125060Y-53106754D01*
X53106396Y-53061694D01*
X53071908Y-53027206D01*
X53026848Y-53008542D01*
X53002462Y-53006140D01*
X51002462Y-53006140D01*
X50978076Y-53008542D01*
X50933016Y-53027206D01*
X50898528Y-53061694D01*
X50879864Y-53106754D01*
X49552610Y-53106754D01*
X48491282Y-52727709D01*
X48467509Y-52721769D01*
X48418797Y-52724191D01*
X48374718Y-52745070D01*
X48341986Y-52781228D01*
X48325582Y-52827158D01*
X47435352Y-52827158D01*
X47435352Y-51226379D01*
X47657574Y-51226379D01*
X47657574Y-52178760D01*
X47659976Y-52203146D01*
X47678640Y-52248206D01*
X47713128Y-52282694D01*
X47758188Y-52301358D01*
X47806960Y-52301358D01*
X47852020Y-52282694D01*
X47886508Y-52248206D01*
X47905172Y-52203146D01*
X47907574Y-52178760D01*
X47907574Y-51351379D01*
X48609955Y-51351379D01*
X48609955Y-51893046D01*
X48612357Y-51917432D01*
X48631021Y-51962492D01*
X48665509Y-51996980D01*
X48710569Y-52015644D01*
X48759341Y-52015644D01*
X48804401Y-51996980D01*
X48838889Y-51962492D01*
X48857553Y-51917432D01*
X48859955Y-51893046D01*
X48859955Y-51351379D01*
X49657574Y-51351379D01*
X49657574Y-52178760D01*
X49659976Y-52203146D01*
X49678640Y-52248206D01*
X49713128Y-52282694D01*
X49758188Y-52301358D01*
X49806960Y-52301358D01*
X49852020Y-52282694D01*
X49886508Y-52248206D01*
X49905172Y-52203146D01*
X49907574Y-52178760D01*
X49907574Y-52083522D01*
X55335445Y-52083522D01*
X55335445Y-53607332D01*
X55337847Y-53631718D01*
X55356511Y-53676778D01*
X55390999Y-53711266D01*
X55436059Y-53729930D01*
X55484831Y-53729930D01*
X55529891Y-53711266D01*
X55564379Y-53676778D01*
X55583043Y-53631718D01*
X55585445Y-53607332D01*
X55585445Y-53512093D01*
X57317238Y-53512093D01*
X57317238Y-53702570D01*
X57319640Y-53726956D01*
X57321358Y-53731104D01*
X57321677Y-53735586D01*
X57330435Y-53758472D01*
X57425673Y-53948948D01*
X57432280Y-53959444D01*
X57433543Y-53962492D01*
X57436359Y-53965923D01*
X57438727Y-53969685D01*
X57441221Y-53971848D01*
X57449088Y-53981434D01*
X57544326Y-54076672D01*
X57553911Y-54084538D01*
X57556075Y-54087033D01*
X57559836Y-54089400D01*
X57563268Y-54092217D01*
X57566315Y-54093479D01*
X57576812Y-54100087D01*
X57767289Y-54195326D01*
X57769075Y-54196009D01*
X57769798Y-54196545D01*
X57780016Y-54200196D01*
X57790174Y-54204083D01*
X57791073Y-54204146D01*
X57792873Y-54204790D01*
X58173825Y-54300028D01*
X58178054Y-54300653D01*
X58179756Y-54301358D01*
X58188935Y-54302262D01*
X58198065Y-54303612D01*
X58199887Y-54303340D01*
X58204142Y-54303760D01*
X58680333Y-54303760D01*
X58684587Y-54303340D01*
X58686409Y-54303612D01*
X58695537Y-54302262D01*
X58704719Y-54301358D01*
X58706420Y-54300653D01*
X58710650Y-54300028D01*
X59091602Y-54204790D01*
X59093401Y-54204146D01*
X59094301Y-54204083D01*
X59104447Y-54200200D01*
X59114677Y-54196545D01*
X59115401Y-54196008D01*
X59117187Y-54195325D01*
X59307663Y-54100087D01*
X59318155Y-54093481D01*
X59321207Y-54092218D01*
X59324643Y-54089397D01*
X59328400Y-54087033D01*
X59330560Y-54084541D01*
X59340149Y-54076673D01*
X59435388Y-53981435D01*
X59443257Y-53971846D01*
X59445749Y-53969685D01*
X59448114Y-53965927D01*
X59450933Y-53962493D01*
X59452196Y-53959442D01*
X59458803Y-53948948D01*
X59554042Y-53758471D01*
X59562799Y-53735586D01*
X59563117Y-53731104D01*
X59564836Y-53726956D01*
X59567238Y-53702570D01*
X59567238Y-53512093D01*
X59564836Y-53487707D01*
X59563117Y-53483558D01*
X59562799Y-53479077D01*
X59554042Y-53456192D01*
X59458803Y-53265715D01*
X59452196Y-53255220D01*
X59450933Y-53252170D01*
X59448114Y-53248735D01*
X59445749Y-53244978D01*
X59443257Y-53242816D01*
X59435388Y-53233228D01*
X59340149Y-53137990D01*
X59330560Y-53130121D01*
X59328400Y-53127630D01*
X59324643Y-53125265D01*
X59321207Y-53122445D01*
X59318155Y-53121181D01*
X59307663Y-53114576D01*
X59117187Y-53019338D01*
X59115401Y-53018654D01*
X59114677Y-53018118D01*
X59104447Y-53014462D01*
X59094301Y-53010580D01*
X59093401Y-53010516D01*
X59091602Y-53009873D01*
X58710650Y-52914635D01*
X58706420Y-52914009D01*
X58704719Y-52913305D01*
X58695537Y-52912400D01*
X58686409Y-52911051D01*
X58684587Y-52911322D01*
X58680333Y-52910903D01*
X58204142Y-52910903D01*
X58199887Y-52911322D01*
X58198065Y-52911051D01*
X58188935Y-52912400D01*
X58179756Y-52913305D01*
X58178054Y-52914009D01*
X58173825Y-52914635D01*
X57792873Y-53009873D01*
X57791073Y-53010516D01*
X57790174Y-53010580D01*
X57780016Y-53014466D01*
X57769798Y-53018118D01*
X57769075Y-53018653D01*
X57767289Y-53019337D01*
X57576812Y-53114576D01*
X57566315Y-53121183D01*
X57563268Y-53122446D01*
X57559836Y-53125262D01*
X57556075Y-53127630D01*
X57553911Y-53130124D01*
X57544326Y-53137991D01*
X57449088Y-53233229D01*
X57441221Y-53242814D01*
X57438727Y-53244978D01*
X57436359Y-53248739D01*
X57433543Y-53252171D01*
X57432280Y-53255218D01*
X57425673Y-53265715D01*
X57330435Y-53456191D01*
X57321677Y-53479077D01*
X57321358Y-53483558D01*
X57319640Y-53487707D01*
X57317238Y-53512093D01*
X55585445Y-53512093D01*
X55585445Y-52154374D01*
X59129163Y-52154374D01*
X59129163Y-52203146D01*
X59147827Y-52248206D01*
X59147828Y-52248207D01*
X59163373Y-52267149D01*
X59258612Y-52362387D01*
X59277554Y-52377932D01*
X59322614Y-52396597D01*
X59371388Y-52396596D01*
X59416447Y-52377931D01*
X59416451Y-52377926D01*
X59435388Y-52362386D01*
X59530626Y-52267148D01*
X59546166Y-52248211D01*
X59546172Y-52248206D01*
X59564836Y-52203146D01*
X59564836Y-52154374D01*
X59546172Y-52109314D01*
X59546166Y-52109308D01*
X59530626Y-52090372D01*
X59435388Y-51995134D01*
X59416451Y-51979593D01*
X59416447Y-51979589D01*
X59371388Y-51960924D01*
X59322614Y-51960923D01*
X59277554Y-51979588D01*
X59258612Y-51995133D01*
X59163373Y-52090371D01*
X59147828Y-52109313D01*
X59147827Y-52109314D01*
X59129163Y-52154374D01*
X55585445Y-52154374D01*
X55585445Y-52083522D01*
X55583043Y-52059136D01*
X55564379Y-52014076D01*
X55529891Y-51979588D01*
X55484831Y-51960924D01*
X55436059Y-51960924D01*
X55390999Y-51979588D01*
X55356511Y-52014076D01*
X55337847Y-52059136D01*
X55335445Y-52083522D01*
X49907574Y-52083522D01*
X49907574Y-51226379D01*
X49905172Y-51201993D01*
X49886508Y-51156933D01*
X49852020Y-51122445D01*
X49806960Y-51103781D01*
X49782574Y-51101379D01*
X47782574Y-51101379D01*
X47758188Y-51103781D01*
X47713128Y-51122445D01*
X47678640Y-51156933D01*
X47659976Y-51201993D01*
X47657574Y-51226379D01*
X47435352Y-51226379D01*
X47435352Y-49131140D01*
X52115557Y-49131140D01*
X52115557Y-50654950D01*
X52117959Y-50679336D01*
X52136623Y-50724396D01*
X52171111Y-50758884D01*
X52216171Y-50777548D01*
X52264943Y-50777548D01*
X52310003Y-50758884D01*
X52318829Y-50750058D01*
X57317238Y-50750058D01*
X57319640Y-50762199D01*
X57319640Y-50774574D01*
X57324325Y-50785887D01*
X57326703Y-50797903D01*
X57333568Y-50808201D01*
X57338304Y-50819634D01*
X57346963Y-50828293D01*
X57353757Y-50838484D01*
X57364041Y-50845371D01*
X57372792Y-50854122D01*
X57384104Y-50858807D01*
X57394281Y-50865623D01*
X57406419Y-50868050D01*
X57417852Y-50872786D01*
X57441981Y-50875162D01*
X57442108Y-50875188D01*
X57442151Y-50875179D01*
X57442238Y-50875188D01*
X59317238Y-50875188D01*
X59317238Y-51321617D01*
X59319640Y-51346003D01*
X59338304Y-51391063D01*
X59372792Y-51425551D01*
X59417852Y-51444215D01*
X59466624Y-51444215D01*
X59511684Y-51425551D01*
X59546172Y-51391063D01*
X59564836Y-51346003D01*
X59567238Y-51321617D01*
X59567238Y-50178760D01*
X59564836Y-50154374D01*
X59546172Y-50109314D01*
X59511684Y-50074826D01*
X59466624Y-50056162D01*
X59417852Y-50056162D01*
X59372792Y-50074826D01*
X59338304Y-50109314D01*
X59319640Y-50154374D01*
X59317238Y-50178760D01*
X59317238Y-50625188D01*
X57839252Y-50625188D01*
X58006817Y-50457624D01*
X58014685Y-50448035D01*
X58017177Y-50445875D01*
X58019541Y-50442118D01*
X58022362Y-50438682D01*
X58023626Y-50435630D01*
X58030231Y-50425138D01*
X58125470Y-50234661D01*
X58134227Y-50211776D01*
X58137685Y-50163126D01*
X58122261Y-50116855D01*
X58090305Y-50080010D01*
X58046682Y-50058199D01*
X57998032Y-50054741D01*
X57951762Y-50070165D01*
X57914917Y-50102121D01*
X57901863Y-50122858D01*
X57815696Y-50295190D01*
X57648317Y-50462570D01*
X57372900Y-50646182D01*
X57372832Y-50646237D01*
X57372792Y-50646254D01*
X57372701Y-50646344D01*
X57353942Y-50661707D01*
X57347054Y-50671991D01*
X57338304Y-50680742D01*
X57333618Y-50692054D01*
X57326803Y-50702231D01*
X57324375Y-50714369D01*
X57319640Y-50725802D01*
X57319640Y-50738047D01*
X57317238Y-50750058D01*
X52318829Y-50750058D01*
X52344491Y-50724396D01*
X52363155Y-50679336D01*
X52365557Y-50654950D01*
X52365557Y-49131140D01*
X52363155Y-49106754D01*
X52344491Y-49061694D01*
X52310003Y-49027206D01*
X52264943Y-49008542D01*
X52216171Y-49008542D01*
X52171111Y-49027206D01*
X52136623Y-49061694D01*
X52117959Y-49106754D01*
X52115557Y-49131140D01*
X47435352Y-49131140D01*
X47435352Y-48083521D01*
X48324240Y-48083521D01*
X48324240Y-48464474D01*
X48326642Y-48488860D01*
X48328360Y-48493008D01*
X48328679Y-48497490D01*
X48337437Y-48520376D01*
X48432675Y-48710852D01*
X48439282Y-48721348D01*
X48440545Y-48724396D01*
X48443361Y-48727827D01*
X48445729Y-48731589D01*
X48448223Y-48733752D01*
X48456090Y-48743338D01*
X48551328Y-48838576D01*
X48560913Y-48846442D01*
X48563077Y-48848937D01*
X48566838Y-48851305D01*
X48570270Y-48854121D01*
X48573316Y-48855382D01*
X48583815Y-48861992D01*
X48774292Y-48957230D01*
X48797178Y-48965987D01*
X48801657Y-48966305D01*
X48805807Y-48968024D01*
X48830193Y-48970426D01*
X49401621Y-48970426D01*
X49426007Y-48968024D01*
X49430155Y-48966305D01*
X49434637Y-48965987D01*
X49457523Y-48957229D01*
X49647999Y-48861991D01*
X49658491Y-48855385D01*
X49661543Y-48854122D01*
X49664979Y-48851301D01*
X49668736Y-48848937D01*
X49670896Y-48846445D01*
X49680485Y-48838577D01*
X49775724Y-48743339D01*
X49783593Y-48733750D01*
X49786085Y-48731589D01*
X49788450Y-48727831D01*
X49791269Y-48724397D01*
X49792532Y-48721346D01*
X49799139Y-48710852D01*
X49882526Y-48544078D01*
X54098332Y-48544078D01*
X54101789Y-48592727D01*
X54123601Y-48636352D01*
X54160447Y-48668307D01*
X54182822Y-48678297D01*
X55827066Y-49226377D01*
X54182822Y-49774460D01*
X54160447Y-49784450D01*
X54123601Y-49816405D01*
X54101789Y-49860030D01*
X54098332Y-49908679D01*
X54113755Y-49954948D01*
X54145710Y-49991794D01*
X54189335Y-50013606D01*
X54237984Y-50017063D01*
X54261878Y-50011630D01*
X56261878Y-49344963D01*
X56284253Y-49334973D01*
X56290998Y-49329122D01*
X56298990Y-49325127D01*
X56309258Y-49313286D01*
X56321099Y-49303018D01*
X56325094Y-49295027D01*
X56330945Y-49288281D01*
X56335900Y-49273413D01*
X56342911Y-49259393D01*
X56343544Y-49250483D01*
X56346368Y-49242012D01*
X56345257Y-49226378D01*
X56346368Y-49210744D01*
X56343544Y-49202272D01*
X56342911Y-49193363D01*
X56335900Y-49179342D01*
X56330945Y-49164475D01*
X56325094Y-49157729D01*
X56321099Y-49149738D01*
X56309254Y-49139465D01*
X56298989Y-49127629D01*
X56291002Y-49123635D01*
X56284254Y-49117783D01*
X56261879Y-49107793D01*
X54261878Y-48441127D01*
X54237984Y-48435694D01*
X54189335Y-48439151D01*
X54145710Y-48460963D01*
X54113755Y-48497809D01*
X54098332Y-48544078D01*
X49882526Y-48544078D01*
X49894378Y-48520375D01*
X49903135Y-48497490D01*
X49903453Y-48493008D01*
X49905172Y-48488860D01*
X49907574Y-48464474D01*
X49907574Y-48083521D01*
X49905172Y-48059135D01*
X49903453Y-48054986D01*
X49903135Y-48050505D01*
X49894378Y-48027620D01*
X49889590Y-48018045D01*
X50449240Y-48018045D01*
X50473626Y-48015643D01*
X50518686Y-47996979D01*
X50553174Y-47962491D01*
X50571838Y-47917431D01*
X50571838Y-47868659D01*
X50553174Y-47823599D01*
X50518686Y-47789111D01*
X50473626Y-47770447D01*
X50449240Y-47768045D01*
X48449240Y-47768045D01*
X48424854Y-47770447D01*
X48379794Y-47789111D01*
X48345306Y-47823599D01*
X48326642Y-47868659D01*
X48326642Y-47917431D01*
X48345306Y-47962491D01*
X48361769Y-47978954D01*
X48337437Y-48027619D01*
X48328679Y-48050505D01*
X48328360Y-48054986D01*
X48326642Y-48059135D01*
X48324240Y-48083521D01*
X47435352Y-48083521D01*
X47435352Y-47226378D01*
X54097350Y-47226378D01*
X54097350Y-47607331D01*
X54099752Y-47631717D01*
X54101470Y-47635865D01*
X54101789Y-47640347D01*
X54110547Y-47663233D01*
X54205785Y-47853709D01*
X54212392Y-47864205D01*
X54213655Y-47867253D01*
X54216471Y-47870684D01*
X54218839Y-47874446D01*
X54221333Y-47876609D01*
X54229200Y-47886195D01*
X54324438Y-47981433D01*
X54334023Y-47989299D01*
X54336187Y-47991794D01*
X54339948Y-47994161D01*
X54343380Y-47996978D01*
X54346427Y-47998240D01*
X54356924Y-48004848D01*
X54547401Y-48100087D01*
X54570286Y-48108844D01*
X54574767Y-48109162D01*
X54578916Y-48110881D01*
X54603302Y-48113283D01*
X55365207Y-48113283D01*
X55369461Y-48112863D01*
X55371283Y-48113135D01*
X55380411Y-48111785D01*
X55389593Y-48110881D01*
X55391294Y-48110176D01*
X55395524Y-48109551D01*
X55776476Y-48014313D01*
X55790842Y-48009179D01*
X55793874Y-48008580D01*
X55796623Y-48007114D01*
X55799551Y-48006068D01*
X55802029Y-48004231D01*
X55815497Y-47997051D01*
X56101210Y-47806576D01*
X56101278Y-47806519D01*
X56101319Y-47806503D01*
X56110917Y-47798626D01*
X56120168Y-47791050D01*
X56120191Y-47791015D01*
X56120261Y-47790958D01*
X56137798Y-47773421D01*
X58081544Y-47773421D01*
X58081544Y-47822193D01*
X58100208Y-47867253D01*
X58100213Y-47867258D01*
X58115754Y-47886195D01*
X58210992Y-47981433D01*
X58229928Y-47996973D01*
X58229933Y-47996978D01*
X58274993Y-48015643D01*
X58323766Y-48015643D01*
X58323767Y-48015643D01*
X58341059Y-48008480D01*
X58368826Y-47996979D01*
X58387768Y-47981434D01*
X58483007Y-47886196D01*
X58498552Y-47867254D01*
X58498553Y-47867253D01*
X58498652Y-47867015D01*
X58517218Y-47822193D01*
X58517217Y-47797807D01*
X58517218Y-47773421D01*
X59129163Y-47773421D01*
X59129163Y-47822194D01*
X59132869Y-47831140D01*
X59147827Y-47867253D01*
X59147828Y-47867254D01*
X59163373Y-47886196D01*
X59258612Y-47981434D01*
X59277554Y-47996979D01*
X59322614Y-48015644D01*
X59371388Y-48015643D01*
X59416447Y-47996978D01*
X59416451Y-47996973D01*
X59435388Y-47981433D01*
X59530626Y-47886195D01*
X59546166Y-47867258D01*
X59546172Y-47867253D01*
X59564836Y-47822193D01*
X59564836Y-47773421D01*
X59561261Y-47764791D01*
X59551782Y-47741906D01*
X59546172Y-47728361D01*
X59546166Y-47728355D01*
X59530626Y-47709419D01*
X59435388Y-47614181D01*
X59416451Y-47598640D01*
X59416447Y-47598636D01*
X59371388Y-47579971D01*
X59322614Y-47579970D01*
X59277554Y-47598635D01*
X59258612Y-47614180D01*
X59163373Y-47709418D01*
X59147828Y-47728360D01*
X59147827Y-47728361D01*
X59147178Y-47729929D01*
X59130395Y-47770447D01*
X59129163Y-47773421D01*
X58517218Y-47773421D01*
X58498553Y-47728361D01*
X58498552Y-47728360D01*
X58483007Y-47709418D01*
X58387768Y-47614180D01*
X58368826Y-47598635D01*
X58336964Y-47585437D01*
X58323767Y-47579971D01*
X58323766Y-47579971D01*
X58274993Y-47579971D01*
X58229933Y-47598636D01*
X58229928Y-47598640D01*
X58210992Y-47614181D01*
X58115754Y-47709419D01*
X58100213Y-47728355D01*
X58100208Y-47728361D01*
X58094598Y-47741906D01*
X58085119Y-47764791D01*
X58081544Y-47773421D01*
X56137798Y-47773421D01*
X56215500Y-47695720D01*
X56223369Y-47686131D01*
X56225861Y-47683970D01*
X56228226Y-47680212D01*
X56231045Y-47676778D01*
X56232308Y-47673728D01*
X56238916Y-47663232D01*
X56334154Y-47472755D01*
X56342911Y-47449869D01*
X56343229Y-47445389D01*
X56344948Y-47441240D01*
X56347350Y-47416854D01*
X56347350Y-47035902D01*
X56344948Y-47011516D01*
X56326284Y-46966456D01*
X56291796Y-46931968D01*
X56246736Y-46913304D01*
X56197964Y-46913304D01*
X56152904Y-46931968D01*
X56118416Y-46966456D01*
X56099752Y-47011516D01*
X56097350Y-47035902D01*
X56097350Y-47387346D01*
X56024380Y-47533285D01*
X55952236Y-47605428D01*
X55694837Y-47777028D01*
X55489709Y-47828310D01*
X55572249Y-47663232D01*
X55581006Y-47640347D01*
X55581324Y-47635865D01*
X55583043Y-47631717D01*
X55585445Y-47607331D01*
X55585445Y-47226378D01*
X55583043Y-47201992D01*
X55581324Y-47197843D01*
X55581006Y-47193362D01*
X55572249Y-47170477D01*
X55477010Y-46980000D01*
X55470402Y-46969503D01*
X55469140Y-46966456D01*
X55466323Y-46963024D01*
X55463956Y-46959263D01*
X55461461Y-46957099D01*
X55453595Y-46947514D01*
X55358357Y-46852276D01*
X55348771Y-46844409D01*
X55346608Y-46841915D01*
X55342846Y-46839547D01*
X55339415Y-46836731D01*
X55336367Y-46835468D01*
X55325871Y-46828861D01*
X55135393Y-46733622D01*
X55112508Y-46724865D01*
X55108026Y-46724546D01*
X55103878Y-46722828D01*
X55079492Y-46720426D01*
X54603302Y-46720426D01*
X54578916Y-46722828D01*
X54574767Y-46724546D01*
X54570286Y-46724865D01*
X54547401Y-46733622D01*
X54356924Y-46828861D01*
X54346427Y-46835468D01*
X54343380Y-46836731D01*
X54339948Y-46839547D01*
X54336187Y-46841915D01*
X54334023Y-46844409D01*
X54324438Y-46852276D01*
X54229200Y-46947514D01*
X54221333Y-46957099D01*
X54218839Y-46959263D01*
X54216471Y-46963024D01*
X54213655Y-46966456D01*
X54212392Y-46969503D01*
X54205785Y-46980000D01*
X54110547Y-47170476D01*
X54101789Y-47193362D01*
X54101470Y-47197843D01*
X54099752Y-47201992D01*
X54097350Y-47226378D01*
X47435352Y-47226378D01*
X47435352Y-46916277D01*
X47659976Y-46916277D01*
X47659976Y-46965051D01*
X47663682Y-46973997D01*
X47678640Y-47010110D01*
X47678645Y-47010115D01*
X47694186Y-47029052D01*
X47789424Y-47124290D01*
X47808366Y-47139835D01*
X47853425Y-47158500D01*
X47902199Y-47158500D01*
X47947258Y-47139835D01*
X47966200Y-47124290D01*
X48061438Y-47029052D01*
X48076978Y-47010115D01*
X48076984Y-47010110D01*
X48091942Y-46973997D01*
X48095648Y-46965051D01*
X48095648Y-46916278D01*
X48326642Y-46916278D01*
X48326642Y-46965050D01*
X48345306Y-47010110D01*
X48379794Y-47044598D01*
X48424854Y-47063262D01*
X48449240Y-47065664D01*
X49782574Y-47065664D01*
X49806960Y-47063262D01*
X49852020Y-47044598D01*
X49886508Y-47010110D01*
X49905172Y-46965050D01*
X49905172Y-46916278D01*
X49886508Y-46871218D01*
X49852020Y-46836730D01*
X49806960Y-46818066D01*
X49782574Y-46815664D01*
X48449240Y-46815664D01*
X48424854Y-46818066D01*
X48379794Y-46836730D01*
X48345306Y-46871218D01*
X48326642Y-46916278D01*
X48095648Y-46916278D01*
X48095648Y-46916277D01*
X48090181Y-46903079D01*
X48076984Y-46871218D01*
X48076978Y-46871212D01*
X48061438Y-46852276D01*
X47966200Y-46757038D01*
X47947258Y-46741493D01*
X47902199Y-46722828D01*
X47853425Y-46722828D01*
X47808366Y-46741493D01*
X47789424Y-46757038D01*
X47694186Y-46852276D01*
X47678645Y-46871212D01*
X47678640Y-46871218D01*
X47665442Y-46903079D01*
X47659976Y-46916277D01*
X47435352Y-46916277D01*
X47435352Y-46440087D01*
X50784626Y-46440087D01*
X50784626Y-46488860D01*
X50803291Y-46533920D01*
X50837778Y-46568407D01*
X50882838Y-46587071D01*
X50931611Y-46587071D01*
X50976671Y-46568406D01*
X50995613Y-46552861D01*
X51281326Y-46267146D01*
X51296871Y-46248204D01*
X51315536Y-46203145D01*
X51315536Y-46154371D01*
X51296871Y-46109312D01*
X51271079Y-46083520D01*
X51544128Y-46083520D01*
X51544128Y-46464473D01*
X51546530Y-46488859D01*
X51548248Y-46493007D01*
X51548567Y-46497489D01*
X51557325Y-46520375D01*
X51652563Y-46710851D01*
X51655129Y-46714927D01*
X51655771Y-46716853D01*
X51657850Y-46719251D01*
X51665617Y-46731588D01*
X51677457Y-46741857D01*
X51687727Y-46753698D01*
X51700064Y-46761464D01*
X51702462Y-46763544D01*
X51704386Y-46764185D01*
X51708465Y-46766753D01*
X51898942Y-46861991D01*
X51921828Y-46870748D01*
X51926307Y-46871066D01*
X51930457Y-46872785D01*
X51954843Y-46875187D01*
X52145188Y-46875187D01*
X52145319Y-46875187D01*
X52169705Y-46872785D01*
X52181019Y-46868098D01*
X52193033Y-46865722D01*
X52203330Y-46858857D01*
X52214765Y-46854121D01*
X52223424Y-46845461D01*
X52233615Y-46838668D01*
X52240502Y-46828383D01*
X52249253Y-46819633D01*
X52253939Y-46808318D01*
X52260754Y-46798143D01*
X52267892Y-46774701D01*
X52438271Y-45922806D01*
X52687238Y-45922806D01*
X52814055Y-45986214D01*
X52877462Y-46113028D01*
X52877462Y-46434965D01*
X52795421Y-46599047D01*
X52786663Y-46621933D01*
X52783205Y-46670583D01*
X52798629Y-46716853D01*
X52830585Y-46753698D01*
X52874208Y-46775510D01*
X52922858Y-46778968D01*
X52969128Y-46763544D01*
X53005973Y-46731588D01*
X53019027Y-46710851D01*
X53114266Y-46520374D01*
X53123023Y-46497489D01*
X53123341Y-46493007D01*
X53125060Y-46488859D01*
X53127462Y-46464473D01*
X53127462Y-46273997D01*
X57983904Y-46273997D01*
X57983904Y-46559712D01*
X57986306Y-46584098D01*
X57988024Y-46588246D01*
X57988343Y-46592728D01*
X57997101Y-46615614D01*
X58092339Y-46806090D01*
X58094905Y-46810166D01*
X58095547Y-46812092D01*
X58097626Y-46814490D01*
X58105393Y-46826827D01*
X58117233Y-46837096D01*
X58127503Y-46848937D01*
X58139840Y-46856703D01*
X58142238Y-46858783D01*
X58144162Y-46859424D01*
X58148241Y-46861992D01*
X58338718Y-46957230D01*
X58361604Y-46965987D01*
X58366083Y-46966305D01*
X58370233Y-46968024D01*
X58394619Y-46970426D01*
X59442238Y-46970426D01*
X59466624Y-46968024D01*
X59511684Y-46949360D01*
X59546172Y-46914872D01*
X59564836Y-46869812D01*
X59564836Y-46821040D01*
X59546172Y-46775980D01*
X59511684Y-46741492D01*
X59466624Y-46722828D01*
X59442238Y-46720426D01*
X58424127Y-46720426D01*
X58297311Y-46657018D01*
X58233904Y-46530203D01*
X58233904Y-46303505D01*
X58306874Y-46157564D01*
X58351156Y-46113283D01*
X59442238Y-46113283D01*
X59466624Y-46110881D01*
X59511684Y-46092217D01*
X59546172Y-46057729D01*
X59564836Y-46012669D01*
X59564836Y-45963897D01*
X59546172Y-45918837D01*
X59511684Y-45884349D01*
X59466624Y-45865685D01*
X59442238Y-45863283D01*
X58108904Y-45863283D01*
X58084518Y-45865685D01*
X58039458Y-45884349D01*
X58004970Y-45918837D01*
X57986306Y-45963897D01*
X57986306Y-46012669D01*
X58004970Y-46057729D01*
X58039458Y-46092217D01*
X58056508Y-46099279D01*
X57997101Y-46218095D01*
X57988343Y-46240981D01*
X57988024Y-46245462D01*
X57986306Y-46249611D01*
X57983904Y-46273997D01*
X53127462Y-46273997D01*
X53127462Y-46083520D01*
X53125060Y-46059134D01*
X53123341Y-46054985D01*
X53123023Y-46050504D01*
X53114266Y-46027619D01*
X53019027Y-45837142D01*
X53016460Y-45833065D01*
X53015819Y-45831140D01*
X53013739Y-45828741D01*
X53005973Y-45816405D01*
X52994132Y-45806135D01*
X52983863Y-45794295D01*
X52971526Y-45786528D01*
X52969128Y-45784449D01*
X52967202Y-45783807D01*
X52963126Y-45781241D01*
X52772648Y-45686002D01*
X52749763Y-45677245D01*
X52745281Y-45676926D01*
X52741133Y-45675208D01*
X52716747Y-45672806D01*
X51954843Y-45672806D01*
X51930457Y-45675208D01*
X51926307Y-45676926D01*
X51921828Y-45677245D01*
X51898942Y-45686002D01*
X51708465Y-45781240D01*
X51704386Y-45783807D01*
X51702462Y-45784449D01*
X51700064Y-45786528D01*
X51687727Y-45794295D01*
X51677457Y-45806135D01*
X51665617Y-45816405D01*
X51657850Y-45828741D01*
X51655771Y-45831140D01*
X51655129Y-45833065D01*
X51652563Y-45837142D01*
X51557325Y-46027618D01*
X51548567Y-46050504D01*
X51548248Y-46054985D01*
X51546530Y-46059134D01*
X51544128Y-46083520D01*
X51271079Y-46083520D01*
X51262384Y-46074825D01*
X51217324Y-46056160D01*
X51168551Y-46056160D01*
X51123491Y-46074825D01*
X51104549Y-46090370D01*
X50818835Y-46376085D01*
X50803290Y-46395027D01*
X50784626Y-46440087D01*
X47435352Y-46440087D01*
X47435352Y-45106754D01*
X47659976Y-45106754D01*
X47659976Y-45155526D01*
X47678640Y-45200586D01*
X47713128Y-45235074D01*
X47758188Y-45253738D01*
X47782574Y-45256140D01*
X48389843Y-45256140D01*
X48337437Y-45360952D01*
X48328679Y-45383838D01*
X48328360Y-45388319D01*
X48326642Y-45392468D01*
X48324240Y-45416854D01*
X48324240Y-45702569D01*
X48326642Y-45726955D01*
X48328360Y-45731103D01*
X48328679Y-45735585D01*
X48337437Y-45758471D01*
X48432675Y-45948947D01*
X48435241Y-45953023D01*
X48435883Y-45954949D01*
X48437962Y-45957347D01*
X48445729Y-45969684D01*
X48457569Y-45979953D01*
X48467839Y-45991794D01*
X48480176Y-45999560D01*
X48482574Y-46001640D01*
X48484498Y-46002281D01*
X48488577Y-46004849D01*
X48679054Y-46100087D01*
X48701940Y-46108844D01*
X48706419Y-46109162D01*
X48710569Y-46110881D01*
X48734955Y-46113283D01*
X49782574Y-46113283D01*
X49806960Y-46110881D01*
X49852020Y-46092217D01*
X49886508Y-46057729D01*
X49905172Y-46012669D01*
X49905172Y-45963897D01*
X49886508Y-45918837D01*
X49852020Y-45884349D01*
X49806960Y-45865685D01*
X49782574Y-45863283D01*
X48764463Y-45863283D01*
X48637647Y-45799875D01*
X48574240Y-45673060D01*
X48574240Y-45446362D01*
X48647210Y-45300421D01*
X48691492Y-45256140D01*
X49782574Y-45256140D01*
X49806960Y-45253738D01*
X49852020Y-45235074D01*
X49886508Y-45200586D01*
X49905172Y-45155526D01*
X49905172Y-45106754D01*
X49886508Y-45061694D01*
X49852020Y-45027206D01*
X49806960Y-45008542D01*
X49782574Y-45006140D01*
X47782574Y-45006140D01*
X47758188Y-45008542D01*
X47713128Y-45027206D01*
X47678640Y-45061694D01*
X47659976Y-45106754D01*
X47435352Y-45106754D01*
X47435352Y-44725801D01*
X50879864Y-44725801D01*
X50879864Y-44774573D01*
X50898528Y-44819633D01*
X50933016Y-44854121D01*
X50978076Y-44872785D01*
X51002462Y-44875187D01*
X51544128Y-44875187D01*
X51544128Y-45226377D01*
X51546530Y-45250763D01*
X51565194Y-45295823D01*
X51599682Y-45330311D01*
X51644742Y-45348975D01*
X51693514Y-45348975D01*
X51738574Y-45330311D01*
X51773062Y-45295823D01*
X51791726Y-45250763D01*
X51794128Y-45226377D01*
X51794128Y-44875187D01*
X52687238Y-44875187D01*
X52814055Y-44938595D01*
X52877462Y-45065409D01*
X52877462Y-45226377D01*
X52879864Y-45250763D01*
X52898528Y-45295823D01*
X52933016Y-45330311D01*
X52978076Y-45348975D01*
X53026848Y-45348975D01*
X53071908Y-45330311D01*
X53106396Y-45295823D01*
X53125060Y-45250763D01*
X53127462Y-45226377D01*
X53127462Y-45035901D01*
X53125060Y-45011515D01*
X53123341Y-45007366D01*
X53123023Y-45002885D01*
X53114266Y-44980000D01*
X53019027Y-44789523D01*
X53016460Y-44785446D01*
X53015819Y-44783521D01*
X53013739Y-44781122D01*
X53005973Y-44768786D01*
X52994132Y-44758516D01*
X52983863Y-44746676D01*
X52971526Y-44738909D01*
X52969128Y-44736830D01*
X52967202Y-44736188D01*
X52963126Y-44733622D01*
X52772648Y-44638383D01*
X52749763Y-44629626D01*
X52745281Y-44629307D01*
X52741133Y-44627589D01*
X52716747Y-44625187D01*
X51794128Y-44625187D01*
X51794128Y-44464473D01*
X51791726Y-44440087D01*
X54861656Y-44440087D01*
X54861656Y-44488859D01*
X54880320Y-44533919D01*
X54880325Y-44533924D01*
X54895866Y-44552861D01*
X54991104Y-44648099D01*
X55010040Y-44663639D01*
X55010045Y-44663644D01*
X55055105Y-44682309D01*
X55103878Y-44682309D01*
X55103879Y-44682309D01*
X55117076Y-44676842D01*
X55148938Y-44663645D01*
X55167880Y-44648100D01*
X55263119Y-44552862D01*
X55278664Y-44533920D01*
X55278665Y-44533919D01*
X55284275Y-44520375D01*
X55297330Y-44488859D01*
X55297329Y-44464473D01*
X55297330Y-44440087D01*
X55909275Y-44440087D01*
X55909275Y-44488859D01*
X55927939Y-44533919D01*
X55927940Y-44533920D01*
X55943485Y-44552862D01*
X56038724Y-44648100D01*
X56057666Y-44663645D01*
X56102726Y-44682310D01*
X56151500Y-44682309D01*
X56196559Y-44663644D01*
X56196563Y-44663639D01*
X56215500Y-44648099D01*
X56310738Y-44552861D01*
X56326278Y-44533924D01*
X56326284Y-44533919D01*
X56344948Y-44488859D01*
X56344948Y-44464473D01*
X57983904Y-44464473D01*
X57983904Y-44750188D01*
X57986306Y-44774574D01*
X57988024Y-44778722D01*
X57988343Y-44783204D01*
X57997101Y-44806090D01*
X58092339Y-44996566D01*
X58098946Y-45007062D01*
X58100209Y-45010110D01*
X58103025Y-45013541D01*
X58105393Y-45017303D01*
X58107887Y-45019466D01*
X58115754Y-45029052D01*
X58210992Y-45124290D01*
X58220577Y-45132156D01*
X58222741Y-45134651D01*
X58226502Y-45137019D01*
X58229934Y-45139835D01*
X58232980Y-45141096D01*
X58243479Y-45147706D01*
X58433956Y-45242944D01*
X58456842Y-45251701D01*
X58461321Y-45252019D01*
X58465471Y-45253738D01*
X58489857Y-45256140D01*
X59061285Y-45256140D01*
X59085671Y-45253738D01*
X59089819Y-45252019D01*
X59094301Y-45251701D01*
X59117187Y-45242943D01*
X59307663Y-45147705D01*
X59318155Y-45141099D01*
X59321207Y-45139836D01*
X59324643Y-45137015D01*
X59328400Y-45134651D01*
X59330560Y-45132159D01*
X59340149Y-45124291D01*
X59435388Y-45029053D01*
X59443257Y-45019464D01*
X59445749Y-45017303D01*
X59448114Y-45013545D01*
X59450933Y-45010111D01*
X59452196Y-45007060D01*
X59458803Y-44996566D01*
X59554042Y-44806089D01*
X59562799Y-44783204D01*
X59563117Y-44778722D01*
X59564836Y-44774574D01*
X59567238Y-44750188D01*
X59567238Y-44464473D01*
X59564836Y-44440087D01*
X59563117Y-44435938D01*
X59562799Y-44431457D01*
X59554042Y-44408572D01*
X59458803Y-44218095D01*
X59452196Y-44207600D01*
X59450933Y-44204550D01*
X59448114Y-44201115D01*
X59445749Y-44197358D01*
X59443257Y-44195196D01*
X59435388Y-44185608D01*
X59340149Y-44090370D01*
X59330560Y-44082501D01*
X59328400Y-44080010D01*
X59324643Y-44077645D01*
X59321207Y-44074825D01*
X59318155Y-44073561D01*
X59307663Y-44066956D01*
X59117187Y-43971718D01*
X59094301Y-43962960D01*
X59089819Y-43962641D01*
X59085671Y-43960923D01*
X59061285Y-43958521D01*
X58489857Y-43958521D01*
X58465471Y-43960923D01*
X58461321Y-43962641D01*
X58456842Y-43962960D01*
X58433956Y-43971717D01*
X58243479Y-44066955D01*
X58232980Y-44073564D01*
X58229934Y-44074826D01*
X58226502Y-44077641D01*
X58222741Y-44080010D01*
X58220577Y-44082504D01*
X58210992Y-44090371D01*
X58115754Y-44185609D01*
X58107887Y-44195194D01*
X58105393Y-44197358D01*
X58103025Y-44201119D01*
X58100209Y-44204551D01*
X58098946Y-44207598D01*
X58092339Y-44218095D01*
X57997101Y-44408571D01*
X57988343Y-44431457D01*
X57988024Y-44435938D01*
X57986306Y-44440087D01*
X57983904Y-44464473D01*
X56344948Y-44464473D01*
X56344948Y-44440087D01*
X56341373Y-44431457D01*
X56331894Y-44408572D01*
X56326284Y-44395027D01*
X56326278Y-44395021D01*
X56310738Y-44376085D01*
X56215500Y-44280847D01*
X56196563Y-44265306D01*
X56196559Y-44265302D01*
X56151500Y-44246637D01*
X56102726Y-44246636D01*
X56057666Y-44265301D01*
X56038724Y-44280846D01*
X55943485Y-44376084D01*
X55927940Y-44395026D01*
X55927939Y-44395027D01*
X55922329Y-44408571D01*
X55912850Y-44431457D01*
X55909275Y-44440087D01*
X55297330Y-44440087D01*
X55278665Y-44395027D01*
X55278664Y-44395026D01*
X55263119Y-44376084D01*
X55167880Y-44280846D01*
X55148938Y-44265301D01*
X55111056Y-44249610D01*
X55103879Y-44246637D01*
X55103878Y-44246637D01*
X55055105Y-44246637D01*
X55010045Y-44265302D01*
X55010040Y-44265306D01*
X54991104Y-44280847D01*
X54895866Y-44376085D01*
X54880325Y-44395021D01*
X54880320Y-44395027D01*
X54874710Y-44408572D01*
X54865231Y-44431457D01*
X54861656Y-44440087D01*
X51791726Y-44440087D01*
X51773062Y-44395027D01*
X51738574Y-44360539D01*
X51693514Y-44341875D01*
X51644742Y-44341875D01*
X51599682Y-44360539D01*
X51565194Y-44395027D01*
X51546530Y-44440087D01*
X51544128Y-44464473D01*
X51544128Y-44625187D01*
X51002462Y-44625187D01*
X50978076Y-44627589D01*
X50933016Y-44646253D01*
X50898528Y-44680741D01*
X50879864Y-44725801D01*
X47435352Y-44725801D01*
X47435352Y-43702569D01*
X47657574Y-43702569D01*
X47657574Y-43893045D01*
X47658789Y-43905388D01*
X47658556Y-43908679D01*
X47659540Y-43913008D01*
X47659976Y-43917431D01*
X47661239Y-43920482D01*
X47663989Y-43932573D01*
X47759227Y-44218287D01*
X47769217Y-44240662D01*
X47772160Y-44244055D01*
X47773879Y-44248205D01*
X47789424Y-44267147D01*
X47884662Y-44362385D01*
X47903604Y-44377930D01*
X47948663Y-44396595D01*
X47997437Y-44396595D01*
X48042496Y-44377930D01*
X48076983Y-44343443D01*
X48095648Y-44298384D01*
X48095648Y-44249610D01*
X48076983Y-44204551D01*
X48061438Y-44185609D01*
X47987065Y-44111236D01*
X47907574Y-43872762D01*
X47907574Y-43722851D01*
X47987065Y-43484376D01*
X48142333Y-43329109D01*
X48302391Y-43249080D01*
X48655105Y-43160902D01*
X48910042Y-43160902D01*
X49262755Y-43249080D01*
X49422814Y-43329110D01*
X49578082Y-43484376D01*
X49657574Y-43722851D01*
X49657574Y-43872762D01*
X49578083Y-44111234D01*
X49503709Y-44185608D01*
X49488164Y-44204550D01*
X49469499Y-44249610D01*
X49469499Y-44298383D01*
X49488163Y-44343443D01*
X49522650Y-44377930D01*
X49567710Y-44396595D01*
X49616483Y-44396595D01*
X49661543Y-44377931D01*
X49680485Y-44362386D01*
X49775724Y-44267148D01*
X49791269Y-44248206D01*
X49792988Y-44244054D01*
X49795931Y-44240662D01*
X49805921Y-44218287D01*
X49901159Y-43932573D01*
X49903908Y-43920482D01*
X49905172Y-43917431D01*
X49905607Y-43913008D01*
X49906592Y-43908679D01*
X49906358Y-43905388D01*
X49907574Y-43893045D01*
X49907574Y-43773419D01*
X50879864Y-43773419D01*
X50879864Y-43822193D01*
X50880446Y-43823598D01*
X50898528Y-43867252D01*
X50898533Y-43867257D01*
X50914074Y-43886194D01*
X51009312Y-43981432D01*
X51028254Y-43996977D01*
X51073313Y-44015642D01*
X51122087Y-44015642D01*
X51167146Y-43996977D01*
X51186088Y-43981432D01*
X51281326Y-43886194D01*
X51296866Y-43867257D01*
X51296872Y-43867252D01*
X51314954Y-43823598D01*
X51315536Y-43822193D01*
X51315536Y-43773420D01*
X51546530Y-43773420D01*
X51546530Y-43822192D01*
X51565194Y-43867252D01*
X51599682Y-43901740D01*
X51644742Y-43920404D01*
X51669128Y-43922806D01*
X53002462Y-43922806D01*
X53026848Y-43920404D01*
X53071908Y-43901740D01*
X53106396Y-43867252D01*
X53125060Y-43822192D01*
X53125060Y-43773420D01*
X53106396Y-43728360D01*
X53071908Y-43693872D01*
X53026848Y-43675208D01*
X53002462Y-43672806D01*
X51669128Y-43672806D01*
X51644742Y-43675208D01*
X51599682Y-43693872D01*
X51565194Y-43728360D01*
X51546530Y-43773420D01*
X51315536Y-43773420D01*
X51315536Y-43773419D01*
X51310069Y-43760221D01*
X51296872Y-43728360D01*
X51296866Y-43728354D01*
X51281326Y-43709418D01*
X51186088Y-43614180D01*
X51167146Y-43598635D01*
X51122087Y-43579970D01*
X51073313Y-43579970D01*
X51028254Y-43598635D01*
X51009312Y-43614180D01*
X50914074Y-43709418D01*
X50898533Y-43728354D01*
X50898528Y-43728360D01*
X50885330Y-43760221D01*
X50879864Y-43773419D01*
X49907574Y-43773419D01*
X49907574Y-43702569D01*
X49906358Y-43690225D01*
X49906592Y-43686935D01*
X49905607Y-43682605D01*
X49905172Y-43678183D01*
X49903908Y-43675131D01*
X49901159Y-43663041D01*
X49805921Y-43377326D01*
X49795931Y-43354951D01*
X49792988Y-43351558D01*
X49791269Y-43347407D01*
X49775724Y-43328465D01*
X49744489Y-43297230D01*
X54099752Y-43297230D01*
X54099752Y-43346002D01*
X54118416Y-43391062D01*
X54152904Y-43425550D01*
X54197964Y-43444214D01*
X54222350Y-43446616D01*
X54764016Y-43446616D01*
X54764016Y-43797806D01*
X54766418Y-43822192D01*
X54785082Y-43867252D01*
X54819570Y-43901740D01*
X54864630Y-43920404D01*
X54913402Y-43920404D01*
X54958462Y-43901740D01*
X54992950Y-43867252D01*
X55011614Y-43822192D01*
X55014016Y-43797806D01*
X55014016Y-43446616D01*
X55907126Y-43446616D01*
X56033943Y-43510024D01*
X56097350Y-43636838D01*
X56097350Y-43797806D01*
X56099752Y-43822192D01*
X56118416Y-43867252D01*
X56152904Y-43901740D01*
X56197964Y-43920404D01*
X56246736Y-43920404D01*
X56291796Y-43901740D01*
X56326284Y-43867252D01*
X56344948Y-43822192D01*
X56347350Y-43797806D01*
X56347350Y-43607330D01*
X56344948Y-43582944D01*
X56343229Y-43578795D01*
X56342911Y-43574314D01*
X56334154Y-43551429D01*
X56238915Y-43360952D01*
X56236348Y-43356875D01*
X56235707Y-43354950D01*
X56233627Y-43352551D01*
X56225861Y-43340215D01*
X56214020Y-43329945D01*
X56203751Y-43318105D01*
X56191414Y-43310338D01*
X56189016Y-43308259D01*
X56187090Y-43307617D01*
X56183014Y-43305051D01*
X55992536Y-43209812D01*
X55972097Y-43201991D01*
X57319640Y-43201991D01*
X57319640Y-43250765D01*
X57325106Y-43263962D01*
X57338304Y-43295824D01*
X57338309Y-43295829D01*
X57353850Y-43314766D01*
X57449088Y-43410004D01*
X57468030Y-43425549D01*
X57513089Y-43444214D01*
X57561863Y-43444214D01*
X57606922Y-43425549D01*
X57625864Y-43410004D01*
X57721102Y-43314766D01*
X57736642Y-43295829D01*
X57736648Y-43295824D01*
X57749845Y-43263962D01*
X57755312Y-43250765D01*
X57755312Y-43201992D01*
X57986306Y-43201992D01*
X57986306Y-43250764D01*
X58004970Y-43295824D01*
X58039458Y-43330312D01*
X58084518Y-43348976D01*
X58108904Y-43351378D01*
X59442238Y-43351378D01*
X59466624Y-43348976D01*
X59511684Y-43330312D01*
X59546172Y-43295824D01*
X59564836Y-43250764D01*
X59564836Y-43201992D01*
X59546172Y-43156932D01*
X59511684Y-43122444D01*
X59466624Y-43103780D01*
X59442238Y-43101378D01*
X58108904Y-43101378D01*
X58084518Y-43103780D01*
X58039458Y-43122444D01*
X58004970Y-43156932D01*
X57986306Y-43201992D01*
X57755312Y-43201992D01*
X57755312Y-43201991D01*
X57748080Y-43184532D01*
X57736648Y-43156932D01*
X57736642Y-43156926D01*
X57721102Y-43137990D01*
X57625864Y-43042752D01*
X57606922Y-43027207D01*
X57561863Y-43008542D01*
X57513089Y-43008542D01*
X57468030Y-43027207D01*
X57449088Y-43042752D01*
X57353850Y-43137990D01*
X57338309Y-43156926D01*
X57338304Y-43156932D01*
X57326872Y-43184532D01*
X57319640Y-43201991D01*
X55972097Y-43201991D01*
X55969651Y-43201055D01*
X55965169Y-43200736D01*
X55961021Y-43199018D01*
X55936635Y-43196616D01*
X55014016Y-43196616D01*
X55014016Y-43035902D01*
X55011614Y-43011516D01*
X54992950Y-42966456D01*
X54958462Y-42931968D01*
X54913402Y-42913304D01*
X54864630Y-42913304D01*
X54819570Y-42931968D01*
X54785082Y-42966456D01*
X54766418Y-43011516D01*
X54764016Y-43035902D01*
X54764016Y-43196616D01*
X54222350Y-43196616D01*
X54197964Y-43199018D01*
X54152904Y-43217682D01*
X54118416Y-43252170D01*
X54099752Y-43297230D01*
X49744489Y-43297230D01*
X49585247Y-43137989D01*
X49575658Y-43130120D01*
X49573498Y-43127629D01*
X49569741Y-43125264D01*
X49566305Y-43122444D01*
X49563253Y-43121180D01*
X49552761Y-43114575D01*
X49362285Y-43019337D01*
X49360499Y-43018653D01*
X49359775Y-43018117D01*
X49349545Y-43014461D01*
X49339399Y-43010579D01*
X49338499Y-43010515D01*
X49336700Y-43009872D01*
X49059864Y-42940663D01*
X51544128Y-42940663D01*
X51544128Y-43131140D01*
X51546530Y-43155526D01*
X51565194Y-43200586D01*
X51599682Y-43235074D01*
X51644742Y-43253738D01*
X51693514Y-43253738D01*
X51738574Y-43235074D01*
X51773062Y-43200586D01*
X51791726Y-43155526D01*
X51794128Y-43131140D01*
X51794128Y-42970171D01*
X51867098Y-42824230D01*
X51933647Y-42757682D01*
X52079589Y-42684711D01*
X53002462Y-42684711D01*
X53026848Y-42682309D01*
X53071908Y-42663645D01*
X53106396Y-42629157D01*
X53125060Y-42584097D01*
X53125060Y-42535325D01*
X53106396Y-42490265D01*
X53071908Y-42455777D01*
X53026848Y-42437113D01*
X53002462Y-42434711D01*
X51669128Y-42434711D01*
X51644742Y-42437113D01*
X51599682Y-42455777D01*
X51565194Y-42490265D01*
X51546530Y-42535325D01*
X51546530Y-42584097D01*
X51565194Y-42629157D01*
X51599682Y-42663645D01*
X51644742Y-42682309D01*
X51659193Y-42683732D01*
X51659170Y-42683788D01*
X51652563Y-42694285D01*
X51557325Y-42884761D01*
X51548567Y-42907647D01*
X51548248Y-42912128D01*
X51546530Y-42916277D01*
X51544128Y-42940663D01*
X49059864Y-42940663D01*
X48955748Y-42914634D01*
X48951518Y-42914008D01*
X48949817Y-42913304D01*
X48940635Y-42912399D01*
X48931507Y-42911050D01*
X48929685Y-42911321D01*
X48925431Y-42910902D01*
X48639716Y-42910902D01*
X48635461Y-42911321D01*
X48633639Y-42911050D01*
X48624509Y-42912399D01*
X48615330Y-42913304D01*
X48613628Y-42914008D01*
X48609399Y-42914634D01*
X48228447Y-43009872D01*
X48226647Y-43010515D01*
X48225748Y-43010579D01*
X48215590Y-43014465D01*
X48205372Y-43018117D01*
X48204649Y-43018652D01*
X48202863Y-43019336D01*
X48012386Y-43114575D01*
X48001893Y-43121179D01*
X47998842Y-43122444D01*
X47995405Y-43125264D01*
X47991649Y-43127629D01*
X47989488Y-43130120D01*
X47979900Y-43137989D01*
X47789424Y-43328466D01*
X47773879Y-43347408D01*
X47772160Y-43351557D01*
X47769217Y-43354951D01*
X47759227Y-43377326D01*
X47663989Y-43663041D01*
X47661239Y-43675131D01*
X47659976Y-43678183D01*
X47659540Y-43682605D01*
X47658556Y-43686935D01*
X47658789Y-43690225D01*
X47657574Y-43702569D01*
X47435352Y-43702569D01*
X47435352Y-42059135D01*
X47659976Y-42059135D01*
X47659976Y-42107907D01*
X47678640Y-42152967D01*
X47713128Y-42187455D01*
X47758188Y-42206119D01*
X47782574Y-42208521D01*
X49467350Y-42208521D01*
X49594167Y-42271929D01*
X49670771Y-42425137D01*
X49683825Y-42445874D01*
X49720670Y-42477830D01*
X49766940Y-42493254D01*
X49815590Y-42489796D01*
X49859213Y-42467985D01*
X49891169Y-42431140D01*
X49906593Y-42384869D01*
X49903135Y-42336219D01*
X49894378Y-42313334D01*
X49799139Y-42122857D01*
X49796572Y-42118780D01*
X49795931Y-42116855D01*
X49793851Y-42114456D01*
X49786085Y-42102120D01*
X49774244Y-42091850D01*
X49763975Y-42080010D01*
X49751638Y-42072243D01*
X49749240Y-42070164D01*
X49747314Y-42069522D01*
X49743238Y-42066956D01*
X49552760Y-41971717D01*
X49529875Y-41962960D01*
X49525393Y-41962641D01*
X49521245Y-41960923D01*
X49496859Y-41958521D01*
X47782574Y-41958521D01*
X47758188Y-41960923D01*
X47713128Y-41979587D01*
X47678640Y-42014075D01*
X47659976Y-42059135D01*
X47435352Y-42059135D01*
X47435352Y-40559711D01*
X48324240Y-40559711D01*
X48324240Y-40845426D01*
X48326642Y-40869812D01*
X48328360Y-40873960D01*
X48328679Y-40878442D01*
X48337437Y-40901328D01*
X48432675Y-41091804D01*
X48439282Y-41102300D01*
X48440545Y-41105348D01*
X48443361Y-41108779D01*
X48445729Y-41112541D01*
X48448223Y-41114704D01*
X48456090Y-41124290D01*
X48551328Y-41219528D01*
X48560913Y-41227394D01*
X48563077Y-41229889D01*
X48566838Y-41232257D01*
X48570270Y-41235073D01*
X48573316Y-41236334D01*
X48583815Y-41242944D01*
X48774292Y-41338182D01*
X48797178Y-41346939D01*
X48801657Y-41347257D01*
X48805807Y-41348976D01*
X48830193Y-41351378D01*
X49401621Y-41351378D01*
X49426007Y-41348976D01*
X49430155Y-41347257D01*
X49434637Y-41346939D01*
X49457523Y-41338181D01*
X49647999Y-41242943D01*
X49658491Y-41236337D01*
X49661543Y-41235074D01*
X49664979Y-41232253D01*
X49668736Y-41229889D01*
X49670896Y-41227397D01*
X49680485Y-41219529D01*
X49775724Y-41124291D01*
X49783593Y-41114702D01*
X49786085Y-41112541D01*
X49788450Y-41108783D01*
X49791269Y-41105349D01*
X49792532Y-41102298D01*
X49799139Y-41091804D01*
X49874710Y-40940663D01*
X51544128Y-40940663D01*
X51544128Y-41321616D01*
X51546530Y-41346002D01*
X51548248Y-41350150D01*
X51548567Y-41354632D01*
X51557325Y-41377518D01*
X51652563Y-41567994D01*
X51655129Y-41572070D01*
X51655771Y-41573996D01*
X51657850Y-41576394D01*
X51665617Y-41588731D01*
X51677457Y-41599000D01*
X51687727Y-41610841D01*
X51700064Y-41618607D01*
X51702462Y-41620687D01*
X51704386Y-41621328D01*
X51708465Y-41623896D01*
X51898942Y-41719134D01*
X51921828Y-41727891D01*
X51926307Y-41728209D01*
X51930457Y-41729928D01*
X51954843Y-41732330D01*
X53002462Y-41732330D01*
X53026848Y-41729928D01*
X53071908Y-41711264D01*
X53106396Y-41676776D01*
X53125060Y-41631716D01*
X53125060Y-41582944D01*
X53106396Y-41537884D01*
X53089932Y-41521420D01*
X53106790Y-41487706D01*
X54766418Y-41487706D01*
X54766418Y-41536478D01*
X54785082Y-41581538D01*
X54819570Y-41616026D01*
X54864630Y-41634690D01*
X54889016Y-41637092D01*
X55907126Y-41637092D01*
X56033943Y-41700500D01*
X56097350Y-41827314D01*
X56097350Y-42054013D01*
X56024381Y-42199950D01*
X55980096Y-42244235D01*
X54889016Y-42244235D01*
X54864630Y-42246637D01*
X54819570Y-42265301D01*
X54785082Y-42299789D01*
X54766418Y-42344849D01*
X54766418Y-42393621D01*
X54785082Y-42438681D01*
X54819570Y-42473169D01*
X54864630Y-42491833D01*
X54889016Y-42494235D01*
X56222350Y-42494235D01*
X56246736Y-42491833D01*
X56291796Y-42473169D01*
X56326284Y-42438681D01*
X56344948Y-42393621D01*
X56344948Y-42344849D01*
X56326284Y-42299789D01*
X56291796Y-42265301D01*
X56274745Y-42258238D01*
X56334154Y-42139422D01*
X56342911Y-42116537D01*
X56343229Y-42112055D01*
X56344948Y-42107907D01*
X56347350Y-42083521D01*
X56347350Y-41797806D01*
X57983904Y-41797806D01*
X57983904Y-42083520D01*
X57986306Y-42107906D01*
X57988024Y-42112054D01*
X57988343Y-42116536D01*
X57997100Y-42139421D01*
X58092339Y-42329899D01*
X58105393Y-42350636D01*
X58142238Y-42382592D01*
X58188508Y-42398016D01*
X58237158Y-42394558D01*
X58280781Y-42372747D01*
X58312737Y-42335902D01*
X58328161Y-42289631D01*
X58324703Y-42240982D01*
X58315946Y-42218096D01*
X58233904Y-42054011D01*
X58233904Y-41827314D01*
X58297311Y-41700499D01*
X58424127Y-41637092D01*
X58460349Y-41637092D01*
X58587163Y-41700499D01*
X58650571Y-41827314D01*
X58650571Y-42083520D01*
X58652973Y-42107906D01*
X58654691Y-42112054D01*
X58655010Y-42116536D01*
X58663767Y-42139421D01*
X58759006Y-42329899D01*
X58761572Y-42333975D01*
X58762214Y-42335901D01*
X58764293Y-42338299D01*
X58772060Y-42350636D01*
X58783900Y-42360905D01*
X58794170Y-42372746D01*
X58806506Y-42380512D01*
X58808905Y-42382592D01*
X58810830Y-42383233D01*
X58814907Y-42385800D01*
X59005384Y-42481039D01*
X59028269Y-42489796D01*
X59032750Y-42490114D01*
X59036899Y-42491833D01*
X59061285Y-42494235D01*
X59156523Y-42494235D01*
X59180909Y-42491833D01*
X59185057Y-42490114D01*
X59189539Y-42489796D01*
X59212424Y-42481039D01*
X59402902Y-42385800D01*
X59406978Y-42383233D01*
X59408904Y-42382592D01*
X59411302Y-42380512D01*
X59423639Y-42372746D01*
X59433908Y-42360905D01*
X59445749Y-42350636D01*
X59453515Y-42338298D01*
X59455595Y-42335901D01*
X59456236Y-42333976D01*
X59458804Y-42329898D01*
X59554042Y-42139421D01*
X59562799Y-42116535D01*
X59563117Y-42112055D01*
X59564836Y-42107906D01*
X59567238Y-42083520D01*
X59567238Y-41702568D01*
X59564836Y-41678182D01*
X59563117Y-41674033D01*
X59562799Y-41669552D01*
X59554042Y-41646667D01*
X59458803Y-41456190D01*
X59445749Y-41435453D01*
X59408904Y-41403497D01*
X59362634Y-41388073D01*
X59313984Y-41391531D01*
X59270361Y-41413343D01*
X59238405Y-41450188D01*
X59222981Y-41496458D01*
X59226439Y-41545108D01*
X59235197Y-41567994D01*
X59317238Y-41732076D01*
X59317238Y-42054012D01*
X59253830Y-42180827D01*
X59127014Y-42244235D01*
X59090793Y-42244235D01*
X58963979Y-42180828D01*
X58900571Y-42054011D01*
X58900571Y-41797806D01*
X58898169Y-41773420D01*
X58896450Y-41769271D01*
X58896132Y-41764790D01*
X58887375Y-41741905D01*
X58792136Y-41551428D01*
X58789569Y-41547351D01*
X58788928Y-41545426D01*
X58786848Y-41543027D01*
X58779082Y-41530691D01*
X58767241Y-41520421D01*
X58756972Y-41508581D01*
X58744635Y-41500814D01*
X58742237Y-41498735D01*
X58740311Y-41498093D01*
X58736235Y-41495527D01*
X58545759Y-41400289D01*
X58522873Y-41391531D01*
X58518391Y-41391212D01*
X58514243Y-41389494D01*
X58489857Y-41387092D01*
X58394619Y-41387092D01*
X58370233Y-41389494D01*
X58366083Y-41391212D01*
X58361604Y-41391531D01*
X58338718Y-41400288D01*
X58148241Y-41495526D01*
X58144162Y-41498093D01*
X58142238Y-41498735D01*
X58139840Y-41500814D01*
X58127503Y-41508581D01*
X58117233Y-41520421D01*
X58105393Y-41530691D01*
X58097626Y-41543027D01*
X58095547Y-41545426D01*
X58094905Y-41547351D01*
X58092339Y-41551428D01*
X57997101Y-41741904D01*
X57988343Y-41764790D01*
X57988024Y-41769271D01*
X57986306Y-41773420D01*
X57983904Y-41797806D01*
X56347350Y-41797806D01*
X56344948Y-41773420D01*
X56343229Y-41769271D01*
X56342911Y-41764790D01*
X56334154Y-41741905D01*
X56238915Y-41551428D01*
X56236348Y-41547351D01*
X56235707Y-41545426D01*
X56233627Y-41543027D01*
X56225861Y-41530691D01*
X56214020Y-41520421D01*
X56203751Y-41508581D01*
X56191414Y-41500814D01*
X56189016Y-41498735D01*
X56187090Y-41498093D01*
X56183014Y-41495527D01*
X55992536Y-41400288D01*
X55969651Y-41391531D01*
X55965169Y-41391212D01*
X55961021Y-41389494D01*
X55936635Y-41387092D01*
X54889016Y-41387092D01*
X54864630Y-41389494D01*
X54819570Y-41408158D01*
X54785082Y-41442646D01*
X54766418Y-41487706D01*
X53106790Y-41487706D01*
X53114266Y-41472755D01*
X53123023Y-41449870D01*
X53123341Y-41445388D01*
X53125060Y-41441240D01*
X53127462Y-41416854D01*
X53127462Y-40940663D01*
X53125060Y-40916277D01*
X53123341Y-40912128D01*
X53123023Y-40907647D01*
X53114266Y-40884762D01*
X53019027Y-40694285D01*
X53016460Y-40690208D01*
X53015819Y-40688283D01*
X53013739Y-40685884D01*
X53005973Y-40673548D01*
X52994132Y-40663278D01*
X52983863Y-40651438D01*
X52971526Y-40643671D01*
X52969128Y-40641592D01*
X52967202Y-40640950D01*
X52963126Y-40638384D01*
X52772648Y-40543145D01*
X52749763Y-40534388D01*
X52745281Y-40534069D01*
X52741133Y-40532351D01*
X52716747Y-40529949D01*
X52526271Y-40529949D01*
X52501885Y-40532351D01*
X52497736Y-40534069D01*
X52493255Y-40534388D01*
X52470370Y-40543145D01*
X52279893Y-40638384D01*
X52275816Y-40640950D01*
X52273891Y-40641592D01*
X52271492Y-40643671D01*
X52259156Y-40651438D01*
X52248886Y-40663278D01*
X52237046Y-40673548D01*
X52229279Y-40685884D01*
X52227200Y-40688283D01*
X52226558Y-40690208D01*
X52223992Y-40694285D01*
X52128754Y-40884761D01*
X52119996Y-40907647D01*
X52119677Y-40912128D01*
X52117959Y-40916277D01*
X52115557Y-40940663D01*
X52115557Y-41387346D01*
X52068065Y-41482330D01*
X51984351Y-41482330D01*
X51857535Y-41418922D01*
X51794128Y-41292107D01*
X51794128Y-40970171D01*
X51876170Y-40806088D01*
X51884927Y-40783203D01*
X51888385Y-40734553D01*
X51872961Y-40688282D01*
X51841005Y-40651437D01*
X51797382Y-40629626D01*
X51748732Y-40626168D01*
X51702462Y-40641592D01*
X51665617Y-40673548D01*
X51652563Y-40694285D01*
X51557325Y-40884761D01*
X51548567Y-40907647D01*
X51548248Y-40912128D01*
X51546530Y-40916277D01*
X51544128Y-40940663D01*
X49874710Y-40940663D01*
X49894378Y-40901327D01*
X49903135Y-40878442D01*
X49903453Y-40873960D01*
X49905172Y-40869812D01*
X49907574Y-40845426D01*
X49907574Y-40559711D01*
X49905172Y-40535325D01*
X49903453Y-40531176D01*
X49903135Y-40526695D01*
X49894378Y-40503810D01*
X49799139Y-40313333D01*
X49792532Y-40302838D01*
X49791269Y-40299788D01*
X49788450Y-40296353D01*
X49786085Y-40292596D01*
X49783593Y-40290434D01*
X49775724Y-40280846D01*
X49680485Y-40185608D01*
X49670896Y-40177739D01*
X49668736Y-40175248D01*
X49664979Y-40172883D01*
X49661543Y-40170063D01*
X49658491Y-40168799D01*
X49647999Y-40162194D01*
X49457523Y-40066956D01*
X49434637Y-40058198D01*
X49430155Y-40057879D01*
X49426007Y-40056161D01*
X49401621Y-40053759D01*
X48830193Y-40053759D01*
X48805807Y-40056161D01*
X48801657Y-40057879D01*
X48797178Y-40058198D01*
X48774292Y-40066955D01*
X48583815Y-40162193D01*
X48573316Y-40168802D01*
X48570270Y-40170064D01*
X48566838Y-40172879D01*
X48563077Y-40175248D01*
X48560913Y-40177742D01*
X48551328Y-40185609D01*
X48456090Y-40280847D01*
X48448223Y-40290432D01*
X48445729Y-40292596D01*
X48443361Y-40296357D01*
X48440545Y-40299789D01*
X48439282Y-40302836D01*
X48432675Y-40313333D01*
X48337437Y-40503809D01*
X48328679Y-40526695D01*
X48328360Y-40531176D01*
X48326642Y-40535325D01*
X48324240Y-40559711D01*
X47435352Y-40559711D01*
X47435352Y-38541442D01*
X48325582Y-38541442D01*
X48328004Y-38590154D01*
X48348883Y-38634233D01*
X48385041Y-38666965D01*
X48407198Y-38677429D01*
X49410921Y-39035901D01*
X48407198Y-39394374D01*
X48385040Y-39404838D01*
X48348883Y-39437570D01*
X48328004Y-39481649D01*
X48325582Y-39530361D01*
X48341986Y-39576292D01*
X48374718Y-39612449D01*
X48418797Y-39633328D01*
X48467509Y-39635750D01*
X48491282Y-39629810D01*
X49824616Y-39153619D01*
X49846774Y-39143155D01*
X49851425Y-39138943D01*
X49857096Y-39136258D01*
X49869371Y-39122698D01*
X49882931Y-39110423D01*
X49885616Y-39104752D01*
X49889828Y-39100101D01*
X49895981Y-39082871D01*
X49903810Y-39066344D01*
X49904121Y-39060079D01*
X49906232Y-39054170D01*
X49905323Y-39035897D01*
X49906232Y-39017632D01*
X49904122Y-39011725D01*
X49903811Y-39005458D01*
X49895979Y-38988925D01*
X49889828Y-38971701D01*
X49885617Y-38967049D01*
X49882931Y-38961379D01*
X49869371Y-38949103D01*
X49857096Y-38935544D01*
X49851425Y-38932858D01*
X49846774Y-38928647D01*
X49824616Y-38918183D01*
X49819279Y-38916277D01*
X50879864Y-38916277D01*
X50879864Y-38965049D01*
X50898528Y-39010109D01*
X50933016Y-39044597D01*
X50978076Y-39063261D01*
X51002462Y-39065663D01*
X51609731Y-39065663D01*
X51557325Y-39170475D01*
X51548567Y-39193361D01*
X51548248Y-39197842D01*
X51546530Y-39201991D01*
X51544128Y-39226377D01*
X51544128Y-39512092D01*
X51546530Y-39536478D01*
X51548248Y-39540626D01*
X51548567Y-39545108D01*
X51557325Y-39567994D01*
X51652563Y-39758470D01*
X51655129Y-39762546D01*
X51655771Y-39764472D01*
X51657850Y-39766870D01*
X51665617Y-39779207D01*
X51677457Y-39789476D01*
X51687727Y-39801317D01*
X51700064Y-39809083D01*
X51702462Y-39811163D01*
X51704386Y-39811804D01*
X51708465Y-39814372D01*
X51898942Y-39909610D01*
X51921828Y-39918367D01*
X51926307Y-39918685D01*
X51930457Y-39920404D01*
X51954843Y-39922806D01*
X53002462Y-39922806D01*
X53026848Y-39920404D01*
X53071908Y-39901740D01*
X53080604Y-39893044D01*
X54764016Y-39893044D01*
X54764016Y-40273997D01*
X54766418Y-40298383D01*
X54768136Y-40302531D01*
X54768455Y-40307013D01*
X54777213Y-40329899D01*
X54872451Y-40520375D01*
X54879058Y-40530871D01*
X54880321Y-40533919D01*
X54883137Y-40537350D01*
X54885505Y-40541112D01*
X54887999Y-40543275D01*
X54895866Y-40552861D01*
X54991104Y-40648099D01*
X55000689Y-40655965D01*
X55002853Y-40658460D01*
X55006614Y-40660828D01*
X55010046Y-40663644D01*
X55013092Y-40664905D01*
X55023591Y-40671515D01*
X55214068Y-40766753D01*
X55236954Y-40775510D01*
X55241433Y-40775828D01*
X55245583Y-40777547D01*
X55269969Y-40779949D01*
X55841397Y-40779949D01*
X55865783Y-40777547D01*
X55869931Y-40775828D01*
X55874413Y-40775510D01*
X55897299Y-40766752D01*
X55930429Y-40750187D01*
X57983904Y-40750187D01*
X57983904Y-40940664D01*
X57986306Y-40965050D01*
X58004970Y-41010110D01*
X58039458Y-41044598D01*
X58084518Y-41063262D01*
X58133290Y-41063262D01*
X58178350Y-41044598D01*
X58212838Y-41010110D01*
X58231502Y-40965050D01*
X58233904Y-40940664D01*
X58233904Y-40779695D01*
X58306874Y-40633754D01*
X58373423Y-40567206D01*
X58519365Y-40494235D01*
X59442238Y-40494235D01*
X59466624Y-40491833D01*
X59511684Y-40473169D01*
X59546172Y-40438681D01*
X59564836Y-40393621D01*
X59564836Y-40344849D01*
X59546172Y-40299789D01*
X59511684Y-40265301D01*
X59466624Y-40246637D01*
X59442238Y-40244235D01*
X58108904Y-40244235D01*
X58084518Y-40246637D01*
X58039458Y-40265301D01*
X58004970Y-40299789D01*
X57986306Y-40344849D01*
X57986306Y-40393621D01*
X58004970Y-40438681D01*
X58039458Y-40473169D01*
X58084518Y-40491833D01*
X58098969Y-40493256D01*
X58098946Y-40493312D01*
X58092339Y-40503809D01*
X57997101Y-40694285D01*
X57988343Y-40717171D01*
X57988024Y-40721652D01*
X57986306Y-40725801D01*
X57983904Y-40750187D01*
X55930429Y-40750187D01*
X56087775Y-40671514D01*
X56098267Y-40664908D01*
X56101319Y-40663645D01*
X56104755Y-40660824D01*
X56108512Y-40658460D01*
X56110672Y-40655968D01*
X56120261Y-40648100D01*
X56215500Y-40552862D01*
X56223369Y-40543273D01*
X56225861Y-40541112D01*
X56228226Y-40537354D01*
X56231045Y-40533920D01*
X56232308Y-40530869D01*
X56238915Y-40520375D01*
X56334154Y-40329898D01*
X56342911Y-40307013D01*
X56343229Y-40302531D01*
X56344948Y-40298383D01*
X56347350Y-40273997D01*
X56347350Y-39893044D01*
X56344948Y-39868658D01*
X56343229Y-39864509D01*
X56342911Y-39860028D01*
X56334154Y-39837143D01*
X56329366Y-39827568D01*
X56889016Y-39827568D01*
X56913402Y-39825166D01*
X56958462Y-39806502D01*
X56992950Y-39772014D01*
X57011614Y-39726954D01*
X57011614Y-39678182D01*
X56992950Y-39633122D01*
X56958462Y-39598634D01*
X56913402Y-39579970D01*
X56889016Y-39577568D01*
X54889016Y-39577568D01*
X54864630Y-39579970D01*
X54819570Y-39598634D01*
X54785082Y-39633122D01*
X54766418Y-39678182D01*
X54766418Y-39726954D01*
X54785082Y-39772014D01*
X54801545Y-39788477D01*
X54777213Y-39837142D01*
X54768455Y-39860028D01*
X54768136Y-39864509D01*
X54766418Y-39868658D01*
X54764016Y-39893044D01*
X53080604Y-39893044D01*
X53106396Y-39867252D01*
X53125060Y-39822192D01*
X53125060Y-39773420D01*
X53106396Y-39728360D01*
X53071908Y-39693872D01*
X53026848Y-39675208D01*
X53002462Y-39672806D01*
X51984351Y-39672806D01*
X51857535Y-39609398D01*
X51794128Y-39482583D01*
X51794128Y-39255885D01*
X51867098Y-39109944D01*
X51911380Y-39065663D01*
X53002462Y-39065663D01*
X53026848Y-39063261D01*
X53071908Y-39044597D01*
X53106396Y-39010109D01*
X53125060Y-38965049D01*
X53125060Y-38916277D01*
X53106396Y-38871217D01*
X53071908Y-38836729D01*
X53026848Y-38818065D01*
X53002462Y-38815663D01*
X51002462Y-38815663D01*
X50978076Y-38818065D01*
X50933016Y-38836729D01*
X50898528Y-38871217D01*
X50879864Y-38916277D01*
X49819279Y-38916277D01*
X48491282Y-38441993D01*
X48467509Y-38436053D01*
X48418797Y-38438475D01*
X48374718Y-38459354D01*
X48341986Y-38495512D01*
X48325582Y-38541442D01*
X47435352Y-38541442D01*
X47435352Y-36940663D01*
X47657574Y-36940663D01*
X47657574Y-37893044D01*
X47659976Y-37917430D01*
X47678640Y-37962490D01*
X47713128Y-37996978D01*
X47758188Y-38015642D01*
X47806960Y-38015642D01*
X47852020Y-37996978D01*
X47886508Y-37962490D01*
X47905172Y-37917430D01*
X47907574Y-37893044D01*
X47907574Y-37065663D01*
X48609955Y-37065663D01*
X48609955Y-37607330D01*
X48612357Y-37631716D01*
X48631021Y-37676776D01*
X48665509Y-37711264D01*
X48710569Y-37729928D01*
X48759341Y-37729928D01*
X48804401Y-37711264D01*
X48838889Y-37676776D01*
X48857553Y-37631716D01*
X48859955Y-37607330D01*
X48859955Y-37065663D01*
X49657574Y-37065663D01*
X49657574Y-37893044D01*
X49659976Y-37917430D01*
X49678640Y-37962490D01*
X49713128Y-37996978D01*
X49758188Y-38015642D01*
X49806960Y-38015642D01*
X49852020Y-37996978D01*
X49886508Y-37962490D01*
X49905172Y-37917430D01*
X49907574Y-37893044D01*
X49907574Y-37512092D01*
X50877462Y-37512092D01*
X50877462Y-37702568D01*
X50878677Y-37714911D01*
X50878444Y-37718202D01*
X50879428Y-37722531D01*
X50879864Y-37726954D01*
X50881127Y-37730005D01*
X50883877Y-37742096D01*
X50979115Y-38027810D01*
X50989105Y-38050185D01*
X50992048Y-38053578D01*
X50993767Y-38057728D01*
X51009312Y-38076670D01*
X51104550Y-38171908D01*
X51123492Y-38187453D01*
X51168551Y-38206118D01*
X51217325Y-38206118D01*
X51262384Y-38187453D01*
X51296871Y-38152966D01*
X51315536Y-38107907D01*
X51315536Y-38059133D01*
X51296871Y-38014074D01*
X51281326Y-37995132D01*
X51206953Y-37920759D01*
X51127462Y-37682285D01*
X51127462Y-37532374D01*
X51206953Y-37293899D01*
X51362221Y-37138632D01*
X51522279Y-37058603D01*
X51874993Y-36970425D01*
X52129930Y-36970425D01*
X52482643Y-37058603D01*
X52642702Y-37138633D01*
X52797970Y-37293899D01*
X52877462Y-37532374D01*
X52877462Y-37682285D01*
X52797971Y-37920757D01*
X52723597Y-37995131D01*
X52708052Y-38014073D01*
X52689387Y-38059133D01*
X52689387Y-38107906D01*
X52708051Y-38152966D01*
X52742538Y-38187453D01*
X52787598Y-38206118D01*
X52836371Y-38206118D01*
X52881431Y-38187454D01*
X52892027Y-38178758D01*
X54764016Y-38178758D01*
X54764016Y-38464473D01*
X54766418Y-38488859D01*
X54768136Y-38493007D01*
X54768455Y-38497489D01*
X54777213Y-38520375D01*
X54872451Y-38710851D01*
X54875017Y-38714927D01*
X54875659Y-38716853D01*
X54877738Y-38719251D01*
X54885505Y-38731588D01*
X54897345Y-38741857D01*
X54907615Y-38753698D01*
X54919952Y-38761464D01*
X54922350Y-38763544D01*
X54924274Y-38764185D01*
X54928353Y-38766753D01*
X55118830Y-38861991D01*
X55141716Y-38870748D01*
X55146195Y-38871066D01*
X55150345Y-38872785D01*
X55174731Y-38875187D01*
X56222350Y-38875187D01*
X56246736Y-38872785D01*
X56291796Y-38854121D01*
X56300492Y-38845425D01*
X57983904Y-38845425D01*
X57983904Y-39226378D01*
X57986306Y-39250764D01*
X57988024Y-39254912D01*
X57988343Y-39259394D01*
X57997101Y-39282280D01*
X58092339Y-39472756D01*
X58094905Y-39476832D01*
X58095547Y-39478758D01*
X58097626Y-39481156D01*
X58105393Y-39493493D01*
X58117233Y-39503762D01*
X58127503Y-39515603D01*
X58139840Y-39523369D01*
X58142238Y-39525449D01*
X58144162Y-39526090D01*
X58148241Y-39528658D01*
X58338718Y-39623896D01*
X58361604Y-39632653D01*
X58366083Y-39632971D01*
X58370233Y-39634690D01*
X58394619Y-39637092D01*
X58584964Y-39637092D01*
X58585095Y-39637092D01*
X58609481Y-39634690D01*
X58620795Y-39630003D01*
X58632809Y-39627627D01*
X58643106Y-39620762D01*
X58654541Y-39616026D01*
X58663200Y-39607366D01*
X58673391Y-39600573D01*
X58680278Y-39590288D01*
X58689029Y-39581538D01*
X58693715Y-39570223D01*
X58700530Y-39560048D01*
X58707668Y-39536606D01*
X58878047Y-38684711D01*
X59127014Y-38684711D01*
X59253831Y-38748119D01*
X59317238Y-38874933D01*
X59317238Y-39196870D01*
X59235197Y-39360952D01*
X59226439Y-39383838D01*
X59222981Y-39432488D01*
X59238405Y-39478758D01*
X59270361Y-39515603D01*
X59313984Y-39537415D01*
X59362634Y-39540873D01*
X59408904Y-39525449D01*
X59445749Y-39493493D01*
X59458803Y-39472756D01*
X59554042Y-39282279D01*
X59562799Y-39259394D01*
X59563117Y-39254912D01*
X59564836Y-39250764D01*
X59567238Y-39226378D01*
X59567238Y-38845425D01*
X59564836Y-38821039D01*
X59563117Y-38816890D01*
X59562799Y-38812409D01*
X59554042Y-38789524D01*
X59458803Y-38599047D01*
X59456236Y-38594970D01*
X59455595Y-38593045D01*
X59453515Y-38590646D01*
X59445749Y-38578310D01*
X59433908Y-38568040D01*
X59423639Y-38556200D01*
X59411302Y-38548433D01*
X59408904Y-38546354D01*
X59406978Y-38545712D01*
X59402902Y-38543146D01*
X59212424Y-38447907D01*
X59189539Y-38439150D01*
X59185057Y-38438831D01*
X59180909Y-38437113D01*
X59156523Y-38434711D01*
X58394619Y-38434711D01*
X58370233Y-38437113D01*
X58366083Y-38438831D01*
X58361604Y-38439150D01*
X58338718Y-38447907D01*
X58148241Y-38543145D01*
X58144162Y-38545712D01*
X58142238Y-38546354D01*
X58139840Y-38548433D01*
X58127503Y-38556200D01*
X58117233Y-38568040D01*
X58105393Y-38578310D01*
X58097626Y-38590646D01*
X58095547Y-38593045D01*
X58094905Y-38594970D01*
X58092339Y-38599047D01*
X57997101Y-38789523D01*
X57988343Y-38812409D01*
X57988024Y-38816890D01*
X57986306Y-38821039D01*
X57983904Y-38845425D01*
X56300492Y-38845425D01*
X56326284Y-38819633D01*
X56344948Y-38774573D01*
X56344948Y-38725801D01*
X56326284Y-38680741D01*
X56291796Y-38646253D01*
X56246736Y-38627589D01*
X56222350Y-38625187D01*
X55204239Y-38625187D01*
X55077423Y-38561779D01*
X55014016Y-38434964D01*
X55014016Y-38208266D01*
X55086986Y-38062325D01*
X55131268Y-38018044D01*
X56222350Y-38018044D01*
X56246736Y-38015642D01*
X56291796Y-37996978D01*
X56326284Y-37962490D01*
X56344948Y-37917430D01*
X56344948Y-37868658D01*
X56326284Y-37823598D01*
X56291796Y-37789110D01*
X56246736Y-37770446D01*
X56222350Y-37768044D01*
X54889016Y-37768044D01*
X54864630Y-37770446D01*
X54819570Y-37789110D01*
X54785082Y-37823598D01*
X54766418Y-37868658D01*
X54766418Y-37917430D01*
X54785082Y-37962490D01*
X54819570Y-37996978D01*
X54836620Y-38004040D01*
X54777213Y-38122856D01*
X54768455Y-38145742D01*
X54768136Y-38150223D01*
X54766418Y-38154372D01*
X54764016Y-38178758D01*
X52892027Y-38178758D01*
X52900373Y-38171909D01*
X52995612Y-38076671D01*
X53011157Y-38057729D01*
X53012876Y-38053577D01*
X53015819Y-38050185D01*
X53025809Y-38027810D01*
X53121047Y-37742096D01*
X53123796Y-37730005D01*
X53125060Y-37726954D01*
X53125495Y-37722531D01*
X53126480Y-37718202D01*
X53126246Y-37714911D01*
X53127462Y-37702568D01*
X53127462Y-37512092D01*
X53126246Y-37499748D01*
X53126480Y-37496458D01*
X53125495Y-37492128D01*
X53125060Y-37487706D01*
X53123796Y-37484654D01*
X53121047Y-37472564D01*
X53025809Y-37186849D01*
X53015819Y-37164474D01*
X53012876Y-37161081D01*
X53011157Y-37156930D01*
X52995612Y-37137988D01*
X52805135Y-36947512D01*
X52795546Y-36939643D01*
X52793386Y-36937152D01*
X52789629Y-36934787D01*
X52786193Y-36931967D01*
X52783141Y-36930703D01*
X52772649Y-36924098D01*
X52757007Y-36916277D01*
X54099752Y-36916277D01*
X54099752Y-36965049D01*
X54118416Y-37010109D01*
X54152904Y-37044597D01*
X54197964Y-37063261D01*
X54222350Y-37065663D01*
X56222350Y-37065663D01*
X56246736Y-37063261D01*
X56291796Y-37044597D01*
X56326284Y-37010109D01*
X56344948Y-36965049D01*
X56344948Y-36916277D01*
X56326284Y-36871217D01*
X56291796Y-36836729D01*
X56246736Y-36818065D01*
X56222350Y-36815663D01*
X54222350Y-36815663D01*
X54197964Y-36818065D01*
X54152904Y-36836729D01*
X54118416Y-36871217D01*
X54099752Y-36916277D01*
X52757007Y-36916277D01*
X52582173Y-36828860D01*
X52580387Y-36828176D01*
X52579663Y-36827640D01*
X52569433Y-36823984D01*
X52559287Y-36820102D01*
X52558387Y-36820038D01*
X52556588Y-36819395D01*
X52175636Y-36724157D01*
X52171406Y-36723531D01*
X52169705Y-36722827D01*
X52160523Y-36721922D01*
X52151395Y-36720573D01*
X52149573Y-36720844D01*
X52145319Y-36720425D01*
X51859604Y-36720425D01*
X51855349Y-36720844D01*
X51853527Y-36720573D01*
X51844397Y-36721922D01*
X51835218Y-36722827D01*
X51833516Y-36723531D01*
X51829287Y-36724157D01*
X51448335Y-36819395D01*
X51446535Y-36820038D01*
X51445636Y-36820102D01*
X51435478Y-36823988D01*
X51425260Y-36827640D01*
X51424537Y-36828175D01*
X51422751Y-36828859D01*
X51232274Y-36924098D01*
X51221781Y-36930702D01*
X51218730Y-36931967D01*
X51215293Y-36934787D01*
X51211537Y-36937152D01*
X51209376Y-36939643D01*
X51199788Y-36947512D01*
X51009312Y-37137989D01*
X50993767Y-37156931D01*
X50992048Y-37161080D01*
X50989105Y-37164474D01*
X50979115Y-37186849D01*
X50883877Y-37472564D01*
X50881127Y-37484654D01*
X50879864Y-37487706D01*
X50879428Y-37492128D01*
X50878444Y-37496458D01*
X50878677Y-37499748D01*
X50877462Y-37512092D01*
X49907574Y-37512092D01*
X49907574Y-36940663D01*
X49905172Y-36916277D01*
X49886508Y-36871217D01*
X49852020Y-36836729D01*
X49806960Y-36818065D01*
X49782574Y-36815663D01*
X47782574Y-36815663D01*
X47758188Y-36818065D01*
X47713128Y-36836729D01*
X47678640Y-36871217D01*
X47659976Y-36916277D01*
X47657574Y-36940663D01*
X47435352Y-36940663D01*
X47435352Y-36639315D01*
X57318220Y-36639315D01*
X57321677Y-36687964D01*
X57343489Y-36731589D01*
X57380335Y-36763544D01*
X57402710Y-36773534D01*
X59046954Y-37321614D01*
X57402710Y-37869697D01*
X57380335Y-37879687D01*
X57343489Y-37911642D01*
X57321677Y-37955267D01*
X57318220Y-38003916D01*
X57333643Y-38050185D01*
X57365598Y-38087031D01*
X57409223Y-38108843D01*
X57457872Y-38112300D01*
X57481766Y-38106867D01*
X59481766Y-37440200D01*
X59504141Y-37430210D01*
X59510886Y-37424359D01*
X59518878Y-37420364D01*
X59529146Y-37408523D01*
X59540987Y-37398255D01*
X59544982Y-37390264D01*
X59550833Y-37383518D01*
X59555788Y-37368650D01*
X59562799Y-37354630D01*
X59563432Y-37345720D01*
X59566256Y-37337249D01*
X59565145Y-37321615D01*
X59566256Y-37305981D01*
X59563432Y-37297509D01*
X59562799Y-37288600D01*
X59555788Y-37274579D01*
X59550833Y-37259712D01*
X59544982Y-37252966D01*
X59540987Y-37244975D01*
X59529142Y-37234702D01*
X59518877Y-37222866D01*
X59510890Y-37218872D01*
X59504142Y-37213020D01*
X59481767Y-37203030D01*
X57481766Y-36536364D01*
X57457872Y-36530931D01*
X57409223Y-36534388D01*
X57365598Y-36556200D01*
X57333643Y-36593046D01*
X57318220Y-36639315D01*
X47435352Y-36639315D01*
X47435352Y-36308709D01*
X59789460Y-36308709D01*
X59789460Y-93763895D01*
G37*
M02*
