%TF.GenerationSoftware,KiCad,Pcbnew,10.0.5*%
%TF.CreationDate,2026-08-05T13:38:04+02:00*%
%TF.ProjectId,Simplyfied_Global_Resist_Electronics,53696d70-6c79-4666-9965-645f476c6f62,rev?*%
%TF.SameCoordinates,Original*%
%TF.FileFunction,Soldermask,Bot*%
%TF.FilePolarity,Negative*%
%FSLAX46Y46*%
G04 Gerber Fmt 4.6, Leading zero omitted, Abs format (unit mm)*
G04 Created by KiCad (PCBNEW 10.0.5) date 2026-08-05 13:38:04*
%MOMM*%
%LPD*%
G01*
G04 APERTURE LIST*
G04 Aperture macros list*
%AMRoundRect*
0 Rectangle with rounded corners*
0 $1 Rounding radius*
0 $2 $3 $4 $5 $6 $7 $8 $9 X,Y pos of 4 corners*
0 Add a 4 corners polygon primitive as box body*
4,1,4,$2,$3,$4,$5,$6,$7,$8,$9,$2,$3,0*
0 Add four circle primitives for the rounded corners*
1,1,$1+$1,$2,$3*
1,1,$1+$1,$4,$5*
1,1,$1+$1,$6,$7*
1,1,$1+$1,$8,$9*
0 Add four rect primitives between the rounded corners*
20,1,$1+$1,$2,$3,$4,$5,0*
20,1,$1+$1,$4,$5,$6,$7,0*
20,1,$1+$1,$6,$7,$8,$9,0*
20,1,$1+$1,$8,$9,$2,$3,0*%
G04 Aperture macros list end*
%ADD10RoundRect,0.250000X-0.845000X0.620000X-0.845000X-0.620000X0.845000X-0.620000X0.845000X0.620000X0*%
%ADD11O,2.190000X1.740000*%
%ADD12RoundRect,0.250000X0.845000X-0.620000X0.845000X0.620000X-0.845000X0.620000X-0.845000X-0.620000X0*%
%ADD13RoundRect,0.200000X-0.200000X-0.450000X0.200000X-0.450000X0.200000X0.450000X-0.200000X0.450000X0*%
%ADD14O,0.800000X1.300000*%
%ADD15RoundRect,0.200000X0.200000X0.450000X-0.200000X0.450000X-0.200000X-0.450000X0.200000X-0.450000X0*%
%ADD16R,1.700000X1.700000*%
%ADD17C,1.700000*%
%ADD18RoundRect,0.102000X-0.704000X0.704000X-0.704000X-0.704000X0.704000X-0.704000X0.704000X0.704000X0*%
%ADD19C,1.612000*%
%ADD20R,3.500000X3.500000*%
%ADD21RoundRect,0.750000X0.750000X1.000000X-0.750000X1.000000X-0.750000X-1.000000X0.750000X-1.000000X0*%
%ADD22RoundRect,0.875000X0.875000X0.875000X-0.875000X0.875000X-0.875000X-0.875000X0.875000X-0.875000X0*%
G04 APERTURE END LIST*
D10*
%TO.C,J5*%
X94000000Y-16000000D03*
D11*
X94000000Y-18540000D03*
X94000000Y-21080000D03*
X94000000Y-23620000D03*
X94000000Y-26160000D03*
X94000000Y-28700000D03*
X94000000Y-31240000D03*
X94000000Y-33780000D03*
%TD*%
D12*
%TO.C,J4*%
X65000000Y-33780000D03*
D11*
X65000000Y-31240000D03*
X65000000Y-28700000D03*
X65000000Y-26160000D03*
X65000000Y-23620000D03*
X65000000Y-21080000D03*
X65000000Y-18540000D03*
X65000000Y-16000000D03*
%TD*%
D12*
%TO.C,J3*%
X65000000Y-94025000D03*
D11*
X65000000Y-91485000D03*
X65000000Y-88945000D03*
X65000000Y-86405000D03*
X65000000Y-83865000D03*
X65000000Y-81325000D03*
X65000000Y-78785000D03*
X65000000Y-76245000D03*
%TD*%
D10*
%TO.C,J2*%
X94000000Y-76245000D03*
D11*
X94000000Y-78785000D03*
X94000000Y-81325000D03*
X94000000Y-83865000D03*
X94000000Y-86405000D03*
X94000000Y-88945000D03*
X94000000Y-91485000D03*
X94000000Y-94025000D03*
%TD*%
D13*
%TO.C,P3*%
X15777500Y-60007500D03*
D14*
X17027500Y-60007500D03*
X18277500Y-60007500D03*
X19527500Y-60007500D03*
%TD*%
D15*
%TO.C,Q7*%
X45338437Y-69297500D03*
D14*
X44088437Y-69297500D03*
X42838437Y-69297500D03*
X41588437Y-69297500D03*
X40338437Y-69297500D03*
X39088437Y-69297500D03*
%TD*%
D13*
%TO.C,P2*%
X15777500Y-52700000D03*
D14*
X17027500Y-52700000D03*
X18277500Y-52700000D03*
X19527500Y-52700000D03*
%TD*%
D16*
%TO.C,L_Highdrive4_1*%
X71700000Y-61000000D03*
D17*
X71700000Y-63540000D03*
X71700000Y-66080000D03*
X71700000Y-68620000D03*
X71700000Y-71160000D03*
X71700000Y-73700000D03*
X71700000Y-76240000D03*
X71700000Y-78780000D03*
X71700000Y-81320000D03*
X71700000Y-83860000D03*
X71700000Y-86400000D03*
X71700000Y-88940000D03*
X71700000Y-91480000D03*
X71700000Y-94020000D03*
%TD*%
D15*
%TO.C,Q6*%
X45338437Y-76597500D03*
D14*
X44088437Y-76597500D03*
X42838437Y-76597500D03*
X41588437Y-76597500D03*
X40338437Y-76597500D03*
X39088437Y-76597500D03*
%TD*%
D18*
%TO.C,S1*%
X70002500Y-106800000D03*
D19*
X70002500Y-109300000D03*
X70002500Y-111800000D03*
X76002500Y-106800000D03*
X76002500Y-109300000D03*
X76002500Y-111800000D03*
%TD*%
D13*
%TO.C,Q1*%
X15838437Y-74580375D03*
D14*
X17088437Y-74580375D03*
X18338437Y-74580375D03*
X19588437Y-74580375D03*
X20838437Y-74580375D03*
X22088437Y-74580375D03*
%TD*%
D15*
%TO.C,P6*%
X40152500Y-47520000D03*
D14*
X38902500Y-47520000D03*
X37652500Y-47520000D03*
X36402500Y-47520000D03*
%TD*%
D16*
%TO.C,L_Highdrive4_2*%
X87000000Y-49020000D03*
D17*
X87000000Y-46480000D03*
X87000000Y-43940000D03*
X87000000Y-41400000D03*
X87000000Y-38860000D03*
X87000000Y-36320000D03*
X87000000Y-33780000D03*
X87000000Y-31240000D03*
X87000000Y-28700000D03*
X87000000Y-26160000D03*
X87000000Y-23620000D03*
X87000000Y-21080000D03*
X87000000Y-18540000D03*
X87000000Y-16000000D03*
%TD*%
D13*
%TO.C,Q0*%
X15838437Y-67280375D03*
D14*
X17088437Y-67280375D03*
X18338437Y-67280375D03*
X19588437Y-67280375D03*
X20838437Y-67280375D03*
X22088437Y-67280375D03*
%TD*%
D20*
%TO.C,J1*%
X84002500Y-105600000D03*
D21*
X90002500Y-105600000D03*
D22*
X87002500Y-100900000D03*
%TD*%
D13*
%TO.C,Q3*%
X15838437Y-89180375D03*
D14*
X17088437Y-89180375D03*
X18338437Y-89180375D03*
X19588437Y-89180375D03*
X20838437Y-89180375D03*
X22088437Y-89180375D03*
%TD*%
D15*
%TO.C,P5*%
X40152500Y-54802500D03*
D14*
X38902500Y-54802500D03*
X37652500Y-54802500D03*
X36402500Y-54802500D03*
%TD*%
D15*
%TO.C,Q5*%
X45338437Y-83897500D03*
D14*
X44088437Y-83897500D03*
X42838437Y-83897500D03*
X41588437Y-83897500D03*
X40338437Y-83897500D03*
X39088437Y-83897500D03*
%TD*%
D15*
%TO.C,Q4*%
X45313437Y-91174625D03*
D14*
X44063437Y-91174625D03*
X42813437Y-91174625D03*
X41563437Y-91174625D03*
X40313437Y-91174625D03*
X39063437Y-91174625D03*
%TD*%
D13*
%TO.C,Q2*%
X15838437Y-81880375D03*
D14*
X17088437Y-81880375D03*
X18338437Y-81880375D03*
X19588437Y-81880375D03*
X20838437Y-81880375D03*
X22088437Y-81880375D03*
%TD*%
D15*
%TO.C,P7*%
X40152500Y-40240000D03*
D14*
X38902500Y-40240000D03*
X37652500Y-40240000D03*
X36402500Y-40240000D03*
%TD*%
D16*
%TO.C,R_Highdrive4_2*%
X71700000Y-49020000D03*
D17*
X71700000Y-46480000D03*
X71700000Y-43940000D03*
X71700000Y-41400000D03*
X71700000Y-38860000D03*
X71700000Y-36320000D03*
X71700000Y-33780000D03*
X71700000Y-31240000D03*
X71700000Y-28700000D03*
X71700000Y-26160000D03*
X71700000Y-23620000D03*
X71700000Y-21080000D03*
X71700000Y-18540000D03*
X71700000Y-16000000D03*
%TD*%
D15*
%TO.C,P4*%
X40152500Y-62102500D03*
D14*
X38902500Y-62102500D03*
X37652500Y-62102500D03*
X36402500Y-62102500D03*
%TD*%
D13*
%TO.C,P1*%
X15755441Y-45400000D03*
D14*
X17005441Y-45400000D03*
X18255441Y-45400000D03*
X19505441Y-45400000D03*
%TD*%
D16*
%TO.C,L-ESP32-C3*%
X38150000Y-15950000D03*
D17*
X35610000Y-15950000D03*
X38150000Y-18490000D03*
X35610000Y-18490000D03*
X38150000Y-21030000D03*
X35610000Y-21030000D03*
X38150000Y-23570000D03*
X35610000Y-23570000D03*
X38150000Y-26110000D03*
X35610000Y-26110000D03*
X38150000Y-28650000D03*
X35610000Y-28650000D03*
X38150000Y-31190000D03*
X35610000Y-31190000D03*
X38150000Y-33730000D03*
X35610000Y-33730000D03*
%TD*%
D16*
%TO.C,R-ESP32-C3*%
X55990000Y-15950000D03*
D17*
X53450000Y-15950000D03*
X55990000Y-18490000D03*
X53450000Y-18490000D03*
X55990000Y-21030000D03*
X53450000Y-21030000D03*
X55990000Y-23570000D03*
X53450000Y-23570000D03*
X55990000Y-26110000D03*
X53450000Y-26110000D03*
X55990000Y-28650000D03*
X53450000Y-28650000D03*
X55990000Y-31190000D03*
X53450000Y-31190000D03*
X55990000Y-33730000D03*
X53450000Y-33730000D03*
%TD*%
D13*
%TO.C,P0*%
X15755441Y-38100000D03*
D14*
X17005441Y-38100000D03*
X18255441Y-38100000D03*
X19505441Y-38100000D03*
%TD*%
D16*
%TO.C,SPI_SD-Card_1*%
X28850000Y-15960000D03*
D17*
X28850000Y-18500000D03*
X28850000Y-21040000D03*
X28850000Y-23580000D03*
X28850000Y-26120000D03*
X28850000Y-28660000D03*
%TD*%
D16*
%TO.C,R_Highdrive4_1*%
X87000000Y-61000000D03*
D17*
X87000000Y-63540000D03*
X87000000Y-66080000D03*
X87000000Y-68620000D03*
X87000000Y-71160000D03*
X87000000Y-73700000D03*
X87000000Y-76240000D03*
X87000000Y-78780000D03*
X87000000Y-81320000D03*
X87000000Y-83860000D03*
X87000000Y-86400000D03*
X87000000Y-88940000D03*
X87000000Y-91480000D03*
X87000000Y-94020000D03*
%TD*%
M02*
