M48
; DRILL file KiCad 10.0.5 date 2026-08-05T13:38:10
; FORMAT={-:-/ absolute / metric / decimal}
; #@! TF.CreationDate,2026-08-05T13:38:10+02:00
; #@! TF.GenerationSoftware,Kicad,Pcbnew,10.0.5
; #@! TF.FileFunction,Plated,1,4,PTH
FMAT,2
METRIC
; #@! TA.AperFunction,Plated,PTH,ViaDrill
T1C0.300
; #@! TA.AperFunction,Plated,PTH,ViaDrill
T2C0.500
; #@! TA.AperFunction,Plated,PTH,ComponentDrill
T3C0.500
; #@! TA.AperFunction,Plated,PTH,ComponentDrill
T4C0.900
; #@! TA.AperFunction,Plated,PTH,ComponentDrill
T5C1.000
; #@! TA.AperFunction,Plated,PTH,ComponentDrill
T6C1.190
%
G90
G05
T1
X32.15Y-43.85
X32.309Y-46.302
X32.95Y-43.85
X35.013Y-75.752
X35.05Y-73.55
X35.95Y-73.55
X54.1Y-53.3
X54.1Y-58.05
X55.487Y-51.11
X55.487Y-60.29
X56.975Y-51.11
X57.025Y-60.29
X58.487Y-58.05
X58.537Y-53.35
T2
X17.006Y-42.102
X17.006Y-49.402
X17.006Y-56.703
X17.006Y-64.002
X18.963Y-71.302
X18.963Y-78.653
X18.963Y-85.902
X18.963Y-93.203
X24.902Y-39.37
X25.135Y-43.652
X25.152Y-52.703
X27.206Y-40.502
X27.206Y-42.078
X27.492Y-68.809
X27.691Y-73.052
X27.713Y-82.152
X29.792Y-69.953
X29.792Y-71.502
X29.956Y-40.502
X29.956Y-42.078
X30.852Y-43.652
X32.542Y-69.953
X32.542Y-71.502
X33.501Y-73.052
X37.205Y-107.69
X37.205Y-111.69
X38.365Y-109.7
X38.906Y-36.22
X38.906Y-43.5
X38.906Y-50.782
X38.906Y-58.082
X40.805Y-100.0
X41.115Y-113.6
X42.163Y-65.302
X42.213Y-72.602
X42.213Y-79.953
X42.213Y-87.252
X42.99Y-101.05
X45.115Y-100.0
X47.215Y-113.6
X53.715Y-106.0
X53.715Y-108.5
X53.715Y-111.0
X60.515Y-115.2
X63.315Y-115.0
X64.915Y-113.2
X66.515Y-115.0
X78.4Y-98.3
X78.5Y-108.8
X79.4Y-99.4
X79.4Y-107.7
X80.3Y-108.8
X80.4Y-98.3
T3
X15.755Y-38.1
X15.755Y-45.4
X15.777Y-52.7
X15.777Y-60.008
X15.838Y-67.28
X15.838Y-74.58
X15.838Y-81.88
X15.838Y-89.18
X17.005Y-38.1
X17.005Y-45.4
X17.027Y-52.7
X17.027Y-60.008
X17.088Y-67.28
X17.088Y-74.58
X17.088Y-81.88
X17.088Y-89.18
X18.255Y-38.1
X18.255Y-45.4
X18.277Y-52.7
X18.277Y-60.008
X18.338Y-67.28
X18.338Y-74.58
X18.338Y-81.88
X18.338Y-89.18
X19.505Y-38.1
X19.505Y-45.4
X19.527Y-52.7
X19.527Y-60.008
X19.588Y-67.28
X19.588Y-74.58
X19.588Y-81.88
X19.588Y-89.18
X20.838Y-67.28
X20.838Y-74.58
X20.838Y-81.88
X20.838Y-89.18
X22.088Y-67.28
X22.088Y-74.58
X22.088Y-81.88
X22.088Y-89.18
X36.402Y-40.24
X36.402Y-47.52
X36.402Y-54.802
X36.402Y-62.102
X37.652Y-40.24
X37.652Y-47.52
X37.652Y-54.802
X37.652Y-62.102
X38.902Y-40.24
X38.902Y-47.52
X38.902Y-54.802
X38.902Y-62.102
X39.063Y-91.175
X39.088Y-69.297
X39.088Y-76.597
X39.088Y-83.897
X40.152Y-40.24
X40.152Y-47.52
X40.152Y-54.802
X40.152Y-62.102
X40.313Y-91.175
X40.338Y-69.297
X40.338Y-76.597
X40.338Y-83.897
X41.563Y-91.175
X41.588Y-69.297
X41.588Y-76.597
X41.588Y-83.897
X42.813Y-91.175
X42.838Y-69.297
X42.838Y-76.597
X42.838Y-83.897
X44.063Y-91.175
X44.088Y-69.297
X44.088Y-76.597
X44.088Y-83.897
X45.313Y-91.175
X45.338Y-69.297
X45.338Y-76.597
X45.338Y-83.897
T4
X70.002Y-106.8
X70.002Y-109.3
X70.002Y-111.8
X76.002Y-106.8
X76.002Y-109.3
X76.002Y-111.8
T5
X28.85Y-15.96
X28.85Y-18.5
X28.85Y-21.04
X28.85Y-23.58
X28.85Y-26.12
X28.85Y-28.66
X35.61Y-15.95
X35.61Y-18.49
X35.61Y-21.03
X35.61Y-23.57
X35.61Y-26.11
X35.61Y-28.65
X35.61Y-31.19
X35.61Y-33.73
X38.15Y-15.95
X38.15Y-18.49
X38.15Y-21.03
X38.15Y-23.57
X38.15Y-26.11
X38.15Y-28.65
X38.15Y-31.19
X38.15Y-33.73
X53.45Y-15.95
X53.45Y-18.49
X53.45Y-21.03
X53.45Y-23.57
X53.45Y-26.11
X53.45Y-28.65
X53.45Y-31.19
X53.45Y-33.73
X55.99Y-15.95
X55.99Y-18.49
X55.99Y-21.03
X55.99Y-23.57
X55.99Y-26.11
X55.99Y-28.65
X55.99Y-31.19
X55.99Y-33.73
X71.7Y-16.0
X71.7Y-18.54
X71.7Y-21.08
X71.7Y-23.62
X71.7Y-26.16
X71.7Y-28.7
X71.7Y-31.24
X71.7Y-33.78
X71.7Y-36.32
X71.7Y-38.86
X71.7Y-41.4
X71.7Y-43.94
X71.7Y-46.48
X71.7Y-49.02
X71.7Y-61.0
X71.7Y-63.54
X71.7Y-66.08
X71.7Y-68.62
X71.7Y-71.16
X71.7Y-73.7
X71.7Y-76.24
X71.7Y-78.78
X71.7Y-81.32
X71.7Y-83.86
X71.7Y-86.4
X71.7Y-88.94
X71.7Y-91.48
X71.7Y-94.02
X87.0Y-16.0
X87.0Y-18.54
X87.0Y-21.08
X87.0Y-23.62
X87.0Y-26.16
X87.0Y-28.7
X87.0Y-31.24
X87.0Y-33.78
X87.0Y-36.32
X87.0Y-38.86
X87.0Y-41.4
X87.0Y-43.94
X87.0Y-46.48
X87.0Y-49.02
X87.0Y-61.0
X87.0Y-63.54
X87.0Y-66.08
X87.0Y-68.62
X87.0Y-71.16
X87.0Y-73.7
X87.0Y-76.24
X87.0Y-78.78
X87.0Y-81.32
X87.0Y-83.86
X87.0Y-86.4
X87.0Y-88.94
X87.0Y-91.48
X87.0Y-94.02
T6
X65.0Y-16.0
X65.0Y-18.54
X65.0Y-21.08
X65.0Y-23.62
X65.0Y-26.16
X65.0Y-28.7
X65.0Y-31.24
X65.0Y-33.78
X65.0Y-76.245
X65.0Y-78.785
X65.0Y-81.325
X65.0Y-83.865
X65.0Y-86.405
X65.0Y-88.945
X65.0Y-91.485
X65.0Y-94.025
X94.0Y-16.0
X94.0Y-18.54
X94.0Y-21.08
X94.0Y-23.62
X94.0Y-26.16
X94.0Y-28.7
X94.0Y-31.24
X94.0Y-33.78
X94.0Y-76.245
X94.0Y-78.785
X94.0Y-81.325
X94.0Y-83.865
X94.0Y-86.405
X94.0Y-88.945
X94.0Y-91.485
X94.0Y-94.025
T5
X84.002Y-106.6G85X84.002Y-104.6
G05
X88.002Y-100.9G85X86.002Y-100.9
G05
X90.002Y-106.6G85X90.002Y-104.6
G05
M30
