%TF.GenerationSoftware,KiCad,Pcbnew,10.0.5*%
%TF.CreationDate,2026-08-05T13:38:04+02:00*%
%TF.ProjectId,Simplyfied_Global_Resist_Electronics,53696d70-6c79-4666-9965-645f476c6f62,rev?*%
%TF.SameCoordinates,Original*%
%TF.FileFunction,Soldermask,Top*%
%TF.FilePolarity,Negative*%
%FSLAX46Y46*%
G04 Gerber Fmt 4.6, Leading zero omitted, Abs format (unit mm)*
G04 Created by KiCad (PCBNEW 10.0.5) date 2026-08-05 13:38:04*
%MOMM*%
%LPD*%
G01*
G04 APERTURE LIST*
G04 Aperture macros list*
%AMRoundRect*
0 Rectangle with rounded corners*
0 $1 Rounding radius*
0 $2 $3 $4 $5 $6 $7 $8 $9 X,Y pos of 4 corners*
0 Add a 4 corners polygon primitive as box body*
4,1,4,$2,$3,$4,$5,$6,$7,$8,$9,$2,$3,0*
0 Add four circle primitives for the rounded corners*
1,1,$1+$1,$2,$3*
1,1,$1+$1,$4,$5*
1,1,$1+$1,$6,$7*
1,1,$1+$1,$8,$9*
0 Add four rect primitives between the rounded corners*
20,1,$1+$1,$2,$3,$4,$5,0*
20,1,$1+$1,$4,$5,$6,$7,0*
20,1,$1+$1,$6,$7,$8,$9,0*
20,1,$1+$1,$8,$9,$2,$3,0*%
G04 Aperture macros list end*
%ADD10RoundRect,0.250000X-0.845000X0.620000X-0.845000X-0.620000X0.845000X-0.620000X0.845000X0.620000X0*%
%ADD11O,2.190000X1.740000*%
%ADD12RoundRect,0.250000X0.845000X-0.620000X0.845000X0.620000X-0.845000X0.620000X-0.845000X-0.620000X0*%
%ADD13RoundRect,0.200000X0.275000X-0.200000X0.275000X0.200000X-0.275000X0.200000X-0.275000X-0.200000X0*%
%ADD14RoundRect,0.200000X-0.200000X-0.450000X0.200000X-0.450000X0.200000X0.450000X-0.200000X0.450000X0*%
%ADD15O,0.800000X1.300000*%
%ADD16RoundRect,0.200000X-0.275000X0.200000X-0.275000X-0.200000X0.275000X-0.200000X0.275000X0.200000X0*%
%ADD17RoundRect,0.200000X0.200000X0.450000X-0.200000X0.450000X-0.200000X-0.450000X0.200000X-0.450000X0*%
%ADD18RoundRect,0.225000X-0.250000X0.225000X-0.250000X-0.225000X0.250000X-0.225000X0.250000X0.225000X0*%
%ADD19R,1.700000X1.700000*%
%ADD20C,1.700000*%
%ADD21RoundRect,0.225000X0.225000X0.250000X-0.225000X0.250000X-0.225000X-0.250000X0.225000X-0.250000X0*%
%ADD22RoundRect,0.102000X-0.704000X0.704000X-0.704000X-0.704000X0.704000X-0.704000X0.704000X0.704000X0*%
%ADD23C,1.612000*%
%ADD24RoundRect,0.225000X-0.225000X-0.250000X0.225000X-0.250000X0.225000X0.250000X-0.225000X0.250000X0*%
%ADD25RoundRect,0.175750X0.531250X0.221250X-0.531250X0.221250X-0.531250X-0.221250X0.531250X-0.221250X0*%
%ADD26RoundRect,0.100000X-0.637500X-0.100000X0.637500X-0.100000X0.637500X0.100000X-0.637500X0.100000X0*%
%ADD27R,3.500000X3.500000*%
%ADD28RoundRect,0.750000X0.750000X1.000000X-0.750000X1.000000X-0.750000X-1.000000X0.750000X-1.000000X0*%
%ADD29RoundRect,0.875000X0.875000X0.875000X-0.875000X0.875000X-0.875000X-0.875000X0.875000X-0.875000X0*%
%ADD30RoundRect,0.250000X0.250000X0.475000X-0.250000X0.475000X-0.250000X-0.475000X0.250000X-0.475000X0*%
%ADD31RoundRect,0.250000X0.850000X0.350000X-0.850000X0.350000X-0.850000X-0.350000X0.850000X-0.350000X0*%
%ADD32RoundRect,0.249997X2.950003X2.650003X-2.950003X2.650003X-2.950003X-2.650003X2.950003X-2.650003X0*%
%ADD33RoundRect,0.250000X0.450000X-0.262500X0.450000X0.262500X-0.450000X0.262500X-0.450000X-0.262500X0*%
%ADD34RoundRect,0.375000X0.375000X-0.625000X0.375000X0.625000X-0.375000X0.625000X-0.375000X-0.625000X0*%
%ADD35RoundRect,0.500000X1.400000X-0.500000X1.400000X0.500000X-1.400000X0.500000X-1.400000X-0.500000X0*%
%ADD36RoundRect,0.250000X0.650000X-1.000000X0.650000X1.000000X-0.650000X1.000000X-0.650000X-1.000000X0*%
%ADD37RoundRect,0.250000X-0.250000X-0.475000X0.250000X-0.475000X0.250000X0.475000X-0.250000X0.475000X0*%
%ADD38RoundRect,0.250000X-0.650000X1.000000X-0.650000X-1.000000X0.650000X-1.000000X0.650000X1.000000X0*%
%ADD39RoundRect,0.250000X1.000000X0.650000X-1.000000X0.650000X-1.000000X-0.650000X1.000000X-0.650000X0*%
%ADD40RoundRect,0.250000X-0.475000X0.250000X-0.475000X-0.250000X0.475000X-0.250000X0.475000X0.250000X0*%
%ADD41RoundRect,0.135750X-0.101250X0.526250X-0.101250X-0.526250X0.101250X-0.526250X0.101250X0.526250X0*%
G04 APERTURE END LIST*
D10*
%TO.C,J5*%
X94000000Y-16000000D03*
D11*
X94000000Y-18540000D03*
X94000000Y-21080000D03*
X94000000Y-23620000D03*
X94000000Y-26160000D03*
X94000000Y-28700000D03*
X94000000Y-31240000D03*
X94000000Y-33780000D03*
%TD*%
D12*
%TO.C,J4*%
X65000000Y-33780000D03*
D11*
X65000000Y-31240000D03*
X65000000Y-28700000D03*
X65000000Y-26160000D03*
X65000000Y-23620000D03*
X65000000Y-21080000D03*
X65000000Y-18540000D03*
X65000000Y-16000000D03*
%TD*%
D12*
%TO.C,J3*%
X65000000Y-94025000D03*
D11*
X65000000Y-91485000D03*
X65000000Y-88945000D03*
X65000000Y-86405000D03*
X65000000Y-83865000D03*
X65000000Y-81325000D03*
X65000000Y-78785000D03*
X65000000Y-76245000D03*
%TD*%
D10*
%TO.C,J2*%
X94000000Y-76245000D03*
D11*
X94000000Y-78785000D03*
X94000000Y-81325000D03*
X94000000Y-83865000D03*
X94000000Y-86405000D03*
X94000000Y-88945000D03*
X94000000Y-91485000D03*
X94000000Y-94025000D03*
%TD*%
D13*
%TO.C,R23*%
X37752500Y-45145000D03*
X37752500Y-43495000D03*
%TD*%
%TO.C,R22*%
X36252500Y-45145000D03*
X36252500Y-43495000D03*
%TD*%
D14*
%TO.C,P3*%
X15777500Y-60007500D03*
D15*
X17027500Y-60007500D03*
X18277500Y-60007500D03*
X19527500Y-60007500D03*
%TD*%
D16*
%TO.C,R30*%
X17113437Y-84227500D03*
X17113437Y-85877500D03*
%TD*%
%TO.C,R13*%
X18174559Y-47777500D03*
X18174559Y-49427500D03*
%TD*%
D17*
%TO.C,Q7*%
X45338437Y-69297500D03*
D15*
X44088437Y-69297500D03*
X42838437Y-69297500D03*
X41588437Y-69297500D03*
X40338437Y-69297500D03*
X39088437Y-69297500D03*
%TD*%
D16*
%TO.C,R27*%
X20813437Y-69627500D03*
X20813437Y-71277500D03*
%TD*%
D13*
%TO.C,R34*%
X44063437Y-88849625D03*
X44063437Y-87199625D03*
%TD*%
D16*
%TO.C,R28*%
X17113437Y-76927500D03*
X17113437Y-78577500D03*
%TD*%
D18*
%TO.C,C6*%
X30975937Y-69965000D03*
X30975937Y-71515000D03*
%TD*%
D16*
%TO.C,R12*%
X19652500Y-47777500D03*
X19652500Y-49427500D03*
%TD*%
D18*
%TO.C,C8*%
X28352500Y-40527500D03*
X28352500Y-42077500D03*
%TD*%
D13*
%TO.C,R38*%
X44063437Y-74249625D03*
X44063437Y-72599625D03*
%TD*%
%TO.C,R25*%
X37752500Y-37865000D03*
X37752500Y-36215000D03*
%TD*%
D16*
%TO.C,R15*%
X18174559Y-55077500D03*
X18174559Y-56727500D03*
%TD*%
%TO.C,R29*%
X20813437Y-76927500D03*
X20813437Y-78577500D03*
%TD*%
D14*
%TO.C,P2*%
X15777500Y-52700000D03*
D15*
X17027500Y-52700000D03*
X18277500Y-52700000D03*
X19527500Y-52700000D03*
%TD*%
D13*
%TO.C,R41*%
X40313437Y-66999625D03*
X40313437Y-65349625D03*
%TD*%
D19*
%TO.C,L_Highdrive4_1*%
X71700000Y-61000000D03*
D20*
X71700000Y-63540000D03*
X71700000Y-66080000D03*
X71700000Y-68620000D03*
X71700000Y-71160000D03*
X71700000Y-73700000D03*
X71700000Y-76240000D03*
X71700000Y-78780000D03*
X71700000Y-81320000D03*
X71700000Y-83860000D03*
X71700000Y-86400000D03*
X71700000Y-88940000D03*
X71700000Y-91480000D03*
X71700000Y-94020000D03*
%TD*%
D13*
%TO.C,R39*%
X40363437Y-74249625D03*
X40363437Y-72599625D03*
%TD*%
%TO.C,R35*%
X40263437Y-88849625D03*
X40263437Y-87199625D03*
%TD*%
D16*
%TO.C,R17*%
X18174559Y-62377500D03*
X18174559Y-64027500D03*
%TD*%
D21*
%TO.C,C10*%
X57012500Y-59250000D03*
X55462500Y-59250000D03*
%TD*%
D16*
%TO.C,R31*%
X20813437Y-84227500D03*
X20813437Y-85877500D03*
%TD*%
D13*
%TO.C,R24*%
X36252500Y-37865000D03*
X36252500Y-36215000D03*
%TD*%
D17*
%TO.C,Q6*%
X45338437Y-76597500D03*
D15*
X44088437Y-76597500D03*
X42838437Y-76597500D03*
X41588437Y-76597500D03*
X40338437Y-76597500D03*
X39088437Y-76597500D03*
%TD*%
D22*
%TO.C,S1*%
X70002500Y-106800000D03*
D23*
X70002500Y-109300000D03*
X70002500Y-111800000D03*
X76002500Y-106800000D03*
X76002500Y-109300000D03*
X76002500Y-111800000D03*
%TD*%
D24*
%TO.C,C9*%
X55462500Y-52150000D03*
X57012500Y-52150000D03*
%TD*%
D14*
%TO.C,Q1*%
X15838437Y-74580375D03*
D15*
X17088437Y-74580375D03*
X18338437Y-74580375D03*
X19588437Y-74580375D03*
X20838437Y-74580375D03*
X22088437Y-74580375D03*
%TD*%
D17*
%TO.C,P6*%
X40152500Y-47520000D03*
D15*
X38902500Y-47520000D03*
X37652500Y-47520000D03*
X36402500Y-47520000D03*
%TD*%
D13*
%TO.C,R20*%
X36252500Y-52427500D03*
X36252500Y-50777500D03*
%TD*%
D16*
%TO.C,R11*%
X18174559Y-40477500D03*
X18174559Y-42127500D03*
%TD*%
D25*
%TO.C,Q8*%
X73400000Y-102750000D03*
X73400000Y-100850000D03*
X70890000Y-101800000D03*
%TD*%
D13*
%TO.C,R8*%
X24902500Y-42127500D03*
X24902500Y-40477500D03*
%TD*%
D19*
%TO.C,L_Highdrive4_2*%
X87000000Y-49020000D03*
D20*
X87000000Y-46480000D03*
X87000000Y-43940000D03*
X87000000Y-41400000D03*
X87000000Y-38860000D03*
X87000000Y-36320000D03*
X87000000Y-33780000D03*
X87000000Y-31240000D03*
X87000000Y-28700000D03*
X87000000Y-26160000D03*
X87000000Y-23620000D03*
X87000000Y-21080000D03*
X87000000Y-18540000D03*
X87000000Y-16000000D03*
%TD*%
D26*
%TO.C,MUX2*%
X25127500Y-44602500D03*
X25127500Y-45252500D03*
X25127500Y-45902500D03*
X25127500Y-46552500D03*
X25127500Y-47202500D03*
X25127500Y-47852500D03*
X25127500Y-48502500D03*
X25127500Y-49152500D03*
X25127500Y-49802500D03*
X25127500Y-50452500D03*
X25127500Y-51102500D03*
X25127500Y-51752500D03*
X30852500Y-51752500D03*
X30852500Y-51102500D03*
X30852500Y-50452500D03*
X30852500Y-49802500D03*
X30852500Y-49152500D03*
X30852500Y-48502500D03*
X30852500Y-47852500D03*
X30852500Y-47202500D03*
X30852500Y-46552500D03*
X30852500Y-45902500D03*
X30852500Y-45252500D03*
X30852500Y-44602500D03*
%TD*%
D14*
%TO.C,Q0*%
X15838437Y-67280375D03*
D15*
X17088437Y-67280375D03*
X18338437Y-67280375D03*
X19588437Y-67280375D03*
X20838437Y-67280375D03*
X22088437Y-67280375D03*
%TD*%
D27*
%TO.C,J1*%
X84002500Y-105600000D03*
D28*
X90002500Y-105600000D03*
D29*
X87002500Y-100900000D03*
%TD*%
D13*
%TO.C,R21*%
X37752500Y-52427500D03*
X37752500Y-50777500D03*
%TD*%
D30*
%TO.C,C4*%
X43015000Y-112000000D03*
X41115000Y-112000000D03*
%TD*%
D13*
%TO.C,R40*%
X44063437Y-66949625D03*
X44063437Y-65299625D03*
%TD*%
D16*
%TO.C,R10*%
X19674559Y-40477500D03*
X19674559Y-42127500D03*
%TD*%
D14*
%TO.C,Q3*%
X15838437Y-89180375D03*
D15*
X17088437Y-89180375D03*
X18338437Y-89180375D03*
X19588437Y-89180375D03*
X20838437Y-89180375D03*
X22088437Y-89180375D03*
%TD*%
D16*
%TO.C,R33*%
X20838437Y-91505375D03*
X20838437Y-93155375D03*
%TD*%
D13*
%TO.C,R19*%
X37752500Y-59727500D03*
X37752500Y-58077500D03*
%TD*%
%TO.C,R37*%
X40363437Y-81549625D03*
X40363437Y-79899625D03*
%TD*%
%TO.C,R7*%
X27463437Y-71577500D03*
X27463437Y-69927500D03*
%TD*%
D16*
%TO.C,R26*%
X17113437Y-69627500D03*
X17113437Y-71277500D03*
%TD*%
D17*
%TO.C,P5*%
X40152500Y-54802500D03*
D15*
X38902500Y-54802500D03*
X37652500Y-54802500D03*
X36402500Y-54802500D03*
%TD*%
D13*
%TO.C,R18*%
X36252500Y-59727500D03*
X36252500Y-58077500D03*
%TD*%
D16*
%TO.C,R9*%
X54250000Y-54875000D03*
X54250000Y-56525000D03*
%TD*%
D18*
%TO.C,C5*%
X33725937Y-69965000D03*
X33725937Y-71515000D03*
%TD*%
D17*
%TO.C,Q5*%
X45338437Y-83897500D03*
D15*
X44088437Y-83897500D03*
X42838437Y-83897500D03*
X41588437Y-83897500D03*
X40338437Y-83897500D03*
X39088437Y-83897500D03*
%TD*%
D31*
%TO.C,U2*%
X64940000Y-110805000D03*
D32*
X58640000Y-108525000D03*
D31*
X64940000Y-106245000D03*
%TD*%
D33*
%TO.C,R5*%
X76002500Y-102737500D03*
X76002500Y-100912500D03*
%TD*%
D17*
%TO.C,Q4*%
X45313437Y-91174625D03*
D15*
X44063437Y-91174625D03*
X42813437Y-91174625D03*
X41563437Y-91174625D03*
X40313437Y-91174625D03*
X39063437Y-91174625D03*
%TD*%
D16*
%TO.C,R16*%
X19674559Y-62377500D03*
X19674559Y-64027500D03*
%TD*%
D34*
%TO.C,U1*%
X40715000Y-109650000D03*
X43015000Y-109650000D03*
D35*
X43015000Y-103350000D03*
D34*
X45315000Y-109650000D03*
%TD*%
D36*
%TO.C,D2*%
X50015000Y-108500000D03*
X50015000Y-104500000D03*
%TD*%
D14*
%TO.C,Q2*%
X15838437Y-81880375D03*
D15*
X17088437Y-81880375D03*
X18338437Y-81880375D03*
X19588437Y-81880375D03*
X20838437Y-81880375D03*
X22088437Y-81880375D03*
%TD*%
D17*
%TO.C,P7*%
X40152500Y-40240000D03*
D15*
X38902500Y-40240000D03*
X37652500Y-40240000D03*
X36402500Y-40240000D03*
%TD*%
D16*
%TO.C,R32*%
X17113437Y-91505375D03*
X17113437Y-93155375D03*
%TD*%
D19*
%TO.C,R_Highdrive4_2*%
X71700000Y-49020000D03*
D20*
X71700000Y-46480000D03*
X71700000Y-43940000D03*
X71700000Y-41400000D03*
X71700000Y-38860000D03*
X71700000Y-36320000D03*
X71700000Y-33780000D03*
X71700000Y-31240000D03*
X71700000Y-28700000D03*
X71700000Y-26160000D03*
X71700000Y-23620000D03*
X71700000Y-21080000D03*
X71700000Y-18540000D03*
X71700000Y-16000000D03*
%TD*%
D37*
%TO.C,C2*%
X58615000Y-113600000D03*
X60515000Y-113600000D03*
%TD*%
D38*
%TO.C,D1*%
X79402500Y-101600000D03*
X79402500Y-105600000D03*
%TD*%
D17*
%TO.C,P4*%
X40152500Y-62102500D03*
D15*
X38902500Y-62102500D03*
X37652500Y-62102500D03*
X36402500Y-62102500D03*
%TD*%
D14*
%TO.C,P1*%
X15755441Y-45400000D03*
D15*
X17005441Y-45400000D03*
X18255441Y-45400000D03*
X19505441Y-45400000D03*
%TD*%
D39*
%TO.C,D3*%
X64915000Y-101800000D03*
X60915000Y-101800000D03*
%TD*%
D40*
%TO.C,C1*%
X67350000Y-107575000D03*
X67350000Y-109475000D03*
%TD*%
D37*
%TO.C,C3*%
X45315000Y-112000000D03*
X47215000Y-112000000D03*
%TD*%
D41*
%TO.C,U3*%
X57000000Y-54290000D03*
X56500000Y-54290000D03*
X56000000Y-54290000D03*
X55500000Y-54290000D03*
X55500000Y-57100000D03*
X56000000Y-57100000D03*
X56500000Y-57100000D03*
X57000000Y-57100000D03*
%TD*%
D26*
%TO.C,MUX1*%
X27738437Y-74033750D03*
X27738437Y-74683750D03*
X27738437Y-75333750D03*
X27738437Y-75983750D03*
X27738437Y-76633750D03*
X27738437Y-77283750D03*
X27738437Y-77933750D03*
X27738437Y-78583750D03*
X27738437Y-79233750D03*
X27738437Y-79883750D03*
X27738437Y-80533750D03*
X27738437Y-81183750D03*
X33463437Y-81183750D03*
X33463437Y-80533750D03*
X33463437Y-79883750D03*
X33463437Y-79233750D03*
X33463437Y-78583750D03*
X33463437Y-77933750D03*
X33463437Y-77283750D03*
X33463437Y-76633750D03*
X33463437Y-75983750D03*
X33463437Y-75333750D03*
X33463437Y-74683750D03*
X33463437Y-74033750D03*
%TD*%
D13*
%TO.C,R36*%
X44063437Y-81549625D03*
X44063437Y-79899625D03*
%TD*%
D18*
%TO.C,C7*%
X31102500Y-40527500D03*
X31102500Y-42077500D03*
%TD*%
D19*
%TO.C,L-ESP32-C3*%
X38150000Y-15950000D03*
D20*
X35610000Y-15950000D03*
X38150000Y-18490000D03*
X35610000Y-18490000D03*
X38150000Y-21030000D03*
X35610000Y-21030000D03*
X38150000Y-23570000D03*
X35610000Y-23570000D03*
X38150000Y-26110000D03*
X35610000Y-26110000D03*
X38150000Y-28650000D03*
X35610000Y-28650000D03*
X38150000Y-31190000D03*
X35610000Y-31190000D03*
X38150000Y-33730000D03*
X35610000Y-33730000D03*
%TD*%
D19*
%TO.C,R-ESP32-C3*%
X55990000Y-15950000D03*
D20*
X53450000Y-15950000D03*
X55990000Y-18490000D03*
X53450000Y-18490000D03*
X55990000Y-21030000D03*
X53450000Y-21030000D03*
X55990000Y-23570000D03*
X53450000Y-23570000D03*
X55990000Y-26110000D03*
X53450000Y-26110000D03*
X55990000Y-28650000D03*
X53450000Y-28650000D03*
X55990000Y-31190000D03*
X53450000Y-31190000D03*
X55990000Y-33730000D03*
X53450000Y-33730000D03*
%TD*%
D14*
%TO.C,P0*%
X15755441Y-38100000D03*
D15*
X17005441Y-38100000D03*
X18255441Y-38100000D03*
X19505441Y-38100000D03*
%TD*%
D16*
%TO.C,R14*%
X19674559Y-55077500D03*
X19674559Y-56727500D03*
%TD*%
D19*
%TO.C,SPI_SD-Card_1*%
X28850000Y-15960000D03*
D20*
X28850000Y-18500000D03*
X28850000Y-21040000D03*
X28850000Y-23580000D03*
X28850000Y-26120000D03*
X28850000Y-28660000D03*
%TD*%
D19*
%TO.C,R_Highdrive4_1*%
X87000000Y-61000000D03*
D20*
X87000000Y-63540000D03*
X87000000Y-66080000D03*
X87000000Y-68620000D03*
X87000000Y-71160000D03*
X87000000Y-73700000D03*
X87000000Y-76240000D03*
X87000000Y-78780000D03*
X87000000Y-81320000D03*
X87000000Y-83860000D03*
X87000000Y-86400000D03*
X87000000Y-88940000D03*
X87000000Y-91480000D03*
X87000000Y-94020000D03*
%TD*%
M02*
